<?xml version="1.0" standalone="no"?>
<!DOCTYPE svg PUBLIC "-//W3C//DTD SVG 1.1//EN" "http://www.w3.org/Graphics/SVG/1.1/DTD/svg11.dtd" >
<svg>
<metadata>
Created by FontForge 20120731 at Mon Aug  8 22:38:07 2016
 By Apache
Copyright (c) 2013 by Miguel &#38; Daniel Herna'ndez. All rights reserved.
</metadata>
<defs>
<font id="ArquitectaBold" horiz-adv-x="550" >
  <font-face 
    font-family="Arquitecta Bold"
    font-weight="700"
    font-stretch="normal"
    units-per-em="1000"
    panose-1="0 0 0 0 0 0 0 0 0 0"
    ascent="750"
    descent="-250"
    x-height="346"
    cap-height="600"
    bbox="-169 -250 1038 923"
    underline-thickness="50"
    underline-position="-50"
    unicode-range="U+000D-FB04"
  />
<missing-glyph horiz-adv-x="500" 
 />
    <glyph glyph-name=".notdef" horiz-adv-x="500" 
 />
    <glyph glyph-name="breve" unicode="&#x2d8;" horiz-adv-x="353" 
d="M235 580h77c0 -73 -51 -138 -140 -138s-140 65 -140 138h77c0 -42 26 -68 63 -68c36 0 63 27 63 68z" />
    <glyph glyph-name="dotaccent" unicode="&#x2d9;" horiz-adv-x="258" 
d="M65 506c0 36 27 64 63 64s64 -28 64 -64s-28 -64 -64 -64s-63 28 -63 64z" />
    <glyph glyph-name="ring" unicode="&#x2da;" horiz-adv-x="273" 
d="M136 423c-58 0 -102 43 -102 98s44 98 102 98c57 0 101 -43 101 -98s-44 -98 -101 -98zM175 521c0 24 -15 40 -39 40c-23 0 -39 -16 -39 -40c0 -23 16 -39 39 -39c24 0 39 16 39 39z" />
    <glyph glyph-name="hungarumlaut" unicode="&#x2dd;" horiz-adv-x="415" 
d="M185 561l-78 -142h-62v16l38 142h102v-16zM352 561l-78 -142h-62v16l38 142h102v-16z" />
    <glyph glyph-name="ogonek" unicode="&#x2db;" horiz-adv-x="201" 
d="M154 -72l29 -37s-24 -30 -71 -30c-52 0 -81 30 -81 73c0 72 95 96 95 96l10 -30s-48 -16 -48 -54c0 -20 12 -33 34 -33c20 0 32 15 32 15z" />
    <glyph glyph-name="caron" unicode="&#x2c7;" horiz-adv-x="341" 
d="M171 485l83 92h63v-16l-95 -142h-104l-95 142v16h63z" />
    <glyph glyph-name="dotlessi" unicode="&#x131;" horiz-adv-x="206" 
d="M54 0v346h98v-346h-98z" />
    <glyph glyph-name="fraction" unicode="&#x2044;" horiz-adv-x="180" 
d="M-120 2l-49 39l469 564l50 -39z" />
    <glyph glyph-name="fi" unicode="&#xfb01;" horiz-adv-x="562" 
d="M460 470c-33 0 -58 25 -58 58s25 59 58 59s59 -26 59 -59s-26 -58 -59 -58zM411 0v346h98v-346h-98zM309 269h-116v-269h-98v269h-77v77h77v142c0 121 61 178 156 178c50 0 79 -17 82 -18l-25 -85s-23 12 -43 12c-49 0 -72 -27 -72 -87v-142h116v-77z" />
    <glyph glyph-name="i" unicode="i" horiz-adv-x="205" 
d="M103 470c-33 0 -58 25 -58 58s25 59 58 59s59 -26 59 -59s-26 -58 -59 -58zM54 0v346h98v-346h-98z" />
    <glyph glyph-name="f" unicode="f" horiz-adv-x="326" 
d="M309 269h-116v-269h-98v269h-77v77h77v142c0 121 61 178 156 178c50 0 79 -17 82 -18l-25 -85s-23 12 -43 12c-49 0 -72 -27 -72 -87v-142h116v-77z" />
    <glyph glyph-name="fl" unicode="&#xfb02;" horiz-adv-x="556" 
d="M403 0v668h98v-668h-98zM309 269h-116v-269h-98v269h-77v77h77v142c0 121 61 178 156 178c50 0 79 -17 82 -18l-25 -85s-23 12 -43 12c-49 0 -72 -27 -72 -87v-142h116v-77z" />
    <glyph glyph-name="l" unicode="l" horiz-adv-x="205" 
d="M54 0v668h98v-668h-98z" />
    <glyph glyph-name="Lslash" unicode="&#x141;" horiz-adv-x="532" 
d="M31 220l-26 45l83 48v287h99v-230l101 58l26 -45l-127 -73v-222h333v-88h-432v253z" />
    <glyph glyph-name="L" unicode="L" horiz-adv-x="522" 
d="M510 0h-432v600h99v-512h333v-88z" />
    <glyph glyph-name="lslash" unicode="&#x142;" horiz-adv-x="267" 
d="M36 219l-24 41l85 49v359h98v-303l69 40l24 -41l-93 -54v-310h-98v254z" />
    <glyph glyph-name="Zcaron" unicode="&#x17d;" horiz-adv-x="548" 
d="M273 703l83 92h63v-16l-95 -142h-104l-95 142v16h63zM28 0v26l332 486h-320v88h479v-26l-324 -486h319v-88h-486z" />
    <glyph glyph-name="Z" unicode="Z" horiz-adv-x="548" 
d="M28 0v26l332 486h-320v88h479v-26l-324 -486h319v-88h-486z" />
    <glyph glyph-name="zcaron" unicode="&#x17e;" horiz-adv-x="388" 
d="M200 485l83 92h63v-16l-95 -142h-104l-95 142v16h63zM355 0h-322v43l185 224h-184v79h321v-38l-185 -229h185v-79z" />
    <glyph glyph-name="z" unicode="z" horiz-adv-x="387" 
d="M354 0h-322v43l185 224h-184v79h321v-38l-185 -229h185v-79z" />
    <glyph glyph-name="space" unicode=" " horiz-adv-x="185" 
 />
    <glyph glyph-name="exclam" unicode="!" horiz-adv-x="246" 
d="M180 600v-39l-24 -376h-67l-25 376v39h116zM60 55c0 35 28 63 63 63s63 -28 63 -63s-28 -63 -63 -63s-63 28 -63 63z" />
    <glyph glyph-name="quotedbl" unicode="&#x22;" horiz-adv-x="326" 
d="M148 656l-42 -193h-62v16l19 193h85v-16zM293 656l-41 -193h-63v16l20 193h84v-16z" />
    <glyph glyph-name="numbersign" unicode="#" horiz-adv-x="653" 
d="M534 583l-35 -155h122l-13 -59h-122l-35 -156h119l-13 -59h-120l-34 -154h-64l34 154h-156l-34 -154h-64l34 154h-121l13 59h122l35 156h-118l12 59h119l35 155h64l-35 -155h156l35 155h64zM266 369l-35 -156h156l35 156h-156z" />
    <glyph glyph-name="dollar" unicode="$" horiz-adv-x="545" 
d="M40 61l54 75s72 -58 179 -58c89 0 126 35 126 83c0 46 -31 69 -146 102c-141 40 -208 85 -208 179c0 96 69 160 195 170v77h72v-77c128 -9 183 -59 183 -59l-54 -81s-62 49 -167 49c-75 0 -121 -27 -121 -75c0 -41 35 -61 144 -91c152 -41 212 -94 212 -187
c0 -94 -61 -169 -197 -180v-77h-72v76c-135 10 -200 74 -200 74z" />
    <glyph glyph-name="S" unicode="S" horiz-adv-x="541" 
d="M37 61l54 75s72 -58 179 -58c89 0 126 35 126 83c0 46 -31 69 -146 102c-141 40 -208 85 -208 179c0 105 82 171 229 171c155 0 221 -60 221 -60l-54 -81s-62 49 -167 49c-75 0 -121 -27 -121 -75c0 -41 35 -61 144 -91c152 -41 212 -94 212 -187
c0 -102 -72 -182 -234 -182c-159 0 -235 75 -235 75z" />
    <glyph glyph-name="percent" unicode="%" horiz-adv-x="673" 
d="M171 613c87 0 137 -70 137 -149s-50 -150 -137 -150s-137 71 -137 150s50 149 137 149zM171 549c-41 0 -61 -33 -61 -85s20 -85 61 -85c40 0 61 33 61 85s-21 85 -61 85zM542 608l56 -45l-469 -564l-55 45zM502 291c87 0 137 -70 137 -150c0 -78 -50 -149 -137 -149
s-138 71 -138 149c0 80 51 150 138 150zM502 227c-40 0 -62 -33 -62 -86c0 -50 22 -84 62 -84s61 34 61 84c0 53 -21 86 -61 86z" />
    <glyph glyph-name="ampersand" unicode="&#x26;" horiz-adv-x="635" 
d="M52 164c0 86 61 130 129 162l-11 11c-35 35 -59 76 -59 129c0 85 66 147 171 147c112 0 176 -67 176 -146c0 -87 -63 -130 -132 -164l135 -128c19 36 29 78 29 119v22h95v-20c0 -62 -19 -129 -57 -185l107 -102v-9h-116l-50 48c-47 -37 -107 -61 -181 -61
c-157 0 -236 74 -236 177zM288 73c48 0 87 14 117 36l-160 155c-48 -25 -85 -52 -85 -97c0 -52 47 -94 128 -94zM205 457c0 -37 23 -65 57 -96c57 24 103 50 103 98c0 38 -23 71 -81 71c-48 0 -79 -28 -79 -73z" />
    <glyph glyph-name="quotesingle" unicode="'" horiz-adv-x="180" 
d="M148 656l-42 -193h-62v16l19 193h85v-16z" />
    <glyph glyph-name="parenleft" unicode="(" horiz-adv-x="338" 
d="M329 610c-56 -35 -199 -137 -199 -352c0 -216 143 -318 199 -353l-50 -69c-69 35 -251 168 -251 422c0 255 182 386 251 421z" />
    <glyph glyph-name="parenright" unicode=")" horiz-adv-x="338" 
d="M10 610l49 69c69 -35 252 -166 252 -421c0 -254 -183 -387 -252 -422l-49 69c56 35 199 137 199 353c0 215 -143 317 -199 352z" />
    <glyph glyph-name="asterisk" unicode="*" horiz-adv-x="404" 
d="M238 700l-15 -77h-42l-13 77v29h70v-29zM334 580l-78 -11l-13 39l71 38l26 9l21 -67zM149 569l-78 11l-28 8l22 67l26 -9l71 -38zM98 492l58 56l33 -24l-34 -73l-17 -22l-56 39zM249 547l57 -55l17 -24l-57 -39l-16 22l-35 73z" />
    <glyph glyph-name="plus" unicode="+" horiz-adv-x="484" 
d="M285 497v-158h157v-80h-157v-152h-83v152h-160v80h160v158h83z" />
    <glyph glyph-name="comma" unicode="," horiz-adv-x="172" 
d="M25 52c0 34 26 60 60 60s61 -26 61 -61c0 -33 -9 -55 -23 -80l-38 -67h-65l35 62c9 15 18 22 18 22v5c-28 6 -48 29 -48 59z" />
    <glyph glyph-name="hyphen" unicode="-" horiz-adv-x="384" 
d="M48 251v81h288v-81h-288z" />
    <glyph glyph-name="period" unicode="." horiz-adv-x="172" 
d="M25 52c0 34 27 61 61 61s60 -27 60 -61s-26 -60 -60 -60s-61 26 -61 60z" />
    <glyph glyph-name="slash" unicode="/" horiz-adv-x="372" 
d="M345 703l-221 -879h-97l221 879h97z" />
    <glyph glyph-name="zero" unicode="0" horiz-adv-x="623" 
d="M312 -14c-175 0 -270 144 -270 313c0 171 95 314 270 314s269 -143 269 -314c0 -169 -94 -313 -269 -313zM312 82c110 0 167 94 167 217c0 124 -57 219 -167 219c-111 0 -168 -95 -168 -219c0 -123 57 -217 168 -217z" />
    <glyph glyph-name="one" unicode="1" horiz-adv-x="333" 
d="M21 512v88h225v-600h-99v512h-126z" />
    <glyph glyph-name="two" unicode="2" horiz-adv-x="516" 
d="M41 0v20l251 286c42 47 57 71 57 108c0 58 -45 104 -118 104c-83 0 -141 -61 -147 -66l-53 79s76 82 208 82c148 0 219 -82 219 -185c0 -55 -20 -99 -65 -150l-167 -190h248v-88h-433z" />
    <glyph glyph-name="three" unicode="3" horiz-adv-x="521" 
d="M260 285h-87v25l136 202h-248v88h403v-20l-150 -221c108 -11 166 -79 166 -183s-80 -190 -233 -190c-134 0 -215 79 -219 82l50 77s71 -66 166 -66c86 0 131 44 131 101c0 61 -41 105 -115 105z" />
    <glyph glyph-name="four" unicode="4" horiz-adv-x="558" 
d="M23 135v71l353 394h72v-377h72v-88h-72v-135h-99v135h-326zM155 233v-10h194v223l-175 -199c-7 -7 -19 -14 -19 -14z" />
    <glyph glyph-name="five" unicode="5" horiz-adv-x="515" 
d="M445 512h-264l-4 -146c21 3 43 6 69 6c165 0 233 -79 233 -189c0 -115 -79 -197 -232 -197c-134 0 -219 83 -219 83l50 77s72 -67 167 -67c83 0 130 42 130 108c0 60 -48 101 -146 101c-89 0 -135 -21 -136 -22l-14 10l10 324h356v-88z" />
    <glyph glyph-name="six" unicode="6" horiz-adv-x="520" 
d="M42 192c0 66 23 123 57 178l141 230h121l-120 -192c-12 -19 -32 -38 -32 -38v-7c20 10 39 16 68 16c133 0 218 -77 218 -190c0 -126 -98 -203 -224 -203c-135 0 -229 81 -229 206zM269 293c-71 0 -122 -48 -122 -107c0 -65 51 -112 122 -112c76 0 122 49 122 111
c0 61 -44 108 -122 108z" />
    <glyph glyph-name="seven" unicode="7" horiz-adv-x="468" 
d="M34 512v88h429v-23l-271 -577h-118l247 512h-287z" />
    <glyph glyph-name="eight" unicode="8" horiz-adv-x="543" 
d="M272 -14c-145 0 -228 82 -228 180c0 66 35 120 95 151c-46 30 -71 77 -71 130c0 92 76 166 204 166c127 0 203 -74 203 -166c0 -53 -25 -100 -71 -130c59 -31 95 -85 95 -151c0 -98 -83 -180 -227 -180zM272 74c75 0 123 46 123 98c0 61 -51 104 -123 104
s-124 -43 -124 -104c0 -52 49 -98 124 -98zM272 349c64 0 103 39 103 91c0 47 -39 85 -103 85s-103 -38 -103 -85c0 -52 39 -91 103 -91z" />
    <glyph glyph-name="nine" unicode="9" horiz-adv-x="522" 
d="M480 407c0 -66 -23 -123 -57 -178l-139 -229h-124l124 199c12 19 28 31 28 31v4c-20 -9 -43 -14 -67 -14c-133 0 -218 77 -218 190c0 126 97 203 222 203c136 0 231 -81 231 -206zM373 408c0 69 -50 114 -121 114c-73 0 -119 -46 -119 -108c0 -61 44 -106 120 -106
c66 0 120 37 120 100z" />
    <glyph glyph-name="colon" unicode=":" horiz-adv-x="208" 
d="M43 288c0 34 26 61 60 61s61 -27 61 -61s-27 -60 -61 -60s-60 26 -60 60zM43 52c0 34 26 61 60 61s61 -27 61 -61s-27 -60 -61 -60s-60 26 -60 60z" />
    <glyph glyph-name="semicolon" unicode=";" horiz-adv-x="221" 
d="M51 52c0 34 26 61 60 61s62 -27 62 -62c0 -38 -10 -56 -24 -80l-38 -67h-64l35 62c8 15 17 22 17 22v5c-28 6 -48 29 -48 59zM51 288c0 34 27 61 61 61s61 -27 61 -61s-27 -60 -61 -60s-61 26 -61 60z" />
    <glyph glyph-name="less" unicode="&#x3c;" horiz-adv-x="382" 
d="M274 44l-240 232v23l240 232l58 -59l-193 -185l193 -183z" />
    <glyph glyph-name="equal" unicode="=" horiz-adv-x="545" 
d="M83 349v80h379v-80h-379zM83 158v80h379v-80h-379z" />
    <glyph glyph-name="greater" unicode="&#x3e;" horiz-adv-x="382" 
d="M348 276l-241 -232l-57 60l193 183l-193 185l57 59l241 -232v-23z" />
    <glyph glyph-name="question" unicode="?" horiz-adv-x="388" 
d="M67 504l-34 76s54 33 150 33c105 0 165 -64 165 -142c0 -138 -135 -150 -143 -261l-2 -29h-66v37c0 115 111 142 111 234c0 47 -35 79 -87 79c-59 0 -94 -27 -94 -27zM112 52c0 34 26 61 60 61s61 -27 61 -61s-27 -60 -61 -60s-60 26 -60 60z" />
    <glyph glyph-name="at" unicode="@" horiz-adv-x="911" 
d="M456 -244c-279 0 -420 199 -420 424c0 228 143 427 422 427c283 0 409 -198 409 -365c0 -157 -67 -255 -183 -255c-103 0 -124 71 -124 71h-7c-7 -16 -38 -66 -129 -66c-97 0 -173 70 -173 181c0 115 75 181 173 181c74 0 109 -34 123 -56l13 48h63v-208
c0 -45 22 -71 66 -71c61 0 98 60 98 162c0 166 -115 301 -329 301c-208 0 -342 -145 -342 -349c0 -201 132 -348 340 -348c114 0 174 35 174 35l33 -68s-62 -44 -207 -44zM538 174c0 64 -40 101 -97 101c-55 0 -96 -40 -96 -101c0 -60 41 -103 96 -103c57 0 97 40 97 103z
" />
    <glyph glyph-name="A" unicode="A" horiz-adv-x="614" 
d="M-5 0l302 600h19l304 -600h-113l-45 91h-311l-44 -91h-112zM417 182l-107 235h-6l-108 -235l-6 -10h233z" />
    <glyph glyph-name="B" unicode="B" horiz-adv-x="636" 
d="M591 171c0 -113 -89 -171 -225 -171h-288v600h278c138 0 216 -58 216 -163c0 -59 -31 -104 -83 -125v-9c61 -19 102 -65 102 -132zM377 264h-200v-176h192c68 0 118 32 118 89c0 52 -47 87 -110 87zM469 427c0 57 -43 85 -115 85h-177v-169h177c72 0 115 34 115 84z" />
    <glyph glyph-name="C" unicode="C" horiz-adv-x="586" 
d="M508 138l57 -76s-67 -76 -211 -76c-191 0 -316 140 -316 313c0 175 125 314 316 314c144 0 211 -75 211 -75l-57 -77s-63 58 -152 58c-128 0 -216 -96 -216 -220c0 -123 88 -218 216 -218c96 0 152 57 152 57z" />
    <glyph glyph-name="D" unicode="D" horiz-adv-x="661" 
d="M621 300c0 -179 -125 -300 -319 -300h-224v600h224c194 0 319 -121 319 -300zM295 512h-118v-424h118c128 0 225 76 225 212s-97 212 -225 212z" />
    <glyph glyph-name="E" unicode="E" horiz-adv-x="570" 
d="M479 339v-84h-302v-167h356v-88h-455v600h455v-88h-356v-173h302z" />
    <glyph glyph-name="F" unicode="F" horiz-adv-x="559" 
d="M78 0v600h455v-88h-356v-173h309v-84h-309v-255h-99z" />
    <glyph glyph-name="G" unicode="G" horiz-adv-x="670" 
d="M532 252v3h-195v84h298v-51c0 -180 -101 -302 -283 -302c-195 0 -314 140 -314 313c0 175 122 314 316 314c155 0 224 -77 224 -77l-59 -76s-61 59 -166 59c-129 0 -213 -96 -213 -220c0 -123 81 -218 211 -218c110 0 181 72 181 171z" />
    <glyph glyph-name="H" unicode="H" horiz-adv-x="678" 
d="M600 600v-600h-99v252h-324v-252h-99v600h99v-264h324v264h99z" />
    <glyph glyph-name="I" unicode="I" horiz-adv-x="256" 
d="M177 600v-600h-99v600h99z" />
    <glyph glyph-name="J" unicode="J" horiz-adv-x="466" 
d="M19 36l46 81s48 -35 107 -35c80 0 121 40 122 136v382h100v-401c-1 -126 -69 -213 -215 -213c-101 0 -155 46 -160 50z" />
    <glyph glyph-name="K" unicode="K" horiz-adv-x="611" 
d="M177 600v-305l301 305h120v-12l-237 -241l237 -334v-13h-117l-191 275l-113 -116v-159h-99v600h99z" />
    <glyph glyph-name="M" unicode="M" horiz-adv-x="758" 
d="M581 0v391l-190 -198h-23l-191 198v-391h-99v600h28l273 -280l275 280h26v-600h-99z" />
    <glyph glyph-name="N" unicode="N" horiz-adv-x="696" 
d="M618 600v-600h-26l-415 402v-402h-99v600h26l415 -396v396h99z" />
    <glyph glyph-name="O" unicode="O" horiz-adv-x="705" 
d="M352 -14c-193 0 -314 140 -314 313c0 175 121 314 314 314c194 0 315 -139 315 -314c0 -173 -121 -313 -315 -313zM352 82c128 0 213 94 213 217c0 124 -85 219 -213 219c-127 0 -212 -95 -212 -219c0 -123 85 -217 212 -217z" />
    <glyph glyph-name="P" unicode="P" horiz-adv-x="607" 
d="M78 0v600h261c150 0 242 -73 242 -203c0 -138 -100 -212 -248 -212h-156v-185h-99zM480 393c0 79 -57 119 -145 119h-158v-240h158c89 0 145 36 145 121z" />
    <glyph glyph-name="Q" unicode="Q" horiz-adv-x="705" 
d="M352 -14c-193 0 -314 140 -314 313c0 175 121 314 314 314c194 0 315 -139 315 -314c0 -105 -45 -197 -122 -254l59 -86v-13h-107l-37 56c-33 -10 -69 -16 -108 -16zM319 215v13h102l68 -100c48 39 76 100 76 171c0 124 -85 219 -213 219c-127 0 -212 -95 -212 -219
c0 -123 85 -217 212 -217c18 0 35 2 51 5z" />
    <glyph glyph-name="R" unicode="R" horiz-adv-x="636" 
d="M78 0v600h260c151 0 243 -73 243 -203c0 -94 -49 -156 -125 -186v-6l149 -191v-14h-110l-147 190h-171v-190h-99zM479 393c0 79 -56 119 -144 119h-158v-236h164c83 0 138 37 138 117z" />
    <glyph glyph-name="T" unicode="T" horiz-adv-x="531" 
d="M14 512v88h503v-88h-202v-512h-99v512h-202z" />
    <glyph glyph-name="U" unicode="U" horiz-adv-x="661" 
d="M331 -14c-163 0 -262 112 -262 268v346h99v-346c0 -97 54 -173 163 -173s161 76 161 173v346h99v-346c0 -156 -95 -268 -260 -268z" />
    <glyph glyph-name="V" unicode="V" horiz-adv-x="614" 
d="M303 179h6l58 130l140 291h111l-302 -600h-20l-301 600h111l142 -291z" />
    <glyph glyph-name="W" unicode="W" horiz-adv-x="821" 
d="M277 253l113 347h42l111 -347l19 -60h9l19 66l120 341h106l-229 -600h-48l-111 345l-15 60h-5l-16 -60l-113 -345h-46l-229 600h105l122 -341l18 -66h8z" />
    <glyph glyph-name="X" unicode="X" horiz-adv-x="572" 
d="M554 600l-194 -292l201 -308h-120l-131 206l-24 47l-24 -47l-130 -206h-119l199 308l-193 292h119l127 -196l22 -47l22 47l126 196h119z" />
    <glyph glyph-name="Y" unicode="Y" horiz-adv-x="555" 
d="M301 365l141 235h114l-229 -371v-229h-99v229l-228 371h115l142 -235l16 -35h11z" />
    <glyph glyph-name="bracketleft" unicode="[" horiz-adv-x="331" 
d="M70 -158v832h239v-80h-146v-672h146v-80h-239z" />
    <glyph glyph-name="backslash" unicode="\" horiz-adv-x="372" 
d="M247 -176l-221 879h98l221 -879h-98z" />
    <glyph glyph-name="bracketright" unicode="]" horiz-adv-x="331" 
d="M22 -158v80h146v672h-146v80h239v-832h-239z" />
    <glyph glyph-name="asciicircum" unicode="^" horiz-adv-x="399" 
d="M275 490l-76 107l-75 -107h-72v16l119 162h56l120 -162v-16h-72z" />
    <glyph glyph-name="underscore" unicode="_" horiz-adv-x="498" 
d="M41 -100v80h413v-80h-413z" />
    <glyph glyph-name="grave" unicode="`" horiz-adv-x="254" 
d="M136 419l-90 142v16h115l38 -142v-16h-63z" />
    <glyph glyph-name="a" unicode="a" horiz-adv-x="424" 
d="M26 101c0 63 52 107 151 107c61 0 90 -18 101 -26h5v16c0 51 -31 77 -101 77c-57 0 -97 -26 -97 -26l-31 72s52 33 146 33c126 0 177 -67 177 -164v-190h-70l-10 38h-5c-10 -15 -41 -46 -123 -46c-93 0 -143 48 -143 109zM121 106c0 -27 23 -49 74 -49c52 0 86 29 86 51
c0 27 -34 47 -86 47c-48 0 -74 -19 -74 -49z" />
    <glyph glyph-name="b" unicode="b" horiz-adv-x="467" 
d="M53 0v668h98v-361h4s25 47 111 47c96 0 170 -73 170 -181c0 -111 -75 -181 -173 -181c-96 0 -125 58 -125 58h-4l-15 -50h-66zM146 173c0 -61 41 -100 96 -100c56 0 95 42 95 100c0 59 -39 100 -95 100c-55 0 -96 -38 -96 -100z" />
    <glyph glyph-name="c" unicode="c" horiz-adv-x="361" 
d="M226 -8c-116 0 -196 77 -196 180c0 105 80 182 196 182c75 0 114 -29 114 -29l-29 -73s-30 21 -77 21c-60 0 -105 -39 -105 -101c0 -60 45 -99 105 -99c47 0 77 21 77 21l26 -72s-36 -30 -111 -30z" />
    <glyph glyph-name="d" unicode="d" horiz-adv-x="467" 
d="M312 310h4v358h98v-668h-66l-15 48h-4s-31 -56 -124 -56c-99 0 -174 70 -174 181c0 108 74 181 170 181c85 0 111 -44 111 -44zM321 173c0 62 -41 100 -96 100s-95 -41 -95 -100c0 -58 40 -100 95 -100s96 39 96 100z" />
    <glyph glyph-name="e" unicode="e" horiz-adv-x="415" 
d="M330 93l32 -63s-43 -40 -132 -40c-123 0 -200 79 -200 182c0 105 76 182 186 182c108 0 173 -73 173 -176v-24h-263c8 -59 52 -87 108 -87c61 0 96 26 96 26zM214 281c-44 0 -76 -25 -86 -72h168c-6 41 -36 72 -82 72z" />
    <glyph glyph-name="g" unicode="g" horiz-adv-x="410" 
d="M212 -237c-129 0 -193 55 -193 126c0 40 18 74 63 94v6c-41 18 -56 44 -56 76s13 59 57 80c-16 21 -25 46 -25 75c0 79 63 133 147 133c44 0 186 -9 186 -9v-68h-57v-5s18 -13 18 -56c0 -65 -56 -123 -147 -123c-26 0 -50 5 -70 14c-18 -9 -24 -18 -24 -31
c0 -22 18 -38 101 -38c138 0 195 -51 195 -133c0 -79 -66 -141 -195 -141zM212 -38c-70 0 -99 -31 -99 -64s29 -63 99 -63s99 29 99 63s-29 64 -99 64zM205 282c-43 0 -67 -27 -67 -61s24 -60 67 -60s67 26 67 60s-24 61 -67 61z" />
    <glyph glyph-name="h" unicode="h" horiz-adv-x="460" 
d="M53 0v668h98v-354h3c19 20 48 40 108 40c92 0 150 -59 150 -153v-201h-98v188c0 50 -28 85 -79 85c-53 0 -84 -37 -84 -72v-201h-98z" />
    <glyph glyph-name="j" unicode="j" horiz-adv-x="203" 
d="M-28 -184l15 73s14 -8 30 -8c25 0 35 14 35 43v422h99v-426c0 -76 -31 -121 -110 -121c-45 0 -69 17 -69 17zM101 470c-32 0 -58 25 -58 58s26 59 58 59c33 0 59 -26 59 -59s-26 -58 -59 -58z" />
    <glyph glyph-name="k" unicode="k" horiz-adv-x="412" 
d="M277 346h111l-141 -168l161 -178h-125l-130 147h-3v-147h-98v668h98v-473h2z" />
    <glyph glyph-name="m" unicode="m" horiz-adv-x="720" 
d="M53 0v346h63l13 -48h5c27 36 64 56 123 56s103 -22 129 -60h5c21 35 63 60 128 60c95 0 153 -60 153 -153v-201h-98v187c0 50 -27 86 -79 86c-53 0 -83 -38 -83 -74v-199h-98v195c0 45 -28 78 -80 78c-53 0 -83 -39 -83 -74v-199h-98z" />
    <glyph glyph-name="n" unicode="n" horiz-adv-x="459" 
d="M53 0v346h63l13 -48h5c24 34 62 56 123 56c96 0 155 -60 155 -153v-201h-98v187c0 50 -28 86 -80 86c-53 0 -83 -37 -83 -72v-201h-98z" />
    <glyph glyph-name="o" unicode="o" horiz-adv-x="445" 
d="M416 171c0 -109 -87 -179 -193 -179c-107 0 -193 70 -193 179c0 111 86 183 193 183c106 0 193 -72 193 -183zM223 70c55 0 97 40 97 102c0 63 -42 104 -97 104s-97 -41 -97 -104c0 -62 42 -102 97 -102z" />
    <glyph glyph-name="p" unicode="p" horiz-adv-x="467" 
d="M155 36h-4v-228h-98v538h64l15 -48h5s32 56 126 56c98 0 173 -70 173 -181c0 -108 -74 -181 -170 -181c-86 0 -111 44 -111 44zM146 173c0 -62 41 -100 96 -100c56 0 95 41 95 100c0 58 -39 100 -95 100c-55 0 -96 -39 -96 -100z" />
    <glyph glyph-name="q" unicode="q" horiz-adv-x="467" 
d="M414 346v-538h-98v231h-4s-25 -47 -111 -47c-96 0 -170 73 -170 181c0 111 75 181 174 181c96 0 125 -60 125 -60h5l14 52h65zM321 173c0 61 -41 100 -96 100s-95 -42 -95 -100c0 -59 40 -100 95 -100s96 38 96 100z" />
    <glyph glyph-name="r" unicode="r" horiz-adv-x="308" 
d="M307 328l-35 -78s-17 12 -46 12c-39 0 -75 -30 -75 -73v-189h-98v346h63l13 -48h4c18 26 50 51 101 51c50 0 73 -21 73 -21z" />
    <glyph glyph-name="s" unicode="s" horiz-adv-x="380" 
d="M30 31l30 67s55 -34 120 -34c42 0 66 14 66 36c0 59 -212 26 -212 148c0 60 46 106 153 106c102 0 154 -29 154 -29l-31 -72s-40 28 -112 28c-39 0 -62 -9 -62 -33c0 -57 214 -23 214 -148c0 -60 -49 -108 -162 -108c-108 0 -158 39 -158 39z" />
    <glyph glyph-name="t" unicode="t" horiz-adv-x="329" 
d="M16 346h65v104h98v-104h121v-78h-121v-124c0 -48 20 -69 59 -69c26 0 45 13 45 13l32 -67s-31 -29 -92 -29c-89 0 -142 53 -142 148v128h-65v78z" />
    <glyph glyph-name="u" unicode="u" horiz-adv-x="457" 
d="M405 346v-346h-66l-17 47h-4c-11 -20 -44 -55 -118 -55c-96 0 -153 60 -153 153v201h98v-187c0 -50 26 -86 78 -86c53 0 84 37 84 71v202h98z" />
    <glyph glyph-name="v" unicode="v" horiz-adv-x="415" 
d="M410 346l-168 -346h-69l-168 346h108l85 -201c4 -9 7 -19 7 -28h5c0 9 3 19 7 28l85 201h108z" />
    <glyph glyph-name="w" unicode="w" horiz-adv-x="595" 
d="M586 346l-145 -346h-68l-67 192c-4 11 -6 23 -6 33h-5c0 -10 -3 -22 -7 -33l-66 -192h-68l-145 346h105l68 -201c3 -9 7 -19 7 -28h7c0 9 3 19 6 28l61 201h71l61 -201c3 -10 6 -19 6 -28h7c0 9 3 18 6 28l70 201h102z" />
    <glyph glyph-name="x" unicode="x" horiz-adv-x="410" 
d="M10 0l137 176l-131 170h110l78 -109h2l78 109h110l-131 -170l137 -176h-111l-83 117h-2l-84 -117h-110z" />
    <glyph glyph-name="y" unicode="y" horiz-adv-x="411" 
d="M404 346l-248 -538h-104l109 220l-153 318h107l83 -194c4 -9 8 -21 9 -35h5c1 14 6 26 10 35l82 194h100z" />
    <glyph glyph-name="braceleft" unicode="{" horiz-adv-x="279" 
d="M14 296h18c35 0 57 23 57 74v201c0 80 46 127 144 133l14 -82c-38 -6 -54 -15 -54 -58v-207c0 -50 -21 -84 -59 -96v-9c38 -11 59 -46 59 -94v-208c0 -42 16 -52 54 -58l-14 -81c-98 5 -144 53 -144 132v202c0 50 -22 74 -57 74h-18v77z" />
    <glyph glyph-name="bar" unicode="|" horiz-adv-x="228" 
d="M159 673v-825h-90v825h90z" />
    <glyph glyph-name="braceright" unicode="}" horiz-adv-x="279" 
d="M265 219h-18c-36 0 -58 -24 -58 -74v-202c0 -79 -45 -127 -144 -132l-13 81c38 6 53 16 53 58v208c0 48 21 83 60 94v9c-39 12 -60 46 -60 96v207c0 43 -15 52 -53 58l13 82c99 -6 144 -53 144 -133v-201c0 -51 22 -74 58 -74h18v-77z" />
    <glyph glyph-name="asciitilde" unicode="~" horiz-adv-x="456" 
d="M300 320c48 0 75 22 75 22l30 -61s-33 -37 -103 -37c-54 0 -90 26 -147 26c-48 0 -75 -23 -75 -23l-30 61s33 37 103 37c54 0 89 -25 147 -25z" />
    <glyph glyph-name="Euro" unicode="&#x20ac;" horiz-adv-x="593" 
d="M416 264v-71h-196c25 -65 77 -107 158 -107c76 0 118 51 118 51l58 -75s-56 -72 -178 -72c-146 0 -231 88 -262 203h-75v71h62s-2 15 -2 36c0 19 2 33 2 33h-62v71h74c30 117 115 206 263 206c122 0 178 -72 178 -72l-58 -75s-42 51 -118 51c-82 0 -135 -44 -159 -110
h197v-71h-213s-2 -14 -2 -33c0 -21 2 -36 2 -36h213z" />
    <glyph glyph-name="quotesinglbase" unicode="&#x201a;" horiz-adv-x="172" 
d="M25 52c0 34 26 60 60 60s61 -26 61 -61c0 -33 -9 -55 -23 -80l-38 -67h-65l35 62c9 15 18 22 18 22v5c-28 6 -48 29 -48 59z" />
    <glyph glyph-name="florin" unicode="&#x192;" horiz-adv-x="350" 
d="M105 -66v335h-77v77h77v142c0 121 61 178 156 178c50 0 78 -17 83 -18l-26 -85s-24 12 -43 12c-49 0 -72 -27 -72 -87v-142h122v-77h-122v-345c0 -77 -35 -125 -116 -125c-49 0 -80 22 -80 22l26 73s17 -9 35 -9c25 0 37 14 37 49z" />
    <glyph glyph-name="quotedblbase" unicode="&#x201e;" horiz-adv-x="399" 
d="M25 52c0 34 26 60 60 60s61 -26 61 -61c0 -33 -9 -55 -23 -80l-38 -67h-65l35 62c9 15 18 22 18 22v5c-28 6 -48 29 -48 59zM252 52c0 34 26 60 60 60s61 -26 61 -61c0 -33 -9 -55 -23 -80l-38 -67h-65l35 62c9 15 18 22 18 22v5c-28 6 -48 29 -48 59z" />
    <glyph glyph-name="ellipsis" unicode="&#x2026;" horiz-adv-x="588" 
d="M26 55c0 36 27 64 63 64c35 0 64 -28 64 -64s-29 -64 -64 -64c-36 0 -63 28 -63 64zM231 55c0 36 27 64 63 64s64 -28 64 -64s-28 -64 -64 -64s-63 28 -63 64zM436 55c0 36 28 64 63 64c36 0 64 -28 64 -64s-28 -64 -64 -64c-35 0 -63 28 -63 64z" />
    <glyph glyph-name="dagger" unicode="&#x2020;" horiz-adv-x="447" 
d="M31 280v81h152v239h82v-239h151v-81h-151l-8 -472h-66l-8 472h-152z" />
    <glyph glyph-name="daggerdbl" unicode="&#x2021;" horiz-adv-x="483" 
d="M49 352v80h152v168h82v-168h151v-80h-151v-211h151v-81h-151l-8 -252h-65l-9 252h-152v81h152v211h-152z" />
    <glyph glyph-name="circumflex" unicode="&#x2c6;" horiz-adv-x="329" 
d="M254 419l-83 92l-85 -92h-63v16l95 142h104l95 -142v-16h-63z" />
    <glyph glyph-name="perthousand" unicode="&#x2030;" horiz-adv-x="990" 
d="M171 613c87 0 137 -70 137 -149s-50 -150 -137 -150s-137 71 -137 150s50 149 137 149zM171 379c40 0 61 33 61 85s-21 85 -61 85c-41 0 -61 -33 -61 -85s20 -85 61 -85zM542 608l56 -45l-469 -564l-55 45zM502 291c87 0 137 -70 137 -150c0 -78 -50 -149 -137 -149
s-138 71 -138 149c0 80 51 150 138 150zM502 227c-40 0 -62 -33 -62 -86c0 -50 22 -84 62 -84s61 34 61 84c0 53 -21 86 -61 86zM822 227c-40 0 -62 -33 -62 -86c0 -50 22 -84 62 -84s61 34 61 84c0 53 -21 86 -61 86zM822 291c87 0 137 -70 137 -150
c0 -78 -50 -149 -137 -149s-137 71 -137 149c0 80 50 150 137 150z" />
    <glyph glyph-name="Scaron" unicode="&#x160;" horiz-adv-x="541" 
d="M269 704l83 92h63v-16l-95 -142h-104l-95 142v16h63zM37 61l54 75s72 -58 179 -58c89 0 126 35 126 83c0 46 -31 69 -146 102c-141 40 -208 85 -208 179c0 105 82 171 229 171c155 0 221 -60 221 -60l-54 -81s-62 49 -167 49c-75 0 -121 -27 -121 -75
c0 -41 35 -61 144 -91c152 -41 212 -94 212 -187c0 -102 -72 -182 -234 -182c-159 0 -235 75 -235 75z" />
    <glyph glyph-name="guilsinglleft" unicode="&#x2039;" horiz-adv-x="253" 
d="M32 162v19l106 155h83v-8l-103 -152v-7l103 -154v-8h-83z" />
    <glyph glyph-name="OE" unicode="&#x152;" horiz-adv-x="1058" 
d="M350 -14c-193 0 -314 140 -314 313c0 175 121 314 314 314c89 0 162 -29 216 -78v65h455v-88h-356v-173h302v-84h-302v-167h356v-88h-455v64c-54 -49 -127 -78 -216 -78zM350 82c128 0 213 94 213 217c0 124 -85 219 -213 219c-127 0 -212 -95 -212 -219
c0 -123 85 -217 212 -217z" />
    <glyph glyph-name="quoteleft" unicode="&#x2018;" horiz-adv-x="195" 
d="M154 505c0 -34 -26 -60 -60 -60s-61 26 -61 61c0 33 9 55 23 80l38 67h65l-35 -62c-9 -15 -18 -22 -18 -22v-5c28 -6 48 -29 48 -59z" />
    <glyph glyph-name="quoteright" unicode="&#x2019;" horiz-adv-x="194" 
d="M44 601c0 34 26 60 60 60s61 -26 61 -61c0 -33 -9 -55 -23 -80l-38 -67h-65l35 62c9 15 18 22 18 22v5c-28 6 -48 29 -48 59z" />
    <glyph glyph-name="quotedblleft" unicode="&#x201c;" horiz-adv-x="384" 
d="M154 506c0 -34 -26 -60 -60 -60s-61 26 -61 61c0 33 9 55 23 80l38 67h65l-35 -62c-9 -15 -18 -22 -18 -22v-5c28 -6 48 -29 48 -59zM343 506c0 -34 -26 -60 -60 -60s-61 26 -61 61c0 33 9 55 23 80l38 67h65l-35 -62c-9 -15 -18 -22 -18 -22v-5c28 -6 48 -29 48 -59z
" />
    <glyph glyph-name="quotedblright" unicode="&#x201d;" horiz-adv-x="377" 
d="M41 601c0 34 26 60 60 60s61 -26 61 -61c0 -33 -9 -55 -23 -80l-38 -67h-65l35 62c9 15 18 22 18 22v5c-28 6 -48 29 -48 59zM224 601c0 34 26 60 60 60s61 -26 61 -61c0 -33 -9 -55 -23 -80l-38 -67h-65l35 62c9 15 18 22 18 22v5c-28 6 -48 29 -48 59z" />
    <glyph glyph-name="bullet" unicode="&#x2022;" horiz-adv-x="308" 
d="M70 173c0 46 37 85 84 85c46 0 85 -39 85 -85c0 -47 -39 -84 -85 -84c-47 0 -84 37 -84 84z" />
    <glyph glyph-name="endash" unicode="&#x2013;" horiz-adv-x="459" 
d="M48 247v81h363v-81h-363z" />
    <glyph glyph-name="emdash" unicode="&#x2014;" horiz-adv-x="716" 
d="M48 247v81h620v-81h-620z" />
    <glyph glyph-name="tilde" unicode="&#x2dc;" horiz-adv-x="430" 
d="M282 434c-57 0 -91 43 -127 43c-22 0 -32 -13 -35 -31l-2 -14l-68 6l3 29c5 48 35 85 90 85c57 0 90 -43 126 -43c24 0 32 13 36 31l3 14l69 -6l-4 -29c-9 -48 -37 -85 -91 -85z" />
    <glyph glyph-name="trademark" unicode="&#x2122;" horiz-adv-x="738" 
d="M414 281h-65v319h17l143 -135c18 16 128 119 145 135h17v-319h-65v194l-90 -86h-13l-89 86v-194zM291 600v-57h-96v-262h-65v262h-96v57h257z" />
    <glyph glyph-name="scaron" unicode="&#x161;" horiz-adv-x="380" 
d="M190 485l83 92h63v-16l-95 -142h-104l-95 142v16h63zM30 31l30 67s55 -34 120 -34c42 0 66 14 66 36c0 59 -212 26 -212 148c0 60 46 106 153 106c102 0 154 -29 154 -29l-31 -72s-40 28 -112 28c-39 0 -62 -9 -62 -33c0 -57 214 -23 214 -148c0 -60 -49 -108 -162 -108
c-108 0 -158 39 -158 39z" />
    <glyph glyph-name="guilsinglright" unicode="&#x203a;" horiz-adv-x="253" 
d="M221 181v-19l-106 -155h-83v8l103 154v7l-103 152v8h83z" />
    <glyph glyph-name="oe" unicode="&#x153;" horiz-adv-x="707" 
d="M621 93l32 -63s-43 -40 -132 -40c-66 0 -119 22 -153 59c-36 -37 -88 -57 -145 -57c-107 0 -193 70 -193 179c0 111 86 183 193 183c57 0 108 -21 144 -58c33 36 81 58 140 58c108 0 173 -73 173 -176v-24h-263c8 -59 52 -87 108 -87c61 0 96 26 96 26zM223 70
c55 0 97 40 97 102c0 63 -42 104 -97 104s-97 -41 -97 -104c0 -62 42 -102 97 -102zM505 281c-44 0 -76 -25 -86 -72h168c-6 41 -36 72 -82 72z" />
    <glyph glyph-name="Ydieresis" unicode="&#x178;" horiz-adv-x="555" 
d="M134 705c0 28 24 53 52 53s53 -25 53 -53s-25 -52 -53 -52s-52 24 -52 52zM318 705c0 28 24 53 52 53s53 -25 53 -53s-25 -52 -53 -52s-52 24 -52 52zM301 365l141 235h114l-229 -371v-229h-99v229l-228 371h115l142 -235l16 -35h11z" />
    <glyph glyph-name="dieresis" unicode="&#xa8;" horiz-adv-x="403" 
d="M58 483c0 28 24 53 52 53s53 -25 53 -53s-25 -52 -53 -52s-52 24 -52 52zM242 483c0 28 24 53 52 53s53 -25 53 -53s-25 -52 -53 -52s-52 24 -52 52z" />
    <glyph glyph-name="uni00A0" unicode="&#xa0;" horiz-adv-x="185" 
 />
    <glyph glyph-name="exclamdown" unicode="&#xa1;" horiz-adv-x="246" 
d="M180 39v-39h-116v39l25 376h66zM60 545c0 35 28 63 63 63s63 -28 63 -63s-28 -63 -63 -63s-63 28 -63 63z" />
    <glyph glyph-name="cent" unicode="&#xa2;" horiz-adv-x="408" 
d="M196 -98v94c-93 16 -154 86 -154 176c0 91 61 161 153 178v95h68v-92c63 -6 101 -30 101 -30l-34 -76s-37 26 -84 26c-59 0 -105 -39 -105 -101c0 -60 46 -99 105 -99c47 0 84 25 84 25l34 -75s-38 -24 -100 -29v-92h-68z" />
    <glyph glyph-name="sterling" unicode="&#xa3;" horiz-adv-x="519" 
d="M465 89v-87h-401v87s59 20 59 101c0 14 -4 30 -9 46h-71v72h43c-9 28 -17 58 -17 94c0 100 76 207 236 207c125 0 174 -67 174 -67l-55 -73s-36 45 -114 45c-90 0 -131 -61 -131 -120c0 -34 8 -61 17 -86h206v-72h-180c4 -14 6 -28 6 -43c0 -48 -18 -81 -39 -104h276z
" />
    <glyph glyph-name="currency" unicode="&#xa4;" horiz-adv-x="578" 
d="M123 66l-64 63l57 57c-21 32 -33 70 -33 111s12 80 33 112l-57 58l64 63l54 -62c32 21 69 33 110 33s80 -13 112 -34l56 63l64 -63l-60 -61c20 -31 32 -69 32 -109s-12 -77 -32 -108l60 -60l-64 -63l-55 62c-33 -22 -71 -34 -113 -34c-41 0 -79 12 -111 32zM175 297
c0 -62 50 -113 112 -113c63 0 113 51 113 113c0 63 -50 114 -113 114c-62 0 -112 -51 -112 -114z" />
    <glyph glyph-name="yen" unicode="&#xa5;" horiz-adv-x="615" 
d="M331 365l141 235h114l-186 -301h125v-72h-168v-68h168v-71h-168v-88h-99v88h-169v71h169v68h-169v72h126l-185 301h115l142 -235l16 -35h11z" />
    <glyph glyph-name="brokenbar" unicode="&#xa6;" horiz-adv-x="229" 
d="M160 -152h-91v825h91v-825z" />
    <glyph glyph-name="section" unicode="&#xa7;" horiz-adv-x="539" 
d="M35 -123l55 76s75 -63 176 -63c85 0 118 39 118 82c0 51 -43 75 -130 107c-95 34 -172 68 -172 159c0 48 22 74 36 86c-39 27 -64 63 -64 115c0 101 71 174 222 174c149 0 212 -63 212 -63l-54 -81s-59 54 -158 54c-77 0 -109 -34 -109 -77c0 -46 42 -76 108 -97
c99 -33 196 -71 196 -165c0 -53 -23 -84 -36 -98c39 -29 64 -66 64 -114c0 -91 -69 -173 -231 -173c-156 0 -233 78 -233 78zM241 271c-14 4 -28 8 -41 13c-6 -3 -21 -12 -21 -40c0 -37 40 -62 109 -87c23 -8 44 -16 65 -25c5 5 18 20 18 45c0 43 -50 67 -130 94z" />
    <glyph glyph-name="copyright" unicode="&#xa9;" horiz-adv-x="716" 
d="M357 608c198 0 317 -139 317 -309c0 -169 -119 -308 -317 -308c-196 0 -316 139 -316 308c0 170 120 309 316 309zM357 553c-160 0 -258 -114 -258 -254c0 -138 98 -252 258 -252c162 0 260 114 260 252c0 140 -98 254 -260 254zM469 422l-34 -46s-25 21 -69 21
c-60 0 -98 -42 -98 -97s38 -96 98 -96c44 0 69 21 69 21l34 -46s-33 -37 -107 -37c-102 0 -162 71 -162 158c0 88 60 158 162 158c75 0 107 -36 107 -36z" />
    <glyph glyph-name="ordfeminine" unicode="&#xaa;" horiz-adv-x="400" 
d="M31 367c0 63 55 102 139 102c58 0 86 -15 100 -27v18c0 57 -27 86 -97 86c-46 0 -85 -19 -94 -22l-24 64s67 26 133 26c117 0 163 -62 163 -157v-183h-60l-12 33h-5c-11 -16 -40 -41 -114 -41s-129 40 -129 101zM110 371c0 -31 26 -50 74 -50c51 0 86 24 86 52
c0 30 -35 50 -82 50c-52 0 -78 -20 -78 -52z" />
    <glyph glyph-name="guillemotleft" unicode="&#xab;" horiz-adv-x="438" 
d="M32 162v19l106 155h83v-8l-103 -152v-7l103 -154v-8h-83zM218 162v19l106 155h82v-8l-103 -152v-7l103 -154v-8h-82z" />
    <glyph glyph-name="logicalnot" unicode="&#xac;" horiz-adv-x="557" 
d="M31 266v81h449v-347h-82v266h-367z" />
    <glyph glyph-name="minus" unicode="&#x2212;" horiz-adv-x="507" 
d="M52 257v81h400v-81h-400z" />
    <glyph glyph-name="registered" unicode="&#xae;" horiz-adv-x="566" 
d="M522 380c0 -128 -91 -235 -240 -235c-148 0 -237 108 -237 235s89 234 237 234c149 0 240 -107 240 -234zM462 380c0 103 -74 178 -180 178c-104 0 -178 -68 -178 -178c0 -103 74 -178 178 -178c106 0 180 74 180 178zM194 485h95c53 0 91 -28 91 -75
c0 -30 -15 -51 -38 -63l40 -54v-10h-48l-38 52h-56v-52h-46v202zM289 443h-49v-67h47c26 0 44 10 44 33s-17 34 -42 34z" />
    <glyph glyph-name="macron" unicode="&#xaf;" horiz-adv-x="426" 
d="M83 442v60h272v-60h-272z" />
    <glyph glyph-name="degree" unicode="&#xb0;" horiz-adv-x="297" 
d="M148 672c71 0 118 -48 118 -108s-47 -107 -118 -107c-70 0 -117 47 -117 107s47 108 117 108zM148 621c-37 0 -60 -25 -60 -57c0 -31 23 -55 60 -55c38 0 61 24 61 55c0 32 -23 57 -61 57z" />
    <glyph glyph-name="plusminus" unicode="&#xb1;" horiz-adv-x="538" 
d="M312 178h-82v160h-170v80h170v166h82v-166h167v-80h-167v-160zM479 112v-81h-419v81h419z" />
    <glyph glyph-name="twosuperior" unicode="&#xb2;" horiz-adv-x="310" 
d="M25 342v19l140 142c20 20 31 38 31 59c0 29 -18 50 -59 50c-43 0 -78 -30 -81 -33l-35 52s48 46 122 46c91 0 126 -49 126 -106c0 -34 -17 -64 -44 -92l-78 -79h139v-58h-261z" />
    <glyph glyph-name="threesuperior" unicode="&#xb3;" horiz-adv-x="312" 
d="M34 609v59h239v-17l-69 -111c56 -9 83 -42 83 -96c0 -59 -44 -110 -137 -110c-76 0 -124 40 -130 46l36 50s39 -33 92 -33c48 0 70 21 70 49c0 27 -19 47 -57 47h-47v18l61 98h-141z" />
    <glyph glyph-name="acute" unicode="&#xb4;" horiz-adv-x="247" 
d="M197 561l-90 -142h-62v16l38 142h114v-16z" />
    <glyph glyph-name="mu" unicode="&#xb5;" horiz-adv-x="505" 
d="M168 -192h-97v538h98v-187c0 -50 26 -86 78 -86c53 0 84 37 84 71v202h98v-346h-66l-17 47h-4c-11 -20 -44 -55 -118 -55c-21 0 -40 3 -56 8v-192z" />
    <glyph glyph-name="paragraph" unicode="&#xb6;" horiz-adv-x="502" 
d="M313 -155v263h-46c-142 0 -238 69 -238 202c0 125 88 194 233 194h150v-659h-99z" />
    <glyph glyph-name="periodcentered" unicode="&#xb7;" horiz-adv-x="178" 
d="M25 358c0 36 28 64 63 64s63 -28 63 -64c0 -35 -28 -62 -63 -62s-63 27 -63 62z" />
    <glyph glyph-name="cedilla" unicode="&#xb8;" horiz-adv-x="216" 
d="M80 -69l-18 21l25 50h49l-14 -32c37 0 66 -22 66 -64c0 -43 -30 -73 -85 -73c-56 0 -81 32 -81 32l21 36s22 -22 58 -22c24 0 38 11 38 29s-15 29 -36 29c-15 0 -23 -6 -23 -6z" />
    <glyph glyph-name="onesuperior" unicode="&#xb9;" horiz-adv-x="203" 
d="M17 609v59h137v-326h-67v267h-70z" />
    <glyph glyph-name="ordmasculine" unicode="&#xba;" horiz-adv-x="411" 
d="M206 613c100 0 174 -67 174 -175c0 -103 -74 -170 -174 -170c-101 0 -175 67 -175 170c0 108 74 175 175 175zM206 544c-58 0 -95 -42 -95 -105c0 -60 37 -102 95 -102s94 42 94 102c0 63 -36 105 -94 105z" />
    <glyph glyph-name="guillemotright" unicode="&#xbb;" horiz-adv-x="438" 
d="M221 181v-19l-106 -155h-83v8l103 154v7l-103 152v8h83zM406 181v-19l-106 -155h-83v8l103 154v7l-103 152v8h83z" />
    <glyph glyph-name="onequarter" unicode="&#xbc;" horiz-adv-x="640" 
d="M318 80v42l187 204h50v-191h52v-55h-52v-80h-64v80h-173zM96 1l-49 40l469 564l49 -40zM34 541v59h138v-326h-67v267h-71zM426 160c-10 -13 -23 -25 -26 -28l40 3h51v100h-1z" />
    <glyph glyph-name="onehalf" unicode="&#xbd;" horiz-adv-x="719" 
d="M98 1l-48 40l469 564l49 -40zM425 19v-19h261v58h-139l78 79c27 28 44 58 44 92c0 57 -35 106 -126 106c-75 0 -122 -46 -122 -46l35 -52c3 3 38 33 81 33c41 0 60 -21 60 -50c0 -21 -12 -39 -32 -59zM37 541v59h137v-326h-67v267h-70z" />
    <glyph glyph-name="threequarters" unicode="&#xbe;" horiz-adv-x="734" 
d="M410 77v42l188 204h50v-191h52v-55h-52v-77h-64v77h-174zM195 1l-49 40l469 564l50 -40zM50 541v59h238v-17l-68 -111c55 -9 83 -42 83 -96c0 -59 -45 -110 -138 -110c-75 0 -123 40 -129 46l35 50s40 -33 92 -33c49 0 70 21 70 49c0 29 -20 47 -62 47h-41v18l61 98h-141
zM519 158c-12 -14 -26 -28 -27 -29l40 3h52v73l1 27h-2z" />
    <glyph glyph-name="questiondown" unicode="&#xbf;" horiz-adv-x="387" 
d="M321 101l34 -77s-55 -32 -150 -32c-105 0 -165 63 -165 141c0 139 134 150 142 262l2 29h67v-38c0 -115 -112 -141 -112 -233c0 -48 35 -79 87 -79c59 0 95 27 95 27zM276 552c0 -34 -27 -60 -61 -60s-61 26 -61 60s27 61 61 61s61 -27 61 -61z" />
    <glyph glyph-name="Agrave" unicode="&#xc0;" horiz-adv-x="614" 
d="M-5 0l302 600h19l304 -600h-113l-45 91h-311l-44 -91h-112zM417 182l-107 235h-6l-108 -235l-6 -10h233zM273 638l-90 142v16h115l38 -142v-16h-63z" />
    <glyph glyph-name="Aacute" unicode="&#xc1;" horiz-adv-x="614" 
d="M-5 0l302 600h19l304 -600h-113l-45 91h-311l-44 -91h-112zM417 182l-107 235h-6l-108 -235l-6 -10h233zM428 780l-90 -142h-62v16l38 142h114v-16z" />
    <glyph glyph-name="Acircumflex" unicode="&#xc2;" horiz-adv-x="614" 
d="M389 638l-83 92l-85 -92h-63v16l95 142h104l95 -142v-16h-63zM-5 0l302 600h19l304 -600h-113l-45 91h-311l-44 -91h-112zM417 182l-107 235h-6l-108 -235l-6 -10h233z" />
    <glyph glyph-name="Atilde" unicode="&#xc3;" horiz-adv-x="614" 
d="M-5 0l302 600h19l304 -600h-113l-45 91h-311l-44 -91h-112zM417 182l-107 235h-6l-108 -235l-6 -10h233zM376 640c-57 0 -91 43 -127 43c-22 0 -32 -13 -35 -31l-2 -14l-68 6l3 29c5 48 35 85 90 85c57 0 90 -43 126 -43c24 0 32 13 36 31l3 14l69 -6l-4 -29
c-9 -48 -37 -85 -91 -85z" />
    <glyph glyph-name="Adieresis" unicode="&#xc4;" horiz-adv-x="614" 
d="M160 725c0 28 24 53 52 53s53 -25 53 -53s-25 -52 -53 -52s-52 24 -52 52zM344 725c0 28 24 53 52 53s53 -25 53 -53s-25 -52 -53 -52s-52 24 -52 52zM-5 0l302 600h19l304 -600h-113l-45 91h-311l-44 -91h-112zM417 182l-107 235h-6l-108 -235l-6 -10h233z" />
    <glyph glyph-name="Aring" unicode="&#xc5;" horiz-adv-x="615" 
d="M-5 0l283 562c-44 12 -74 49 -74 95c0 55 44 98 102 98c57 0 101 -43 101 -98c0 -46 -30 -83 -73 -94l286 -563h-113l-45 91h-311l-44 -91h-112zM417 182l-107 235h-6l-108 -235l-6 -10h233zM345 657c0 24 -15 40 -39 40c-23 0 -39 -16 -39 -40c0 -23 16 -39 39 -39
c24 0 39 16 39 39z" />
    <glyph glyph-name="AE" unicode="&#xc6;" horiz-adv-x="917" 
d="M-16 0l427 600h469v-88h-356v-174h302v-84h-302v-166h356v-88h-455v91h-257l-61 -91h-123zM416 449l-194 -277h203v277h-9z" />
    <glyph glyph-name="Ccedilla" unicode="&#xc7;" horiz-adv-x="586" 
d="M323 -69l-18 21l17 36c-173 14 -284 147 -284 311c0 175 125 314 316 314c144 0 211 -75 211 -75l-57 -77s-63 58 -152 58c-128 0 -216 -96 -216 -220c0 -123 88 -218 216 -218c96 0 152 57 152 57l57 -76s-62 -69 -193 -75l-7 -17c37 0 66 -22 66 -64
c0 -43 -30 -73 -85 -73c-56 0 -81 32 -81 32l21 36s22 -22 58 -22c24 0 38 11 38 29s-15 29 -36 29c-15 0 -23 -6 -23 -6z" />
    <glyph glyph-name="Egrave" unicode="&#xc8;" horiz-adv-x="570" 
d="M479 339v-84h-302v-167h356v-88h-455v600h455v-88h-356v-173h302zM288 637l-90 142v16h115l38 -142v-16h-63z" />
    <glyph glyph-name="Eacute" unicode="&#xc9;" horiz-adv-x="570" 
d="M421 780l-90 -142h-62v16l38 142h114v-16zM479 339v-84h-302v-167h356v-88h-455v600h455v-88h-356v-173h302z" />
    <glyph glyph-name="Ecircumflex" unicode="&#xca;" horiz-adv-x="570" 
d="M393 638l-83 92l-85 -92h-63v16l95 142h104l95 -142v-16h-63zM479 339v-84h-302v-167h356v-88h-455v600h455v-88h-356v-173h302z" />
    <glyph glyph-name="Edieresis" unicode="&#xcb;" horiz-adv-x="570" 
d="M164 705c0 28 24 53 52 53s53 -25 53 -53s-25 -52 -53 -52s-52 24 -52 52zM348 705c0 28 24 53 52 53s53 -25 53 -53s-25 -52 -53 -52s-52 24 -52 52zM479 339v-84h-302v-167h356v-88h-455v600h455v-88h-356v-173h302z" />
    <glyph glyph-name="Igrave" unicode="&#xcc;" horiz-adv-x="256" 
d="M177 600v-600h-99v600h99zM94 637l-90 142v16h115l38 -142v-16h-63z" />
    <glyph glyph-name="Iacute" unicode="&#xcd;" horiz-adv-x="256" 
d="M177 600v-600h-99v600h99zM249 780l-90 -142h-62v16l38 142h114v-16z" />
    <glyph glyph-name="Icircumflex" unicode="&#xce;" horiz-adv-x="256" 
d="M212 638l-83 92l-85 -92h-63v16l95 142h104l95 -142v-16h-63zM177 600v-600h-99v600h99z" />
    <glyph glyph-name="Idieresis" unicode="&#xcf;" horiz-adv-x="256" 
d="M-18 705c0 28 24 53 52 53s53 -25 53 -53s-25 -52 -53 -52s-52 24 -52 52zM166 705c0 28 24 53 52 53s53 -25 53 -53s-25 -52 -53 -52s-52 24 -52 52zM177 600v-600h-99v600h99z" />
    <glyph glyph-name="Eth" unicode="&#xd0;" horiz-adv-x="669" 
d="M13 269v62h73v269h224c194 0 319 -121 319 -300s-125 -300 -319 -300h-224v269h-73zM303 512h-118v-181h113v-62h-113v-181h118c128 0 225 76 225 212s-97 212 -225 212z" />
    <glyph glyph-name="Ntilde" unicode="&#xd1;" horiz-adv-x="696" 
d="M618 600v-600h-26l-415 402v-402h-99v600h26l415 -396v396h99zM416 655c-57 0 -91 43 -127 43c-22 0 -32 -13 -35 -31l-2 -14l-68 6l3 29c5 48 35 85 90 85c57 0 90 -43 126 -43c24 0 32 13 36 31l3 14l69 -6l-4 -29c-9 -48 -37 -85 -91 -85z" />
    <glyph glyph-name="Ograve" unicode="&#xd2;" horiz-adv-x="705" 
d="M317 638l-90 142v16h115l38 -142v-16h-63zM352 -14c-193 0 -314 140 -314 313c0 175 121 314 314 314c194 0 315 -139 315 -314c0 -173 -121 -313 -315 -313zM352 82c128 0 213 94 213 217c0 124 -85 219 -213 219c-127 0 -212 -95 -212 -219c0 -123 85 -217 212 -217z
" />
    <glyph glyph-name="Oacute" unicode="&#xd3;" horiz-adv-x="705" 
d="M471 780l-90 -142h-62v16l38 142h114v-16zM352 -14c-193 0 -314 140 -314 313c0 175 121 314 314 314c194 0 315 -139 315 -314c0 -173 -121 -313 -315 -313zM352 82c128 0 213 94 213 217c0 124 -85 219 -213 219c-127 0 -212 -95 -212 -219c0 -123 85 -217 212 -217z
" />
    <glyph glyph-name="Ocircumflex" unicode="&#xd4;" horiz-adv-x="705" 
d="M434 638l-83 92l-85 -92h-63v16l95 142h104l95 -142v-16h-63zM352 -14c-193 0 -314 140 -314 313c0 175 121 314 314 314c194 0 315 -139 315 -314c0 -173 -121 -313 -315 -313zM352 82c128 0 213 94 213 217c0 124 -85 219 -213 219c-127 0 -212 -95 -212 -219
c0 -123 85 -217 212 -217z" />
    <glyph glyph-name="Otilde" unicode="&#xd5;" horiz-adv-x="705" 
d="M352 -14c-193 0 -314 140 -314 313c0 175 121 314 314 314c194 0 315 -139 315 -314c0 -173 -121 -313 -315 -313zM352 82c128 0 213 94 213 217c0 124 -85 219 -213 219c-127 0 -212 -95 -212 -219c0 -123 85 -217 212 -217zM420 654c-57 0 -91 43 -127 43
c-22 0 -32 -13 -35 -31l-2 -14l-68 6l3 29c5 48 35 85 90 85c57 0 90 -43 126 -43c24 0 32 13 36 31l3 14l69 -6l-4 -29c-9 -48 -37 -85 -91 -85z" />
    <glyph glyph-name="Odieresis" unicode="&#xd6;" horiz-adv-x="705" 
d="M206 704c0 28 24 53 52 53s53 -25 53 -53s-25 -52 -53 -52s-52 24 -52 52zM390 704c0 28 24 53 52 53s53 -25 53 -53s-25 -52 -53 -52s-52 24 -52 52zM352 -14c-193 0 -314 140 -314 313c0 175 121 314 314 314c194 0 315 -139 315 -314c0 -173 -121 -313 -315 -313z
M352 82c128 0 213 94 213 217c0 124 -85 219 -213 219c-127 0 -212 -95 -212 -219c0 -123 85 -217 212 -217z" />
    <glyph glyph-name="multiply" unicode="&#xd7;" horiz-adv-x="514" 
d="M108 98l-57 56l149 149l-149 150l57 56l149 -149l149 149l57 -56l-150 -150l150 -149l-57 -56l-149 149z" />
    <glyph glyph-name="Oslash" unicode="&#xd8;" horiz-adv-x="703" 
d="M352 -14c-84 0 -154 26 -206 69l-61 -59l-44 44l62 60c-42 54 -65 123 -65 199c0 175 121 314 314 314c83 0 152 -26 205 -68l53 52l44 -44l-54 -53c43 -54 67 -124 67 -201c0 -173 -121 -313 -315 -313zM352 82c128 0 213 94 213 217c0 49 -13 94 -38 130l-309 -303
c35 -28 81 -44 134 -44zM140 299c0 -48 12 -92 36 -127l309 302c-35 28 -81 44 -133 44c-127 0 -212 -95 -212 -219z" />
    <glyph glyph-name="Ugrave" unicode="&#xd9;" horiz-adv-x="661" 
d="M331 -14c-163 0 -262 112 -262 268v346h99v-346c0 -97 54 -173 163 -173s161 76 161 173v346h99v-346c0 -156 -95 -268 -260 -268zM302 638l-90 142v16h115l38 -142v-16h-63z" />
    <glyph glyph-name="Uacute" unicode="&#xda;" horiz-adv-x="661" 
d="M451 780l-90 -142h-62v16l38 142h114v-16zM331 -14c-163 0 -262 112 -262 268v346h99v-346c0 -97 54 -173 163 -173s161 76 161 173v346h99v-346c0 -156 -95 -268 -260 -268z" />
    <glyph glyph-name="Ucircumflex" unicode="&#xdb;" horiz-adv-x="661" 
d="M416 638l-83 92l-85 -92h-63v16l95 142h104l95 -142v-16h-63zM331 -14c-163 0 -262 112 -262 268v346h99v-346c0 -97 54 -173 163 -173s161 76 161 173v346h99v-346c0 -156 -95 -268 -260 -268z" />
    <glyph glyph-name="Udieresis" unicode="&#xdc;" horiz-adv-x="661" 
d="M185 706c0 28 24 53 52 53s53 -25 53 -53s-25 -52 -53 -52s-52 24 -52 52zM369 706c0 28 24 53 52 53s53 -25 53 -53s-25 -52 -53 -52s-52 24 -52 52zM331 -14c-163 0 -262 112 -262 268v346h99v-346c0 -97 54 -173 163 -173s161 76 161 173v346h99v-346
c0 -156 -95 -268 -260 -268z" />
    <glyph glyph-name="Yacute" unicode="&#xdd;" horiz-adv-x="555" 
d="M301 365l141 235h114l-229 -371v-229h-99v229l-228 371h115l142 -235l16 -35h11zM400 780l-90 -142h-62v16l38 142h114v-16z" />
    <glyph glyph-name="Thorn" unicode="&#xde;" horiz-adv-x="606" 
d="M177 600v-94h162c150 0 242 -73 242 -204c0 -138 -100 -211 -248 -211h-156v-91h-99v600h99zM479 299c0 79 -56 118 -144 118h-158v-239h158c89 0 144 36 144 121z" />
    <glyph glyph-name="germandbls" unicode="&#xdf;" horiz-adv-x="491" 
d="M268 117h-50v28l83 124h-150v-269h-98v446c0 115 48 185 173 185c44 0 75 -14 75 -14l-26 -84s-19 9 -40 9c-53 0 -84 -24 -84 -88v-107h295v-18l-104 -152c69 -11 119 -52 119 -134c0 -94 -72 -148 -182 -148c-71 0 -107 18 -107 18l22 70s33 -13 77 -13
c53 0 85 31 85 74c0 48 -35 73 -88 73z" />
    <glyph glyph-name="agrave" unicode="&#xe0;" horiz-adv-x="424" 
d="M26 101c0 63 52 107 151 107c61 0 90 -18 101 -26h5v16c0 51 -31 77 -101 77c-57 0 -97 -26 -97 -26l-31 72s52 33 146 33c126 0 177 -67 177 -164v-190h-70l-10 38h-5c-10 -15 -41 -46 -123 -46c-93 0 -143 48 -143 109zM121 106c0 -27 23 -49 74 -49c52 0 86 29 86 51
c0 27 -34 47 -86 47c-48 0 -74 -19 -74 -49zM175 419l-90 142v16h115l38 -142v-16h-63z" />
    <glyph glyph-name="aacute" unicode="&#xe1;" horiz-adv-x="424" 
d="M26 101c0 63 52 107 151 107c61 0 90 -18 101 -26h5v16c0 51 -31 77 -101 77c-57 0 -97 -26 -97 -26l-31 72s52 33 146 33c126 0 177 -67 177 -164v-190h-70l-10 38h-5c-10 -15 -41 -46 -123 -46c-93 0 -143 48 -143 109zM121 106c0 -27 23 -49 74 -49c52 0 86 29 86 51
c0 27 -34 47 -86 47c-48 0 -74 -19 -74 -49zM323 561l-90 -142h-62v16l38 142h114v-16z" />
    <glyph glyph-name="acircumflex" unicode="&#xe2;" horiz-adv-x="424" 
d="M26 101c0 63 52 107 151 107c61 0 90 -18 101 -26h5v16c0 51 -31 77 -101 77c-57 0 -97 -26 -97 -26l-31 72s52 33 146 33c126 0 177 -67 177 -164v-190h-70l-10 38h-5c-10 -15 -41 -46 -123 -46c-93 0 -143 48 -143 109zM121 106c0 -27 23 -49 74 -49c52 0 86 29 86 51
c0 27 -34 47 -86 47c-48 0 -74 -19 -74 -49zM291 419l-83 92l-85 -92h-63v16l95 142h104l95 -142v-16h-63z" />
    <glyph glyph-name="atilde" unicode="&#xe3;" horiz-adv-x="424" 
d="M26 101c0 63 52 107 151 107c61 0 90 -18 101 -26h5v16c0 51 -31 77 -101 77c-57 0 -97 -26 -97 -26l-31 72s52 33 146 33c126 0 177 -67 177 -164v-190h-70l-10 38h-5c-10 -15 -41 -46 -123 -46c-93 0 -143 48 -143 109zM121 106c0 -27 23 -49 74 -49c52 0 86 29 86 51
c0 27 -34 47 -86 47c-48 0 -74 -19 -74 -49zM276 434c-57 0 -91 43 -127 43c-22 0 -32 -13 -35 -31l-2 -14l-68 6l3 29c5 48 35 85 90 85c57 0 90 -43 126 -43c24 0 32 13 36 31l3 14l69 -6l-4 -29c-9 -48 -37 -85 -91 -85z" />
    <glyph glyph-name="adieresis" unicode="&#xe4;" horiz-adv-x="424" 
d="M26 101c0 63 52 107 151 107c61 0 90 -18 101 -26h5v16c0 51 -31 77 -101 77c-57 0 -97 -26 -97 -26l-31 72s52 33 146 33c126 0 177 -67 177 -164v-190h-70l-10 38h-5c-10 -15 -41 -46 -123 -46c-93 0 -143 48 -143 109zM121 106c0 -27 23 -49 74 -49c52 0 86 29 86 51
c0 27 -34 47 -86 47c-48 0 -74 -19 -74 -49zM63 483c0 28 24 53 52 53s53 -25 53 -53s-25 -52 -53 -52s-52 24 -52 52zM247 483c0 28 24 53 52 53s53 -25 53 -53s-25 -52 -53 -52s-52 24 -52 52z" />
    <glyph glyph-name="aring" unicode="&#xe5;" horiz-adv-x="424" 
d="M26 101c0 63 52 107 151 107c61 0 90 -18 101 -26h5v16c0 51 -31 77 -101 77c-57 0 -97 -26 -97 -26l-31 72s52 33 146 33c126 0 177 -67 177 -164v-190h-70l-10 38h-5c-10 -15 -41 -46 -123 -46c-93 0 -143 48 -143 109zM121 106c0 -27 23 -49 74 -49c52 0 86 29 86 51
c0 27 -34 47 -86 47c-48 0 -74 -19 -74 -49zM205 423c-58 0 -102 43 -102 98s44 98 102 98c57 0 101 -43 101 -98s-44 -98 -101 -98zM244 521c0 24 -15 40 -39 40c-23 0 -39 -16 -39 -40c0 -23 16 -39 39 -39c24 0 39 16 39 39z" />
    <glyph glyph-name="ae" unicode="&#xe6;" horiz-adv-x="673" 
d="M587 93l32 -65s-49 -38 -141 -38c-60 0 -109 20 -142 54c-32 -31 -80 -52 -149 -52c-114 0 -161 51 -161 111c0 62 54 104 144 104c77 0 105 -24 109 -27h2v15c0 51 -29 81 -99 81c-57 0 -100 -25 -100 -25l-29 72s60 31 147 31c66 0 111 -18 139 -50c33 31 79 50 133 50
c108 0 174 -71 174 -176c0 -10 -1 -25 -1 -25h-264c9 -58 53 -86 108 -86c61 0 98 26 98 26zM119 106c0 -29 23 -50 76 -50c50 0 88 23 88 51c0 27 -39 47 -88 47c-53 0 -76 -20 -76 -48zM471 282c-45 0 -79 -24 -88 -75h171c-4 43 -33 75 -83 75z" />
    <glyph glyph-name="ccedilla" unicode="&#xe7;" horiz-adv-x="361" 
d="M191 -69l-18 21l21 43c-99 12 -164 84 -164 177c0 105 80 182 196 182c75 0 114 -29 114 -29l-29 -73s-30 21 -77 21c-60 0 -105 -39 -105 -101c0 -60 45 -99 105 -99c47 0 77 21 77 21l26 -72s-31 -25 -94 -29l-10 -23c37 0 66 -22 66 -64c0 -43 -30 -73 -85 -73
c-56 0 -81 32 -81 32l21 36s22 -22 58 -22c24 0 38 11 38 29s-15 29 -36 29c-15 0 -23 -6 -23 -6z" />
    <glyph glyph-name="egrave" unicode="&#xe8;" horiz-adv-x="415" 
d="M330 93l32 -63s-43 -40 -132 -40c-123 0 -200 79 -200 182c0 105 76 182 186 182c108 0 173 -73 173 -176v-24h-263c8 -59 52 -87 108 -87c61 0 96 26 96 26zM214 281c-44 0 -76 -25 -86 -72h168c-6 41 -36 72 -82 72zM183 419l-90 142v16h115l38 -142v-16h-63z" />
    <glyph glyph-name="eacute" unicode="&#xe9;" horiz-adv-x="415" 
d="M327 561l-90 -142h-62v16l38 142h114v-16zM330 93l32 -63s-43 -40 -132 -40c-123 0 -200 79 -200 182c0 105 76 182 186 182c108 0 173 -73 173 -176v-24h-263c8 -59 52 -87 108 -87c61 0 96 26 96 26zM214 281c-44 0 -76 -25 -86 -72h168c-6 41 -36 72 -82 72z" />
    <glyph glyph-name="ecircumflex" unicode="&#xea;" horiz-adv-x="415" 
d="M299 419l-83 92l-85 -92h-63v16l95 142h104l95 -142v-16h-63zM330 93l32 -63s-43 -40 -132 -40c-123 0 -200 79 -200 182c0 105 76 182 186 182c108 0 173 -73 173 -176v-24h-263c8 -59 52 -87 108 -87c61 0 96 26 96 26zM214 281c-44 0 -76 -25 -86 -72h168
c-6 41 -36 72 -82 72z" />
    <glyph glyph-name="edieresis" unicode="&#xeb;" horiz-adv-x="415" 
d="M72 483c0 28 24 53 52 53s53 -25 53 -53s-25 -52 -53 -52s-52 24 -52 52zM256 483c0 28 24 53 52 53s53 -25 53 -53s-25 -52 -53 -52s-52 24 -52 52zM330 93l32 -63s-43 -40 -132 -40c-123 0 -200 79 -200 182c0 105 76 182 186 182c108 0 173 -73 173 -176v-24h-263
c8 -59 52 -87 108 -87c61 0 96 26 96 26zM214 281c-44 0 -76 -25 -86 -72h168c-6 41 -36 72 -82 72z" />
    <glyph glyph-name="igrave" unicode="&#xec;" horiz-adv-x="205" 
d="M54 0v346h98v-346h-98zM69 419l-90 142v16h115l38 -142v-16h-63z" />
    <glyph glyph-name="iacute" unicode="&#xed;" horiz-adv-x="205" 
d="M225 561l-90 -142h-62v16l38 142h114v-16zM54 0v346h98v-346h-98z" />
    <glyph glyph-name="icircumflex" unicode="&#xee;" horiz-adv-x="205" 
d="M185 419l-83 92l-85 -92h-63v16l95 142h104l95 -142v-16h-63zM54 0v346h98v-346h-98z" />
    <glyph glyph-name="idieresis" unicode="&#xef;" horiz-adv-x="205" 
d="M-40 483c0 28 24 53 52 53s53 -25 53 -53s-25 -52 -53 -52s-52 24 -52 52zM144 483c0 28 24 53 52 53s53 -25 53 -53s-25 -52 -53 -52s-52 24 -52 52zM54 0v346h98v-346h-98z" />
    <glyph glyph-name="eth" unicode="&#xf0;" horiz-adv-x="465" 
d="M110 381l-32 55l99 56l-58 96v12h92l41 -65l94 53l31 -54l-92 -53l94 -149c35 -55 54 -95 54 -161c0 -110 -82 -180 -201 -180c-118 0 -202 70 -202 180c0 105 82 182 203 182c11 0 22 -1 33 -3v6s-15 16 -37 51l-19 31zM334 173c0 56 -41 99 -101 99
c-62 0 -104 -43 -104 -99c0 -59 43 -101 103 -101c61 0 102 42 102 101z" />
    <glyph glyph-name="ntilde" unicode="&#xf1;" horiz-adv-x="459" 
d="M53 0v346h63l13 -48h5c24 34 62 56 123 56c96 0 155 -60 155 -153v-201h-98v187c0 50 -28 86 -80 86c-53 0 -83 -37 -83 -72v-201h-98zM298 434c-57 0 -91 43 -127 43c-22 0 -32 -13 -35 -31l-2 -14l-68 6l3 29c5 48 35 85 90 85c57 0 90 -43 126 -43c24 0 32 13 36 31
l3 14l69 -6l-4 -29c-9 -48 -37 -85 -91 -85z" />
    <glyph glyph-name="ograve" unicode="&#xf2;" horiz-adv-x="445" 
d="M416 171c0 -109 -87 -179 -193 -179c-107 0 -193 70 -193 179c0 111 86 183 193 183c106 0 193 -72 193 -183zM223 70c55 0 97 40 97 102c0 63 -42 104 -97 104s-97 -41 -97 -104c0 -62 42 -102 97 -102zM192 419l-90 142v16h115l38 -142v-16h-63z" />
    <glyph glyph-name="oacute" unicode="&#xf3;" horiz-adv-x="445" 
d="M349 561l-90 -142h-62v16l38 142h114v-16zM416 171c0 -109 -87 -179 -193 -179c-107 0 -193 70 -193 179c0 111 86 183 193 183c106 0 193 -72 193 -183zM223 70c55 0 97 40 97 102c0 63 -42 104 -97 104s-97 -41 -97 -104c0 -62 42 -102 97 -102z" />
    <glyph glyph-name="ocircumflex" unicode="&#xf4;" horiz-adv-x="445" 
d="M306 419l-83 92l-85 -92h-63v16l95 142h104l95 -142v-16h-63zM416 171c0 -109 -87 -179 -193 -179c-107 0 -193 70 -193 179c0 111 86 183 193 183c106 0 193 -72 193 -183zM223 70c55 0 97 40 97 102c0 63 -42 104 -97 104s-97 -41 -97 -104c0 -62 42 -102 97 -102z" />
    <glyph glyph-name="otilde" unicode="&#xf5;" horiz-adv-x="445" 
d="M416 171c0 -109 -87 -179 -193 -179c-107 0 -193 70 -193 179c0 111 86 183 193 183c106 0 193 -72 193 -183zM223 70c55 0 97 40 97 102c0 63 -42 104 -97 104s-97 -41 -97 -104c0 -62 42 -102 97 -102zM288 434c-57 0 -91 43 -127 43c-22 0 -32 -13 -35 -31l-2 -14
l-68 6l3 29c5 48 35 85 90 85c57 0 90 -43 126 -43c24 0 32 13 36 31l3 14l69 -6l-4 -29c-9 -48 -37 -85 -91 -85z" />
    <glyph glyph-name="odieresis" unicode="&#xf6;" horiz-adv-x="445" 
d="M78 483c0 28 24 53 52 53s53 -25 53 -53s-25 -52 -53 -52s-52 24 -52 52zM262 483c0 28 24 53 52 53s53 -25 53 -53s-25 -52 -53 -52s-52 24 -52 52zM416 171c0 -109 -87 -179 -193 -179c-107 0 -193 70 -193 179c0 111 86 183 193 183c106 0 193 -72 193 -183zM223 70
c55 0 97 40 97 102c0 63 -42 104 -97 104s-97 -41 -97 -104c0 -62 42 -102 97 -102z" />
    <glyph glyph-name="divide" unicode="&#xf7;" horiz-adv-x="496" 
d="M185 132c0 35 28 64 63 64s64 -29 64 -64s-29 -62 -64 -62s-63 27 -63 62zM185 463c0 36 28 64 63 64s64 -28 64 -64c0 -35 -29 -62 -64 -62s-63 27 -63 62zM48 256v81h400v-81h-400z" />
    <glyph glyph-name="oslash" unicode="&#xf8;" horiz-adv-x="445" 
d="M417 171c0 -109 -87 -179 -193 -179c-44 0 -84 12 -117 33l-38 -38l-34 34l36 36c-26 29 -40 68 -40 114c0 111 86 183 193 183c41 0 80 -11 111 -31l42 42l34 -34l-39 -39c28 -31 45 -72 45 -121zM224 70c55 0 97 40 97 102c0 22 -5 41 -14 57l-141 -142
c16 -11 36 -17 58 -17zM127 172c0 -19 4 -36 11 -50l139 139c-15 9 -34 15 -53 15c-55 0 -97 -41 -97 -104z" />
    <glyph glyph-name="ugrave" unicode="&#xf9;" horiz-adv-x="457" 
d="M405 346v-346h-66l-17 47h-4c-11 -20 -44 -55 -118 -55c-96 0 -153 60 -153 153v201h98v-187c0 -50 26 -86 78 -86c53 0 84 37 84 71v202h98zM194 419l-90 142v16h115l38 -142v-16h-63z" />
    <glyph glyph-name="uacute" unicode="&#xfa;" horiz-adv-x="457" 
d="M348 561l-90 -142h-62v16l38 142h114v-16zM405 346v-346h-66l-17 47h-4c-11 -20 -44 -55 -118 -55c-96 0 -153 60 -153 153v201h98v-187c0 -50 26 -86 78 -86c53 0 84 37 84 71v202h98z" />
    <glyph glyph-name="ucircumflex" unicode="&#xfb;" horiz-adv-x="457" 
d="M310 419l-83 92l-85 -92h-63v16l95 142h104l95 -142v-16h-63zM405 346v-346h-66l-17 47h-4c-11 -20 -44 -55 -118 -55c-96 0 -153 60 -153 153v201h98v-187c0 -50 26 -86 78 -86c53 0 84 37 84 71v202h98z" />
    <glyph glyph-name="udieresis" unicode="&#xfc;" horiz-adv-x="457" 
d="M86 483c0 28 24 53 52 53s53 -25 53 -53s-25 -52 -53 -52s-52 24 -52 52zM270 483c0 28 24 53 52 53s53 -25 53 -53s-25 -52 -53 -52s-52 24 -52 52zM405 346v-346h-66l-17 47h-4c-11 -20 -44 -55 -118 -55c-96 0 -153 60 -153 153v201h98v-187c0 -50 26 -86 78 -86
c53 0 84 37 84 71v202h98z" />
    <glyph glyph-name="yacute" unicode="&#xfd;" horiz-adv-x="412" 
d="M404 346l-248 -538h-104l109 220l-153 318h107l83 -194c4 -9 8 -21 9 -35h5c1 14 6 26 10 35l82 194h100zM334 561l-90 -142h-62v16l38 142h114v-16z" />
    <glyph glyph-name="thorn" unicode="&#xfe;" horiz-adv-x="467" 
d="M154 49h-4v-241h-98v792h98v-300h4s28 54 111 54c98 0 170 -70 170 -181c0 -108 -74 -181 -170 -181c-86 0 -111 57 -111 57zM146 173c0 -62 40 -100 96 -100c55 0 94 41 94 100c0 58 -39 100 -94 100c-56 0 -96 -39 -96 -100z" />
    <glyph glyph-name="ydieresis" unicode="&#xff;" horiz-adv-x="412" 
d="M404 346l-248 -538h-104l109 220l-153 318h107l83 -194c4 -9 8 -21 9 -35h5c1 14 6 26 10 35l82 194h100zM67 483c0 28 24 53 52 53s53 -25 53 -53s-25 -52 -53 -52s-52 24 -52 52zM251 483c0 28 24 53 52 53s53 -25 53 -53s-25 -52 -53 -52s-52 24 -52 52z" />
    <glyph glyph-name="NUL" horiz-adv-x="0" 
 />
    <glyph glyph-name="NUL" horiz-adv-x="0" 
 />
    <glyph glyph-name="CR" unicode="&#xd;" horiz-adv-x="177" 
 />
    <glyph glyph-name="f_f" unicode="&#xfb00;" horiz-adv-x="674" 
d="M308 269h-116v-269h-98v269h-77v77h77v142c0 121 61 178 156 178c50 0 79 -17 82 -18l-25 -85s-23 12 -43 12c-49 0 -72 -27 -72 -87v-142h116v-77zM657 269h-116v-269h-98v269h-77v77h77v142c0 121 61 178 156 178c50 0 79 -17 82 -18l-25 -85s-23 12 -43 12
c-49 0 -72 -27 -72 -87v-142h116v-77z" />
    <glyph glyph-name="f_f_i" unicode="&#xfb03;" horiz-adv-x="899" 
d="M796 470c-33 0 -58 25 -58 58s25 59 58 59s59 -26 59 -59s-26 -58 -59 -58zM747 0v346h98v-346h-98zM309 269h-116v-269h-98v269h-77v77h77v142c0 121 61 178 156 178c50 0 79 -17 82 -18l-25 -85s-23 12 -43 12c-49 0 -72 -27 -72 -87v-142h116v-77zM657 269h-116v-269
h-98v269h-77v77h77v142c0 121 61 178 156 178c50 0 79 -17 82 -18l-25 -85s-23 12 -43 12c-49 0 -72 -27 -72 -87v-142h116v-77z" />
    <glyph glyph-name="f_f_l" unicode="&#xfb04;" horiz-adv-x="894" 
d="M741 0v668h98v-668h-98zM309 269h-116v-269h-98v269h-77v77h77v142c0 121 61 178 156 178c50 0 79 -17 82 -18l-25 -85s-23 12 -43 12c-49 0 -72 -27 -72 -87v-142h116v-77zM657 269h-116v-269h-98v269h-77v77h77v142c0 121 61 178 156 178c50 0 79 -17 82 -18l-25 -85
s-23 12 -43 12c-49 0 -72 -27 -72 -87v-142h116v-77z" />
    <glyph glyph-name="three.alt" horiz-adv-x="519" 
d="M176 342h77c56 0 91 31 91 80c0 57 -41 98 -117 98s-141 -64 -141 -64l-48 72s68 85 203 85c134 0 213 -74 213 -173c0 -55 -25 -104 -74 -134c61 -20 96 -65 96 -135c0 -108 -84 -184 -233 -184c-131 0 -204 76 -204 76l49 74s61 -58 152 -58c81 0 127 37 127 94
c0 56 -41 87 -113 87h-78v82z" />
    <glyph glyph-name="published" horiz-adv-x="716" 
d="M357 608c198 0 317 -139 317 -309c0 -169 -119 -308 -317 -308c-196 0 -316 139 -316 308c0 170 120 309 316 309zM357 553c-160 0 -258 -114 -258 -254c0 -138 98 -252 258 -252c162 0 260 114 260 252c0 140 -98 254 -260 254zM386 449c78 0 123 -47 123 -113
c0 -65 -45 -109 -126 -109h-73v-76h-68v298h144zM438 336c0 37 -25 55 -64 55h-64v-110h65c38 0 63 15 63 55z" />
    <glyph glyph-name="registered.alt" horiz-adv-x="716" 
d="M357 608c198 0 317 -139 317 -309c0 -169 -119 -308 -317 -308c-196 0 -316 139 -316 308c0 170 120 309 316 309zM357 553c-160 0 -258 -114 -258 -254c0 -138 98 -252 258 -252c162 0 260 114 260 252c0 140 -98 254 -260 254zM234 151v298h144c77 0 123 -46 123 -111
c0 -43 -21 -76 -59 -93v-5l57 -79v-10h-71l-56 82h-70v-82h-68zM430 338c0 35 -25 53 -64 53h-64v-104h64c39 0 64 15 64 51z" />
    <glyph glyph-name="servicemark" unicode="&#x2120;" horiz-adv-x="750" 
d="M427 281h-65v319h17l144 -135c17 16 126 119 144 135h17v-319h-65v194l-90 -86h-13l-89 86v-194zM55 315l34 45s39 -30 91 -30c41 0 58 15 58 37c0 23 -24 34 -73 49c-70 21 -107 45 -107 98c0 56 44 93 123 93c84 0 117 -33 117 -33l-33 -50s-33 27 -86 27
c-34 0 -56 -12 -56 -33s23 -32 66 -44c79 -22 118 -46 118 -102c0 -54 -39 -97 -125 -97c-84 0 -127 40 -127 40z" />
    <glyph glyph-name="baht" horiz-adv-x="640" 
d="M600 171c0 -113 -89 -171 -226 -171h-78l-18 -102h-58l18 102h-151v600h255l17 96h59l-17 -98c116 -9 180 -64 180 -161c0 -58 -30 -101 -80 -122v-12c60 -20 99 -66 99 -132zM494 177c0 56 -46 88 -109 91h-42l-32 -182h67c68 0 116 33 116 91zM186 514v-177h110l31 177
h-141zM186 268v-182h67l31 182h-98zM476 424c0 53 -36 82 -90 88l-31 -175h7c72 0 114 31 114 87z" />
    <glyph glyph-name="colonmonetary" unicode="&#x20a1;" horiz-adv-x="601" 
d="M507 138l57 -76s-67 -75 -210 -76l-15 -88h-60l16 93c-19 3 -37 7 -54 13l-18 -106h-59l22 130c-94 54 -149 155 -149 271c0 154 97 280 250 308l16 89h59l-15 -83h6c18 0 35 -1 51 -3l15 86h59l-17 -99c70 -22 103 -59 103 -59l-57 -77s-25 22 -63 39l-73 -419
c86 6 136 57 136 57zM139 299c0 -65 24 -122 66 -162l64 365c-80 -32 -130 -109 -130 -203zM258 101c17 -7 34 -13 53 -16l76 431c-10 2 -21 3 -32 3c-8 0 -16 0 -24 -1z" />
    <glyph glyph-name="naira" unicode="&#x20a6;" horiz-adv-x="753" 
d="M646 600v-118h54v-57h-54v-245h54v-57h-54v-123h-26l-127 123h-288v-123h-99v123h-61v57h61v245h-61v57h61v118h26l123 -118h292v118h99zM315 425l232 -221v221h-232zM205 402v-222h229z" />
    <glyph glyph-name="peso" horiz-adv-x="695" 
d="M104 0v366h-61v57h61v177h261c139 0 229 -63 241 -177h59v-57h-60c-14 -118 -110 -181 -246 -181h-156v-185h-99zM361 272c79 0 132 28 143 94h-301v-94h158zM203 512v-89h300c-13 59 -66 89 -142 89h-158z" />
    <glyph glyph-name="R_p" horiz-adv-x="1068" 
d="M757 36h-4v-228h-98v538h64l15 -48h5s32 56 126 56c98 0 173 -70 173 -181c0 -108 -74 -181 -170 -181c-86 0 -111 44 -111 44zM748 173c0 -62 41 -100 96 -100c56 0 95 41 95 100c0 58 -39 100 -95 100c-55 0 -96 -39 -96 -100zM78 0v600h260c151 0 243 -73 243 -203
c0 -94 -49 -156 -125 -186v-6l149 -191v-14h-110l-147 190h-171v-190h-99zM479 393c0 79 -56 119 -144 119h-158v-236h164c83 0 138 37 138 117z" />
    <glyph glyph-name="rupee" unicode="&#x20a8;" horiz-adv-x="1011" 
d="M654 31l30 67s55 -34 120 -34c42 0 66 14 66 36c0 59 -212 26 -212 148c0 60 46 106 153 106c102 0 154 -29 154 -29l-31 -72s-40 28 -112 28c-39 0 -62 -9 -62 -33c0 -57 214 -23 214 -148c0 -60 -49 -108 -162 -108c-108 0 -158 39 -158 39zM89 0v600h260
c151 0 243 -73 243 -203c0 -94 -49 -156 -125 -186v-6l149 -191v-14h-110l-147 190h-171v-190h-99zM490 393c0 79 -56 119 -144 119h-158v-236h164c83 0 138 37 138 117z" />
    <glyph glyph-name="won" unicode="&#x20a9;" horiz-adv-x="942" 
d="M891 191v-57h-192l-51 -134h-48l-43 134h-173l-44 -134h-46l-51 134h-193v57h171l-87 228h-84v57h62l-47 124h105l44 -124h196l41 124h42l39 -124h195l44 124h106l-48 -124h62v-57h-83l-87 -228h170zM632 193l19 66l56 160h-156l53 -166l19 -60h9zM338 253l54 166h-157
l57 -160l18 -66h8zM453 345l-51 -154h136l-49 154l-15 60h-5z" />
    <glyph glyph-name="sheqel" unicode="&#x20aa;" horiz-adv-x="524" 
d="M447 346v-346h-132c-79 0 -110 41 -122 106l-14 97h53l13 -67c8 -32 19 -53 57 -53h81v263h64zM77 0v346h156c79 0 109 -46 109 -111v-92h-50l-6 67c-1 33 -18 53 -54 53h-91v-263h-64z" />
    <glyph glyph-name="onehalf.alt" horiz-adv-x="776" 
d="M153 1l-49 40l469 564l49 -40zM483 19v-19h261v58h-139l77 79c27 28 45 58 45 92c0 57 -35 106 -126 106c-75 0 -122 -46 -122 -46l35 -52c3 3 37 33 81 33c40 0 59 -21 59 -50c0 -21 -12 -38 -31 -59zM46 541v59h137v-267h63v-59h-200v59h70v208h-70z" />
    <glyph glyph-name="onethird" unicode="&#x2153;" horiz-adv-x="727" 
d="M98 1l-49 40l469 564l49 -40zM439 267v58h238v-16l-68 -111c56 -9 83 -43 83 -96c0 -59 -45 -111 -138 -111c-75 0 -124 41 -129 46l35 51s39 -34 92 -34c49 0 70 22 70 50s-21 46 -62 46h-42v18l61 99h-140zM36 541v59h138v-326h-67v267h-71z" />
    <glyph glyph-name="onethird.alt" horiz-adv-x="787" 
d="M153 1l-49 40l469 564l49 -40zM498 267v58h238v-16l-67 -111c55 -9 82 -43 82 -96c0 -59 -44 -111 -137 -111c-76 0 -124 41 -130 46l36 51s39 -34 91 -34c49 0 70 22 70 50c0 26 -18 44 -56 46h-47v18l61 99h-141zM46 541v59h137v-267h63v-59h-200v59h70v208h-70z" />
    <glyph glyph-name="twothirds" unicode="&#x2154;" horiz-adv-x="842" 
d="M215 1l-49 39l469 564l49 -39zM553 267v59h239v-17l-69 -111c56 -9 83 -42 83 -96c0 -59 -44 -110 -138 -110c-75 0 -123 40 -129 46l36 50s39 -33 92 -33c48 0 70 21 70 49c0 27 -19 45 -57 47h-47v18l61 98h-141zM44 278v18l139 142c20 21 32 39 32 60
c0 29 -19 50 -60 50c-43 0 -77 -31 -80 -33l-35 52s47 46 122 46c90 0 125 -48 125 -106c0 -34 -17 -64 -44 -92l-77 -79h139v-58h-261z" />
    <glyph glyph-name="onequarter.alt" horiz-adv-x="698" 
d="M376 80v42l188 204h50v-191h52v-55h-52v-80h-64v80h-174zM155 1l-49 40l469 564l49 -40zM45 541v59h138v-267h63v-59h-201v59h71v208h-71zM485 160c-10 -13 -23 -25 -26 -28l39 3h52v73l2 27h-3z" />
    <glyph glyph-name="onefifth" horiz-adv-x="745" 
d="M469 326h218v-59h-162l-2 -72c16 2 35 4 58 4c84 0 129 -35 129 -98c0 -59 -44 -109 -138 -109c-75 0 -123 40 -129 46l34 48s33 -31 91 -31c51 0 72 18 72 46s-21 47 -82 47c-54 1 -78 -11 -78 -11l-18 10zM98 1l-48 40l469 564l49 -40zM37 600h137v-326h-67v267h-70v59
z" />
    <glyph glyph-name="onefifth.alt" horiz-adv-x="815" 
d="M538 326h218v-59h-162l-2 -72c16 2 34 4 58 4c84 0 129 -35 129 -98c0 -59 -44 -109 -137 -109c-76 0 -124 40 -129 46l33 48s33 -31 90 -31c52 0 73 18 73 46s-21 47 -81 47c-54 1 -80 -11 -80 -11l-17 10zM182 1l-49 40l469 564l49 -40zM45 541v59h137v-267h63v-59
h-200v59h70v208h-70z" />
    <glyph glyph-name="twofifths" horiz-adv-x="877" 
d="M601 326h218v-59h-162l-2 -72c16 2 34 4 58 4c84 0 129 -35 129 -98c0 -59 -44 -109 -138 -109c-75 0 -123 40 -129 46l35 48s32 -31 90 -31c52 0 73 18 73 46s-21 47 -82 47c-55 1 -79 -11 -79 -11l-18 10zM237 1l-49 39l469 564l50 -39zM44 278v18l140 142
c20 20 31 39 31 60c0 29 -18 50 -59 50c-44 0 -77 -31 -80 -33l-35 52s47 46 121 46c91 0 126 -48 126 -106c0 -34 -17 -65 -44 -92l-77 -79h138v-58h-261z" />
    <glyph glyph-name="threefifths" horiz-adv-x="811" 
d="M533 326h218v-59h-162l-2 -72c15 2 34 4 57 4c85 0 130 -35 130 -98c0 -59 -44 -109 -138 -109c-75 0 -123 40 -129 46l34 48s33 -31 90 -31c52 0 73 18 73 46s-21 47 -81 47c-55 1 -80 -11 -80 -11l-17 10zM195 1l-48 40l469 564l49 -40zM50 541v59h238v-17l-68 -111
c55 -9 83 -42 83 -96c0 -59 -45 -110 -138 -110c-75 0 -123 40 -129 46l35 50s40 -33 92 -33c49 0 70 21 70 49c0 29 -20 47 -62 47h-41v18l61 98h-141z" />
    <glyph glyph-name="fourfifths" horiz-adv-x="854" 
d="M575 326h218v-59h-162l-2 -72c16 2 34 4 58 4c84 0 130 -35 130 -98c0 -59 -45 -109 -138 -109c-76 0 -123 40 -129 46l34 48s33 -31 90 -31c51 0 73 18 73 46s-22 47 -82 47c-54 1 -79 -11 -79 -11l-17 10zM30 354v42l188 204h50v-191h52v-55h-52v-80h-64v80h-174z
M225 1l-49 39l469 564l49 -39zM139 434c-10 -13 -23 -25 -26 -28l39 3h52v73l1 27h-2z" />
    <glyph glyph-name="onesixth" horiz-adv-x="734" 
d="M564 231c83 0 140 -42 140 -116c0 -76 -57 -123 -140 -123s-139 47 -139 123c0 43 14 74 46 118l67 94h76l-49 -67c-11 -17 -22 -27 -22 -27v-3c7 0 13 1 21 1zM124 1l-49 40l469 564l50 -40zM37 541v59h137v-326h-67v267h-70zM564 175c-41 0 -69 -21 -69 -61
c0 -39 27 -63 69 -63c43 0 70 24 70 63s-27 61 -70 61z" />
    <glyph glyph-name="onesixth.alt" horiz-adv-x="802" 
d="M633 231c82 0 139 -42 139 -116c0 -76 -57 -123 -139 -123c-83 0 -140 47 -140 123c0 43 14 74 46 118l67 94h76l-48 -67c-12 -17 -23 -27 -23 -27v-3c7 0 14 1 22 1zM194 1l-49 40l469 564l50 -40zM46 541v59h137v-267h63v-59h-200v59h70v208h-70zM633 175
c-41 0 -70 -21 -70 -61c0 -39 27 -63 70 -63c42 0 70 24 70 63s-28 61 -70 61z" />
    <glyph glyph-name="fivesixths" horiz-adv-x="812" 
d="M642 231c82 0 139 -42 139 -116c0 -76 -57 -123 -139 -123c-83 0 -139 47 -139 123c0 43 13 74 45 118l67 94h76l-48 -67c-11 -17 -23 -27 -23 -27v-3c7 0 14 1 22 1zM62 600h218v-59h-162l-2 -72c16 2 35 4 58 4c84 0 129 -35 129 -98c0 -59 -44 -109 -138 -109
c-75 0 -123 40 -129 46l35 48s32 -31 90 -31c52 0 73 18 73 46s-21 47 -83 47c-54 1 -78 -11 -78 -11l-18 10zM212 1l-50 40l469 564l50 -40zM642 175c-41 0 -70 -21 -70 -61c0 -39 27 -63 70 -63c42 0 70 24 70 63s-28 61 -70 61z" />
    <glyph glyph-name="oneeighth" unicode="&#x215b;" horiz-adv-x="726" 
d="M416 95c0 36 19 63 54 77c-28 16 -42 41 -42 72c0 51 50 91 127 91s128 -40 128 -91c0 -31 -15 -56 -42 -72c33 -14 53 -41 53 -77c0 -53 -48 -103 -139 -103c-90 0 -139 50 -139 103zM99 1l-49 40l469 564l50 -40zM38 541v59h137v-326h-67v267h-70zM555 147
c-43 0 -68 -20 -68 -48c0 -27 25 -51 68 -51s70 24 70 51c0 28 -27 48 -70 48zM555 189c41 0 60 20 60 45s-21 44 -60 44c-37 0 -59 -19 -59 -44s20 -45 59 -45z" />
    <glyph glyph-name="oneeighth.alt" horiz-adv-x="811" 
d="M502 95c0 -53 49 -103 139 -103s139 50 139 103c0 36 -21 63 -54 77c27 16 42 41 42 72c0 51 -50 91 -127 91c-78 0 -128 -40 -128 -91c0 -31 14 -56 42 -72c-34 -14 -53 -41 -53 -77zM187 1l-48 40l469 564l49 -40zM181 600v-267h63v-59h-200v59h70v208h-70v59h137z
M641 147c43 0 69 -20 69 -48c0 -27 -26 -51 -69 -51c-44 0 -69 24 -69 51c0 28 25 48 69 48zM641 189c-39 0 -60 20 -60 45s22 44 60 44s60 -19 60 -44s-20 -45 -60 -45z" />
    <glyph glyph-name="threeeighths" unicode="&#x215c;" horiz-adv-x="814" 
d="M503 95c0 -53 49 -103 139 -103s139 50 139 103c0 36 -21 63 -54 77c27 16 42 41 42 72c0 51 -50 91 -127 91s-128 -40 -128 -91c0 -31 15 -56 42 -72c-34 -14 -53 -41 -53 -77zM198 1l-49 40l469 564l50 -40zM50 541v59h238v-17l-68 -111c55 -9 83 -42 83 -96
c0 -59 -45 -110 -138 -110c-75 0 -123 40 -129 46l35 50s40 -33 92 -33c49 0 70 21 70 49c0 27 -18 47 -56 47h-47v18l61 98h-141zM642 147c43 0 69 -20 69 -48c0 -27 -26 -51 -69 -51c-44 0 -69 24 -69 51c0 28 25 48 69 48zM642 189c-39 0 -60 20 -60 45s22 44 60 44
s60 -19 60 -44s-20 -45 -60 -45z" />
    <glyph glyph-name="fiveeighths" unicode="&#x215d;" horiz-adv-x="808" 
d="M496 95c0 -53 49 -103 139 -103c91 0 139 50 139 103c0 36 -20 63 -54 77c27 16 42 41 42 72c0 51 -50 91 -127 91s-128 -40 -128 -91c0 -31 15 -56 43 -72c-35 -14 -54 -41 -54 -77zM60 600h218v-59h-162l-2 -72c16 2 35 4 58 4c84 0 129 -35 129 -98
c0 -59 -44 -109 -138 -109c-75 0 -123 40 -129 46l35 48s32 -31 90 -31c52 0 73 18 73 46s-21 47 -83 47c-54 1 -78 -11 -78 -11l-18 10zM196 1l-48 40l469 564l49 -40zM635 147c43 0 69 -20 69 -48c0 -27 -26 -51 -69 -51c-44 0 -69 24 -69 51c0 28 25 48 69 48zM635 189
c-39 0 -60 20 -60 45s23 44 60 44c38 0 60 -19 60 -44s-20 -45 -60 -45z" />
    <glyph glyph-name="seveneighths" unicode="&#x215e;" horiz-adv-x="765" 
d="M453 95c0 -53 49 -103 139 -103c91 0 139 50 139 103c0 36 -20 63 -54 77c27 16 42 41 42 72c0 51 -50 91 -127 91s-128 -40 -128 -91c0 -31 15 -56 43 -72c-35 -14 -54 -41 -54 -77zM138 1l-49 40l469 564l50 -40zM283 600v-17l-126 -309h-75l112 267h-162v59h251z
M592 147c44 0 69 -20 69 -48c0 -27 -25 -51 -69 -51s-69 24 -69 51c0 28 25 48 69 48zM592 189c-39 0 -60 20 -60 45s23 44 60 44c38 0 61 -19 61 -44s-21 -45 -61 -45z" />
    <glyph glyph-name="three.tab_alt" 
d="M191 342h77c56 0 91 31 91 80c0 57 -40 98 -116 98s-142 -64 -142 -64l-47 72s67 85 202 85s213 -74 213 -173c0 -54 -26 -103 -73 -132c61 -21 95 -67 95 -137c0 -108 -84 -184 -232 -184c-132 0 -205 76 -205 76l49 74s61 -58 152 -58c81 0 127 37 127 94
c0 56 -40 87 -113 87h-78v82z" />
    <glyph glyph-name="period.tab" horiz-adv-x="275" 
d="M76 52c0 34 27 61 61 61s60 -27 60 -61s-26 -60 -60 -60s-61 26 -61 60z" />
    <glyph glyph-name="comma.tab" horiz-adv-x="275" 
d="M80 52c0 34 26 60 60 60s61 -26 61 -61c0 -33 -9 -55 -23 -80l-38 -67h-65l35 62c9 15 18 22 18 22v5c-28 6 -48 29 -48 59z" />
    <glyph glyph-name="colon.tab" horiz-adv-x="275" 
d="M77 54c0 34 26 61 60 61s61 -27 61 -61s-27 -60 -61 -60s-60 26 -60 60zM77 499c0 34 26 61 60 61s61 -27 61 -61s-27 -61 -61 -61s-60 27 -60 61z" />
    <glyph glyph-name="semicolon.tab" horiz-adv-x="275" 
d="M79 54c0 34 26 60 60 60s62 -26 62 -61c0 -27 -10 -55 -24 -80l-37 -67h-65l34 62c9 15 18 22 18 22v5c-28 5 -48 29 -48 59zM80 499c0 34 27 61 60 61c34 0 61 -27 61 -61s-27 -61 -61 -61c-33 0 -60 27 -60 61z" />
    <glyph glyph-name="twodotleader.tab" 
d="M61 52c0 34 27 61 61 61s60 -27 60 -61s-26 -60 -60 -60s-61 26 -61 60zM365 52c0 34 27 61 61 61s60 -27 60 -61s-26 -60 -60 -60s-61 26 -61 60z" />
    <glyph glyph-name="periodcentered.tab" horiz-adv-x="275" 
d="M74 324c0 36 28 64 63 64s63 -28 63 -64c0 -35 -28 -62 -63 -62s-63 27 -63 62z" />
    <glyph glyph-name="slash.tab" 
d="M434 703l-221 -879h-97l221 879h97z" />
    <glyph glyph-name="bar.tab" 
d="M319 673v-825h-90v825h90z" />
    <glyph glyph-name="underscore.tab" 
d="M67 -100v80h413v-80h-413z" />
    <glyph glyph-name="dollar.tab" 
d="M49 60l55 77s70 -59 169 -59c84 0 115 35 115 83c0 53 -39 75 -129 101c-121 35 -207 76 -207 177c0 96 68 163 192 173v77h68v-77c125 -8 182 -59 182 -59l-53 -81s-62 51 -164 51c-71 0 -112 -29 -112 -77c0 -52 52 -69 134 -92c124 -34 204 -80 204 -183
c0 -95 -57 -171 -191 -182v-78h-68v77c-131 10 -195 72 -195 72z" />
    <glyph glyph-name="sterling.tab" 
d="M480 89v-87h-401v87s59 20 59 101c0 14 -4 30 -9 46h-71v72h43c-9 28 -17 58 -17 94c0 100 76 207 236 207c125 0 174 -67 174 -67l-55 -73s-36 45 -114 45c-90 0 -131 -61 -131 -120c0 -34 8 -61 17 -86h206v-72h-180c4 -14 6 -28 6 -43c0 -48 -18 -81 -39 -104h276z
" />
    <glyph glyph-name="Euro.tab" 
d="M382 264v-68h-182c22 -67 68 -110 139 -110c74 0 115 51 115 51l58 -75s-52 -71 -172 -71c-143 0 -220 88 -247 205h-54v68h44c-1 12 -1 24 -1 36c0 11 0 22 1 33h-44v68h54c26 118 103 209 247 209c120 0 172 -72 172 -72l-58 -76s-41 52 -115 52
c-73 0 -119 -45 -140 -113h183v-68h-196c-1 -11 -1 -22 -1 -33c0 -13 0 -25 1 -36h196z" />
    <glyph glyph-name="yen.tab" 
d="M295 386l90 214h117l-144 -293h117v-68h-149v-70h149v-68h-149v-101h-99v101h-154v68h154v70h-154v68h121l-147 293h118l96 -214l17 -55z" />
    <glyph glyph-name="cent.tab" 
d="M266 32v93c-94 16 -154 87 -154 177c0 92 60 162 154 178v95h83v-94c52 -9 85 -30 85 -30l-34 -76s-39 28 -84 28c-60 0 -105 -39 -105 -101c0 -60 45 -99 105 -99c45 0 84 26 84 26l34 -76s-33 -20 -85 -28v-93h-83z" />
    <glyph glyph-name="numbersign.tab" 
d="M461 583l-35 -155h85l-13 -59h-85l-35 -156h88l-13 -59h-89l-34 -154h-64l34 154h-114l-34 -154h-64l35 154h-84l12 59h85l35 156h-87l12 59h89l35 155h63l-35 -155h114l35 155h64zM235 369l-35 -156h114l35 156h-114z" />
    <glyph glyph-name="paragraph.tab" 
d="M337 -155v263h-45c-143 0 -239 69 -239 202c0 125 88 194 233 194h150v-659h-99z" />
    <glyph glyph-name="section.tab" 
d="M48 -28l51 76s67 -57 169 -57c88 0 115 35 115 70c0 42 -22 60 -111 92c-116 39 -189 74 -189 165c0 47 22 74 37 86c-39 27 -65 63 -65 116c0 91 70 157 221 157c149 0 212 -63 212 -63l-54 -81s-59 53 -158 53c-77 0 -103 -31 -103 -67c0 -40 37 -68 103 -89
c99 -34 196 -72 196 -166c0 -48 -19 -78 -33 -94c44 -29 61 -62 61 -111c0 -81 -57 -158 -227 -158c-152 0 -225 71 -225 71zM242 351c-14 4 -28 9 -42 14c-6 -3 -20 -13 -20 -41c0 -37 41 -62 110 -87l64 -24c5 4 19 19 19 45c0 43 -50 67 -131 93z" />
    <glyph glyph-name="degree.tab" horiz-adv-x="275" 
d="M137 672c71 0 118 -48 118 -108s-47 -107 -118 -107c-70 0 -117 47 -117 107s47 108 117 108zM137 621c-37 0 -60 -25 -60 -57c0 -31 23 -55 60 -55c38 0 61 24 61 55c0 32 -23 57 -61 57z" />
    <glyph glyph-name="percent.tab" 
d="M165 613c86 0 133 -62 133 -131s-47 -133 -133 -133c-87 0 -134 64 -134 133s47 131 134 131zM165 549c-40 0 -59 -31 -59 -67c0 -37 19 -69 59 -69s58 32 58 69c0 36 -18 67 -58 67zM72 4l-53 48l453 545l55 -48zM383 256c87 0 134 -62 134 -131s-47 -133 -134 -133
c-86 0 -133 64 -133 133s47 131 133 131zM383 193c-40 0 -57 -32 -57 -68s17 -69 57 -69s58 33 58 69s-18 68 -58 68z" />
    <glyph glyph-name="quotedbl.tab" 
d="M260 656l-42 -193h-62v16l19 193h85v-16zM405 656l-41 -193h-63v16l20 193h84v-16z" />
    <glyph glyph-name="quotesingle.tab" horiz-adv-x="275" 
d="M195 656l-42 -193h-62v16l20 193h84v-16z" />
    <glyph glyph-name="plus.tab" 
d="M317 504v-158h158v-80h-158v-151h-82v151h-160v80h160v158h82z" />
    <glyph glyph-name="minus.tab" 
d="M73 257v81h400v-81h-400z" />
    <glyph glyph-name="divide.tab" 
d="M212 132c0 35 28 64 63 64s64 -29 64 -64s-29 -62 -64 -62s-63 27 -63 62zM212 463c0 36 28 64 63 64s64 -28 64 -64c0 -35 -29 -62 -64 -62s-63 27 -63 62zM75 256v81h400v-81h-400z" />
    <glyph glyph-name="equal.tab" 
d="M86 349v80h379v-80h-379zM86 158v80h379v-80h-379z" />
    <glyph glyph-name="multiply.tab" 
d="M126 98l-57 56l149 149l-149 150l57 56l149 -149l149 149l57 -56l-150 -150l150 -149l-57 -56l-149 149z" />
    <glyph glyph-name="less.tab" 
d="M358 44l-240 232v23l240 232l58 -59l-193 -185l193 -183z" />
    <glyph glyph-name="greater.tab" 
d="M432 276l-241 -232l-57 60l193 183l-193 185l57 59l241 -232v-23z" />
    <glyph glyph-name="plusminus.tab" 
d="M317 178h-82v160h-170v80h170v166h82v-166h167v-80h-167v-160zM484 112v-81h-419v81h419z" />
    <glyph glyph-name="emspace" unicode="&#x2003;" horiz-adv-x="1000" 
 />
    <glyph glyph-name="enspace" unicode="&#x2002;" horiz-adv-x="500" 
 />
    <glyph glyph-name="threeperemspace" unicode="&#x2004;" horiz-adv-x="333" 
 />
    <glyph glyph-name="fourperemspace" unicode="&#x2005;" horiz-adv-x="250" 
 />
    <glyph glyph-name="thinspace" unicode="&#x2009;" horiz-adv-x="133" 
 />
    <glyph glyph-name="hairspace" unicode="&#x200a;" horiz-adv-x="75" 
 />
    <glyph glyph-name="space.tab" 
 />
    <glyph glyph-name="figurespace" unicode="&#x2007;" horiz-adv-x="600" 
 />
    <glyph glyph-name="latinotype" horiz-adv-x="185" 
 />
    <glyph glyph-name="i.dot" horiz-adv-x="205" 
d="M103 470c-33 0 -58 25 -58 58s25 59 58 59s59 -26 59 -59s-26 -58 -59 -58zM54 0v346h98v-346h-98z" />
    <glyph glyph-name="zero.numr" horiz-adv-x="371" 
d="M185 609c104 0 160 -82 160 -173c0 -88 -56 -170 -160 -170c-102 0 -159 82 -159 170c0 91 57 173 159 173zM185 546c-54 0 -83 -49 -83 -110c0 -57 29 -106 83 -106c55 0 83 49 83 106c0 61 -28 110 -83 110z" />
    <glyph glyph-name="one.numr" horiz-adv-x="203" 
d="M17 541v59h137v-326h-67v267h-70z" />
    <glyph glyph-name="two.numr" horiz-adv-x="310" 
d="M25 274v19l140 142c20 20 31 38 31 59c0 29 -18 50 -59 50c-43 0 -78 -30 -81 -33l-35 52s48 46 122 46c91 0 126 -49 126 -106c0 -34 -17 -64 -44 -92l-78 -79h139v-58h-261z" />
    <glyph glyph-name="three.numr" horiz-adv-x="312" 
d="M34 541v59h238v-17l-68 -111c55 -9 83 -42 83 -96c0 -59 -45 -110 -138 -110c-75 0 -123 40 -129 46l35 50s40 -33 92 -33c49 0 70 21 70 49c0 29 -20 47 -62 47h-41v18l61 98h-141z" />
    <glyph glyph-name="four.numr" horiz-adv-x="326" 
d="M17 354v42l187 204h50v-191h53v-55h-53v-80h-64v80h-173zM97 408v-2l38 3h55v103h-1l-65 -76c-11 -14 -27 -28 -27 -28z" />
    <glyph glyph-name="five.numr" horiz-adv-x="313" 
d="M50 600h218v-59h-162l-2 -72c15 2 34 4 57 4c85 0 130 -35 130 -98c0 -59 -44 -109 -138 -109c-75 0 -123 40 -129 46l34 48s33 -33 90 -33c52 0 73 20 73 48s-21 49 -81 49c-43 0 -80 -13 -80 -13l-17 10z" />
    <glyph glyph-name="six.numr" horiz-adv-x="322" 
d="M165 504c82 0 139 -42 139 -116c0 -76 -57 -123 -139 -123c-83 0 -139 47 -139 123c0 43 13 74 45 118l67 94h76l-48 -67c-11 -17 -23 -27 -23 -27v-3c7 0 14 1 22 1zM165 448c-41 0 -70 -21 -70 -61c0 -39 27 -63 70 -63c42 0 70 24 70 63s-28 61 -70 61z" />
    <glyph glyph-name="seven.numr" horiz-adv-x="280" 
d="M270 600v-17l-126 -309h-75l112 267h-162v59h251z" />
    <glyph glyph-name="eight.numr" horiz-adv-x="330" 
d="M26 369c0 36 20 63 54 77c-28 16 -42 41 -42 72c0 51 50 91 127 91s127 -40 127 -91c0 -31 -15 -56 -42 -72c34 -14 54 -41 54 -77c0 -53 -48 -103 -139 -103c-90 0 -139 50 -139 103zM165 421c-44 0 -69 -20 -69 -48c0 -27 25 -51 69 -51s69 24 69 51
c0 28 -25 48 -69 48zM165 463c40 0 61 20 61 45s-23 44 -61 44c-37 0 -60 -19 -60 -44s21 -45 60 -45z" />
    <glyph glyph-name="nine.numr" horiz-adv-x="326" 
d="M161 370c-82 0 -139 43 -139 116c0 76 57 123 139 123c83 0 139 -47 139 -123c0 -42 -14 -74 -45 -118l-68 -94h-76l49 68c11 16 23 26 23 26v3c-7 -1 -15 -1 -22 -1zM161 427c41 0 70 20 70 60c0 39 -27 64 -70 64c-42 0 -70 -25 -70 -64c0 -38 28 -60 70 -60z" />
    <glyph glyph-name="caron.alt" horiz-adv-x="173" 
d="M130 561l-35 -142h-54v158h89v-16z" />
    <glyph glyph-name="acute.cap" horiz-adv-x="247" 
d="M197 770l-90 -142h-62v16l38 142h114v-16z" />
    <glyph glyph-name="hungarumlaut.cap" horiz-adv-x="415" 
d="M191 770l-78 -142h-62v16l38 142h102v-16zM358 770l-78 -142h-62v16l38 142h102v-16z" />
    <glyph glyph-name="grave.cap" horiz-adv-x="254" 
d="M136 622l-90 142v16h115l38 -142v-16h-63z" />
    <glyph glyph-name="circumflex.cap" horiz-adv-x="329" 
d="M254 628l-83 92l-85 -92h-63v16l95 142h104l95 -142v-16h-63z" />
    <glyph glyph-name="caron.cap" horiz-adv-x="341" 
d="M171 694l83 92h63v-16l-95 -142h-104l-95 142v16h63z" />
    <glyph glyph-name="breve.cap" horiz-adv-x="353" 
d="M239 794h77c0 -73 -51 -138 -140 -138s-140 65 -140 138h77c0 -42 26 -68 63 -68c36 0 63 27 63 68z" />
    <glyph glyph-name="tilde.cap" horiz-adv-x="430" 
d="M282 624c-57 0 -91 43 -127 43c-22 0 -32 -13 -35 -31l-2 -14l-68 6l3 29c5 48 35 85 90 85c57 0 90 -43 126 -43c24 0 32 13 36 31l3 14l69 -6l-4 -29c-9 -48 -37 -85 -91 -85z" />
    <glyph glyph-name="macron.cap" horiz-adv-x="405" 
d="M71 632v60h272v-60h-272z" />
    <glyph glyph-name="dieresis.cap" horiz-adv-x="403" 
d="M58 694c0 28 24 53 52 53s53 -25 53 -53s-25 -52 -53 -52s-52 24 -52 52zM242 694c0 28 24 53 52 53s53 -25 53 -53s-25 -52 -53 -52s-52 24 -52 52z" />
    <glyph glyph-name="dotaccent.cap" horiz-adv-x="258" 
d="M65 691c0 36 27 64 63 64s64 -28 64 -64s-28 -64 -64 -64s-63 28 -63 64z" />
    <glyph glyph-name="ring.cap" horiz-adv-x="273" 
d="M136 628c-58 0 -102 43 -102 98s44 98 102 98c57 0 101 -43 101 -98s-44 -98 -101 -98zM175 726c0 24 -15 40 -39 40c-23 0 -39 -16 -39 -40c0 -23 16 -39 39 -39c24 0 39 16 39 39z" />
    <glyph glyph-name="Amacron" unicode="&#x100;" horiz-adv-x="614" 
d="M-5 0l302 600h19l304 -600h-113l-45 91h-311l-44 -91h-112zM417 182l-107 235h-6l-108 -235l-6 -10h233zM170 643v60h272v-60h-272z" />
    <glyph glyph-name="Abreve" unicode="&#x102;" horiz-adv-x="614" 
d="M-5 0l302 600h19l304 -600h-113l-45 91h-311l-44 -91h-112zM417 182l-107 235h-6l-108 -235l-6 -10h233zM368 805h77c0 -73 -51 -138 -140 -138s-140 65 -140 138h77c0 -42 26 -68 63 -68c36 0 63 27 63 68z" />
    <glyph glyph-name="Aogonek" unicode="&#x104;" horiz-adv-x="613" 
d="M608 -72l29 -37s-24 -30 -71 -30c-52 0 -81 30 -81 73c0 30 16 51 35 66h-13l-45 91h-311l-44 -91h-112l302 600h19l304 -600h-31c-2 -1 -47 -17 -47 -54c0 -20 12 -33 34 -33c20 0 32 15 32 15zM417 182l-107 235h-6l-108 -235l-6 -10h233z" />
    <glyph glyph-name="AEacute" unicode="&#x1fc;" horiz-adv-x="917" 
d="M737 780l-90 -142h-62v16l38 142h114v-16zM-16 0l427 600h469v-88h-356v-174h302v-84h-302v-166h356v-88h-455v91h-257l-61 -91h-123zM416 449l-194 -277h203v277h-9z" />
    <glyph glyph-name="Aringacute" unicode="&#x1fa;" horiz-adv-x="615" 
d="M-5 0l280 557c-42 12 -71 49 -71 94c0 55 44 98 102 98c57 0 101 -43 101 -98c0 -45 -29 -81 -70 -94l283 -557h-113l-45 91h-311l-44 -91h-112zM417 182l-107 235h-6l-108 -235l-6 -10h233zM425 907l-90 -142h-62v16l38 142h114v-16zM345 651c0 24 -15 40 -39 40
c-23 0 -39 -16 -39 -40c0 -23 16 -39 39 -39c24 0 39 16 39 39z" />
    <glyph glyph-name="Cacute" unicode="&#x106;" horiz-adv-x="586" 
d="M462 793l-90 -142h-62v16l38 142h114v-16zM508 138l57 -76s-67 -76 -211 -76c-191 0 -316 140 -316 313c0 175 125 314 316 314c144 0 211 -75 211 -75l-57 -77s-63 58 -152 58c-128 0 -216 -96 -216 -220c0 -123 88 -218 216 -218c96 0 152 57 152 57z" />
    <glyph glyph-name="Ccircumflex" unicode="&#x108;" horiz-adv-x="586" 
d="M426 638l-83 92l-85 -92h-63v16l95 142h104l95 -142v-16h-63zM508 138l57 -76s-67 -76 -211 -76c-191 0 -316 140 -316 313c0 175 125 314 316 314c144 0 211 -75 211 -75l-57 -77s-63 58 -152 58c-128 0 -216 -96 -216 -220c0 -123 88 -218 216 -218c96 0 152 57 152 57
z" />
    <glyph glyph-name="Ccaron" unicode="&#x10c;" horiz-adv-x="586" 
d="M340 719l83 92h63v-16l-95 -142h-104l-95 142v16h63zM508 138l57 -76s-67 -76 -211 -76c-191 0 -316 140 -316 313c0 175 125 314 316 314c144 0 211 -75 211 -75l-57 -77s-63 58 -152 58c-128 0 -216 -96 -216 -220c0 -123 88 -218 216 -218c96 0 152 57 152 57z" />
    <glyph glyph-name="Cdotaccent" unicode="&#x10a;" horiz-adv-x="586" 
d="M508 138l57 -76s-67 -76 -211 -76c-191 0 -316 140 -316 313c0 175 125 314 316 314c144 0 211 -75 211 -75l-57 -77s-63 58 -152 58c-128 0 -216 -96 -216 -220c0 -123 88 -218 216 -218c96 0 152 57 152 57zM285 746c0 36 27 64 63 64s64 -28 64 -64s-28 -64 -64 -64
s-63 28 -63 64z" />
    <glyph glyph-name="Dcaron" unicode="&#x10e;" horiz-adv-x="661" 
d="M312 719l83 92h63v-16l-95 -142h-104l-95 142v16h63zM621 300c0 -179 -125 -300 -319 -300h-224v600h224c194 0 319 -121 319 -300zM295 512h-118v-424h118c128 0 225 76 225 212s-97 212 -225 212z" />
    <glyph glyph-name="Dcroat" unicode="&#x110;" horiz-adv-x="669" 
d="M13 269v62h73v269h224c194 0 319 -121 319 -300s-125 -300 -319 -300h-224v269h-73zM303 512h-118v-181h113v-62h-113v-181h118c128 0 225 76 225 212s-97 212 -225 212z" />
    <glyph glyph-name="Ecaron" unicode="&#x11a;" horiz-adv-x="570" 
d="M309 710l83 92h63v-16l-95 -142h-104l-95 142v16h63zM479 339v-84h-302v-167h356v-88h-455v600h455v-88h-356v-173h302z" />
    <glyph glyph-name="Emacron" unicode="&#x112;" horiz-adv-x="570" 
d="M479 339v-84h-302v-167h356v-88h-455v600h455v-88h-356v-173h302zM168 686v60h272v-60h-272z" />
    <glyph glyph-name="Ebreve" unicode="&#x114;" horiz-adv-x="570" 
d="M479 339v-84h-302v-167h356v-88h-455v600h455v-88h-356v-173h302zM374 805h77c0 -73 -51 -138 -140 -138s-140 65 -140 138h77c0 -42 26 -68 63 -68c36 0 63 27 63 68z" />
    <glyph glyph-name="Edotaccent" unicode="&#x116;" horiz-adv-x="570" 
d="M479 339v-84h-302v-167h356v-88h-455v600h455v-88h-356v-173h302zM252 731c0 36 27 64 63 64s64 -28 64 -64s-28 -64 -64 -64s-63 28 -63 64z" />
    <glyph glyph-name="Eogonek" unicode="&#x118;" horiz-adv-x="570" 
d="M479 339v-84h-302v-167h356v-88h-43s-48 -16 -48 -54c0 -20 12 -33 34 -33c20 0 32 15 32 15l29 -37s-24 -30 -71 -30c-52 0 -81 30 -81 73c0 30 16 51 35 66h-342v600h455v-88h-356v-173h302z" />
    <glyph glyph-name="Gcircumflex" unicode="&#x11c;" horiz-adv-x="665" 
d="M433 637l-83 92l-85 -92h-63v16l95 142h104l95 -142v-16h-63zM532 252v3h-195v84h298v-51c0 -180 -101 -302 -283 -302c-195 0 -314 140 -314 313c0 175 122 314 316 314c155 0 224 -77 224 -77l-59 -76s-61 59 -166 59c-129 0 -213 -96 -213 -220
c0 -123 81 -218 211 -218c110 0 181 72 181 171z" />
    <glyph glyph-name="Gbreve" unicode="&#x11e;" horiz-adv-x="665" 
d="M532 252v3h-195v84h298v-51c0 -180 -101 -302 -283 -302c-195 0 -314 140 -314 313c0 175 122 314 316 314c155 0 224 -77 224 -77l-59 -76s-61 59 -166 59c-129 0 -213 -96 -213 -220c0 -123 81 -218 211 -218c110 0 181 72 181 171zM412 805h77
c0 -73 -51 -138 -140 -138s-140 65 -140 138h77c0 -42 26 -68 63 -68c36 0 63 27 63 68z" />
    <glyph glyph-name="Gdotaccent" unicode="&#x120;" horiz-adv-x="665" 
d="M532 252v3h-195v84h298v-51c0 -180 -101 -302 -283 -302c-195 0 -314 140 -314 313c0 175 122 314 316 314c155 0 224 -77 224 -77l-59 -76s-61 59 -166 59c-129 0 -213 -96 -213 -220c0 -123 81 -218 211 -218c110 0 181 72 181 171zM282 731c0 36 27 64 63 64
s64 -28 64 -64s-28 -64 -64 -64s-63 28 -63 64z" />
    <glyph glyph-name="Gcommaaccent" unicode="&#x122;" horiz-adv-x="665" 
d="M284 -97c0 34 24 61 66 61c41 0 68 -29 68 -69c-1 -23 -8 -45 -23 -71l-28 -48h-67l26 42c9 14 17 22 17 22v3c-38 3 -59 28 -59 60zM532 252v3h-195v84h298v-51c0 -180 -101 -302 -283 -302c-195 0 -314 140 -314 313c0 175 122 314 316 314c155 0 224 -77 224 -77
l-59 -76s-61 59 -166 59c-129 0 -213 -96 -213 -220c0 -123 81 -218 211 -218c110 0 181 72 181 171z" />
    <glyph glyph-name="commaaccent" unicode="&#xf6c3;" horiz-adv-x="214" 
d="M43 -97c0 34 24 61 66 61c41 0 68 -29 68 -69c-1 -23 -8 -45 -23 -71l-28 -48h-67l26 42c9 14 17 22 17 22v3c-38 3 -59 28 -59 60z" />
    <glyph glyph-name="Hcircumflex" unicode="&#x124;" horiz-adv-x="678" 
d="M418 638l-83 92l-85 -92h-63v16l95 142h104l95 -142v-16h-63zM600 600v-600h-99v252h-324v-252h-99v600h99v-264h324v264h99z" />
    <glyph glyph-name="Hbar" unicode="&#x126;" horiz-adv-x="684" 
d="M603 600v-95h30v-59h-30v-446h-99v252h-324v-252h-99v446h-31v59h31v95h99v-95h324v95h99zM180 336h324v110h-324v-110z" />
    <glyph glyph-name="Ibreve" unicode="&#x12c;" horiz-adv-x="256" 
d="M177 600v-600h-99v600h99zM191 805h77c0 -73 -51 -138 -140 -138s-140 65 -140 138h77c0 -42 26 -68 63 -68c36 0 63 27 63 68z" />
    <glyph glyph-name="Itilde" unicode="&#x128;" horiz-adv-x="256" 
d="M177 600v-600h-99v600h99zM197 655c-57 0 -91 43 -127 43c-22 0 -32 -13 -35 -31l-2 -14l-68 6l3 29c5 48 35 85 90 85c57 0 90 -43 126 -43c24 0 32 13 36 31l3 14l69 -6l-4 -29c-9 -48 -37 -85 -91 -85z" />
    <glyph glyph-name="Imacron" unicode="&#x12a;" horiz-adv-x="256" 
d="M177 600v-600h-99v600h99zM-9 657v60h272v-60h-272z" />
    <glyph glyph-name="Idotaccent" unicode="&#x130;" horiz-adv-x="256" 
d="M177 600v-600h-99v600h99zM65 730c0 36 27 64 63 64s64 -28 64 -64s-28 -64 -64 -64s-63 28 -63 64z" />
    <glyph glyph-name="Iogonek" unicode="&#x12e;" horiz-adv-x="255" 
d="M195 -72l29 -37s-24 -30 -71 -30c-52 0 -81 30 -81 73c0 30 16 51 35 66h-29v600h99v-600h-1c-2 -1 -47 -17 -47 -54c0 -20 12 -33 34 -33c20 0 32 15 32 15z" />
    <glyph glyph-name="Jcircumflex" unicode="&#x134;" horiz-adv-x="466" 
d="M427 637l-83 92l-85 -92h-63v16l95 142h104l95 -142v-16h-63zM19 36l46 81s48 -35 107 -35c80 0 121 40 122 136v382h100v-401c-1 -126 -69 -213 -215 -213c-101 0 -155 46 -160 50z" />
    <glyph glyph-name="Kcommaaccent" unicode="&#x136;" horiz-adv-x="611" 
d="M254 -97c0 34 24 61 66 61c41 0 68 -29 68 -69c-1 -23 -8 -45 -23 -71l-28 -48h-67l26 42c9 14 17 22 17 22v3c-38 3 -59 28 -59 60zM177 600v-305l301 305h120v-12l-237 -241l237 -334v-13h-117l-191 275l-113 -116v-159h-99v600h99z" />
    <glyph glyph-name="Lacute" unicode="&#x139;" horiz-adv-x="522" 
d="M249 780l-90 -142h-62v16l38 142h114v-16zM510 0h-432v600h99v-512h333v-88z" />
    <glyph glyph-name="Lcaron" unicode="&#x13d;" horiz-adv-x="523" 
d="M317 539c0 34 24 61 66 61c41 0 68 -29 68 -69c-1 -23 -8 -45 -23 -71l-28 -48h-67l26 42c9 14 17 22 17 22v3c-38 3 -59 28 -59 60zM510 0h-432v600h99v-512h333v-88z" />
    <glyph glyph-name="Lcommaaccent" unicode="&#x13b;" horiz-adv-x="522" 
d="M222 -97c0 34 24 61 66 61c41 0 68 -29 68 -69c-1 -23 -8 -45 -23 -71l-28 -48h-67l26 42c9 14 17 22 17 22v3c-38 3 -59 28 -59 60zM510 0h-432v600h99v-512h333v-88z" />
    <glyph glyph-name="Ldot" unicode="&#x13f;" horiz-adv-x="523" 
d="M510 0h-432v600h99v-512h333v-88zM329 340c0 36 27 64 63 64s64 -28 64 -64s-28 -64 -64 -64s-63 28 -63 64z" />
    <glyph glyph-name="Nacute" unicode="&#x143;" horiz-adv-x="696" 
d="M459 780l-90 -142h-62v16l38 142h114v-16zM618 600v-600h-26l-415 402v-402h-99v600h26l415 -396v396h99z" />
    <glyph glyph-name="Ncaron" unicode="&#x147;" horiz-adv-x="696" 
d="M339 704l83 92h63v-16l-95 -142h-104l-95 142v16h63zM618 600v-600h-26l-415 402v-402h-99v600h26l415 -396v396h99z" />
    <glyph glyph-name="Ncommaaccent" unicode="&#x145;" horiz-adv-x="696" 
d="M299 -97c0 34 24 61 66 61c41 0 68 -29 68 -69c-1 -23 -8 -45 -23 -71l-28 -48h-67l26 42c9 14 17 22 17 22v3c-38 3 -59 28 -59 60zM618 600v-600h-26l-415 402v-402h-99v600h26l415 -396v396h99z" />
    <glyph glyph-name="Omacron" unicode="&#x14c;" horiz-adv-x="705" 
d="M214 676v60h272v-60h-272zM352 -14c-193 0 -314 140 -314 313c0 175 121 314 314 314c194 0 315 -139 315 -314c0 -173 -121 -313 -315 -313zM352 82c128 0 213 94 213 217c0 124 -85 219 -213 219c-127 0 -212 -95 -212 -219c0 -123 85 -217 212 -217z" />
    <glyph glyph-name="Obreve" unicode="&#x14e;" horiz-adv-x="705" 
d="M352 -14c-193 0 -314 140 -314 313c0 175 121 314 314 314c194 0 315 -139 315 -314c0 -173 -121 -313 -315 -313zM352 82c128 0 213 94 213 217c0 124 -85 219 -213 219c-127 0 -212 -95 -212 -219c0 -123 85 -217 212 -217zM413 806h77c0 -73 -51 -138 -140 -138
s-140 65 -140 138h77c0 -42 26 -68 63 -68c36 0 63 27 63 68z" />
    <glyph glyph-name="Ohungarumlaut" unicode="&#x150;" horiz-adv-x="705" 
d="M375 779l-78 -142h-62v16l38 142h102v-16zM542 779l-78 -142h-62v16l38 142h102v-16zM352 -14c-193 0 -314 140 -314 313c0 175 121 314 314 314c194 0 315 -139 315 -314c0 -173 -121 -313 -315 -313zM352 82c128 0 213 94 213 217c0 124 -85 219 -213 219
c-127 0 -212 -95 -212 -219c0 -123 85 -217 212 -217z" />
    <glyph glyph-name="Oslashacute" unicode="&#x1fe;" horiz-adv-x="703" 
d="M352 -14c-84 0 -154 26 -206 69l-61 -59l-44 44l62 60c-42 54 -65 123 -65 199c0 175 121 314 314 314c83 0 152 -26 205 -68l53 52l44 -44l-54 -53c43 -54 67 -124 67 -201c0 -173 -121 -313 -315 -313zM352 82c128 0 213 94 213 217c0 49 -13 94 -38 130l-309 -303
c35 -28 81 -44 134 -44zM140 299c0 -48 12 -92 36 -127l309 302c-35 28 -81 44 -133 44c-127 0 -212 -95 -212 -219zM471 780l-90 -142h-62v16l38 142h114v-16z" />
    <glyph glyph-name="Racute" unicode="&#x154;" horiz-adv-x="636" 
d="M414 780l-90 -142h-62v16l38 142h114v-16zM78 0v600h260c151 0 243 -73 243 -203c0 -94 -49 -156 -125 -186v-6l149 -191v-14h-110l-147 190h-171v-190h-99zM479 393c0 79 -56 119 -144 119h-158v-236h164c83 0 138 37 138 117z" />
    <glyph glyph-name="Rcaron" unicode="&#x158;" horiz-adv-x="636" 
d="M304 708l83 92h63v-16l-95 -142h-104l-95 142v16h63zM78 0v600h260c151 0 243 -73 243 -203c0 -94 -49 -156 -125 -186v-6l149 -191v-14h-110l-147 190h-171v-190h-99zM479 393c0 79 -56 119 -144 119h-158v-236h164c83 0 138 37 138 117z" />
    <glyph glyph-name="Rcommaaccent" unicode="&#x156;" horiz-adv-x="636" 
d="M257 -97c0 34 24 61 66 61c41 0 68 -29 68 -69c-1 -23 -8 -45 -23 -71l-28 -48h-67l26 42c9 14 17 22 17 22v3c-38 3 -59 28 -59 60zM78 0v600h260c151 0 243 -73 243 -203c0 -94 -49 -156 -125 -186v-6l149 -191v-14h-110l-147 190h-171v-190h-99zM479 393
c0 79 -56 119 -144 119h-158v-236h164c83 0 138 37 138 117z" />
    <glyph glyph-name="Sacute" unicode="&#x15a;" horiz-adv-x="541" 
d="M390 780l-90 -142h-62v16l38 142h114v-16zM37 61l54 75s72 -58 179 -58c89 0 126 35 126 83c0 46 -31 69 -146 102c-141 40 -208 85 -208 179c0 105 82 171 229 171c155 0 221 -60 221 -60l-54 -81s-62 49 -167 49c-75 0 -121 -27 -121 -75c0 -41 35 -61 144 -91
c152 -41 212 -94 212 -187c0 -102 -72 -182 -234 -182c-159 0 -235 75 -235 75z" />
    <glyph glyph-name="Scircumflex" unicode="&#x15c;" horiz-adv-x="541" 
d="M355 642l-83 92l-85 -92h-63v16l95 142h104l95 -142v-16h-63zM37 61l54 75s72 -58 179 -58c89 0 126 35 126 83c0 46 -31 69 -146 102c-141 40 -208 85 -208 179c0 105 82 171 229 171c155 0 221 -60 221 -60l-54 -81s-62 49 -167 49c-75 0 -121 -27 -121 -75
c0 -41 35 -61 144 -91c152 -41 212 -94 212 -187c0 -102 -72 -182 -234 -182c-159 0 -235 75 -235 75z" />
    <glyph glyph-name="Scedilla" unicode="&#x15e;" horiz-adv-x="541" 
d="M243 -69l-18 21l17 35c-139 9 -205 74 -205 74l54 75s72 -58 179 -58c89 0 126 35 126 83c0 46 -31 69 -146 102c-141 40 -208 85 -208 179c0 105 82 171 229 171c155 0 221 -60 221 -60l-54 -81s-62 49 -167 49c-75 0 -121 -27 -121 -75c0 -41 35 -61 144 -91
c152 -41 212 -94 212 -187c0 -98 -66 -175 -214 -181l-7 -17c37 0 66 -22 66 -64c0 -43 -30 -73 -85 -73c-56 0 -81 32 -81 32l21 36s22 -22 58 -22c24 0 38 11 38 29s-15 29 -36 29c-15 0 -23 -6 -23 -6z" />
    <glyph glyph-name="Scommaaccent" unicode="&#x218;" horiz-adv-x="541" 
d="M216 -97c0 34 24 61 66 61c41 0 68 -29 68 -69c-1 -23 -8 -45 -23 -71l-28 -48h-67l26 42c9 14 17 22 17 22v3c-38 3 -59 28 -59 60zM37 61l54 75s72 -58 179 -58c89 0 126 35 126 83c0 46 -31 69 -146 102c-141 40 -208 85 -208 179c0 105 82 171 229 171
c155 0 221 -60 221 -60l-54 -81s-62 49 -167 49c-75 0 -121 -27 -121 -75c0 -41 35 -61 144 -91c152 -41 212 -94 212 -187c0 -102 -72 -182 -234 -182c-159 0 -235 75 -235 75z" />
    <glyph glyph-name="Tcaron" unicode="&#x164;" horiz-adv-x="532" 
d="M267 708l83 92h63v-16l-95 -142h-104l-95 142v16h63zM14 512v88h503v-88h-202v-512h-99v512h-202z" />
    <glyph glyph-name="Tcommaaccent" unicode="&#x162;" horiz-adv-x="532" 
d="M197 -97c0 34 24 61 66 61c41 0 68 -29 68 -69c-1 -23 -8 -45 -23 -71l-28 -48h-67l26 42c9 14 17 22 17 22v3c-38 3 -59 28 -59 60zM14 512v88h503v-88h-202v-512h-99v512h-202z" />
    <glyph glyph-name="uni021A" unicode="&#x21a;" horiz-adv-x="532" 
d="M197 -97c0 34 24 61 66 61c41 0 68 -29 68 -69c-1 -23 -8 -45 -23 -71l-28 -48h-67l26 42c9 14 17 22 17 22v3c-38 3 -59 28 -59 60zM14 512v88h503v-88h-202v-512h-99v512h-202z" />
    <glyph glyph-name="Tbar" unicode="&#x166;" horiz-adv-x="536" 
d="M16 512v88h503v-88h-202v-176h95v-59h-95v-277h-99v277h-94v59h94v176h-202z" />
    <glyph glyph-name="Utilde" unicode="&#x168;" horiz-adv-x="661" 
d="M331 -14c-163 0 -262 112 -262 268v346h99v-346c0 -97 54 -173 163 -173s161 76 161 173v346h99v-346c0 -156 -95 -268 -260 -268zM400 685c-57 0 -91 43 -127 43c-22 0 -32 -13 -35 -31l-2 -14l-68 6l3 29c5 48 35 85 90 85c57 0 90 -43 126 -43c24 0 32 13 36 31l3 14
l69 -6l-4 -29c-9 -48 -37 -85 -91 -85z" />
    <glyph glyph-name="Umacron" unicode="&#x16a;" horiz-adv-x="661" 
d="M331 -14c-163 0 -262 112 -262 268v346h99v-346c0 -97 54 -173 163 -173s161 76 161 173v346h99v-346c0 -156 -95 -268 -260 -268zM194 673v60h272v-60h-272z" />
    <glyph glyph-name="Ubreve" unicode="&#x16c;" horiz-adv-x="661" 
d="M331 -14c-163 0 -262 112 -262 268v346h99v-346c0 -97 54 -173 163 -173s161 76 161 173v346h99v-346c0 -156 -95 -268 -260 -268zM394 806h77c0 -73 -51 -138 -140 -138s-140 65 -140 138h77c0 -42 26 -68 63 -68c36 0 63 27 63 68z" />
    <glyph glyph-name="Uring" unicode="&#x16e;" horiz-adv-x="661" 
d="M331 631c-58 0 -102 43 -102 98s44 98 102 98c57 0 101 -43 101 -98s-44 -98 -101 -98zM370 729c0 24 -15 40 -39 40c-23 0 -39 -16 -39 -40c0 -23 16 -39 39 -39c24 0 39 16 39 39zM331 -14c-163 0 -262 112 -262 268v346h99v-346c0 -97 54 -173 163 -173
s161 76 161 173v346h99v-346c0 -156 -95 -268 -260 -268z" />
    <glyph glyph-name="Uhungarumlaut" unicode="&#x170;" horiz-adv-x="661" 
d="M331 -14c-163 0 -262 112 -262 268v346h99v-346c0 -97 54 -173 163 -173s161 76 161 173v346h99v-346c0 -156 -95 -268 -260 -268zM356 780l-78 -142h-62v16l38 142h102v-16zM523 780l-78 -142h-62v16l38 142h102v-16z" />
    <glyph glyph-name="Uogonek" unicode="&#x172;" horiz-adv-x="661" 
d="M380 -80l29 -37s-24 -30 -71 -30c-52 0 -81 30 -81 73c0 28 14 48 31 63c-137 18 -219 123 -219 265v346h99v-346c0 -97 54 -173 163 -173s161 76 161 173v346h99v-346c0 -150 -88 -259 -242 -267c-14 -8 -35 -23 -35 -49c0 -20 12 -33 34 -33c20 0 32 15 32 15z" />
    <glyph glyph-name="Wacute" unicode="&#x1e82;" horiz-adv-x="821" 
d="M534 780l-90 -142h-62v16l38 142h114v-16zM277 253l113 347h42l111 -347l19 -60h9l19 66l120 341h106l-229 -600h-48l-111 345l-15 60h-5l-16 -60l-113 -345h-46l-229 600h105l122 -341l18 -66h8z" />
    <glyph glyph-name="Wcircumflex" unicode="&#x174;" horiz-adv-x="821" 
d="M493 642l-83 92l-85 -92h-63v16l95 142h104l95 -142v-16h-63zM277 253l113 347h42l111 -347l19 -60h9l19 66l120 341h106l-229 -600h-48l-111 345l-15 60h-5l-16 -60l-113 -345h-46l-229 600h105l122 -341l18 -66h8z" />
    <glyph glyph-name="Wdieresis" unicode="&#x1e84;" horiz-adv-x="821" 
d="M265 709c0 28 24 53 52 53s53 -25 53 -53s-25 -52 -53 -52s-52 24 -52 52zM449 709c0 28 24 53 52 53s53 -25 53 -53s-25 -52 -53 -52s-52 24 -52 52zM277 253l113 347h42l111 -347l19 -60h9l19 66l120 341h106l-229 -600h-48l-111 345l-15 60h-5l-16 -60l-113 -345h-46
l-229 600h105l122 -341l18 -66h8z" />
    <glyph glyph-name="Wgrave" unicode="&#x1e80;" horiz-adv-x="821" 
d="M377 638l-90 142v16h115l38 -142v-16h-63zM277 253l113 347h42l111 -347l19 -60h9l19 66l120 341h106l-229 -600h-48l-111 345l-15 60h-5l-16 -60l-113 -345h-46l-229 600h105l122 -341l18 -66h8z" />
    <glyph glyph-name="Ycircumflex" unicode="&#x176;" horiz-adv-x="555" 
d="M362 638l-83 92l-85 -92h-63v16l95 142h104l95 -142v-16h-63zM301 365l141 235h114l-229 -371v-229h-99v229l-228 371h115l142 -235l16 -35h11z" />
    <glyph glyph-name="Ygrave" unicode="&#x1ef2;" horiz-adv-x="555" 
d="M301 365l141 235h114l-229 -371v-229h-99v229l-228 371h115l142 -235l16 -35h11zM244 639l-90 142v16h115l38 -142v-16h-63z" />
    <glyph glyph-name="Zacute" unicode="&#x179;" horiz-adv-x="548" 
d="M388 780l-90 -142h-62v16l38 142h114v-16zM28 0v26l332 486h-320v88h479v-26l-324 -486h319v-88h-486z" />
    <glyph glyph-name="Zdotaccent" unicode="&#x17b;" horiz-adv-x="548" 
d="M28 0v26l332 486h-320v88h479v-26l-324 -486h319v-88h-486zM213 730c0 36 27 64 63 64s64 -28 64 -64s-28 -64 -64 -64s-63 28 -63 64z" />
    <glyph glyph-name="amacron" unicode="&#x101;" horiz-adv-x="424" 
d="M26 101c0 63 52 107 151 107c61 0 90 -18 101 -26h5v16c0 51 -31 77 -101 77c-57 0 -97 -26 -97 -26l-31 72s52 33 146 33c126 0 177 -67 177 -164v-190h-70l-10 38h-5c-10 -15 -41 -46 -123 -46c-93 0 -143 48 -143 109zM121 106c0 -27 23 -49 74 -49c52 0 86 29 86 51
c0 27 -34 47 -86 47c-48 0 -74 -19 -74 -49zM70 442v60h272v-60h-272z" />
    <glyph glyph-name="abreve" unicode="&#x103;" horiz-adv-x="424" 
d="M26 101c0 63 52 107 151 107c61 0 90 -18 101 -26h5v16c0 51 -31 77 -101 77c-57 0 -97 -26 -97 -26l-31 72s52 33 146 33c126 0 177 -67 177 -164v-190h-70l-10 38h-5c-10 -15 -41 -46 -123 -46c-93 0 -143 48 -143 109zM121 106c0 -27 23 -49 74 -49c52 0 86 29 86 51
c0 27 -34 47 -86 47c-48 0 -74 -19 -74 -49zM275 580h77c0 -73 -51 -138 -140 -138s-140 65 -140 138h77c0 -42 26 -68 63 -68c36 0 63 27 63 68z" />
    <glyph glyph-name="aogonek" unicode="&#x105;" horiz-adv-x="425" 
d="M395 -72l29 -37s-24 -30 -71 -30c-52 0 -81 30 -81 73c0 30 16 51 35 66l-10 38h-5c-10 -15 -41 -46 -123 -46c-93 0 -143 48 -143 109c0 63 52 107 151 107c61 0 90 -18 101 -26h5v16c0 51 -31 77 -101 77c-57 0 -97 -26 -97 -26l-31 72s52 33 146 33
c126 0 177 -67 177 -164v-190s-48 -16 -48 -54c0 -20 12 -33 34 -33c20 0 32 15 32 15zM121 106c0 -27 23 -49 74 -49c52 0 86 29 86 51c0 27 -34 47 -86 47c-48 0 -74 -19 -74 -49z" />
    <glyph glyph-name="aeacute" unicode="&#x1fd;" horiz-adv-x="673" 
d="M465 561l-90 -142h-62v16l38 142h114v-16zM587 93l32 -65s-49 -38 -141 -38c-60 0 -109 20 -142 54c-32 -31 -80 -52 -149 -52c-114 0 -161 51 -161 111c0 62 54 104 144 104c77 0 105 -24 109 -27h2v15c0 51 -29 81 -99 81c-57 0 -100 -25 -100 -25l-29 72s60 31 147 31
c66 0 111 -18 139 -50c33 31 79 50 133 50c108 0 174 -71 174 -176c0 -10 -1 -25 -1 -25h-264c9 -58 53 -86 108 -86c61 0 98 26 98 26zM119 106c0 -29 23 -50 76 -50c50 0 88 23 88 51c0 27 -39 47 -88 47c-53 0 -76 -20 -76 -48zM471 282c-45 0 -79 -24 -88 -75h171
c-4 43 -33 75 -83 75z" />
    <glyph glyph-name="cacute" unicode="&#x107;" horiz-adv-x="361" 
d="M313 561l-90 -142h-62v16l38 142h114v-16zM226 -8c-116 0 -196 77 -196 180c0 105 80 182 196 182c75 0 114 -29 114 -29l-29 -73s-30 21 -77 21c-60 0 -105 -39 -105 -101c0 -60 45 -99 105 -99c47 0 77 21 77 21l26 -72s-36 -30 -111 -30z" />
    <glyph glyph-name="aringacute" unicode="&#x1fb;" horiz-adv-x="424" 
d="M26 101c0 63 52 107 151 107c61 0 90 -18 101 -26h5v16c0 51 -31 77 -101 77c-57 0 -97 -26 -97 -26l-31 72s52 33 146 33c126 0 177 -67 177 -164v-190h-70l-10 38h-5c-10 -15 -41 -46 -123 -46c-93 0 -143 48 -143 109zM121 106c0 -27 23 -49 74 -49c52 0 86 29 86 51
c0 27 -34 47 -86 47c-48 0 -74 -19 -74 -49zM329 776l-90 -142h-62v16l38 142h114v-16zM209 410c-58 0 -102 43 -102 98s44 98 102 98c57 0 101 -43 101 -98s-44 -98 -101 -98zM248 508c0 24 -15 40 -39 40c-23 0 -39 -16 -39 -40c0 -23 16 -39 39 -39c24 0 39 16 39 39z
" />
    <glyph glyph-name="ccircumflex" unicode="&#x109;" horiz-adv-x="361" 
d="M300 419l-83 92l-85 -92h-63v16l95 142h104l95 -142v-16h-63zM226 -8c-116 0 -196 77 -196 180c0 105 80 182 196 182c75 0 114 -29 114 -29l-29 -73s-30 21 -77 21c-60 0 -105 -39 -105 -101c0 -60 45 -99 105 -99c47 0 77 21 77 21l26 -72s-36 -30 -111 -30z" />
    <glyph glyph-name="ccaron" unicode="&#x10d;" horiz-adv-x="361" 
d="M212 485l83 92h63v-16l-95 -142h-104l-95 142v16h63zM226 -8c-116 0 -196 77 -196 180c0 105 80 182 196 182c75 0 114 -29 114 -29l-29 -73s-30 21 -77 21c-60 0 -105 -39 -105 -101c0 -60 45 -99 105 -99c47 0 77 21 77 21l26 -72s-36 -30 -111 -30z" />
    <glyph glyph-name="cdotaccent" unicode="&#x10b;" horiz-adv-x="361" 
d="M226 -8c-116 0 -196 77 -196 180c0 105 80 182 196 182c75 0 114 -29 114 -29l-29 -73s-30 21 -77 21c-60 0 -105 -39 -105 -101c0 -60 45 -99 105 -99c47 0 77 21 77 21l26 -72s-36 -30 -111 -30zM145 506c0 36 27 64 63 64s64 -28 64 -64s-28 -64 -64 -64
s-63 28 -63 64z" />
    <glyph glyph-name="dcaron" unicode="&#x10f;" horiz-adv-x="467" 
d="M455 609c0 34 24 61 66 61c41 0 68 -29 68 -69c-1 -23 -8 -45 -23 -71l-28 -48h-67l26 42c9 14 17 22 17 22v3c-38 3 -59 28 -59 60zM312 310h4v358h98v-668h-66l-15 48h-4s-31 -56 -124 -56c-99 0 -174 70 -174 181c0 108 74 181 170 181c85 0 111 -44 111 -44zM321 173
c0 62 -41 100 -96 100s-95 -41 -95 -100c0 -58 40 -100 95 -100s96 39 96 100z" />
    <glyph glyph-name="dcroat" unicode="&#x111;" horiz-adv-x="467" 
d="M194 456v53h122v159h98v-159h56v-53h-56v-456h-66l-15 48h-4s-31 -56 -124 -56c-99 0 -174 70 -174 181c0 108 74 181 170 181c85 0 111 -44 111 -44h4v146h-122zM321 173c0 62 -41 100 -96 100s-95 -41 -95 -100c0 -58 40 -100 95 -100s96 39 96 100z" />
    <glyph glyph-name="ecaron" unicode="&#x11b;" horiz-adv-x="415" 
d="M216 485l83 92h63v-16l-95 -142h-104l-95 142v16h63zM330 93l32 -63s-43 -40 -132 -40c-123 0 -200 79 -200 182c0 105 76 182 186 182c108 0 173 -73 173 -176v-24h-263c8 -59 52 -87 108 -87c61 0 96 26 96 26zM214 281c-44 0 -76 -25 -86 -72h168c-6 41 -36 72 -82 72
z" />
    <glyph glyph-name="emacron" unicode="&#x113;" horiz-adv-x="415" 
d="M330 93l32 -63s-43 -40 -132 -40c-123 0 -200 79 -200 182c0 105 76 182 186 182c108 0 173 -73 173 -176v-24h-263c8 -59 52 -87 108 -87c61 0 96 26 96 26zM214 281c-44 0 -76 -25 -86 -72h168c-6 41 -36 72 -82 72zM79 442v60h272v-60h-272z" />
    <glyph glyph-name="ebreve" unicode="&#x115;" horiz-adv-x="415" 
d="M330 93l32 -63s-43 -40 -132 -40c-123 0 -200 79 -200 182c0 105 76 182 186 182c108 0 173 -73 173 -176v-24h-263c8 -59 52 -87 108 -87c61 0 96 26 96 26zM214 281c-44 0 -76 -25 -86 -72h168c-6 41 -36 72 -82 72zM277 580h77c0 -73 -51 -138 -140 -138
s-140 65 -140 138h77c0 -42 26 -68 63 -68c36 0 63 27 63 68z" />
    <glyph glyph-name="edotaccent" unicode="&#x117;" horiz-adv-x="415" 
d="M330 93l32 -63s-43 -40 -132 -40c-123 0 -200 79 -200 182c0 105 76 182 186 182c108 0 173 -73 173 -176v-24h-263c8 -59 52 -87 108 -87c61 0 96 26 96 26zM214 281c-44 0 -76 -25 -86 -72h168c-6 41 -36 72 -82 72zM151 506c0 36 27 64 63 64s64 -28 64 -64
s-28 -64 -64 -64s-63 28 -63 64z" />
    <glyph glyph-name="eogonek" unicode="&#x119;" horiz-adv-x="416" 
d="M330 93l32 -63s-20 -18 -57 -30c-14 -5 -40 -21 -40 -50c0 -20 12 -33 34 -33c20 0 32 15 32 15l29 -37s-24 -30 -71 -30c-52 0 -81 30 -81 73c0 22 8 39 20 52c-122 1 -198 79 -198 182c0 105 76 182 186 182c108 0 173 -73 173 -176v-24h-263c8 -59 52 -87 108 -87
c61 0 96 26 96 26zM214 281c-44 0 -76 -25 -86 -72h168c-6 41 -36 72 -82 72z" />
    <glyph glyph-name="gcircumflex" unicode="&#x11d;" horiz-adv-x="416" 
d="M299 419l-83 92l-85 -92h-63v16l95 142h104l95 -142v-16h-63zM218 -237c-129 0 -193 55 -193 126c0 40 18 74 63 94v6c-41 18 -56 44 -56 76s13 59 57 80c-16 21 -25 46 -25 75c0 79 63 133 147 133c44 0 186 -9 186 -9v-68h-57v-5s18 -13 18 -56
c0 -65 -56 -123 -147 -123c-26 0 -50 5 -70 14c-18 -9 -24 -18 -24 -31c0 -22 18 -38 101 -38c138 0 195 -51 195 -133c0 -79 -66 -141 -195 -141zM218 -38c-70 0 -99 -31 -99 -64s29 -63 99 -63s99 29 99 63s-29 64 -99 64zM211 282c-43 0 -67 -27 -67 -61s24 -60 67 -60
s67 26 67 60s-24 61 -67 61z" />
    <glyph glyph-name="gbreve" unicode="&#x11f;" horiz-adv-x="416" 
d="M218 -237c-129 0 -193 55 -193 126c0 40 18 74 63 94v6c-41 18 -56 44 -56 76s13 59 57 80c-16 21 -25 46 -25 75c0 79 63 133 147 133c44 0 186 -9 186 -9v-68h-57v-5s18 -13 18 -56c0 -65 -56 -123 -147 -123c-26 0 -50 5 -70 14c-18 -9 -24 -18 -24 -31
c0 -22 18 -38 101 -38c138 0 195 -51 195 -133c0 -79 -66 -141 -195 -141zM218 -38c-70 0 -99 -31 -99 -64s29 -63 99 -63s99 29 99 63s-29 64 -99 64zM211 282c-43 0 -67 -27 -67 -61s24 -60 67 -60s67 26 67 60s-24 61 -67 61zM277 580h77c0 -73 -51 -138 -140 -138
s-140 65 -140 138h77c0 -42 26 -68 63 -68c36 0 63 27 63 68z" />
    <glyph glyph-name="gdotaccent" unicode="&#x121;" horiz-adv-x="416" 
d="M218 -237c-129 0 -193 55 -193 126c0 40 18 74 63 94v6c-41 18 -56 44 -56 76s13 59 57 80c-16 21 -25 46 -25 75c0 79 63 133 147 133c44 0 186 -9 186 -9v-68h-57v-5s18 -13 18 -56c0 -65 -56 -123 -147 -123c-26 0 -50 5 -70 14c-18 -9 -24 -18 -24 -31
c0 -22 18 -38 101 -38c138 0 195 -51 195 -133c0 -79 -66 -141 -195 -141zM218 -38c-70 0 -99 -31 -99 -64s29 -63 99 -63s99 29 99 63s-29 64 -99 64zM211 282c-43 0 -67 -27 -67 -61s24 -60 67 -60s67 26 67 60s-24 61 -67 61zM154 506c0 36 27 64 63 64s64 -28 64 -64
s-28 -64 -64 -64s-63 28 -63 64z" />
    <glyph glyph-name="gcommaaccent" unicode="&#x123;" horiz-adv-x="416" 
d="M273 482c0 -34 -24 -61 -66 -61c-41 0 -68 29 -68 69c1 23 8 45 23 71l28 48h67l-26 -42c-9 -14 -17 -22 -17 -22v-3c38 -3 59 -28 59 -60zM218 -237c-129 0 -193 55 -193 126c0 40 18 74 63 94v6c-41 18 -56 44 -56 76s13 59 57 80c-16 21 -25 46 -25 75
c0 79 63 133 147 133c44 0 186 -9 186 -9v-68h-57v-5s18 -13 18 -56c0 -65 -56 -123 -147 -123c-26 0 -50 5 -70 14c-18 -9 -24 -18 -24 -31c0 -22 18 -38 101 -38c138 0 195 -51 195 -133c0 -79 -66 -141 -195 -141zM218 -38c-70 0 -99 -31 -99 -64s29 -63 99 -63
s99 29 99 63s-29 64 -99 64zM211 282c-43 0 -67 -27 -67 -61s24 -60 67 -60s67 26 67 60s-24 61 -67 61z" />
    <glyph glyph-name="hcircumflex" unicode="&#x125;" horiz-adv-x="460" 
d="M309 717l-83 92l-85 -92h-63v16l95 142h104l95 -142v-16h-63zM53 0v668h98v-354h3c19 20 48 40 108 40c92 0 150 -59 150 -153v-201h-98v188c0 50 -28 85 -79 85c-53 0 -84 -37 -84 -72v-201h-98z" />
    <glyph glyph-name="hbar" unicode="&#x127;" horiz-adv-x="460" 
d="M0 456v53h53v159h98v-159h125v-53h-125v-142h3c19 20 48 40 108 40c92 0 150 -59 150 -153v-201h-98v188c0 50 -28 85 -79 85c-53 0 -84 -37 -84 -72v-201h-98v456h-53z" />
    <glyph glyph-name="ibreve" unicode="&#x12d;" horiz-adv-x="205" 
d="M54 0v346h98v-346h-98zM164 580h77c0 -73 -51 -138 -140 -138s-140 65 -140 138h77c0 -42 26 -68 63 -68c36 0 63 27 63 68z" />
    <glyph glyph-name="itilde" unicode="&#x129;" horiz-adv-x="205" 
d="M54 0v346h98v-346h-98zM170 434c-57 0 -91 43 -127 43c-22 0 -32 -13 -35 -31l-2 -14l-68 6l3 29c5 48 35 85 90 85c57 0 90 -43 126 -43c24 0 32 13 36 31l3 14l69 -6l-4 -29c-9 -48 -37 -85 -91 -85z" />
    <glyph glyph-name="imacron" unicode="&#x12b;" horiz-adv-x="205" 
d="M54 0v346h98v-346h-98zM-35 442v60h272v-60h-272z" />
    <glyph glyph-name="iogonek" unicode="&#x12f;" horiz-adv-x="206" 
d="M55 0v346h98v-346s-48 -16 -48 -54c0 -20 12 -33 34 -33c20 0 32 15 32 15l29 -37s-24 -30 -71 -30c-52 0 -81 30 -81 73c0 30 16 51 35 66h-28zM104 470c-33 0 -58 25 -58 58s25 59 58 59s59 -26 59 -59s-26 -58 -59 -58z" />
    <glyph glyph-name="dotlessj" unicode="&#x237;" horiz-adv-x="204" 
d="M-46 -179l26 73s17 -9 36 -9c24 0 36 14 36 49v412h99v-422c0 -77 -36 -125 -116 -125c-50 0 -81 22 -81 22z" />
    <glyph glyph-name="jcircumflex" unicode="&#x135;" horiz-adv-x="203" 
d="M-46 -179l26 73s17 -9 36 -9c24 0 36 14 36 49v412h99v-422c0 -77 -36 -125 -116 -125c-50 0 -81 22 -81 22zM187 419l-83 92l-85 -92h-63v16l95 142h104l95 -142v-16h-63z" />
    <glyph glyph-name="kcommaaccent" unicode="&#x137;" horiz-adv-x="412" 
d="M146 -97c0 34 24 61 66 61c41 0 68 -29 68 -69c-1 -23 -8 -45 -23 -71l-28 -48h-67l26 42c9 14 17 22 17 22v3c-38 3 -59 28 -59 60zM277 346h111l-141 -168l161 -178h-125l-130 147h-3v-147h-98v668h98v-473h2z" />
    <glyph glyph-name="kgreenlandic" unicode="&#x138;" horiz-adv-x="413" 
d="M277 346h111l-141 -169l161 -177h-125l-130 147h-3v-147h-98v346h98v-151h3z" />
    <glyph glyph-name="lacute" unicode="&#x13a;" horiz-adv-x="205" 
d="M223 859l-90 -142h-62v16l38 142h114v-16zM54 0v668h98v-668h-98z" />
    <glyph glyph-name="lcaron" unicode="&#x13e;" horiz-adv-x="205" 
d="M192 609c0 34 24 61 66 61c41 0 68 -29 68 -69c-1 -23 -8 -45 -23 -71l-28 -48h-67l26 42c9 14 17 22 17 22v3c-38 3 -59 28 -59 60zM54 0v668h98v-668h-98z" />
    <glyph glyph-name="lcommaaccent" unicode="&#x13c;" horiz-adv-x="205" 
d="M39 -97c0 34 24 61 66 61c41 0 68 -29 68 -69c-1 -23 -8 -45 -23 -71l-28 -48h-67l26 42c9 14 17 22 17 22v3c-38 3 -59 28 -59 60zM54 0v668h98v-668h-98z" />
    <glyph glyph-name="ldot" unicode="&#x140;" horiz-adv-x="326" 
d="M54 0v668h98v-668h-98zM202 286c0 36 27 64 63 64s64 -28 64 -64s-28 -64 -64 -64s-63 28 -63 64z" />
    <glyph glyph-name="nacute" unicode="&#x144;" horiz-adv-x="459" 
d="M359 561l-90 -142h-62v16l38 142h114v-16zM53 0v346h63l13 -48h5c24 34 62 56 123 56c96 0 155 -60 155 -153v-201h-98v187c0 50 -28 86 -80 86c-53 0 -83 -37 -83 -72v-201h-98z" />
    <glyph glyph-name="ncaron" unicode="&#x148;" horiz-adv-x="459" 
d="M231 485l83 92h63v-16l-95 -142h-104l-95 142v16h63zM53 0v346h63l13 -48h5c24 34 62 56 123 56c96 0 155 -60 155 -153v-201h-98v187c0 50 -28 86 -80 86c-53 0 -83 -37 -83 -72v-201h-98z" />
    <glyph glyph-name="ncommaaccent" unicode="&#x146;" horiz-adv-x="459" 
d="M165 -97c0 34 24 61 66 61c41 0 68 -29 68 -69c-1 -23 -8 -45 -23 -71l-28 -48h-67l26 42c9 14 17 22 17 22v3c-38 3 -59 28 -59 60zM53 0v346h63l13 -48h5c24 34 62 56 123 56c96 0 155 -60 155 -153v-201h-98v187c0 50 -28 86 -80 86c-53 0 -83 -37 -83 -72v-201h-98z
" />
    <glyph glyph-name="napostrophe" unicode="&#x149;" horiz-adv-x="459" 
d="M28 580c0 34 24 61 66 61c41 0 68 -29 68 -69c-1 -23 -8 -45 -23 -71l-28 -48h-67l26 42c9 14 17 22 17 22v3c-38 3 -59 28 -59 60zM53 0v346h63l13 -48h5c24 34 62 56 123 56c96 0 155 -60 155 -153v-201h-98v187c0 50 -28 86 -80 86c-53 0 -83 -37 -83 -72v-201h-98z
" />
    <glyph glyph-name="omacron" unicode="&#x14d;" horiz-adv-x="445" 
d="M86 442v60h272v-60h-272zM416 171c0 -109 -87 -179 -193 -179c-107 0 -193 70 -193 179c0 111 86 183 193 183c106 0 193 -72 193 -183zM223 70c55 0 97 40 97 102c0 63 -42 104 -97 104s-97 -41 -97 -104c0 -62 42 -102 97 -102z" />
    <glyph glyph-name="obreve" unicode="&#x14f;" horiz-adv-x="445" 
d="M416 171c0 -109 -87 -179 -193 -179c-107 0 -193 70 -193 179c0 111 86 183 193 183c106 0 193 -72 193 -183zM223 70c55 0 97 40 97 102c0 63 -42 104 -97 104s-97 -41 -97 -104c0 -62 42 -102 97 -102zM288 580h77c0 -73 -51 -138 -140 -138s-140 65 -140 138h77
c0 -42 26 -68 63 -68c36 0 63 27 63 68z" />
    <glyph glyph-name="ohungarumlaut" unicode="&#x151;" horiz-adv-x="445" 
d="M249 561l-78 -142h-62v16l38 142h102v-16zM416 561l-78 -142h-62v16l38 142h102v-16zM416 171c0 -109 -87 -179 -193 -179c-107 0 -193 70 -193 179c0 111 86 183 193 183c106 0 193 -72 193 -183zM223 70c55 0 97 40 97 102c0 63 -42 104 -97 104s-97 -41 -97 -104
c0 -62 42 -102 97 -102z" />
    <glyph glyph-name="oslashacute" unicode="&#x1ff;" horiz-adv-x="445" 
d="M417 171c0 -109 -87 -179 -193 -179c-44 0 -84 12 -117 33l-38 -38l-34 34l36 36c-26 29 -40 68 -40 114c0 111 86 183 193 183c41 0 80 -11 111 -31l42 42l34 -34l-39 -39c28 -31 45 -72 45 -121zM337 561l-90 -142h-62v16l38 142h114v-16zM224 70c55 0 97 40 97 102
c0 22 -5 41 -14 57l-141 -142c16 -11 36 -17 58 -17zM127 172c0 -19 4 -36 11 -50l139 139c-15 9 -34 15 -53 15c-55 0 -97 -41 -97 -104z" />
    <glyph glyph-name="racute" unicode="&#x155;" horiz-adv-x="309" 
d="M267 561l-90 -142h-62v16l38 142h114v-16zM308 328l-35 -78s-17 12 -46 12c-39 0 -75 -30 -75 -73v-189h-98v346h63l13 -48h4c18 26 50 51 101 51c50 0 73 -21 73 -21z" />
    <glyph glyph-name="rcaron" unicode="&#x159;" horiz-adv-x="309" 
d="M176 485l83 92h63v-16l-95 -142h-104l-95 142v16h63zM308 328l-35 -78s-17 12 -46 12c-39 0 -75 -30 -75 -73v-189h-98v346h63l13 -48h4c18 26 50 51 101 51c50 0 73 -21 73 -21z" />
    <glyph glyph-name="rcommaaccent" unicode="&#x157;" horiz-adv-x="309" 
d="M39 -97c0 34 24 61 66 61c41 0 68 -29 68 -69c-1 -23 -8 -45 -23 -71l-28 -48h-67l26 42c9 14 17 22 17 22v3c-38 3 -59 28 -59 60zM308 328l-35 -78s-17 12 -46 12c-39 0 -75 -30 -75 -73v-189h-98v346h63l13 -48h4c18 26 50 51 101 51c50 0 73 -21 73 -21z" />
    <glyph glyph-name="sacute" unicode="&#x15b;" horiz-adv-x="380" 
d="M307 561l-90 -142h-62v16l38 142h114v-16zM30 31l30 67s55 -34 120 -34c42 0 66 14 66 36c0 59 -212 26 -212 148c0 60 46 106 153 106c102 0 154 -29 154 -29l-31 -72s-40 28 -112 28c-39 0 -62 -9 -62 -33c0 -57 214 -23 214 -148c0 -60 -49 -108 -162 -108
c-108 0 -158 39 -158 39z" />
    <glyph glyph-name="scircumflex" unicode="&#x15d;" horiz-adv-x="380" 
d="M273 419l-83 92l-85 -92h-63v16l95 142h104l95 -142v-16h-63zM30 31l30 67s55 -34 120 -34c42 0 66 14 66 36c0 59 -212 26 -212 148c0 60 46 106 153 106c102 0 154 -29 154 -29l-31 -72s-40 28 -112 28c-39 0 -62 -9 -62 -33c0 -57 214 -23 214 -148
c0 -60 -49 -108 -162 -108c-108 0 -158 39 -158 39z" />
    <glyph glyph-name="scedilla" unicode="&#x15f;" horiz-adv-x="380" 
d="M159 -69l-18 21l20 41c-90 5 -131 38 -131 38l30 67s55 -34 120 -34c42 0 66 14 66 36c0 59 -212 26 -212 148c0 60 46 106 153 106c102 0 154 -29 154 -29l-31 -72s-40 28 -112 28c-39 0 -62 -9 -62 -33c0 -57 214 -23 214 -148c0 -56 -42 -101 -139 -107l-10 -23
c37 0 66 -22 66 -64c0 -43 -30 -73 -85 -73c-56 0 -81 32 -81 32l21 36s22 -22 58 -22c24 0 38 11 38 29s-15 29 -36 29c-15 0 -23 -6 -23 -6z" />
    <glyph glyph-name="scommaaccent" unicode="&#x219;" horiz-adv-x="380" 
d="M127 -97c0 34 24 61 66 61c41 0 68 -29 68 -69c-1 -23 -8 -45 -23 -71l-28 -48h-67l26 42c9 14 17 22 17 22v3c-38 3 -59 28 -59 60zM30 31l30 67s55 -34 120 -34c42 0 66 14 66 36c0 59 -212 26 -212 148c0 60 46 106 153 106c102 0 154 -29 154 -29l-31 -72
s-40 28 -112 28c-39 0 -62 -9 -62 -33c0 -57 214 -23 214 -148c0 -60 -49 -108 -162 -108c-108 0 -158 39 -158 39z" />
    <glyph glyph-name="tcaron" unicode="&#x165;" horiz-adv-x="328" 
d="M250 580c0 34 24 61 66 61c41 0 68 -29 68 -69c-1 -23 -8 -45 -23 -71l-28 -48h-67l26 42c9 14 17 22 17 22v3c-38 3 -59 28 -59 60zM16 346h65v104h98v-104h121v-78h-121v-124c0 -48 20 -69 59 -69c26 0 45 13 45 13l32 -67s-31 -29 -92 -29c-89 0 -142 53 -142 148v128
h-65v78z" />
    <glyph glyph-name="tcommaaccent" unicode="&#x163;" horiz-adv-x="328" 
d="M107 -97c0 34 24 61 66 61c41 0 68 -29 68 -69c-1 -23 -8 -45 -23 -71l-28 -48h-67l26 42c9 14 17 22 17 22v3c-38 3 -59 28 -59 60zM16 346h65v104h98v-104h121v-78h-121v-124c0 -48 20 -69 59 -69c26 0 45 13 45 13l32 -67s-31 -29 -92 -29c-89 0 -142 53 -142 148v128
h-65v78z" />
    <glyph glyph-name="uni021B" unicode="&#x21b;" horiz-adv-x="328" 
d="M107 -97c0 34 24 61 66 61c41 0 68 -29 68 -69c-1 -23 -8 -45 -23 -71l-28 -48h-67l26 42c9 14 17 22 17 22v3c-38 3 -59 28 -59 60zM16 346h65v104h98v-104h121v-78h-121v-124c0 -48 20 -69 59 -69c26 0 45 13 45 13l32 -67s-31 -29 -92 -29c-89 0 -142 53 -142 148v128
h-65v78z" />
    <glyph glyph-name="tbar" unicode="&#x167;" horiz-adv-x="332" 
d="M18 346h65v104h98v-104h121v-78h-121v-53h99v-57h-99v-14c0 -48 20 -69 59 -69c26 0 45 13 45 13l32 -67s-31 -29 -92 -29c-89 0 -142 53 -142 148v18h-62v57h62v53h-65v78z" />
    <glyph glyph-name="utilde" unicode="&#x169;" horiz-adv-x="457" 
d="M405 346v-346h-66l-17 47h-4c-11 -20 -44 -55 -118 -55c-96 0 -153 60 -153 153v201h98v-187c0 -50 26 -86 78 -86c53 0 84 37 84 71v202h98zM304 434c-57 0 -91 43 -127 43c-22 0 -32 -13 -35 -31l-2 -14l-68 6l3 29c5 48 35 85 90 85c57 0 90 -43 126 -43
c24 0 32 13 36 31l3 14l69 -6l-4 -29c-9 -48 -37 -85 -91 -85z" />
    <glyph glyph-name="umacron" unicode="&#x16b;" horiz-adv-x="457" 
d="M405 346v-346h-66l-17 47h-4c-11 -20 -44 -55 -118 -55c-96 0 -153 60 -153 153v201h98v-187c0 -50 26 -86 78 -86c53 0 84 37 84 71v202h98zM93 442v60h272v-60h-272z" />
    <glyph glyph-name="ubreve" unicode="&#x16d;" horiz-adv-x="457" 
d="M405 346v-346h-66l-17 47h-4c-11 -20 -44 -55 -118 -55c-96 0 -153 60 -153 153v201h98v-187c0 -50 26 -86 78 -86c53 0 84 37 84 71v202h98zM293 580h77c0 -73 -51 -138 -140 -138s-140 65 -140 138h77c0 -42 26 -68 63 -68c36 0 63 27 63 68z" />
    <glyph glyph-name="uring" unicode="&#x16f;" horiz-adv-x="457" 
d="M227 423c-58 0 -102 43 -102 98s44 98 102 98c57 0 101 -43 101 -98s-44 -98 -101 -98zM266 521c0 24 -15 40 -39 40c-23 0 -39 -16 -39 -40c0 -23 16 -39 39 -39c24 0 39 16 39 39zM405 346v-346h-66l-17 47h-4c-11 -20 -44 -55 -118 -55c-96 0 -153 60 -153 153v201h98
v-187c0 -50 26 -86 78 -86c53 0 84 37 84 71v202h98z" />
    <glyph glyph-name="uhungarumlaut" unicode="&#x171;" horiz-adv-x="457" 
d="M405 346v-346h-66l-17 47h-4c-11 -20 -44 -55 -118 -55c-96 0 -153 60 -153 153v201h98v-187c0 -50 26 -86 78 -86c53 0 84 37 84 71v202h98zM254 561l-78 -142h-62v16l38 142h102v-16zM421 561l-78 -142h-62v16l38 142h102v-16z" />
    <glyph glyph-name="uogonek" unicode="&#x173;" horiz-adv-x="457" 
d="M405 346v-346s-48 -16 -48 -54c0 -20 12 -33 34 -33c20 0 32 15 32 15l29 -37s-24 -30 -71 -30c-52 0 -81 30 -81 73c0 31 18 54 38 68l-16 45h-4c-11 -20 -44 -55 -118 -55c-96 0 -153 60 -153 153v201h98v-187c0 -50 26 -86 78 -86c53 0 84 37 84 71v202h98z" />
    <glyph glyph-name="wacute" unicode="&#x1e83;" horiz-adv-x="593" 
d="M422 561l-90 -142h-62v16l38 142h114v-16zM586 346l-145 -346h-68l-67 192c-4 11 -6 23 -6 33h-5c0 -10 -3 -22 -7 -33l-66 -192h-68l-145 346h105l68 -201c3 -9 7 -19 7 -28h7c0 9 3 19 6 28l61 201h71l61 -201c3 -10 6 -19 6 -28h7c0 9 3 18 6 28l70 201h102z" />
    <glyph glyph-name="wcircumflex" unicode="&#x175;" horiz-adv-x="593" 
d="M382 419l-83 92l-85 -92h-63v16l95 142h104l95 -142v-16h-63zM586 346l-145 -346h-68l-67 192c-4 11 -6 23 -6 33h-5c0 -10 -3 -22 -7 -33l-66 -192h-68l-145 346h105l68 -201c3 -9 7 -19 7 -28h7c0 9 3 19 6 28l61 201h71l61 -201c3 -10 6 -19 6 -28h7c0 9 3 18 6 28
l70 201h102z" />
    <glyph glyph-name="wdieresis" unicode="&#x1e85;" horiz-adv-x="593" 
d="M154 483c0 28 24 53 52 53s53 -25 53 -53s-25 -52 -53 -52s-52 24 -52 52zM338 483c0 28 24 53 52 53s53 -25 53 -53s-25 -52 -53 -52s-52 24 -52 52zM586 346l-145 -346h-68l-67 192c-4 11 -6 23 -6 33h-5c0 -10 -3 -22 -7 -33l-66 -192h-68l-145 346h105l68 -201
c3 -9 7 -19 7 -28h7c0 9 3 19 6 28l61 201h71l61 -201c3 -10 6 -19 6 -28h7c0 9 3 18 6 28l70 201h102z" />
    <glyph glyph-name="wgrave" unicode="&#x1e81;" horiz-adv-x="593" 
d="M586 346l-145 -346h-68l-67 192c-4 11 -6 23 -6 33h-5c0 -10 -3 -22 -7 -33l-66 -192h-68l-145 346h105l68 -201c3 -9 7 -19 7 -28h7c0 9 3 19 6 28l61 201h71l61 -201c3 -10 6 -19 6 -28h7c0 9 3 18 6 28l70 201h102zM265 419l-90 142v16h115l38 -142v-16h-63z" />
    <glyph glyph-name="ycircumflex" unicode="&#x177;" horiz-adv-x="412" 
d="M404 346l-248 -538h-104l109 220l-153 318h107l83 -194c4 -9 8 -21 9 -35h5c1 14 6 26 10 35l82 194h100zM297 419l-83 92l-85 -92h-63v16l95 142h104l95 -142v-16h-63z" />
    <glyph glyph-name="ygrave" unicode="&#x1ef3;" horiz-adv-x="412" 
d="M404 346l-248 -538h-104l109 220l-153 318h107l83 -194c4 -9 8 -21 9 -35h5c1 14 6 26 10 35l82 194h100zM178 419l-90 142v16h115l38 -142v-16h-63z" />
    <glyph glyph-name="zacute" unicode="&#x17a;" horiz-adv-x="388" 
d="M317 561l-90 -142h-62v16l38 142h114v-16zM355 0h-322v43l185 224h-184v79h321v-38l-185 -229h185v-79z" />
    <glyph glyph-name="zdotaccent" unicode="&#x17c;" horiz-adv-x="388" 
d="M355 0h-322v43l185 224h-184v79h321v-38l-185 -229h185v-79zM132 506c0 36 27 64 63 64s64 -28 64 -64s-28 -64 -64 -64s-63 28 -63 64z" />
    <glyph glyph-name="IJ" unicode="&#x132;" horiz-adv-x="775" 
d="M177 600v-600h-99v600h99zM328 36l46 81s48 -35 107 -35c80 0 121 40 122 136v382h100v-401c-1 -126 -69 -213 -215 -213c-101 0 -155 46 -160 50z" />
    <glyph glyph-name="ij" unicode="&#x133;" horiz-adv-x="469" 
d="M103 470c-33 0 -58 25 -58 58s25 59 58 59s59 -26 59 -59s-26 -58 -59 -58zM54 0v346h98v-346h-98zM238 -184l15 73s14 -8 30 -8c25 0 35 14 35 43v422h99v-426c0 -76 -31 -121 -110 -121c-45 0 -69 17 -69 17zM367 470c-32 0 -58 25 -58 58s26 59 58 59
c33 0 59 -26 59 -59s-26 -58 -59 -58z" />
    <glyph glyph-name="uni2219" unicode="&#x2219;" horiz-adv-x="178" 
d="M25 358c0 36 28 64 63 64s63 -28 63 -64c0 -35 -28 -62 -63 -62s-63 27 -63 62z" />
    <glyph glyph-name="schwa" unicode="&#x259;" horiz-adv-x="419" 
d="M85 251l-31 66s52 37 146 37c114 0 188 -79 188 -182c0 -111 -81 -182 -185 -182c-110 0 -176 68 -176 176c0 10 1 28 1 28h263c-10 57 -55 84 -108 84c-61 0 -98 -27 -98 -27zM203 57c41 0 79 25 88 83h-174c1 -46 30 -83 86 -83z" />
    <glyph glyph-name="uni2117" unicode="&#x2117;" horiz-adv-x="566" 
d="M522 380c0 -128 -91 -235 -240 -235c-148 0 -237 108 -237 235s89 234 237 234c149 0 240 -107 240 -234zM462 380c0 103 -74 178 -180 178c-104 0 -178 -68 -178 -178c0 -103 74 -178 178 -178c106 0 180 74 180 178zM202 478h96c53 0 90 -29 90 -75
c0 -52 -41 -78 -93 -78h-46v-49h-47v202zM297 436h-48v-70h46c26 0 45 12 45 35s-17 35 -43 35z" />
    <glyph glyph-name="notequal" unicode="&#x2260;" horiz-adv-x="486" 
d="M54 349v80h201l44 114l68 -24l-35 -90h101v-80h-131l-49 -129h180v-80h-211l-42 -111l-68 24l33 87h-91v80h121l50 129h-171z" />
    <glyph glyph-name="approxequal" unicode="&#x2248;" horiz-adv-x="513" 
d="M336 163c-66 0 -105 43 -145 43c-25 0 -34 -15 -39 -31l-4 -14l-85 6l7 38c9 48 43 84 107 84c65 0 104 -43 145 -43c25 0 34 15 39 31l5 14l84 -6l-7 -39c-8 -47 -43 -83 -107 -83zM336 357c-66 0 -105 43 -145 43c-25 0 -34 -15 -39 -31l-4 -14l-85 6l7 39
c10 47 43 83 107 83c65 0 104 -43 145 -43c25 0 34 15 39 31l5 14l84 -6l-7 -38c-10 -48 -43 -84 -107 -84z" />
    <glyph glyph-name="lessequal" unicode="&#x2264;" horiz-adv-x="401" 
d="M318 258l-57 -59l-198 183v19l198 188l57 -60l-148 -138zM353 145v-81h-300v81h300z" />
    <glyph glyph-name="greaterequal" unicode="&#x2265;" horiz-adv-x="401" 
d="M141 199l-58 59l148 133l-148 138l57 60l198 -188v-19zM49 64v81h299v-81h-299z" />
    <glyph glyph-name="Delta" unicode="&#x2206;" horiz-adv-x="655" 
d="M25 0v18l293 582h18l294 -582v-18h-605zM486 86c-43 93 -100 215 -156 338h-8l-156 -338h320z" />
    <glyph glyph-name="Omega" unicode="&#x2126;" horiz-adv-x="740" 
d="M52 0v86h126c-81 50 -124 138 -124 227c0 160 114 300 316 300c203 0 317 -140 317 -300c0 -89 -43 -177 -124 -227h125v-86h-282v89c105 9 182 106 182 215c0 118 -85 214 -218 214c-132 0 -217 -96 -217 -214c0 -109 77 -206 181 -215v-89h-282z" />
    <glyph glyph-name="pi" unicode="&#x3c0;" horiz-adv-x="509" 
d="M23 346h464v-79h-65v-267h-98v267h-139v-267h-98v267h-64v79z" />
    <glyph glyph-name="afii61289" unicode="&#x2113;" horiz-adv-x="443" 
d="M63 159l-26 42l82 63v250c0 85 60 154 156 154c95 0 156 -69 156 -154c0 -84 -30 -131 -97 -184l-124 -96v-79c0 -52 28 -81 77 -81c43 0 71 25 71 25l29 -66s-44 -41 -113 -41c-100 0 -155 54 -155 147v38zM210 514v-179l59 46c44 33 70 70 70 127c0 46 -26 76 -66 76
c-38 0 -63 -30 -63 -70z" />
    <glyph glyph-name="estimated" unicode="&#x212e;" horiz-adv-x="712" 
d="M174 265v-82c35 -61 103 -101 196 -101c89 0 144 41 144 41l50 -83s-65 -53 -197 -53c-208 0 -324 139 -324 312c0 175 125 314 318 314c194 0 319 -139 319 -314c0 -13 -1 -34 -1 -34h-505zM361 518c-84 0 -151 -42 -187 -105v-69h374v69c-36 64 -103 105 -187 105z" />
    <glyph glyph-name="eng" unicode="&#x14b;" horiz-adv-x="459" 
d="M53 0v346h63l13 -48h5c24 34 62 56 123 56c96 0 155 -60 155 -153v-272c0 -76 -35 -124 -115 -124c-50 0 -81 21 -81 21l26 74s17 -10 35 -10c25 0 37 15 37 50v247c0 50 -28 86 -80 86c-53 0 -83 -37 -83 -72v-201h-98z" />
    <glyph glyph-name="Eng" unicode="&#x14a;" horiz-adv-x="696" 
d="M618 600v-676c0 -77 -36 -125 -116 -125c-50 0 -81 22 -81 22l26 73s16 -9 34 -9c26 0 38 14 38 46v139l-342 332v-402h-99v600h26l415 -396v396h99z" />
    <glyph glyph-name="infinity" unicode="&#x221e;" horiz-adv-x="799" 
d="M225 115c-103 0 -171 79 -171 171c0 89 68 171 171 171c80 0 132 -55 175 -115c43 60 94 115 174 115c91 0 171 -69 171 -171c0 -90 -65 -171 -171 -171c-81 0 -133 54 -176 113c-42 -59 -93 -113 -173 -113zM568 379c-55 0 -91 -42 -123 -92c34 -51 70 -95 123 -95
c60 0 95 44 95 94c0 54 -41 93 -95 93zM231 192c54 0 90 43 123 92c-34 51 -70 95 -123 95c-60 0 -94 -47 -94 -93c0 -49 34 -94 94 -94z" />
    <glyph glyph-name="partialdiff" unicode="&#x2202;" horiz-adv-x="470" 
d="M244 389l-118 198v13h92l166 -269c37 -60 54 -97 54 -160c0 -112 -84 -181 -204 -181c-118 0 -204 69 -204 181c0 105 83 181 204 181c13 0 25 -1 37 -3v4s-14 15 -27 36zM234 71c61 0 105 42 105 101c0 62 -45 99 -105 99c-61 0 -105 -42 -105 -99
c0 -59 45 -101 105 -101z" />
    <glyph glyph-name="integral" unicode="&#x222b;" horiz-adv-x="326" 
d="M114 21v503c0 77 35 125 115 125c50 0 81 -22 81 -22l-26 -73s-17 9 -35 9c-25 0 -37 -14 -37 -49v-503c0 -77 -35 -125 -116 -125c-49 0 -81 22 -81 22l26 73s18 -9 36 -9c25 0 37 14 37 49z" />
    <glyph glyph-name="radical" unicode="&#x221a;" horiz-adv-x="635" 
d="M642 600l-407 -792h-21l-210 399h111l76 -160c2 -3 27 -67 27 -68h14c0 1 25 65 26 68l272 553h112z" />
    <glyph glyph-name="summation" unicode="&#x2211;" horiz-adv-x="461" 
d="M45 600h370v-86h-245l155 -191v-49l-152 -188h242v-86h-370v86l174 206v13l-174 209v86z" />
    <glyph glyph-name="product" unicode="&#x220f;" horiz-adv-x="697" 
d="M609 600v-600h-99v514h-323v-514h-99v600h521z" />
    <glyph glyph-name="lozenge" unicode="&#x25ca;" horiz-adv-x="483" 
d="M275 600l175 -300l-175 -300h-67l-174 300l174 300h67zM144 299l91 -166h14l90 166l-90 168h-14z" />
    <glyph glyph-name="zero.tab" 
d="M275 -14c-162 0 -245 131 -245 313c0 184 83 314 245 314c164 0 245 -130 245 -314c0 -182 -81 -313 -245 -313zM275 82c98 0 143 82 143 217c0 137 -45 219 -143 219c-97 0 -143 -82 -143 -219c0 -135 46 -217 143 -217z" />
    <glyph glyph-name="one.tab" 
d="M76 512v88h282v-512h149v-88h-444v88h196v424h-183z" />
    <glyph glyph-name="two.tab" 
d="M56 0v18l251 288c39 45 58 70 58 108c0 60 -49 103 -118 103c-83 0 -142 -60 -147 -65l-53 79s77 82 210 82c146 0 217 -81 217 -182c0 -56 -19 -100 -65 -153l-167 -192h253v-86h-439z" />
    <glyph glyph-name="three.tab" 
d="M389 183c0 59 -42 101 -115 101h-90v26l136 201h-246v89h403v-18l-154 -227c111 -9 171 -74 171 -179c0 -104 -79 -190 -232 -190c-134 0 -216 79 -219 82c16 24 34 54 50 78c0 0 71 -66 166 -66c88 0 130 45 130 103z" />
    <glyph glyph-name="four.tab" 
d="M25 135v88l337 377h72v-376h77v-89h-77v-135h-100v135h-309zM138 228v-4h196v221l-175 -199c-9 -11 -21 -18 -21 -18z" />
    <glyph glyph-name="five.tab" 
d="M461 511h-269l-4 -149c24 5 51 8 82 8c158 0 228 -78 228 -190c0 -113 -79 -193 -232 -193c-134 0 -219 81 -219 81l50 78s71 -66 166 -66c84 0 130 41 130 107c0 60 -46 101 -144 101c-93 0 -140 -24 -141 -24l-16 12l10 324h359v-89z" />
    <glyph glyph-name="six.tab" 
d="M286 -14c-135 0 -231 83 -231 209c0 65 21 119 55 174l141 231h120l-124 -201c-11 -18 -22 -30 -22 -30v-8c21 10 45 16 70 16c133 0 216 -73 216 -187c0 -125 -99 -204 -225 -204zM282 293c-64 0 -120 -42 -120 -107c0 -67 49 -111 121 -111c74 0 122 46 122 110
c0 61 -47 108 -123 108z" />
    <glyph glyph-name="seven.tab" 
d="M65 511v89h441v-23l-270 -577h-117l248 511h-302z" />
    <glyph glyph-name="eight.tab" 
d="M275 -13c-144 0 -231 81 -231 179c0 69 35 122 100 151c-51 28 -76 76 -76 131c0 92 80 165 207 165s207 -73 207 -165c0 -55 -25 -103 -76 -131c64 -29 100 -82 100 -151c0 -98 -87 -179 -231 -179zM275 75c75 0 127 44 127 100c0 59 -54 100 -127 100
c-74 0 -127 -42 -127 -100c0 -56 53 -100 127 -100zM381 436c0 51 -42 88 -106 88c-63 0 -105 -37 -105 -88c0 -49 40 -87 105 -87s106 38 106 87z" />
    <glyph glyph-name="nine.tab" 
d="M495 405c0 -65 -21 -119 -55 -174l-141 -231h-121l125 201c11 18 22 30 22 30v8c-21 -10 -45 -16 -70 -16c-134 0 -217 73 -217 187c0 125 100 204 225 204c136 0 232 -83 232 -209zM267 307c65 0 121 42 121 107c0 67 -50 111 -121 111c-74 0 -122 -46 -122 -110
c0 -61 47 -108 122 -108z" />
    <glyph glyph-name="zerosuperior" unicode="&#x2070;" horiz-adv-x="371" 
d="M185 677c104 0 160 -82 160 -173c0 -88 -56 -170 -160 -170c-102 0 -159 82 -159 170c0 91 57 173 159 173zM185 614c-54 0 -83 -49 -83 -110c0 -57 29 -106 83 -106c55 0 83 49 83 106c0 61 -28 110 -83 110z" />
    <glyph glyph-name="onesuperior_alt" horiz-adv-x="246" 
d="M28 609v59h138v-267h63v-59h-201v59h71v208h-71z" />
    <glyph glyph-name="foursuperior" unicode="&#x2074;" horiz-adv-x="326" 
d="M17 422v42l187 204h50v-191h53v-55h-53v-80h-64v80h-173zM100 476v-1l38 2h52v73l1 27h-2l-62 -73c-12 -14 -27 -28 -27 -28z" />
    <glyph glyph-name="fivesuperior" unicode="&#x2075;" horiz-adv-x="313" 
d="M50 668h218v-59h-162l-2 -72c15 2 34 4 57 4c85 0 130 -35 130 -98c0 -59 -44 -109 -138 -109c-75 0 -123 40 -129 46l34 48s33 -33 90 -33c52 0 73 20 73 48s-21 49 -81 49c-43 0 -80 -13 -80 -13l-17 10z" />
    <glyph glyph-name="sixsuperior" unicode="&#x2076;" horiz-adv-x="322" 
d="M165 573c82 0 139 -43 139 -116c0 -76 -57 -123 -139 -123c-83 0 -139 47 -139 123c0 42 13 74 45 118l67 94h76l-48 -68c-11 -16 -23 -26 -23 -26v-3c7 0 14 1 22 1zM165 516c-41 0 -70 -20 -70 -60c0 -39 27 -64 70 -64c42 0 70 25 70 64c0 38 -28 60 -70 60z" />
    <glyph glyph-name="sevensuperior" unicode="&#x2077;" horiz-adv-x="280" 
d="M270 668v-17l-126 -309h-75l112 267h-162v59h251z" />
    <glyph glyph-name="eightsuperior" unicode="&#x2078;" horiz-adv-x="330" 
d="M26 437c0 36 20 63 54 77c-28 16 -42 41 -42 72c0 51 50 91 127 91s127 -40 127 -91c0 -31 -15 -56 -42 -72c34 -14 54 -41 54 -77c0 -53 -48 -103 -139 -103c-90 0 -139 50 -139 103zM165 489c-44 0 -69 -20 -69 -48c0 -27 25 -51 69 -51s69 24 69 51
c0 28 -25 48 -69 48zM165 531c40 0 61 20 61 45s-23 44 -61 44c-37 0 -60 -19 -60 -44s21 -45 60 -45z" />
    <glyph glyph-name="ninesuperior" unicode="&#x2079;" horiz-adv-x="326" 
d="M162 438c-82 0 -140 43 -140 116c0 76 58 123 140 123c83 0 139 -47 139 -123c0 -42 -14 -74 -46 -118l-67 -94h-76l49 68c11 16 22 26 22 26v3c-7 -1 -14 -1 -21 -1zM162 495c41 0 69 20 69 60c0 39 -27 64 -69 64c-43 0 -70 -25 -70 -64c0 -38 27 -60 70 -60z" />
    <glyph glyph-name="one.numr_alt" horiz-adv-x="246" 
d="M28 541v59h138v-267h63v-59h-201v59h71v208h-71z" />
    <glyph glyph-name="zeroinferior" unicode="&#x2080;" horiz-adv-x="370" 
d="M185 210c104 0 160 -82 160 -173c0 -88 -56 -170 -160 -170c-102 0 -159 82 -159 170c0 91 57 173 159 173zM185 147c-54 0 -83 -49 -83 -110c0 -57 29 -106 83 -106c55 0 83 49 83 106c0 61 -28 110 -83 110z" />
    <glyph glyph-name="oneinferior" unicode="&#x2081;" horiz-adv-x="202" 
d="M16 142v59h137v-326h-67v267h-70z" />
    <glyph glyph-name="oneinferior_alt" horiz-adv-x="245" 
d="M28 142v59h137v-267h63v-59h-200v59h70v208h-70z" />
    <glyph glyph-name="twoinferior" unicode="&#x2082;" horiz-adv-x="309" 
d="M24 -125v19l140 142c20 21 32 38 32 59c0 29 -19 50 -60 50c-43 0 -77 -30 -80 -33l-35 52s47 46 122 46c90 0 125 -49 125 -106c0 -34 -17 -64 -44 -92l-78 -79h139v-58h-261z" />
    <glyph glyph-name="threeinferior" unicode="&#x2083;" horiz-adv-x="311" 
d="M34 142v59h238v-17l-68 -111c55 -9 83 -42 83 -96c0 -59 -45 -110 -138 -110c-75 0 -123 40 -129 46l35 50s40 -33 92 -33c49 0 70 21 70 49c0 29 -20 47 -62 47h-41v18l61 98h-141z" />
    <glyph glyph-name="fourinferior" unicode="&#x2084;" horiz-adv-x="326" 
d="M17 -45v42l188 204h50v-191h52v-55h-52v-80h-64v80h-174zM126 35c-11 -13 -24 -25 -26 -28l39 3h52v73l1 27h-2z" />
    <glyph glyph-name="fiveinferior" unicode="&#x2085;" horiz-adv-x="313" 
d="M50 201h218v-59h-162l-2 -72c15 2 34 4 57 4c85 0 130 -35 130 -98c0 -59 -44 -109 -138 -109c-75 0 -123 40 -129 46l34 48s33 -33 90 -33c52 0 73 20 73 48s-21 49 -81 49c-43 0 -80 -13 -80 -13l-17 10z" />
    <glyph glyph-name="sixinferior" unicode="&#x2086;" horiz-adv-x="322" 
d="M165 106c82 0 139 -43 139 -116c0 -76 -57 -123 -139 -123c-83 0 -139 47 -139 123c0 42 13 74 45 118l67 94h76l-48 -68c-11 -16 -23 -26 -23 -26v-3c7 0 14 1 22 1zM165 49c-41 0 -70 -20 -70 -60c0 -39 27 -64 70 -64c42 0 70 25 70 64c0 38 -28 60 -70 60z" />
    <glyph glyph-name="seveninferior" unicode="&#x2087;" horiz-adv-x="280" 
d="M270 201v-17l-126 -309h-75l112 267h-162v59h251z" />
    <glyph glyph-name="eightinferior" unicode="&#x2088;" horiz-adv-x="330" 
d="M26 -30c0 36 20 63 54 77c-28 16 -42 41 -42 72c0 51 50 91 127 91s127 -40 127 -91c0 -31 -15 -56 -42 -72c34 -14 54 -41 54 -77c0 -53 -48 -103 -139 -103c-90 0 -139 50 -139 103zM165 22c-44 0 -69 -20 -69 -48c0 -27 25 -51 69 -51s69 24 69 51c0 28 -25 48 -69 48
zM165 64c40 0 61 20 61 45s-23 44 -61 44c-37 0 -60 -19 -60 -44s21 -45 60 -45z" />
    <glyph glyph-name="nineinferior" unicode="&#x2089;" horiz-adv-x="323" 
d="M159 -29c-82 0 -139 43 -139 116c0 76 57 123 139 123c83 0 139 -47 139 -123c0 -42 -14 -74 -45 -118l-68 -94h-76l49 68c11 16 23 26 23 26v3c-7 0 -15 -1 -22 -1zM159 28c41 0 70 20 70 60c0 39 -27 64 -70 64c-42 0 -70 -25 -70 -64c0 -38 28 -60 70 -60z" />
    <glyph glyph-name="zero.dnom" horiz-adv-x="371" 
d="M185 335c104 0 160 -82 160 -173c0 -88 -56 -170 -160 -170c-102 0 -159 82 -159 170c0 91 57 173 159 173zM185 272c-54 0 -83 -49 -83 -110c0 -57 29 -106 83 -106c55 0 83 49 83 106c0 61 -28 110 -83 110z" />
    <glyph glyph-name="one.dnom" horiz-adv-x="203" 
d="M17 267v59h138v-326h-67v267h-71z" />
    <glyph glyph-name="one.dnom_alt" horiz-adv-x="246" 
d="M28 267v59h138v-267h63v-59h-201v59h71v208h-71z" />
    <glyph glyph-name="two.dnom" horiz-adv-x="310" 
d="M25 0v19l140 142c20 20 31 38 31 59c0 29 -18 50 -59 50c-43 0 -78 -30 -81 -33l-35 52s48 46 122 46c91 0 126 -49 126 -106c0 -34 -17 -64 -44 -92l-78 -79h139v-58h-261z" />
    <glyph glyph-name="three.dnom" horiz-adv-x="311" 
d="M34 267v59h238v-17l-68 -111c55 -9 83 -42 83 -96c0 -59 -45 -110 -138 -110c-84 0 -129 46 -129 46l35 50s40 -33 92 -33c49 0 70 21 70 49c0 29 -20 47 -62 47h-41v18l61 98h-141z" />
    <glyph glyph-name="four.dnom" horiz-adv-x="325" 
d="M16 80v42l188 204h50v-191h52v-55h-52v-80h-64v80h-174zM125 160c-11 -13 -24 -25 -26 -28l39 3h52v73l1 27h-2z" />
    <glyph glyph-name="five.dnom" horiz-adv-x="313" 
d="M50 326h218v-59h-162l-2 -72c15 2 34 4 57 4c85 0 130 -35 130 -98c0 -59 -44 -109 -138 -109c-75 0 -123 40 -129 46l34 48s33 -33 90 -33c52 0 73 20 73 48s-21 49 -81 49c-43 0 -80 -13 -80 -13l-17 10z" />
    <glyph glyph-name="six.dnom" horiz-adv-x="322" 
d="M165 231c82 0 139 -43 139 -116c0 -76 -57 -123 -139 -123c-83 0 -139 47 -139 123c0 42 13 74 45 118l67 94h76l-48 -68c-11 -16 -23 -26 -23 -26v-3c7 0 14 1 22 1zM165 174c-41 0 -70 -20 -70 -60c0 -39 27 -64 70 -64c42 0 70 25 70 64c0 38 -28 60 -70 60z" />
    <glyph glyph-name="seven.dnom" horiz-adv-x="280" 
d="M270 326v-17l-126 -309h-75l112 267h-162v59h251z" />
    <glyph glyph-name="eight.dnom" horiz-adv-x="330" 
d="M26 95c0 36 20 63 54 77c-28 16 -42 41 -42 72c0 51 50 91 127 91s127 -40 127 -91c0 -31 -15 -56 -42 -72c34 -14 54 -41 54 -77c0 -53 -48 -103 -139 -103c-90 0 -139 50 -139 103zM165 147c-44 0 -69 -20 -69 -48c0 -27 25 -51 69 -51s69 24 69 51c0 28 -25 48 -69 48
zM165 189c40 0 61 20 61 45s-23 44 -61 44c-37 0 -60 -19 -60 -44s21 -45 60 -45z" />
    <glyph glyph-name="nine.dnom" horiz-adv-x="324" 
d="M159 96c-82 0 -139 43 -139 116c0 76 57 123 139 123c83 0 140 -47 140 -123c0 -42 -14 -74 -46 -118l-67 -94h-76l49 68c11 16 22 26 22 26v3c-7 -1 -15 -1 -22 -1zM159 153c41 0 70 20 70 60c0 39 -27 64 -70 64c-42 0 -69 -25 -69 -64c0 -38 27 -60 69 -60z" />
    <glyph glyph-name="zero.osf" horiz-adv-x="428" 
d="M214 354c110 0 181 -76 181 -181c0 -106 -71 -181 -181 -181s-181 75 -181 181c0 105 71 181 181 181zM214 276c-56 0 -93 -43 -93 -103c0 -61 37 -103 93 -103s92 42 92 103c0 60 -36 103 -92 103z" />
    <glyph glyph-name="one.osf" horiz-adv-x="272" 
d="M22 267v79h186v-346h-99v267h-87z" />
    <glyph glyph-name="two.osf" horiz-adv-x="391" 
d="M37 0v33l154 129c25 21 37 37 37 63c0 29 -19 48 -66 48c-54 0 -102 -35 -102 -35l-29 69s53 47 159 47c103 0 148 -52 148 -112c0 -45 -14 -76 -59 -108l-84 -59l49 5h115v-80h-322z" />
    <glyph glyph-name="three.osf" horiz-adv-x="398" 
d="M33 267v79h313v-30l-121 -190c94 -8 148 -62 148 -154c0 -103 -71 -173 -197 -173c-111 0 -157 51 -157 51l35 68s47 -39 109 -39c74 0 110 40 110 91c0 54 -37 91 -106 91h-61v30l107 176h-180z" />
    <glyph glyph-name="four.osf" horiz-adv-x="454" 
d="M17 5v66l237 275h89v-262h87v-79h-87v-198h-99v198h-227zM116 84v-5l62 5h66v142h-3l-85 -103c-21 -27 -40 -39 -40 -39z" />
    <glyph glyph-name="five.osf" horiz-adv-x="392" 
d="M63 346h269v-79h-190l-4 -132c12 2 26 3 42 3c127 0 191 -64 191 -165c0 -97 -66 -174 -200 -174c-99 0 -148 47 -148 47l35 69s41 -34 101 -34c75 0 111 40 111 91c0 56 -38 91 -113 91c-60 0 -89 -15 -89 -15l-15 12z" />
    <glyph glyph-name="six.osf" horiz-adv-x="450" 
d="M234 353c114 0 195 -75 195 -181c0 -111 -81 -181 -195 -181c-116 0 -195 70 -195 181c0 57 15 95 51 159l135 230h100l-94 -165c-14 -25 -29 -41 -29 -41v-4c10 1 21 2 32 2zM234 272c-59 0 -96 -42 -96 -100c0 -57 37 -100 96 -100c57 0 96 43 96 100
c0 58 -39 100 -96 100z" />
    <glyph glyph-name="seven.osf" horiz-adv-x="365" 
d="M363 346v-23l-212 -503h-103l197 447h-226v79h344z" />
    <glyph glyph-name="eight.osf" horiz-adv-x="455" 
d="M57 426c0 89 70 155 171 155c100 0 170 -66 170 -155c0 -55 -27 -98 -71 -123c54 -26 88 -75 88 -138c0 -107 -79 -173 -187 -173c-109 0 -188 66 -188 173c0 63 33 112 86 138c-42 25 -69 68 -69 123zM228 258c-59 0 -93 -39 -93 -93s36 -91 93 -91s92 37 92 91
s-35 93 -92 93zM228 342c46 0 77 35 77 81c0 45 -31 78 -77 78c-47 0 -78 -33 -78 -78c0 -46 31 -81 78 -81z" />
    <glyph glyph-name="nine.osf" horiz-adv-x="439" 
d="M219 -7c-114 0 -195 75 -195 181c0 111 81 181 195 181c116 0 195 -70 195 -181c0 -57 -15 -95 -51 -159l-126 -214h-100l85 149c13 25 29 41 29 41v4c-11 -1 -21 -2 -32 -2zM219 74c57 0 96 40 96 100c0 57 -37 100 -96 100c-58 0 -96 -43 -96 -100
c0 -58 38 -100 96 -100z" />
    <glyph glyph-name="three.osf_alt" horiz-adv-x="394" 
d="M90 117h45c59 0 102 26 102 78c0 43 -31 76 -86 76c-53 0 -98 -36 -98 -36l-31 69s55 50 148 50c113 0 169 -59 169 -143c0 -52 -28 -96 -73 -123c63 -19 99 -65 99 -130c0 -89 -74 -159 -198 -159c-105 0 -155 51 -155 51l34 68s50 -39 112 -39c65 0 101 34 101 82
c0 54 -43 84 -107 84h-62v72z" />
    <glyph glyph-name="ampersand.small" horiz-adv-x="637" 
d="M614 268h-91v-13c0 -116 -59 -267 -269 -267c-136 0 -220 82 -220 188s76 176 177 176c97 0 155 -62 155 -138v-13l-237 -67c19 -41 62 -68 126 -68c144 0 183 100 183 194v86h176v-78zM208 282c-49 0 -88 -34 -89 -93l159 43c-6 27 -31 50 -70 50z" />
    <glyph glyph-name="dagger.small" horiz-adv-x="426" 
d="M20 135v81h153v163h82v-163h150v-81h-150l-9 -385h-65l-8 385h-153z" />
    <glyph glyph-name="daggerdbl.small" horiz-adv-x="464" 
d="M39 175v80h153v123h82v-123h151v-80h-151v-116h151v-80h-151l-8 -229h-66l-8 229h-153v80h153v116h-153z" />
    <glyph glyph-name="ampersand.alt" horiz-adv-x="617" 
d="M601 0h-114l-38 49c-44 -39 -104 -62 -180 -62c-145 0 -226 83 -226 187c0 95 61 167 163 187l-116 151v87h382v-85h-259l231 -301c7 27 10 55 10 84v63h94v-63c0 -60 -13 -119 -39 -169l92 -119v-9zM275 71c53 0 92 18 120 47l-132 170c-67 -2 -114 -47 -114 -109
c0 -60 47 -108 126 -108z" />
    <glyph glyph-name="asterisk.small" horiz-adv-x="368" 
d="M84 345l66 66l-92 16l-27 8l21 67l26 -9l85 -42l-13 91v29h70v-29l-15 -91l85 42l26 8l21 -67l-27 -8l-91 -15l66 -66l17 -24l-57 -40l-16 23l-45 84l-44 -84l-16 -23l-56 40z" />
    <glyph glyph-name="copyright.small" horiz-adv-x="470" 
d="M235 372c127 0 205 -90 205 -200c0 -109 -78 -199 -205 -199c-126 0 -204 90 -204 199c0 110 78 200 204 200zM235 348c-112 0 -180 -80 -180 -176c0 -95 68 -175 180 -175c113 0 181 80 181 175c0 96 -68 176 -181 176zM294 118l28 -36s-26 -29 -81 -29
c-76 0 -122 54 -122 119c0 64 46 118 122 118c56 0 81 -27 81 -27l-28 -37s-16 16 -50 16c-41 0 -71 -30 -71 -70c0 -42 30 -69 71 -69c30 0 50 15 50 15z" />
    <glyph glyph-name="published.small" horiz-adv-x="470" 
d="M235 372c127 0 205 -90 205 -200c0 -109 -78 -199 -205 -199c-126 0 -204 90 -204 199c0 110 78 200 204 200zM235 348c-112 0 -180 -80 -180 -176c0 -95 68 -175 180 -175c113 0 181 80 181 175c0 96 -68 176 -181 176zM146 56v231h106c61 0 100 -37 100 -89
s-39 -85 -102 -85h-50v-57h-54zM295 198c0 29 -20 42 -53 42h-42v-84h42c33 0 53 13 53 42z" />
    <glyph glyph-name="registered.small" horiz-adv-x="470" 
d="M235 372c127 0 205 -90 205 -200c0 -109 -78 -199 -205 -199c-126 0 -204 90 -204 199c0 110 78 200 204 200zM235 348c-112 0 -180 -80 -180 -176c0 -95 68 -175 180 -175c113 0 181 80 181 175c0 96 -68 176 -181 176zM138 287h109c57 0 93 -35 93 -88
c0 -33 -17 -59 -45 -72v-3l43 -58v-10h-55l-44 61h-46v-61h-55v231zM237 240h-44v-79h44c27 0 46 10 46 38s-19 41 -46 41z" />
    <glyph glyph-name="registered.osf.alt" horiz-adv-x="436" 
d="M41 194c0 119 78 178 176 178c100 0 178 -70 178 -178c0 -107 -78 -177 -178 -177c-98 0 -176 69 -176 177zM65 194c0 -94 68 -153 152 -153c86 0 154 60 154 153c0 94 -68 154 -154 154c-84 0 -152 -51 -152 -154zM137 283h85c47 0 79 -26 79 -65c0 -27 -13 -46 -32 -57
l32 -47v-10h-43l-30 46h-49v-46h-42v179zM221 245h-42v-58h41c22 0 38 9 38 29c0 18 -14 29 -37 29z" />
    <glyph glyph-name="trademark.small" horiz-adv-x="707" 
d="M405 173h-65v269h30l117 -117c16 16 104 101 119 117h30v-269h-65v152l-77 -77h-14l-75 76v-151zM293 442v-57h-96v-212h-65v212h-96v57h257z" />
    <glyph glyph-name="servicemark.small" horiz-adv-x="693" 
d="M399 173h-64v269h30l118 -117c15 16 103 101 119 117h29v-269h-65v152l-77 -77h-13l-77 77v-152zM51 202l29 42s37 -28 84 -28c35 0 50 9 50 26c0 18 -21 27 -62 40c-64 20 -96 41 -96 86c0 46 39 79 110 79c72 0 109 -28 109 -28l-28 -45s-30 21 -78 21
c-29 0 -47 -8 -47 -26c0 -17 22 -26 60 -38c61 -18 100 -35 100 -83c0 -45 -35 -81 -114 -81c-77 0 -117 35 -117 35z" />
    <glyph glyph-name="ordfeminine.small" horiz-adv-x="338" 
d="M32 249c0 52 44 83 111 83c46 0 69 -14 81 -25v17c0 45 -23 67 -80 67c-39 0 -71 -15 -75 -17l-20 52s50 22 104 22c99 0 138 -50 138 -127v-148h-50l-8 33h-4c-8 -14 -31 -40 -95 -40c-58 0 -102 34 -102 83zM98 254c0 -25 19 -41 55 -41c44 0 70 18 70 39
s-26 40 -66 40s-59 -16 -59 -38z" />
    <glyph glyph-name="ordmasculine.small" horiz-adv-x="350" 
d="M33 306c0 86 57 142 141 142c83 0 139 -56 139 -142c0 -83 -56 -139 -139 -139c-84 0 -141 56 -141 139zM248 307c0 49 -27 83 -74 83s-74 -34 -74 -83c0 -48 27 -82 74 -82s74 34 74 82z" />
    <glyph glyph-name="asciicircum.small" horiz-adv-x="472" 
d="M312 376l-76 108l-76 -108h-72v16l120 162h55l121 -162v-16h-72z" />
    <glyph glyph-name="asciitilde.small" horiz-adv-x="471" 
d="M308 468c48 0 75 22 75 22l30 -61s-33 -37 -103 -37c-54 0 -90 26 -147 26c-48 0 -75 -23 -75 -23l-30 61s33 37 103 37c54 0 90 -25 147 -25z" />
    <glyph glyph-name="numbersign.small" horiz-adv-x="502" 
d="M400 346l-17 -78h91l-13 -59h-91l-17 -74h91l-14 -59h-90l-16 -76h-64l16 76h-96l-17 -76h-64l17 76h-88l13 59h88l17 74h-87l13 59h87l18 78h64l-18 -78h96l17 78h64zM210 209l-17 -74h96l17 74h-96z" />
    <glyph glyph-name="percent.small" horiz-adv-x="543" 
d="M159 0h-60v10l274 332h62v-10zM518 92c0 -52 -35 -100 -103 -100s-105 48 -105 100s37 101 105 101s103 -49 103 -101zM362 92c0 -29 17 -56 53 -56c35 0 51 27 51 56c0 30 -16 57 -51 57c-36 0 -53 -27 -53 -57zM233 253c0 -52 -36 -100 -104 -100s-104 48 -104 100
s36 101 104 101s104 -49 104 -101zM77 253c0 -29 17 -56 52 -56s52 27 52 56c0 30 -17 57 -52 57s-52 -27 -52 -57z" />
    <glyph glyph-name="perthousand.small" horiz-adv-x="780" 
d="M159 0h-60v10l274 332h62v-10zM518 92c0 -52 -35 -100 -103 -100s-105 48 -105 100s37 101 105 101s103 -49 103 -101zM362 92c0 -29 17 -56 53 -56c35 0 51 27 51 56c0 30 -16 57 -51 57c-36 0 -53 -27 -53 -57zM233 253c0 -52 -36 -100 -104 -100s-104 48 -104 100
s36 101 104 101s104 -49 104 -101zM77 253c0 -29 17 -56 52 -56s52 27 52 56c0 30 -17 57 -52 57s-52 -27 -52 -57zM754 92c0 -52 -36 -100 -104 -100s-104 48 -104 100s36 101 104 101s104 -49 104 -101zM597 92c0 -29 18 -56 53 -56s52 27 52 56c0 30 -17 57 -52 57
s-53 -27 -53 -57z" />
    <glyph glyph-name="plus.small" horiz-adv-x="377" 
d="M232 326v-116h112v-81h-112v-109h-82v109h-117v81h117v116h82z" />
    <glyph glyph-name="minus.small" horiz-adv-x="390" 
d="M39 129v81h312v-81h-312z" />
    <glyph glyph-name="plusminus.small" horiz-adv-x="353" 
d="M212 346v-76h93v-68h-93v-82h-69v82h-96v68h96v76h69zM47 15v68h258v-68h-258z" />
    <glyph glyph-name="multiply.small" horiz-adv-x="360" 
d="M94 312l85 -86l89 88l55 -57l-88 -88l84 -83l-56 -56l-84 83l-81 -81l-57 56l82 82l-85 85z" />
    <glyph glyph-name="divide.small" horiz-adv-x="391" 
d="M145 49c0 27 21 50 50 50c28 0 50 -23 50 -50c0 -28 -22 -50 -50 -50c-29 0 -50 22 -50 50zM145 290c0 28 21 51 50 51c28 0 50 -23 50 -51s-22 -49 -50 -49c-29 0 -50 21 -50 49zM37 141v55h317v-55h-317z" />
    <glyph glyph-name="equal.small" horiz-adv-x="462" 
d="M48 223v75h366v-75h-366zM48 47v74h366v-74h-366z" />
    <glyph glyph-name="less.small" horiz-adv-x="286" 
d="M194 0l-167 162v23l167 162l58 -60l-121 -114l121 -113z" />
    <glyph glyph-name="greater.small" horiz-adv-x="286" 
d="M259 162l-167 -162l-58 60l120 113l-120 114l58 60l167 -162v-23z" />
    <glyph glyph-name="quotedbl.small" horiz-adv-x="343" 
d="M155 459l-43 -193h-62v16l20 193h85v-16zM300 459l-42 -193h-62v16l19 193h85v-16z" />
    <glyph glyph-name="quotesingle.small" horiz-adv-x="197" 
d="M155 459l-43 -193h-62v16l20 193h85v-16z" />
    <glyph glyph-name="degree.small" horiz-adv-x="308" 
d="M154 481c71 0 117 -48 117 -108s-46 -107 -117 -107s-117 47 -117 107s46 108 117 108zM154 431c-38 0 -60 -25 -60 -58c0 -30 22 -55 60 -55c37 0 60 25 60 55c0 33 -23 58 -60 58z" />
    <glyph glyph-name="paragraph.small" horiz-adv-x="474" 
d="M313 -250v199h-46c-143 0 -238 69 -238 202c0 125 88 195 233 195h150v-596h-99z" />
    <glyph glyph-name="section.small" horiz-adv-x="375" 
d="M184 356c104 0 150 -27 150 -27l-28 -71s-37 23 -109 23c-34 0 -60 -8 -60 -33c0 -28 38 -40 79 -53c54 -18 117 -38 117 -102c0 -37 -21 -60 -41 -74c29 -16 50 -38 50 -73c0 -60 -43 -105 -149 -105c-103 0 -157 30 -157 30l26 69s46 -24 117 -24c40 0 59 10 59 32
c0 30 -51 38 -99 52c-49 14 -101 36 -101 94c0 39 24 63 46 77c-30 17 -51 41 -51 78c0 64 50 107 151 107zM176 63c17 -7 36 -12 56 -19c5 3 17 12 17 31c0 23 -19 38 -69 56l-37 13c-5 -2 -20 -10 -20 -32c0 -23 19 -36 53 -49z" />
    <glyph glyph-name="dollar.small" horiz-adv-x="376" 
d="M244 101c0 59 -211 25 -211 147c0 54 36 95 117 104v97h76v-97c76 -6 114 -27 114 -27l-27 -71s-44 26 -115 26c-39 0 -62 -8 -62 -33c0 -57 215 -23 215 -148c0 -55 -39 -96 -125 -105v-92h-76v92c-80 6 -118 30 -118 30l25 71s61 -29 122 -29c43 0 65 12 65 35z" />
    <glyph glyph-name="sterling.small" horiz-adv-x="405" 
d="M365 83v-81h-329v71c17 0 52 18 52 59c0 5 -1 9 -1 9h-45v53h32c-1 11 -4 22 -4 36c0 65 44 124 153 124c99 0 147 -48 147 -48l-35 -62s-42 36 -95 36c-46 0 -68 -28 -68 -58c0 -10 1 -19 3 -28h111v-53h-101v-4c0 -25 -8 -45 -20 -60z" />
    <glyph glyph-name="Euro.small" horiz-adv-x="395" 
d="M241 -8c-89 0 -151 47 -174 117h-43v45h34s-1 7 -1 18c0 12 1 19 1 19h-34v45h43c23 71 85 118 174 118c76 0 123 -29 123 -29l-28 -62s-34 21 -80 21c-38 0 -69 -16 -86 -48h113v-45h-125s-1 -6 -1 -19c0 -11 1 -18 1 -18h125v-45h-113c17 -32 48 -48 86 -48
c46 0 80 21 80 21l26 -60s-45 -30 -121 -30z" />
    <glyph glyph-name="yen.small" horiz-adv-x="448" 
d="M242 254l67 92h110l-116 -151h84v-45h-115v-37h115v-45h-115v-68h-98v68h-112v45h112v37h-112v45h80l-115 151h109l67 -92l16 -39h7z" />
    <glyph glyph-name="florin.small" horiz-adv-x="349" 
d="M219 226v-19h85v-56h-85v-58c0 -77 -36 -128 -119 -128c-49 0 -86 20 -86 20l26 60s23 -7 40 -7c28 0 41 18 41 53v60h-50v56h50v17c0 77 36 128 119 128c49 0 86 -20 86 -20l-27 -60s-22 7 -39 7c-28 0 -41 -18 -41 -53z" />
    <glyph glyph-name="cent.small" horiz-adv-x="377" 
d="M175 -91v89c-86 20 -142 88 -142 174c0 88 56 156 142 176v94h76v-89c60 -5 92 -28 92 -28l-29 -73s-30 21 -77 21c-60 0 -105 -39 -105 -101c0 -60 45 -99 105 -99c47 0 77 21 77 21l26 -72s-29 -24 -89 -29v-84h-76z" />
    <glyph glyph-name="at.small" horiz-adv-x="768" 
d="M181 173c0 114 74 181 168 181c74 0 109 -35 123 -58l14 50h59v-272c0 -43 23 -63 56 -63c62 0 111 69 111 189c0 161 -113 309 -326 309c-208 0 -330 -147 -330 -331s121 -331 335 -331c97 0 151 34 151 34l13 -20s-61 -38 -164 -38c-226 0 -359 154 -359 355
c0 197 134 355 354 355c228 0 349 -159 349 -333c0 -135 -53 -213 -142 -213c-82 0 -107 55 -107 77h-6c-7 -16 -38 -72 -131 -72c-94 0 -168 70 -168 181zM270 173c0 -60 41 -103 97 -103c57 0 97 40 97 103c0 64 -40 103 -97 103c-56 0 -97 -42 -97 -103z" />
    <glyph glyph-name="hyphen.small" horiz-adv-x="378" 
d="M48 133v81h288v-81h-288z" />
    <glyph glyph-name="endash.small" horiz-adv-x="452" 
d="M48 131v81h363v-81h-363z" />
    <glyph glyph-name="emdash.small" horiz-adv-x="710" 
d="M48 131v80h620v-80h-620z" />
    <glyph glyph-name="slash.small" horiz-adv-x="367" 
d="M93 -96l-77 44l254 485l78 -44z" />
    <glyph glyph-name="colon.case" horiz-adv-x="248" 
d="M63 54c0 34 26 61 60 61s61 -27 61 -61s-27 -60 -61 -60s-60 26 -60 60zM63 499c0 34 26 61 60 61s61 -27 61 -61s-27 -61 -61 -61s-60 27 -60 61z" />
    <glyph glyph-name="semicolon.case" horiz-adv-x="258" 
d="M70 54c0 34 26 60 60 60s62 -26 62 -61c0 -27 -10 -55 -24 -80l-37 -67h-65l34 62c9 15 18 22 18 22v5c-28 5 -48 29 -48 59zM71 499c0 34 27 61 60 61c34 0 61 -27 61 -61s-27 -61 -61 -61c-33 0 -60 27 -60 61z" />
    <glyph glyph-name="slash.case" horiz-adv-x="372" 
d="M345 745l-221 -879h-97l221 879h97z" />
    <glyph glyph-name="bar.case" horiz-adv-x="256" 
d="M173 715v-825h-90v825h90z" />
    <glyph glyph-name="parenleft.case" horiz-adv-x="358" 
d="M337 652c-56 -35 -199 -137 -199 -352c0 -216 143 -318 199 -353l-50 -69c-69 35 -251 168 -251 422c0 255 182 386 251 421z" />
    <glyph glyph-name="parenright.case" horiz-adv-x="358" 
d="M22 652l49 69c69 -35 252 -166 252 -421c0 -254 -183 -387 -252 -422l-49 69c56 35 199 137 199 353c0 215 -143 317 -199 352z" />
    <glyph glyph-name="at.case" horiz-adv-x="911" 
d="M456 -202c-279 0 -420 199 -420 424c0 228 143 427 422 427c283 0 409 -198 409 -365c0 -157 -67 -255 -183 -255c-103 0 -124 71 -124 71h-7c-7 -16 -38 -66 -129 -66c-97 0 -173 70 -173 181c0 115 75 181 173 181c74 0 109 -34 123 -56l13 48h63v-208
c0 -45 22 -71 66 -71c61 0 98 60 98 162c0 166 -115 301 -329 301c-208 0 -342 -145 -342 -349c0 -201 132 -348 340 -348c114 0 174 35 174 35l33 -68s-62 -44 -207 -44zM538 216c0 64 -40 101 -97 101c-55 0 -96 -40 -96 -101c0 -60 41 -103 96 -103c57 0 97 40 97 103z
" />
    <glyph glyph-name="bracketleft.case" horiz-adv-x="356" 
d="M84 -116v832h239v-80h-146v-672h146v-80h-239z" />
    <glyph glyph-name="backslash.case" horiz-adv-x="372" 
d="M247 -134l-221 879h98l221 -879h-98z" />
    <glyph glyph-name="bracketright.case" horiz-adv-x="356" 
d="M33 -116v80h146v672h-146v80h239v-832h-239z" />
    <glyph glyph-name="braceleft.case" horiz-adv-x="306" 
d="M28 338h18c35 0 57 23 57 74v201c0 80 46 127 144 133l14 -82c-38 -6 -54 -15 -54 -58v-207c0 -50 -21 -84 -59 -96v-9c38 -11 59 -46 59 -94v-208c0 -42 16 -52 54 -58l-14 -81c-98 5 -144 53 -144 132v202c0 50 -22 74 -57 74h-18v77z" />
    <glyph glyph-name="braceright.case" horiz-adv-x="306" 
d="M279 261h-18c-36 0 -58 -24 -58 -74v-202c0 -79 -45 -127 -144 -132l-13 81c38 6 53 16 53 58v208c0 48 21 83 60 94v9c-39 12 -60 46 -60 96v207c0 43 -15 52 -53 58l13 82c99 -6 144 -53 144 -133v-201c0 -51 22 -74 58 -74h18v-77z" />
    <glyph glyph-name="guilsinglleft.case" horiz-adv-x="308" 
d="M53 289v19l106 155h83v-8l-103 -152v-7l103 -154v-8h-83z" />
    <glyph glyph-name="guilsinglright.case" horiz-adv-x="308" 
d="M255 308v-19l-106 -155h-83v8l103 154v7l-103 152v8h83z" />
    <glyph glyph-name="guillemotleft.case" horiz-adv-x="493" 
d="M53 289v19l106 155h83v-8l-103 -152v-7l103 -154v-8h-83zM239 289v19l106 155h82v-8l-103 -152v-7l103 -154v-8h-82z" />
    <glyph glyph-name="guillemotright.case" horiz-adv-x="493" 
d="M255 308v-19l-106 -155h-83v8l103 154v7l-103 152v8h83zM440 308v-19l-106 -155h-83v8l103 154v7l-103 152v8h83z" />
    <glyph glyph-name="bullet.case" horiz-adv-x="312" 
d="M72 300c0 46 37 85 84 85c46 0 85 -39 85 -85c0 -47 -39 -84 -85 -84c-47 0 -84 37 -84 84z" />
    <glyph glyph-name="section.case" horiz-adv-x="539" 
d="M35 -81l55 76s75 -63 176 -63c85 0 118 39 118 82c0 51 -43 75 -130 107c-95 34 -172 68 -172 159c0 48 22 74 36 86c-39 27 -64 63 -64 115c0 101 71 174 222 174c149 0 212 -63 212 -63l-54 -81s-59 54 -158 54c-77 0 -109 -34 -109 -77c0 -46 42 -76 108 -97
c99 -33 196 -71 196 -165c0 -53 -23 -84 -36 -98c39 -29 64 -66 64 -114c0 -91 -69 -173 -231 -173c-156 0 -233 78 -233 78zM241 313c-14 4 -28 8 -41 13c-6 -3 -21 -12 -21 -40c0 -37 40 -62 109 -87c23 -8 44 -16 65 -25c5 5 18 20 18 45c0 43 -50 67 -130 94z" />
    <glyph glyph-name="brokenbar.case" horiz-adv-x="256" 
d="M174 -110h-91v825h91v-825z" />
    </font>
</defs>
</svg>
