<?xml version="1.0" standalone="no"?>
<!DOCTYPE svg PUBLIC "-//W3C//DTD SVG 1.1//EN" "http://www.w3.org/Graphics/SVG/1.1/DTD/svg11.dtd" >
<svg>
<metadata>
Created by FontForge 20120731 at Mon Aug  8 22:14:57 2016
 By Apache
Copyright (c) 2013 by Miguel &#38; Daniel Herna'ndez. All rights reserved.
</metadata>
<defs>
<font id="ArquitectaLight" horiz-adv-x="550" >
  <font-face 
    font-family="Arquitecta Light"
    font-weight="300"
    font-stretch="normal"
    units-per-em="1000"
    panose-1="0 0 0 0 0 0 0 0 0 0"
    ascent="750"
    descent="-250"
    x-height="346"
    cap-height="600"
    bbox="-156 -250 1043 923"
    underline-thickness="50"
    underline-position="-50"
    unicode-range="U+000D-FB04"
  />
<missing-glyph horiz-adv-x="500" 
 />
    <glyph glyph-name=".notdef" horiz-adv-x="500" 
 />
    <glyph glyph-name="breve" unicode="&#x2d8;" horiz-adv-x="356" 
d="M269 584h36c0 -88 -55 -144 -132 -144c-78 0 -133 56 -133 144h36c0 -67 38 -108 97 -108c57 -1 96 41 96 108z" />
    <glyph glyph-name="dotaccent" unicode="&#x2d9;" horiz-adv-x="317" 
d="M113 521c0 26 19 45 44 45s44 -19 44 -45c0 -24 -19 -43 -44 -43s-44 19 -44 43z" />
    <glyph glyph-name="ring" unicode="&#x2da;" horiz-adv-x="245" 
d="M122 436c-49 0 -86 36 -86 85s37 85 86 85c50 0 87 -36 87 -85s-37 -85 -87 -85zM177 521c0 33 -21 55 -55 55c-33 0 -54 -22 -54 -55s21 -54 54 -54c34 0 55 21 55 54z" />
    <glyph glyph-name="hungarumlaut" unicode="&#x2dd;" horiz-adv-x="415" 
d="M163 567l-77 -148h-26v10l51 148h52v-10zM318 567l-77 -148h-27v10l51 148h53v-10z" />
    <glyph glyph-name="ogonek" unicode="&#x2db;" horiz-adv-x="201" 
d="M146 -93l16 -21s-20 -21 -56 -21c-42 0 -67 24 -67 63c0 74 90 94 90 94l7 -22s-66 -21 -66 -68c0 -24 13 -38 39 -38c22 0 37 13 37 13z" />
    <glyph glyph-name="caron" unicode="&#x2c7;" horiz-adv-x="341" 
d="M169 460l112 117h27v-10l-114 -148h-51l-114 148v10h27z" />
    <glyph glyph-name="dotlessi" unicode="&#x131;" horiz-adv-x="181" 
d="M69 0v346h43v-346h-43z" />
    <glyph glyph-name="fraction" unicode="&#x2044;" horiz-adv-x="180" 
d="M-131 12l-25 20l469 564l26 -20z" />
    <glyph glyph-name="fi" unicode="&#xfb01;" horiz-adv-x="513" 
d="M422 497c-18 0 -32 13 -32 31s14 32 32 32s32 -14 32 -32s-14 -31 -32 -31zM401 0v346h43v-346h-43zM288 310h-144v-310h-43v310h-87v36h87v159c0 110 48 161 137 161c40 0 67 -17 68 -17l-13 -37s-25 14 -51 14c-66 0 -98 -36 -98 -121v-159h144v-36z" />
    <glyph glyph-name="i" unicode="i" horiz-adv-x="180" 
d="M90 497c-18 0 -32 13 -32 31s14 32 32 32s32 -14 32 -32s-14 -31 -32 -31zM69 0v346h43v-346h-43z" />
    <glyph glyph-name="f" unicode="f" horiz-adv-x="301" 
d="M288 310h-144v-310h-43v310h-87v36h87v159c0 110 48 161 137 161c40 0 67 -17 68 -17l-13 -37s-25 14 -51 14c-66 0 -98 -36 -98 -121v-159h144v-36z" />
    <glyph glyph-name="fl" unicode="&#xfb02;" horiz-adv-x="503" 
d="M391 0v668h43v-668h-43zM288 310h-144v-310h-43v310h-87v36h87v159c0 110 48 161 137 161c40 0 67 -17 68 -17l-13 -37s-25 14 -51 14c-66 0 -98 -36 -98 -121v-159h144v-36z" />
    <glyph glyph-name="l" unicode="l" horiz-adv-x="180" 
d="M69 0v668h43v-668h-43z" />
    <glyph glyph-name="Lslash" unicode="&#x141;" horiz-adv-x="523" 
d="M33 233l-15 26l83 48v293h44v-268l137 79l15 -26l-152 -88v-256h366v-41h-410v272z" />
    <glyph glyph-name="L" unicode="L" horiz-adv-x="514" 
d="M503 0h-410v600h44v-559h366v-41z" />
    <glyph glyph-name="lslash" unicode="&#x142;" horiz-adv-x="259" 
d="M30 232l-14 24l98 56v356h43v-331l91 53l14 -24l-105 -61v-305h-43v280z" />
    <glyph glyph-name="Zcaron" unicode="&#x17d;" horiz-adv-x="532" 
d="M265 678l112 117h27v-10l-114 -148h-51l-114 148v10h27zM31 0v12l401 547h-393v41h467v-12l-399 -547h387v-41h-463z" />
    <glyph glyph-name="Z" unicode="Z" horiz-adv-x="532" 
d="M31 0v12l401 547h-393v41h467v-12l-399 -547h387v-41h-463z" />
    <glyph glyph-name="zcaron" unicode="&#x17e;" horiz-adv-x="369" 
d="M186 460l112 117h27v-10l-114 -148h-51l-114 148v10h27zM34 24l241 285h-231v37h291v-23l-242 -286h242v-37h-301v24z" />
    <glyph glyph-name="z" unicode="z" horiz-adv-x="368" 
d="M33 24l241 285h-231v37h291v-23l-242 -286h242v-37h-301v24z" />
    <glyph glyph-name="space" unicode=" " horiz-adv-x="221" 
 />
    <glyph glyph-name="exclam" unicode="!" horiz-adv-x="231" 
d="M144 600v-31l-13 -418h-33l-13 418v31h59zM78 30c0 20 17 37 38 37s38 -17 38 -37c0 -21 -17 -38 -38 -38s-38 17 -38 38z" />
    <glyph glyph-name="quotedbl" unicode="&#x22;" horiz-adv-x="273" 
d="M123 662l-38 -199h-26v10l16 199h48v-10zM227 662l-37 -199h-27v10l16 199h48v-10z" />
    <glyph glyph-name="numbersign" unicode="#" horiz-adv-x="634" 
d="M511 583l-38 -169h123l-6 -32h-125l-41 -184h116l-6 -32h-118l-37 -166h-35l37 166h-184l-37 -166h-35l37 166h-124l6 32h126l41 184h-117l6 32h118l39 169h35l-38 -169h183l39 169h35zM246 382l-41 -184h184l41 184h-184z" />
    <glyph glyph-name="dollar" unicode="$" horiz-adv-x="529" 
d="M49 54l25 34s65 -60 186 -60c125 0 180 49 180 122c0 76 -67 106 -180 138c-123 36 -209 71 -209 168c0 96 81 153 202 157v93h37v-94c127 -5 181 -54 181 -54l-24 -37s-60 50 -181 50c-93 0 -170 -39 -170 -114c0 -69 67 -95 179 -127c130 -36 210 -79 210 -180
c0 -87 -59 -153 -195 -162v-94h-37v93c-137 2 -204 67 -204 67z" />
    <glyph glyph-name="S" unicode="S" horiz-adv-x="528" 
d="M48 54l25 34s65 -60 186 -60c125 0 180 49 180 122c0 76 -67 106 -180 138c-123 36 -209 71 -209 168c0 100 87 157 215 157c144 0 205 -55 205 -55l-24 -37s-60 50 -181 50c-93 0 -170 -39 -170 -114c0 -69 67 -95 179 -127c130 -36 210 -79 210 -180
c0 -93 -67 -163 -225 -163c-141 0 -211 67 -211 67z" />
    <glyph glyph-name="percent" unicode="%" horiz-adv-x="669" 
d="M169 613c83 0 128 -69 128 -149c0 -78 -45 -149 -128 -149s-129 71 -129 149c0 80 46 149 129 149zM169 576c-57 0 -88 -50 -88 -112c0 -60 31 -111 88 -111c56 0 87 51 87 111c0 62 -31 112 -87 112zM553 598l31 -24l-469 -564l-31 24zM501 290c82 0 128 -69 128 -149
c0 -78 -46 -149 -128 -149c-83 0 -129 71 -129 149c0 80 46 149 129 149zM501 253c-57 0 -88 -50 -88 -112c0 -60 31 -111 88 -111c56 0 87 51 87 111c0 62 -31 112 -87 112z" />
    <glyph glyph-name="ampersand" unicode="&#x26;" horiz-adv-x="602" 
d="M60 154c0 92 70 137 144 174l-3 3c-40 40 -73 86 -73 148c0 83 63 134 143 134c100 0 149 -61 149 -131c0 -84 -74 -126 -150 -165l196 -190c28 50 38 111 38 165v20h43v-20c0 -62 -14 -135 -51 -194l94 -91v-7h-48l-69 67c-42 -48 -104 -80 -194 -80
c-135 0 -219 68 -219 167zM279 26c78 0 131 27 165 68l-210 205c-67 -36 -127 -74 -127 -144c0 -74 72 -129 172 -129zM171 476c0 -60 40 -100 69 -130c71 34 136 67 136 134c0 47 -25 95 -105 95c-56 0 -100 -37 -100 -99z" />
    <glyph glyph-name="quotesingle" unicode="'" horiz-adv-x="169" 
d="M123 662l-38 -199h-26v10l16 199h48v-10z" />
    <glyph glyph-name="parenleft" unicode="(" horiz-adv-x="302" 
d="M286 648c-39 -28 -202 -141 -202 -390c0 -250 163 -363 202 -391l-22 -31c-46 31 -225 153 -225 422c0 270 179 390 225 421z" />
    <glyph glyph-name="parenright" unicode=")" horiz-adv-x="302" 
d="M16 648l22 31c46 -31 225 -151 225 -421c0 -269 -179 -391 -225 -422l-22 31c39 28 202 141 202 391c0 249 -163 362 -202 390z" />
    <glyph glyph-name="asterisk" unicode="*" horiz-adv-x="427" 
d="M238 700l-13 -77h-21l-13 77v29h47v-29zM342 590l-78 -12l-6 20l69 37l28 9l14 -45zM163 578l-77 12l-28 9l15 45l27 -9l70 -37zM120 486l55 56l17 -12l-33 -71l-17 -24l-38 27zM253 542l55 -56l17 -24l-38 -27l-18 24l-33 71z" />
    <glyph glyph-name="plus" unicode="+" horiz-adv-x="484" 
d="M262 488v-168h169v-38h-169v-164h-39v164h-170v38h170v168h39z" />
    <glyph glyph-name="comma" unicode="," horiz-adv-x="119" 
d="M23 28c0 21 15 36 36 36c20 0 38 -15 38 -38c0 -18 -5 -28 -11 -40l-44 -80h-35l38 69c6 10 12 15 12 15v2c-20 1 -34 15 -34 36z" />
    <glyph glyph-name="hyphen" unicode="-" horiz-adv-x="401" 
d="M59 278v38h283v-38h-283z" />
    <glyph glyph-name="period" unicode="." horiz-adv-x="120" 
d="M23 29c0 21 16 37 37 37c20 0 37 -16 37 -37s-17 -37 -37 -37c-21 0 -37 16 -37 37z" />
    <glyph glyph-name="slash" unicode="/" horiz-adv-x="337" 
d="M301 703l-221 -879h-45l221 879h45z" />
    <glyph glyph-name="zero" unicode="0" horiz-adv-x="619" 
d="M310 -14c-160 0 -258 138 -258 312c0 178 98 315 258 315s258 -137 258 -315c0 -174 -98 -312 -258 -312zM310 28c139 0 213 125 213 270c0 148 -74 273 -213 273s-214 -125 -214 -273c0 -145 75 -270 214 -270z" />
    <glyph glyph-name="one" unicode="1" horiz-adv-x="308" 
d="M23 559v41h187v-600h-45v559h-142z" />
    <glyph glyph-name="two" unicode="2" horiz-adv-x="501" 
d="M48 0v12l280 298c48 51 66 80 66 126c0 78 -60 135 -153 135c-105 0 -172 -77 -172 -77l-26 34s73 85 198 85c126 0 197 -73 197 -175c0 -57 -20 -93 -72 -149l-232 -248h319v-41h-405z" />
    <glyph glyph-name="three" unicode="3" horiz-adv-x="507" 
d="M267 303h-91v20l199 236h-314v41h389v-12l-211 -249h37c102 0 181 -63 181 -174c0 -104 -80 -178 -207 -178c-126 0 -208 84 -209 85l23 34s77 -78 185 -78c96 0 164 57 164 137c0 85 -59 138 -146 138z" />
    <glyph glyph-name="four" unicode="4" horiz-adv-x="530" 
d="M28 150v33l356 417h35v-408h69v-42h-69v-150h-44v150h-347zM87 195v-3h288v335l-278 -325c-4 -4 -10 -7 -10 -7z" />
    <glyph glyph-name="five" unicode="5" horiz-adv-x="502" 
d="M430 559h-288l-9 -219c26 7 66 14 119 14c129 0 204 -70 204 -178c0 -125 -80 -189 -207 -189c-125 0 -209 86 -209 86l24 34s78 -79 185 -79c94 0 163 51 163 148c0 85 -64 138 -160 138c-91 0 -151 -24 -152 -24l-12 9l12 301h330v-41z" />
    <glyph glyph-name="six" unicode="6" horiz-adv-x="499" 
d="M261 -13c-130 0 -206 82 -206 189c0 56 16 102 54 160l173 264h53l-161 -244c-10 -15 -21 -25 -21 -25v-4c27 19 63 32 107 32c127 0 206 -81 206 -184c0 -114 -86 -188 -205 -188zM260 318c-98 0 -161 -62 -161 -143c0 -86 71 -147 162 -147c93 0 161 62 161 147
c0 81 -65 143 -162 143z" />
    <glyph glyph-name="seven" unicode="7" horiz-adv-x="447" 
d="M34 559v41h403v-12l-282 -588h-54l269 559h-336z" />
    <glyph glyph-name="eight" unicode="8" horiz-adv-x="535" 
d="M268 -13c-133 0 -211 78 -211 174c0 74 44 130 115 157c-59 26 -92 78 -92 137c0 89 70 158 188 158s187 -69 187 -158c0 -59 -33 -111 -92 -137c71 -27 115 -84 115 -157c0 -96 -77 -174 -210 -174zM268 28c102 0 165 61 165 133c0 82 -68 136 -165 136
c-98 0 -166 -54 -166 -136c0 -72 63 -133 166 -133zM268 335c89 0 142 51 142 120c0 65 -53 116 -142 116c-90 0 -143 -51 -143 -116c0 -69 53 -120 143 -120z" />
    <glyph glyph-name="nine" unicode="9" horiz-adv-x="499" 
d="M444 424c0 -69 -25 -115 -54 -160l-172 -263h-53l160 243c9 14 20 26 21 26v3c-28 -19 -63 -32 -107 -32c-127 0 -206 81 -206 184c0 115 86 188 205 188c121 0 206 -74 206 -189zM400 425c0 86 -71 147 -162 147c-93 0 -161 -62 -161 -147c0 -81 65 -143 162 -143
c85 0 161 51 161 143z" />
    <glyph glyph-name="colon" unicode=":" horiz-adv-x="191" 
d="M58 316c0 20 17 37 37 37c21 0 37 -17 37 -37c0 -21 -16 -37 -37 -37c-20 0 -37 16 -37 37zM58 29c0 21 17 37 37 37c21 0 37 -16 37 -37s-16 -37 -37 -37c-20 0 -37 16 -37 37z" />
    <glyph glyph-name="semicolon" unicode=";" horiz-adv-x="219" 
d="M76 28c0 21 16 36 37 36c20 0 37 -15 37 -38c0 -17 -4 -27 -11 -40l-45 -80h-34l39 69c5 10 11 15 11 15v2c-20 2 -34 16 -34 36zM77 316c0 20 16 37 37 37s37 -17 37 -37c0 -21 -16 -37 -37 -37s-37 16 -37 37z" />
    <glyph glyph-name="less" unicode="&#x3c;" horiz-adv-x="369" 
d="M283 44l-241 232v23l241 232l27 -28l-224 -216l224 -215z" />
    <glyph glyph-name="equal" unicode="=" horiz-adv-x="488" 
d="M73 368v38h342v-38h-342zM73 177v38h342v-38h-342z" />
    <glyph glyph-name="greater" unicode="&#x3e;" horiz-adv-x="369" 
d="M327 276l-241 -232l-27 28l224 215l-224 216l27 28l241 -232v-23z" />
    <glyph glyph-name="question" unicode="?" horiz-adv-x="373" 
d="M57 542l-16 35s48 36 140 36c90 0 144 -56 144 -130c0 -137 -144 -154 -147 -292l-1 -40h-33v45c0 140 136 164 136 281c0 56 -40 98 -106 98c-78 0 -117 -33 -117 -33zM125 29c0 21 17 37 37 37c21 0 37 -16 37 -37s-16 -37 -37 -37c-20 0 -37 16 -37 37z" />
    <glyph glyph-name="at" unicode="@" horiz-adv-x="923" 
d="M458 -244c-256 0 -415 191 -415 424c0 237 164 427 419 427c257 0 408 -189 408 -378c0 -134 -54 -242 -168 -242c-82 0 -114 59 -114 90h-3c-3 -9 -37 -85 -149 -85c-99 0 -177 72 -177 181c0 110 78 181 177 181c101 0 138 -63 147 -83l9 75h31v-240
c0 -50 30 -81 81 -81c86 0 127 91 127 200c0 181 -142 345 -369 345c-225 0 -380 -168 -380 -390c0 -217 151 -387 376 -387c129 0 195 42 195 42l16 -33s-67 -46 -211 -46zM582 173c0 92 -65 144 -141 144c-77 0 -138 -58 -138 -144c0 -85 61 -144 138 -144
c76 0 141 53 141 144z" />
    <glyph glyph-name="A" unicode="A" horiz-adv-x="605" 
d="M8 0l288 600h12l289 -600h-50l-61 124h-368l-61 -124h-49zM459 179l-154 331h-7l-153 -331l-7 -13h327z" />
    <glyph glyph-name="B" unicode="B" horiz-adv-x="634" 
d="M580 162c0 -115 -95 -162 -220 -162h-267v600h252c127 0 213 -50 213 -161c0 -70 -39 -113 -98 -133v-5c69 -18 120 -63 120 -139zM372 280h-235v-239h225c95 0 173 34 173 123c0 80 -73 113 -163 116zM513 437c0 91 -72 122 -168 122h-208v-237h208
c102 0 168 36 168 115z" />
    <glyph glyph-name="C" unicode="C" horiz-adv-x="595" 
d="M538 100l25 -34s-67 -80 -205 -80c-182 0 -311 136 -311 312c0 179 129 315 311 315c138 0 205 -79 205 -79l-25 -33s-63 70 -180 70c-158 0 -266 -125 -266 -273c0 -145 108 -270 266 -270c117 0 180 72 180 72z" />
    <glyph glyph-name="D" unicode="D" horiz-adv-x="657" 
d="M608 300c0 -188 -135 -300 -321 -300h-194v600h194c186 0 321 -112 321 -300zM285 559h-148v-518h148c157 0 278 97 278 259s-122 259 -278 259z" />
    <glyph glyph-name="E" unicode="E" horiz-adv-x="561" 
d="M474 317v-41h-337v-235h383v-41h-427v600h427v-41h-383v-242h337z" />
    <glyph glyph-name="F" unicode="F" horiz-adv-x="553" 
d="M93 0v600h427v-41h-383v-242h342v-41h-342v-276h-44z" />
    <glyph glyph-name="G" unicode="G" horiz-adv-x="673" 
d="M587 267v9h-249v41h293v-32c0 -185 -105 -299 -275 -299c-188 0 -308 136 -308 312c0 179 122 315 310 315c150 0 221 -80 221 -80l-26 -33s-67 71 -195 71c-168 0 -266 -125 -266 -273c0 -145 96 -270 264 -270c138 0 231 91 231 239z" />
    <glyph glyph-name="H" unicode="H" horiz-adv-x="667" 
d="M575 600v-600h-44v276h-394v-276h-44v600h44v-283h394v283h44z" />
    <glyph glyph-name="I" unicode="I" horiz-adv-x="230" 
d="M137 600v-600h-44v600h44z" />
    <glyph glyph-name="J" unicode="J" horiz-adv-x="441" 
d="M26 30l22 35s44 -36 114 -36c92 0 149 47 149 165v406h44v-414c0 -140 -75 -199 -190 -199c-88 0 -137 41 -139 43z" />
    <glyph glyph-name="K" unicode="K" horiz-adv-x="579" 
d="M137 600v-358l368 358h51v-9l-245 -239l245 -343v-9h-48l-229 321l-142 -139v-182h-44v600h44z" />
    <glyph glyph-name="M" unicode="M" horiz-adv-x="756" 
d="M620 0v500l-235 -264h-14l-234 262v-498h-44v600h14l271 -307l272 307h14v-600h-44z" />
    <glyph glyph-name="N" unicode="N" horiz-adv-x="695" 
d="M603 600v-600h-15l-451 504v-504h-44v600h15l451 -502v502h44z" />
    <glyph glyph-name="O" unicode="O" horiz-adv-x="709" 
d="M354 -14c-186 0 -306 136 -306 312c0 179 120 315 306 315s307 -136 307 -315c0 -176 -121 -312 -307 -312zM354 28c166 0 262 125 262 270c0 148 -96 273 -262 273c-165 0 -262 -125 -262 -273c0 -145 97 -270 262 -270z" />
    <glyph glyph-name="P" unicode="P" horiz-adv-x="596" 
d="M93 0v600h233c148 0 235 -67 235 -197c0 -134 -89 -203 -237 -203h-187v-200h-44zM517 402c0 109 -77 157 -192 157h-188v-318h188c115 0 192 48 192 161z" />
    <glyph glyph-name="Q" unicode="Q" horiz-adv-x="709" 
d="M354 -14c-186 0 -306 136 -306 312c0 179 120 315 306 315s307 -136 307 -315c0 -116 -52 -214 -141 -268l50 -75v-10h-45l-43 66c-38 -16 -81 -25 -128 -25zM364 192v10h45l88 -136c77 48 119 136 119 232c0 148 -96 273 -262 273c-165 0 -262 -125 -262 -273
c0 -145 97 -270 262 -270c39 0 73 7 104 19z" />
    <glyph glyph-name="R" unicode="R" horiz-adv-x="620" 
d="M93 0v600h232c149 0 236 -67 236 -197c0 -105 -62 -167 -155 -187v-3l167 -201v-12h-47l-174 209h-215v-209h-44zM516 402c0 109 -76 157 -191 157h-188v-309h200c102 0 179 46 179 152z" />
    <glyph glyph-name="T" unicode="T" horiz-adv-x="514" 
d="M17 559v41h480v-41h-218v-559h-44v559h-218z" />
    <glyph glyph-name="U" unicode="U" horiz-adv-x="656" 
d="M328 -13c-156 0 -244 104 -244 261v352h44v-352c0 -131 67 -220 200 -220s200 89 200 220v352h44v-352c0 -157 -87 -261 -244 -261z" />
    <glyph glyph-name="V" unicode="V" horiz-adv-x="605" 
d="M306 86l122 266l120 248h48l-288 -600h-12l-288 600h49l121 -248l121 -266h7z" />
    <glyph glyph-name="W" unicode="W" horiz-adv-x="806" 
d="M249 110l138 490h33l137 -490l6 -32h4l8 32l165 490h47l-207 -600h-36l-137 488l-3 17h-3l-3 -17l-139 -488h-34l-208 600h47l166 -490l8 -32h4z" />
    <glyph glyph-name="X" unicode="X" horiz-adv-x="536" 
d="M507 600l-209 -292l219 -308h-52l-174 243l-23 40l-24 -40l-173 -243h-52l218 308l-208 292h53l167 -234l19 -35l19 35l167 234h53z" />
    <glyph glyph-name="Y" unicode="Y" horiz-adv-x="535" 
d="M288 302l187 298h51l-236 -369v-231h-45v231l-235 369h52l188 -298l15 -29h7z" />
    <glyph glyph-name="bracketleft" unicode="[" horiz-adv-x="308" 
d="M84 -158v832h199v-38h-156v-756h156v-38h-199z" />
    <glyph glyph-name="backslash" unicode="\" horiz-adv-x="337" 
d="M256 -176l-221 879h45l221 -879h-45z" />
    <glyph glyph-name="bracketright" unicode="]" horiz-adv-x="308" 
d="M26 -158v38h156v756h-156v38h199v-832h-199z" />
    <glyph glyph-name="asciicircum" unicode="^" horiz-adv-x="409" 
d="M315 488l-111 139l-110 -139h-29v10l123 170h33l123 -170v-10h-29z" />
    <glyph glyph-name="underscore" unicode="_" horiz-adv-x="487" 
d="M50 -58v38h381v-38h-381z" />
    <glyph glyph-name="grave" unicode="`" horiz-adv-x="254" 
d="M149 419l-80 148v10h56l51 -148v-10h-27z" />
    <glyph glyph-name="a" unicode="a" horiz-adv-x="422" 
d="M32 103c0 57 48 104 151 104c79 0 119 -28 132 -40h5v30c0 71 -34 120 -128 120c-69 0 -109 -29 -109 -29l-16 34s43 32 133 32c118 0 162 -71 162 -162v-192h-30l-6 49h-3c-6 -9 -45 -57 -144 -57c-101 0 -147 51 -147 111zM75 103c0 -43 34 -77 112 -77
c75 0 132 44 132 78c0 41 -61 72 -132 72c-76 0 -112 -31 -112 -73z" />
    <glyph glyph-name="b" unicode="b" horiz-adv-x="469" 
d="M66 0v668h43v-392h2s31 78 144 78c96 0 174 -73 174 -181c0 -109 -78 -181 -175 -181c-116 0 -148 82 -148 82h-2l-7 -74h-31zM106 173c0 -91 66 -144 142 -144c77 0 137 59 137 144s-60 144 -137 144c-76 0 -142 -53 -142 -144z" />
    <glyph glyph-name="c" unicode="c" horiz-adv-x="366" 
d="M224 -8c-104 0 -185 71 -185 179c0 110 81 183 185 183c73 0 114 -31 114 -31l-14 -33s-38 27 -97 27c-76 0 -144 -56 -144 -146c0 -89 68 -142 144 -142c59 0 97 27 97 27l13 -33s-40 -31 -113 -31z" />
    <glyph glyph-name="d" unicode="d" horiz-adv-x="469" 
d="M358 279h2v389h43v-668h-31l-7 72h-2s-34 -80 -148 -80c-98 0 -176 72 -176 181c0 108 78 181 175 181c112 0 144 -75 144 -75zM362 173c0 91 -66 144 -141 144c-77 0 -138 -59 -138 -144s61 -144 138 -144c75 0 141 53 141 144z" />
    <glyph glyph-name="e" unicode="e" horiz-adv-x="417" 
d="M343 61l16 -31s-46 -38 -129 -38c-110 0 -190 71 -190 179c0 112 74 183 174 183c108 0 169 -70 169 -170v-14h-300c1 -92 69 -142 147 -142c72 0 113 33 113 33zM213 318c-64 0 -116 -40 -128 -114h255c-5 63 -49 114 -127 114z" />
    <glyph glyph-name="g" unicode="g" horiz-adv-x="406" 
d="M213 -237c-117 0 -183 54 -183 129c0 49 28 86 85 105v4c-59 14 -79 42 -79 79c0 34 19 59 58 75c-14 20 -21 44 -21 71c0 71 53 126 137 126c52 0 177 -6 177 -6v-34h-80v-3s42 -17 42 -85c0 -66 -53 -123 -139 -123c-38 0 -70 11 -93 30c-27 -10 -41 -26 -41 -48
c0 -36 31 -59 137 -59c119 0 183 -50 183 -128c0 -76 -67 -133 -183 -133zM213 -13c-91 0 -142 -42 -142 -93c0 -53 51 -95 142 -95s141 41 141 95c0 53 -50 93 -141 93zM210 316c-63 0 -99 -40 -99 -90s36 -89 99 -89c64 0 101 39 101 89s-37 90 -101 90z" />
    <glyph glyph-name="h" unicode="h" horiz-adv-x="454" 
d="M66 0v668h43v-375h2c12 12 45 61 129 61c98 0 154 -66 154 -160v-194h-44v189c0 73 -39 128 -118 128c-86 0 -122 -65 -123 -107v-210h-43z" />
    <glyph glyph-name="j" unicode="j" horiz-adv-x="174" 
d="M-41 -184l11 33s20 -12 43 -12c37 0 52 21 52 68v441h44v-442c0 -71 -26 -105 -89 -105c-36 0 -61 17 -61 17zM87 497c-18 0 -32 13 -32 31s14 32 32 32s32 -14 32 -32s-14 -31 -32 -31z" />
    <glyph glyph-name="k" unicode="k" horiz-adv-x="376" 
d="M285 346h55l-183 -169l211 -177h-61l-197 166h-2v-166h-43v668h43v-484h2z" />
    <glyph glyph-name="m" unicode="m" horiz-adv-x="738" 
d="M394 199v-199h-44v205c0 63 -39 112 -118 112c-86 0 -122 -65 -123 -107v-210h-43v346h30l6 -61h3c13 18 48 69 135 69c70 0 119 -31 141 -80h3c12 18 42 80 141 80c98 0 153 -66 153 -160v-194h-43v189c0 73 -39 128 -118 128c-88 0 -123 -71 -123 -118z" />
    <glyph glyph-name="n" unicode="n" horiz-adv-x="453" 
d="M66 0v346h30l6 -61h3c11 17 46 69 135 69c98 0 154 -66 154 -160v-194h-44v189c0 73 -39 128 -118 128c-86 0 -122 -65 -123 -107v-210h-43z" />
    <glyph glyph-name="o" unicode="o" horiz-adv-x="447" 
d="M408 171c0 -111 -83 -179 -184 -179c-102 0 -185 68 -185 179s83 183 185 183c101 0 184 -72 184 -183zM224 28c75 0 141 54 141 143c0 90 -66 147 -141 147s-142 -57 -142 -147c0 -89 67 -143 142 -143z" />
    <glyph glyph-name="p" unicode="p" horiz-adv-x="469" 
d="M111 67h-2v-259h-43v538h30l7 -71h4s34 79 147 79c97 0 175 -72 175 -181c0 -108 -78 -181 -174 -181c-113 0 -144 75 -144 75zM106 173c0 -91 66 -144 142 -144c77 0 137 59 137 144s-60 144 -137 144c-76 0 -142 -53 -142 -144z" />
    <glyph glyph-name="q" unicode="q" horiz-adv-x="469" 
d="M403 346v-538h-43v262h-2s-31 -78 -144 -78c-97 0 -175 73 -175 181c0 109 78 181 176 181c115 0 147 -82 147 -82h3l7 74h31zM362 173c0 91 -66 144 -141 144c-77 0 -138 -59 -138 -144s61 -144 138 -144c75 0 141 53 141 144z" />
    <glyph glyph-name="r" unicode="r" horiz-adv-x="272" 
d="M267 336l-16 -35s-18 11 -46 11c-61 0 -96 -59 -96 -114v-198h-43v346h30l6 -61h2c14 26 41 65 104 65c35 0 59 -14 59 -14z" />
    <glyph glyph-name="s" unicode="s" horiz-adv-x="374" 
d="M37 29l19 31s52 -32 128 -32s112 26 112 62c0 92 -255 44 -255 169c0 56 47 95 144 95c91 0 139 -27 139 -27l-17 -36s-42 27 -118 27c-67 0 -106 -17 -106 -59c0 -88 255 -34 255 -168c0 -54 -43 -99 -152 -99c-101 0 -149 37 -149 37z" />
    <glyph glyph-name="t" unicode="t" horiz-adv-x="301" 
d="M14 346h72v105h43v-105h148v-36h-148v-165c0 -81 32 -115 95 -115c27 0 51 14 51 14l15 -31s-28 -21 -71 -21c-87 0 -133 50 -133 152v166h-72v36z" />
    <glyph glyph-name="u" unicode="u" horiz-adv-x="449" 
d="M384 346v-346h-29l-8 61h-2c-8 -13 -44 -69 -136 -69c-98 0 -149 66 -149 160v194h43v-189c0 -73 35 -128 114 -128c86 0 124 66 124 108v209h43z" />
    <glyph glyph-name="v" unicode="v" horiz-adv-x="402" 
d="M387 346l-171 -346h-30l-171 346h49l130 -273c3 -7 6 -17 6 -22h3c0 5 3 15 6 22l130 273h48z" />
    <glyph glyph-name="w" unicode="w" horiz-adv-x="574" 
d="M154 0l-134 346h47l96 -267c3 -7 8 -23 8 -28h4c0 5 6 21 8 28l86 267h39l85 -267c3 -7 7 -23 7 -28h5c0 5 5 21 8 28l97 267h44l-134 -346h-39l-88 275c-2 6 -4 14 -4 18h-3c0 -4 -2 -12 -4 -18l-89 -275h-39z" />
    <glyph glyph-name="x" unicode="x" horiz-adv-x="376" 
d="M17 0l145 181l-132 165h50l107 -138h2l108 138h49l-132 -164l145 -182h-51l-119 155h-2l-120 -155h-50z" />
    <glyph glyph-name="y" unicode="y" horiz-adv-x="403" 
d="M387 346l-259 -538h-46l100 205l-164 333h48l131 -273c3 -7 6 -17 6 -22h3c0 5 3 15 6 22l130 273h45z" />
    <glyph glyph-name="braceleft" unicode="{" horiz-adv-x="237" 
d="M25 277h11c33 0 62 29 62 83v249c0 57 25 89 86 95l6 -38c-34 -4 -46 -19 -46 -64v-243c0 -52 -18 -88 -52 -100v-7c34 -11 52 -48 52 -98v-244c0 -44 12 -59 46 -64l-6 -37c-61 5 -86 38 -86 94v250c0 53 -29 83 -62 83h-11v41z" />
    <glyph glyph-name="bar" unicode="|" horiz-adv-x="209" 
d="M125 673v-825h-41v825h41z" />
    <glyph glyph-name="braceright" unicode="}" horiz-adv-x="237" 
d="M212 236h-12c-33 0 -62 -30 -62 -83v-250c0 -56 -24 -89 -85 -94l-6 37c34 5 46 20 46 64v244c0 50 17 87 52 98v7c-35 12 -52 48 -52 100v243c0 45 -12 60 -46 64l6 38c61 -6 85 -38 85 -95v-249c0 -54 29 -83 62 -83h12v-41z" />
    <glyph glyph-name="asciitilde" unicode="~" horiz-adv-x="451" 
d="M298 299c52 0 74 20 74 20l16 -27s-25 -30 -89 -30c-50 0 -93 28 -147 28c-51 0 -74 -20 -74 -20l-15 27s25 29 88 29c51 0 93 -27 147 -27z" />
    <glyph glyph-name="Euro" unicode="&#x20ac;" horiz-adv-x="605" 
d="M422 247v-37h-247c25 -100 93 -173 211 -173c95 0 142 60 142 60l27 -31s-53 -71 -170 -71c-147 0 -230 94 -257 215h-83v37h77c-2 17 -3 35 -3 53c0 17 1 33 3 50h-77v37h83c26 123 109 219 257 219c117 0 171 -70 171 -70l-28 -33s-47 60 -142 60
c-119 0 -187 -75 -211 -176h247v-37h-254c-2 -17 -3 -33 -3 -50c0 -18 1 -36 3 -53h254z" />
    <glyph glyph-name="quotesinglbase" unicode="&#x201a;" horiz-adv-x="119" 
d="M23 28c0 21 15 36 36 36c20 0 38 -15 38 -38c0 -18 -5 -28 -11 -40l-44 -80h-35l38 69c6 10 12 15 12 15v2c-20 1 -34 15 -34 36z" />
    <glyph glyph-name="florin" unicode="&#x192;" horiz-adv-x="333" 
d="M116 -92v402h-86v36h86v159c0 110 48 161 137 161c40 0 67 -17 68 -17l-14 -37s-24 14 -49 14c-66 0 -99 -36 -99 -121v-159h149v-36h-149v-405c0 -71 -27 -106 -91 -106c-37 0 -64 18 -64 18l14 34s21 -13 44 -13c37 0 54 21 54 70z" />
    <glyph glyph-name="quotedblbase" unicode="&#x201e;" horiz-adv-x="276" 
d="M23 28c0 21 15 36 36 36c20 0 38 -15 38 -38c0 -18 -5 -28 -11 -40l-44 -80h-35l38 69c6 10 12 15 12 15v2c-20 1 -34 15 -34 36zM180 28c0 21 15 36 36 36c20 0 38 -15 38 -38c0 -18 -5 -28 -11 -40l-44 -80h-35l38 69c6 10 12 15 12 15v2c-20 1 -34 15 -34 36z" />
    <glyph glyph-name="ellipsis" unicode="&#x2026;" horiz-adv-x="389" 
d="M24 30c0 21 16 38 38 38s39 -17 39 -38c0 -22 -17 -39 -39 -39s-38 17 -38 39zM156 30c0 21 17 38 38 38c23 0 39 -17 39 -38c0 -22 -16 -39 -39 -39c-21 0 -38 17 -38 39zM289 30c0 21 16 38 38 38s39 -17 39 -38c0 -22 -17 -39 -39 -39s-38 17 -38 39z" />
    <glyph glyph-name="dagger" unicode="&#x2020;" horiz-adv-x="415" 
d="M35 302v38h153v260h39v-260h153v-38h-153l-6 -494h-27l-6 494h-153z" />
    <glyph glyph-name="daggerdbl" unicode="&#x2021;" horiz-adv-x="447" 
d="M51 373v38h153v189h39v-189h153v-38h-153v-253h153v-37h-153l-6 -275h-27l-6 275h-153v37h153v253h-153z" />
    <glyph glyph-name="circumflex" unicode="&#x2c6;" horiz-adv-x="329" 
d="M281 419l-112 117l-113 -117h-27v10l114 148h51l114 -148v-10h-27z" />
    <glyph glyph-name="perthousand" unicode="&#x2030;" horiz-adv-x="984" 
d="M169 613c83 0 128 -69 128 -149c0 -78 -45 -149 -128 -149s-129 71 -129 149c0 80 46 149 129 149zM169 353c56 0 87 51 87 111c0 62 -31 112 -87 112c-57 0 -88 -50 -88 -112c0 -60 31 -111 88 -111zM553 598l31 -24l-469 -564l-31 24zM501 290c82 0 128 -69 128 -149
c0 -78 -46 -149 -128 -149c-83 0 -129 71 -129 149c0 80 46 149 129 149zM501 253c-57 0 -88 -50 -88 -112c0 -60 31 -111 88 -111c56 0 87 51 87 111c0 62 -31 112 -87 112zM821 253c-56 0 -87 -50 -87 -112c0 -60 31 -111 87 -111c57 0 87 51 87 111c0 62 -30 112 -87 112
zM821 290c83 0 129 -69 129 -149c0 -78 -46 -149 -129 -149s-129 71 -129 149c0 80 46 149 129 149z" />
    <glyph glyph-name="Scaron" unicode="&#x160;" horiz-adv-x="528" 
d="M263 679l112 117h27v-10l-114 -148h-51l-114 148v10h27zM48 54l25 34s65 -60 186 -60c125 0 180 49 180 122c0 76 -67 106 -180 138c-123 36 -209 71 -209 168c0 100 87 157 215 157c144 0 205 -55 205 -55l-24 -37s-60 50 -181 50c-93 0 -170 -39 -170 -114
c0 -69 67 -95 179 -127c130 -36 210 -79 210 -180c0 -93 -67 -163 -225 -163c-141 0 -211 67 -211 67z" />
    <glyph glyph-name="guilsinglleft" unicode="&#x2039;" horiz-adv-x="238" 
d="M45 163v17l106 156h40v-7l-105 -155v-3l105 -157v-7h-40z" />
    <glyph glyph-name="OE" unicode="&#x152;" horiz-adv-x="1085" 
d="M353 -14c-186 0 -306 136 -306 312c0 179 120 315 306 315c119 0 212 -56 263 -144v131h427v-41h-383v-242h337v-41h-337v-235h383v-41h-427v128c-51 -86 -144 -142 -263 -142zM353 28c166 0 262 125 262 270c0 148 -96 273 -262 273c-165 0 -262 -125 -262 -273
c0 -145 97 -270 262 -270z" />
    <glyph glyph-name="quoteleft" unicode="&#x2018;" horiz-adv-x="182" 
d="M120 557c0 -21 -15 -36 -36 -36c-20 0 -38 15 -38 38c0 18 5 28 11 40l44 80h35l-38 -69c-6 -10 -12 -15 -12 -15v-2c20 -1 34 -15 34 -36z" />
    <glyph glyph-name="quoteright" unicode="&#x2019;" horiz-adv-x="182" 
d="M62 619c0 21 15 36 36 36c20 0 38 -15 38 -38c0 -18 -5 -28 -11 -40l-44 -80h-35l38 69c6 10 12 15 12 15v2c-20 1 -34 15 -34 36z" />
    <glyph glyph-name="quotedblleft" unicode="&#x201c;" horiz-adv-x="316" 
d="M120 557c0 -21 -15 -36 -36 -36c-20 0 -38 15 -38 38c0 18 5 28 11 40l44 80h35l-38 -69c-6 -10 -12 -15 -12 -15v-2c20 -1 34 -15 34 -36zM254 557c0 -21 -15 -36 -36 -36c-20 0 -38 15 -38 38c0 18 5 28 11 40l44 80h35l-38 -69c-6 -10 -12 -15 -12 -15v-2
c20 -1 34 -15 34 -36z" />
    <glyph glyph-name="quotedblright" unicode="&#x201d;" horiz-adv-x="321" 
d="M62 619c0 21 15 36 36 36c20 0 38 -15 38 -38c0 -18 -5 -28 -11 -40l-44 -80h-35l38 69c6 10 12 15 12 15v2c-20 1 -34 15 -34 36zM201 619c0 21 15 36 36 36c20 0 38 -15 38 -38c0 -18 -5 -28 -11 -40l-44 -80h-35l38 69c6 10 12 15 12 15v2c-20 1 -34 15 -34 36z" />
    <glyph glyph-name="bullet" unicode="&#x2022;" horiz-adv-x="291" 
d="M84 173c0 33 27 62 62 62c33 0 61 -29 61 -62c0 -34 -28 -61 -61 -61c-35 0 -62 27 -62 61z" />
    <glyph glyph-name="endash" unicode="&#x2013;" horiz-adv-x="457" 
d="M59 269v38h339v-38h-339z" />
    <glyph glyph-name="emdash" unicode="&#x2014;" horiz-adv-x="733" 
d="M59 269v38h615v-38h-615z" />
    <glyph glyph-name="tilde" unicode="&#x2dc;" horiz-adv-x="430" 
d="M276 449c-53 0 -91 51 -130 51c-30 0 -38 -19 -43 -39l-3 -12l-32 4l4 19c6 32 24 64 70 64c52 0 89 -52 131 -52c30 0 40 19 43 39l2 12l32 -3l-3 -19c-6 -32 -24 -64 -71 -64z" />
    <glyph glyph-name="trademark" unicode="&#x2122;" horiz-adv-x="742" 
d="M390 281h-35v319h15l139 -132c39 35 103 97 141 132h14v-319h-35v256l-114 -106h-13l-112 106v-256zM287 600v-31h-107v-288h-35v288h-107v31h249z" />
    <glyph glyph-name="scaron" unicode="&#x161;" horiz-adv-x="374" 
d="M188 460l112 117h27v-10l-114 -148h-51l-114 148v10h27zM37 29l19 31s52 -32 128 -32s112 26 112 62c0 92 -255 44 -255 169c0 56 47 95 144 95c91 0 139 -27 139 -27l-17 -36s-42 27 -118 27c-67 0 -106 -17 -106 -59c0 -88 255 -34 255 -168c0 -54 -43 -99 -152 -99
c-101 0 -149 37 -149 37z" />
    <glyph glyph-name="guilsinglright" unicode="&#x203a;" horiz-adv-x="238" 
d="M192 180v-17l-106 -156h-39v7l105 157v3l-105 155v7h39z" />
    <glyph glyph-name="oe" unicode="&#x153;" horiz-adv-x="743" 
d="M669 61l16 -31s-46 -38 -129 -38c-77 0 -138 34 -169 91c-31 -58 -93 -91 -163 -91c-102 0 -185 68 -185 179s83 183 185 183c69 0 130 -34 162 -92c28 58 85 92 154 92c108 0 169 -70 169 -170v-14h-300c1 -92 69 -142 147 -142c72 0 113 33 113 33zM224 28
c75 0 141 54 141 143c0 90 -66 147 -141 147s-142 -57 -142 -147c0 -89 67 -143 142 -143zM539 318c-64 0 -116 -40 -128 -114h255c-5 63 -49 114 -127 114z" />
    <glyph glyph-name="Ydieresis" unicode="&#x178;" horiz-adv-x="535" 
d="M146 705c0 19 16 35 35 35s35 -16 35 -35s-16 -35 -35 -35s-35 16 -35 35zM323 705c0 19 16 35 34 35c19 0 35 -16 35 -35s-16 -35 -35 -35c-18 0 -34 16 -34 35zM288 302l187 298h51l-236 -369v-231h-45v231l-235 369h52l188 -298l15 -29h7z" />
    <glyph glyph-name="dieresis" unicode="&#xa8;" horiz-adv-x="403" 
d="M75 483c0 19 16 35 35 35s35 -16 35 -35s-16 -35 -35 -35s-35 16 -35 35zM252 483c0 19 16 35 34 35c19 0 35 -16 35 -35s-16 -35 -35 -35c-18 0 -34 16 -34 35z" />
    <glyph glyph-name="uni00A0" unicode="&#xa0;" horiz-adv-x="221" 
 />
    <glyph glyph-name="exclamdown" unicode="&#xa1;" horiz-adv-x="230" 
d="M144 31v-31h-59v31l12 418h33zM77 570c0 21 17 38 38 38s38 -17 38 -38c0 -20 -17 -37 -38 -37s-38 17 -38 37z" />
    <glyph glyph-name="cent" unicode="&#xa2;" horiz-adv-x="414" 
d="M213 -85v79c-92 10 -159 78 -159 177c0 100 67 169 158 181v81h35v-79c68 -2 109 -31 109 -31l-15 -34s-40 28 -99 28c-76 0 -144 -56 -144 -146c0 -89 68 -142 144 -142c59 0 99 28 99 28l15 -34s-41 -29 -109 -31v-77h-34z" />
    <glyph glyph-name="sterling" unicode="&#xa3;" horiz-adv-x="508" 
d="M447 45v-39h-380v39s67 25 67 115c0 21 -7 44 -17 69h-66v37h51c-16 39 -31 83 -31 134c0 97 68 205 223 205c115 0 162 -59 162 -59l-24 -32s-42 49 -136 49c-125 0 -177 -87 -177 -165c0 -50 16 -93 32 -132h259v-37h-245c9 -23 15 -46 15 -68c0 -61 -26 -96 -51 -116
h318z" />
    <glyph glyph-name="currency" unicode="&#xa4;" horiz-adv-x="578" 
d="M107 82l-30 30l56 59c-28 35 -45 78 -45 126s17 92 46 127l-57 60l30 30l56 -62c34 27 78 44 125 44s91 -17 126 -46l57 64l31 -30l-59 -63c27 -34 44 -77 44 -124s-17 -90 -44 -124l59 -61l-31 -30l-56 62c-35 -29 -79 -46 -127 -46s-92 17 -126 45zM130 297
c0 -87 71 -158 158 -158c86 0 157 71 157 158s-71 158 -157 158c-87 0 -158 -71 -158 -158z" />
    <glyph glyph-name="yen" unicode="&#xa5;" horiz-adv-x="585" 
d="M313 302l187 298h51l-215 -335h161v-37h-182v-88h182v-37h-182v-103h-45v103h-185v37h185v88h-185v37h163l-213 335h52l188 -298l15 -29h7z" />
    <glyph glyph-name="brokenbar" unicode="&#xa6;" horiz-adv-x="210" 
d="M126 -152h-42v825h42v-825z" />
    <glyph glyph-name="section" unicode="&#xa7;" horiz-adv-x="526" 
d="M42 -127l25 35s70 -68 196 -68c122 0 170 59 170 119c0 70 -39 102 -169 150c-109 40 -150 68 -150 127c0 43 23 67 41 78c-66 33 -101 77 -101 140c0 90 69 159 216 159c142 0 205 -61 205 -61l-26 -37s-59 57 -179 57c-115 0 -167 -51 -167 -116
c0 -64 48 -106 148 -139c110 -37 169 -74 169 -136c0 -43 -21 -69 -35 -82c67 -37 97 -77 97 -140c0 -82 -60 -160 -218 -160c-150 0 -222 74 -222 74zM235 282c-14 4 -27 8 -39 13c-10 -3 -38 -16 -38 -57c0 -37 31 -60 122 -93c24 -9 46 -18 66 -27c8 7 29 27 29 61
c0 40 -43 70 -140 103z" />
    <glyph glyph-name="copyright" unicode="&#xa9;" horiz-adv-x="725" 
d="M362 602c195 0 312 -137 312 -303s-117 -303 -312 -303c-193 0 -311 137 -311 303s118 303 311 303zM362 572c-173 0 -278 -122 -278 -273c0 -150 105 -273 278 -273c174 0 280 123 280 273c0 151 -106 273 -280 273zM476 425l-19 -24s-28 29 -89 29
c-83 0 -132 -58 -132 -130s49 -130 132 -130c58 0 90 29 90 29l18 -24s-33 -37 -109 -37c-105 0 -167 72 -167 162c0 89 62 163 167 163c77 0 109 -38 109 -38z" />
    <glyph glyph-name="ordfeminine" unicode="&#xaa;" horiz-adv-x="413" 
d="M43 369c0 65 51 105 150 105c65 0 104 -22 119 -37v19c0 77 -27 124 -119 124c-59 0 -110 -24 -110 -24l-13 32s53 26 127 26c117 0 154 -62 154 -159v-181h-28l-6 42h-5c-14 -22 -48 -50 -131 -50c-82 0 -138 41 -138 103zM82 370c0 -45 42 -74 106 -74
c79 0 123 39 123 77c0 43 -44 72 -115 72c-72 0 -114 -28 -114 -75z" />
    <glyph glyph-name="guillemotleft" unicode="&#xab;" horiz-adv-x="393" 
d="M45 163v17l106 156h40v-7l-105 -155v-3l105 -157v-7h-40zM201 163v17l106 156h39v-7l-105 -155v-3l105 -157v-7h-39z" />
    <glyph glyph-name="logicalnot" unicode="&#xac;" horiz-adv-x="544" 
d="M35 309v38h420v-347h-38v309h-382z" />
    <glyph glyph-name="minus" unicode="&#x2212;" horiz-adv-x="500" 
d="M58 280v37h377v-37h-377z" />
    <glyph glyph-name="registered" unicode="&#xae;" horiz-adv-x="572" 
d="M522 380c0 -126 -89 -231 -237 -231c-147 0 -235 106 -235 231c0 126 88 232 235 232c148 0 237 -106 237 -232zM489 380c0 112 -79 201 -204 201c-124 0 -202 -87 -202 -201c0 -111 78 -201 202 -201c125 0 204 89 204 201zM198 485h91c53 0 91 -26 91 -73
c0 -33 -18 -54 -44 -65l45 -56v-8h-28l-45 57c-7 -1 -14 -1 -22 -1h-59v-56h-29v202zM289 458h-62v-93h59c36 0 64 13 64 47c0 31 -25 46 -61 46z" />
    <glyph glyph-name="macron" unicode="&#xaf;" horiz-adv-x="479" 
d="M111 446v31h257v-31h-257z" />
    <glyph glyph-name="degree" unicode="&#xb0;" horiz-adv-x="322" 
d="M161 672c70 0 116 -48 116 -108s-46 -107 -116 -107s-117 47 -117 107s47 108 117 108zM161 643c-52 0 -86 -36 -86 -79s34 -78 86 -78s85 35 85 78s-33 79 -85 79z" />
    <glyph glyph-name="plusminus" unicode="&#xb1;" horiz-adv-x="566" 
d="M304 161h-38v183h-193v38h193v185h38v-185h188v-38h-188v-183zM492 86v-38h-419v38h419z" />
    <glyph glyph-name="twosuperior" unicode="&#xb2;" horiz-adv-x="318" 
d="M28 342v15l163 140c26 22 43 48 43 77c0 40 -24 70 -86 70c-56 0 -95 -34 -96 -35l-18 26s45 42 115 42c87 0 121 -45 121 -100c0 -39 -20 -70 -53 -98l-124 -106h196v-31h-261z" />
    <glyph glyph-name="threesuperior" unicode="&#xb3;" horiz-adv-x="316" 
d="M40 637v31h231v-12l-86 -122c65 -4 101 -38 101 -96c0 -57 -43 -104 -130 -104c-76 0 -125 44 -127 46l21 25s42 -38 106 -38c63 0 96 31 96 72c0 42 -31 67 -85 67h-32v13l83 118h-178z" />
    <glyph glyph-name="acute" unicode="&#xb4;" horiz-adv-x="247" 
d="M167 567l-81 -148h-26v10l51 148h56v-10z" />
    <glyph glyph-name="mu" unicode="&#xb5;" horiz-adv-x="494" 
d="M124 -192h-42v538h43v-189c0 -73 35 -128 114 -128c86 0 124 66 124 108v209h43v-346h-29l-8 61h-2c-8 -13 -44 -69 -136 -69c-46 0 -82 14 -107 40v-224z" />
    <glyph glyph-name="paragraph" unicode="&#xb6;" horiz-adv-x="496" 
d="M354 -181v291h-87c-146 0 -234 67 -234 200c0 129 86 194 233 194h132v-685h-44z" />
    <glyph glyph-name="periodcentered" unicode="&#xb7;" horiz-adv-x="123" 
d="M23 360c0 21 17 38 37 38c21 0 38 -17 38 -38s-17 -37 -38 -37c-20 0 -37 16 -37 37z" />
    <glyph glyph-name="cedilla" unicode="&#xb8;" horiz-adv-x="216" 
d="M83 -56l-11 14l23 43h30l-16 -31c39 0 70 -18 70 -62c0 -40 -28 -68 -78 -68c-45 0 -66 25 -66 25l12 23s21 -21 54 -21c30 0 49 15 49 41c0 24 -17 37 -48 37c-12 0 -19 -1 -19 -1z" />
    <glyph glyph-name="onesuperior" unicode="&#xb9;" horiz-adv-x="188" 
d="M21 637v31h110v-326h-34v295h-76z" />
    <glyph glyph-name="ordmasculine" unicode="&#xba;" horiz-adv-x="432" 
d="M216 613c100 0 172 -66 172 -173c0 -103 -72 -170 -172 -170s-172 67 -172 170c0 107 72 173 172 173zM216 578c-79 0 -133 -53 -133 -137c0 -83 54 -136 133 -136s133 53 133 136c0 84 -54 137 -133 137z" />
    <glyph glyph-name="guillemotright" unicode="&#xbb;" horiz-adv-x="393" 
d="M192 180v-17l-106 -156h-39v7l105 157v3l-105 155v7h39zM347 180v-17l-106 -156h-39v7l105 157v3l-105 155v7h39z" />
    <glyph glyph-name="onequarter" unicode="&#xbc;" horiz-adv-x="629" 
d="M324 95v21l186 210h25v-201h55v-30h-55v-95h-33v95h-178zM79 11l-26 20l469 564l26 -20zM40 569v31h111v-326h-35v295h-76zM370 123v-1l57 3h75v147h-1l-94 -107c-17 -20 -37 -42 -37 -42z" />
    <glyph glyph-name="onehalf" unicode="&#xbd;" horiz-adv-x="715" 
d="M417 15v-15h261v31h-195l124 106c32 28 52 59 52 98c0 55 -33 100 -120 100c-71 0 -116 -42 -116 -42l18 -26c1 1 40 35 96 35c62 0 87 -30 87 -70c0 -29 -18 -55 -44 -77zM79 11l-26 20l469 564l26 -20zM42 569v31h111v-326h-35v295h-76z" />
    <glyph glyph-name="threequarters" unicode="&#xbe;" horiz-adv-x="738" 
d="M432 95v21l187 210h25v-201h54v-30h-54v-95h-33v95h-179zM56 569v31h230v-12l-86 -122c65 -4 101 -38 101 -96c0 -57 -43 -104 -130 -104c-75 0 -125 44 -127 46l21 25s42 -38 106 -38s96 31 96 72c0 42 -31 67 -85 67h-32v13l84 118h-178zM193 11l-26 20l469 564l26 -20
zM478 123v-1l58 3h75v147h-2l-93 -107c-17 -20 -38 -42 -38 -42z" />
    <glyph glyph-name="questiondown" unicode="&#xbf;" horiz-adv-x="372" 
d="M315 63l17 -35s-49 -36 -140 -36c-90 0 -145 56 -145 130c0 137 144 154 147 292l1 40h33v-45c0 -140 -136 -164 -136 -281c0 -56 40 -98 106 -98c79 0 117 33 117 33zM247 576c0 -21 -16 -37 -37 -37s-37 16 -37 37s16 37 37 37s37 -16 37 -37z" />
    <glyph glyph-name="Agrave" unicode="&#xc0;" horiz-adv-x="605" 
d="M8 0l288 600h12l289 -600h-50l-61 124h-368l-61 -124h-49zM459 179l-154 331h-7l-153 -331l-7 -13h327zM287 638l-80 148v10h56l51 -148v-10h-27z" />
    <glyph glyph-name="Aacute" unicode="&#xc1;" horiz-adv-x="605" 
d="M8 0l288 600h12l289 -600h-50l-61 124h-368l-61 -124h-49zM459 179l-154 331h-7l-153 -331l-7 -13h327zM398 786l-81 -148h-26v10l51 148h56v-10z" />
    <glyph glyph-name="Acircumflex" unicode="&#xc2;" horiz-adv-x="605" 
d="M414 638l-112 117l-113 -117h-27v10l114 148h51l114 -148v-10h-27zM8 0l288 600h12l289 -600h-50l-61 124h-368l-61 -124h-49zM459 179l-154 331h-7l-153 -331l-7 -13h327z" />
    <glyph glyph-name="Atilde" unicode="&#xc3;" horiz-adv-x="605" 
d="M8 0l288 600h12l289 -600h-50l-61 124h-368l-61 -124h-49zM459 179l-154 331h-7l-153 -331l-7 -13h327zM369 655c-53 0 -91 51 -130 51c-30 0 -38 -19 -43 -39l-3 -12l-32 4l4 19c6 32 24 64 70 64c52 0 89 -52 131 -52c30 0 40 19 43 39l2 12l32 -3l-3 -19
c-6 -32 -24 -64 -71 -64z" />
    <glyph glyph-name="Adieresis" unicode="&#xc4;" horiz-adv-x="605" 
d="M179 711c0 19 16 35 35 35s35 -16 35 -35s-16 -35 -35 -35s-35 16 -35 35zM356 711c0 19 16 35 34 35c19 0 35 -16 35 -35s-16 -35 -35 -35c-18 0 -34 16 -34 35zM8 0l288 600h12l289 -600h-50l-61 124h-368l-61 -124h-49zM459 179l-154 331h-7l-153 -331l-7 -13h327z
" />
    <glyph glyph-name="Aring" unicode="&#xc5;" horiz-adv-x="605" 
d="M8 0l285 595c-45 4 -78 38 -78 85c0 49 37 85 86 85c50 0 87 -36 87 -85c0 -46 -33 -81 -78 -85l287 -595h-50l-61 124h-368l-61 -124h-49zM459 179l-154 331h-7l-153 -331l-7 -13h327zM356 680c0 33 -21 55 -55 55c-33 0 -54 -22 -54 -55s21 -54 54 -54
c34 0 55 21 55 54z" />
    <glyph glyph-name="AE" unicode="&#xc6;" horiz-adv-x="902" 
d="M-8 0l438 600h432v-41h-384v-242h337v-41h-337v-235h384v-41h-428v124h-301l-89 -124h-52zM427 526l-264 -360h271v360h-7z" />
    <glyph glyph-name="Ccedilla" unicode="&#xc7;" horiz-adv-x="595" 
d="M332 -56l-11 14l15 29c-170 11 -289 142 -289 311c0 179 129 315 311 315c138 0 205 -79 205 -79l-25 -33s-63 70 -180 70c-158 0 -266 -125 -266 -273c0 -145 108 -270 266 -270c117 0 180 72 180 72l25 -34s-65 -76 -197 -80l-8 -16c39 0 70 -18 70 -62
c0 -40 -28 -68 -78 -68c-45 0 -66 25 -66 25l12 23s21 -21 54 -21c30 0 49 15 49 41c0 24 -17 37 -48 37c-12 0 -19 -1 -19 -1z" />
    <glyph glyph-name="Egrave" unicode="&#xc8;" horiz-adv-x="561" 
d="M474 317v-41h-337v-235h383v-41h-427v600h427v-41h-383v-242h337zM298 637l-80 148v10h56l51 -148v-10h-27z" />
    <glyph glyph-name="Eacute" unicode="&#xc9;" horiz-adv-x="561" 
d="M389 786l-81 -148h-26v10l51 148h56v-10zM474 317v-41h-337v-235h383v-41h-427v600h427v-41h-383v-242h337z" />
    <glyph glyph-name="Ecircumflex" unicode="&#xca;" horiz-adv-x="561" 
d="M428 638l-112 117l-113 -117h-27v10l114 148h51l114 -148v-10h-27zM474 317v-41h-337v-235h383v-41h-427v600h427v-41h-383v-242h337z" />
    <glyph glyph-name="Edieresis" unicode="&#xcb;" horiz-adv-x="561" 
d="M190 705c0 19 16 35 35 35s35 -16 35 -35s-16 -35 -35 -35s-35 16 -35 35zM367 705c0 19 16 35 34 35c19 0 35 -16 35 -35s-16 -35 -35 -35c-18 0 -34 16 -34 35zM474 317v-41h-337v-235h383v-41h-427v600h427v-41h-383v-242h337z" />
    <glyph glyph-name="Igrave" unicode="&#xcc;" horiz-adv-x="230" 
d="M137 600v-600h-44v600h44zM100 637l-80 148v10h56l51 -148v-10h-27z" />
    <glyph glyph-name="Iacute" unicode="&#xcd;" horiz-adv-x="230" 
d="M137 600v-600h-44v600h44zM211 786l-81 -148h-26v10l51 148h56v-10z" />
    <glyph glyph-name="Icircumflex" unicode="&#xce;" horiz-adv-x="230" 
d="M229 638l-112 117l-113 -117h-27v10l114 148h51l114 -148v-10h-27zM137 600v-600h-44v600h44z" />
    <glyph glyph-name="Idieresis" unicode="&#xcf;" horiz-adv-x="230" 
d="M-7 705c0 19 16 35 35 35s35 -16 35 -35s-16 -35 -35 -35s-35 16 -35 35zM170 705c0 19 16 35 34 35c19 0 35 -16 35 -35s-16 -35 -35 -35c-18 0 -34 16 -34 35zM137 600v-600h-44v600h44z" />
    <glyph glyph-name="Eth" unicode="&#xd0;" horiz-adv-x="665" 
d="M23 281v37h78v282h194c186 0 321 -112 321 -300s-135 -300 -321 -300h-194v281h-78zM293 559h-148v-241h144v-37h-144v-240h148c157 0 278 97 278 259s-122 259 -278 259z" />
    <glyph glyph-name="Ntilde" unicode="&#xd1;" horiz-adv-x="695" 
d="M603 600v-600h-15l-451 504v-504h-44v600h15l451 -502v502h44zM412 670c-53 0 -91 51 -130 51c-30 0 -38 -19 -43 -39l-3 -12l-32 4l4 19c6 32 24 64 70 64c52 0 89 -52 131 -52c30 0 40 19 43 39l2 12l32 -3l-3 -19c-6 -32 -24 -64 -71 -64z" />
    <glyph glyph-name="Ograve" unicode="&#xd2;" horiz-adv-x="709" 
d="M341 638l-80 148v10h56l51 -148v-10h-27zM354 -14c-186 0 -306 136 -306 312c0 179 120 315 306 315s307 -136 307 -315c0 -176 -121 -312 -307 -312zM354 28c166 0 262 125 262 270c0 148 -96 273 -262 273c-165 0 -262 -125 -262 -273c0 -145 97 -270 262 -270z" />
    <glyph glyph-name="Oacute" unicode="&#xd3;" horiz-adv-x="709" 
d="M450 786l-81 -148h-26v10l51 148h56v-10zM354 -14c-186 0 -306 136 -306 312c0 179 120 315 306 315s307 -136 307 -315c0 -176 -121 -312 -307 -312zM354 28c166 0 262 125 262 270c0 148 -96 273 -262 273c-165 0 -262 -125 -262 -273c0 -145 97 -270 262 -270z" />
    <glyph glyph-name="Ocircumflex" unicode="&#xd4;" horiz-adv-x="709" 
d="M467 638l-112 117l-113 -117h-27v10l114 148h51l114 -148v-10h-27zM354 -14c-186 0 -306 136 -306 312c0 179 120 315 306 315s307 -136 307 -315c0 -176 -121 -312 -307 -312zM354 28c166 0 262 125 262 270c0 148 -96 273 -262 273c-165 0 -262 -125 -262 -273
c0 -145 97 -270 262 -270z" />
    <glyph glyph-name="Otilde" unicode="&#xd5;" horiz-adv-x="709" 
d="M354 -14c-186 0 -306 136 -306 312c0 179 120 315 306 315s307 -136 307 -315c0 -176 -121 -312 -307 -312zM354 28c166 0 262 125 262 270c0 148 -96 273 -262 273c-165 0 -262 -125 -262 -273c0 -145 97 -270 262 -270zM421 669c-53 0 -91 51 -130 51
c-30 0 -38 -19 -43 -39l-3 -12l-32 4l4 19c6 32 24 64 70 64c52 0 89 -52 131 -52c30 0 40 19 43 39l2 12l32 -3l-3 -19c-6 -32 -24 -64 -71 -64z" />
    <glyph glyph-name="Odieresis" unicode="&#xd6;" horiz-adv-x="709" 
d="M231 704c0 19 16 35 35 35s35 -16 35 -35s-16 -35 -35 -35s-35 16 -35 35zM408 704c0 19 16 35 34 35c19 0 35 -16 35 -35s-16 -35 -35 -35c-18 0 -34 16 -34 35zM354 -14c-186 0 -306 136 -306 312c0 179 120 315 306 315s307 -136 307 -315c0 -176 -121 -312 -307 -312
zM354 28c166 0 262 125 262 270c0 148 -96 273 -262 273c-165 0 -262 -125 -262 -273c0 -145 97 -270 262 -270z" />
    <glyph glyph-name="multiply" unicode="&#xd7;" horiz-adv-x="518" 
d="M95 113l-27 26l164 164l-164 165l27 26l164 -164l164 164l27 -26l-165 -165l165 -164l-27 -26l-164 164z" />
    <glyph glyph-name="Oslash" unicode="&#xd8;" horiz-adv-x="707" 
d="M354 -14c-87 0 -160 30 -213 80l-62 -61l-28 27l64 62c-43 54 -67 125 -67 204c0 179 120 315 306 315c86 0 158 -29 211 -78l55 54l28 -27l-57 -56c45 -55 70 -127 70 -208c0 -176 -121 -312 -307 -312zM354 28c166 0 262 125 262 270c0 67 -20 129 -57 177l-386 -379
c44 -42 105 -68 181 -68zM92 298c0 -65 19 -125 55 -172l386 378c-44 41 -104 67 -179 67c-165 0 -262 -125 -262 -273z" />
    <glyph glyph-name="Ugrave" unicode="&#xd9;" horiz-adv-x="656" 
d="M328 -13c-156 0 -244 104 -244 261v352h44v-352c0 -131 67 -220 200 -220s200 89 200 220v352h44v-352c0 -157 -87 -261 -244 -261zM315 638l-80 148v10h56l51 -148v-10h-27z" />
    <glyph glyph-name="Uacute" unicode="&#xda;" horiz-adv-x="656" 
d="M423 786l-81 -148h-26v10l51 148h56v-10zM328 -13c-156 0 -244 104 -244 261v352h44v-352c0 -131 67 -220 200 -220s200 89 200 220v352h44v-352c0 -157 -87 -261 -244 -261z" />
    <glyph glyph-name="Ucircumflex" unicode="&#xdb;" horiz-adv-x="656" 
d="M442 638l-112 117l-113 -117h-27v10l114 148h51l114 -148v-10h-27zM328 -13c-156 0 -244 104 -244 261v352h44v-352c0 -131 67 -220 200 -220s200 89 200 220v352h44v-352c0 -157 -87 -261 -244 -261z" />
    <glyph glyph-name="Udieresis" unicode="&#xdc;" horiz-adv-x="656" 
d="M207 706c0 19 16 35 35 35s35 -16 35 -35s-16 -35 -35 -35s-35 16 -35 35zM384 706c0 19 16 35 34 35c19 0 35 -16 35 -35s-16 -35 -35 -35c-18 0 -34 16 -34 35zM328 -13c-156 0 -244 104 -244 261v352h44v-352c0 -131 67 -220 200 -220s200 89 200 220v352h44v-352
c0 -157 -87 -261 -244 -261z" />
    <glyph glyph-name="Yacute" unicode="&#xdd;" horiz-adv-x="535" 
d="M288 302l187 298h51l-236 -369v-231h-45v231l-235 369h52l188 -298l15 -29h7zM362 786l-81 -148h-26v10l51 148h56v-10z" />
    <glyph glyph-name="Thorn" unicode="&#xde;" horiz-adv-x="594" 
d="M137 600v-101h189c148 0 235 -67 235 -197c0 -134 -89 -203 -237 -203h-187v-99h-44v600h44zM516 301c0 108 -76 156 -191 156h-188v-317h188c115 0 191 48 191 161z" />
    <glyph glyph-name="germandbls" unicode="&#xdf;" horiz-adv-x="454" 
d="M205 167l125 144h-221v-311h-43v469c0 107 44 162 143 162c37 0 65 -16 65 -16l-14 -37s-23 13 -49 13c-67 0 -102 -35 -102 -120v-124h294v-10l-139 -160c86 -3 155 -46 155 -138c0 -88 -65 -144 -161 -144c-71 0 -111 20 -111 20l11 33s40 -17 100 -17
c66 0 115 45 115 109c0 67 -52 105 -124 105h-44v22z" />
    <glyph glyph-name="agrave" unicode="&#xe0;" horiz-adv-x="422" 
d="M32 103c0 57 48 104 151 104c79 0 119 -28 132 -40h5v30c0 71 -34 120 -128 120c-69 0 -109 -29 -109 -29l-16 34s43 32 133 32c118 0 162 -71 162 -162v-192h-30l-6 49h-3c-6 -9 -45 -57 -144 -57c-101 0 -147 51 -147 111zM75 103c0 -43 34 -77 112 -77
c75 0 132 44 132 78c0 41 -61 72 -132 72c-76 0 -112 -31 -112 -73zM193 419l-80 148v10h56l51 -148v-10h-27z" />
    <glyph glyph-name="aacute" unicode="&#xe1;" horiz-adv-x="422" 
d="M32 103c0 57 48 104 151 104c79 0 119 -28 132 -40h5v30c0 71 -34 120 -128 120c-69 0 -109 -29 -109 -29l-16 34s43 32 133 32c118 0 162 -71 162 -162v-192h-30l-6 49h-3c-6 -9 -45 -57 -144 -57c-101 0 -147 51 -147 111zM75 103c0 -43 34 -77 112 -77
c75 0 132 44 132 78c0 41 -61 72 -132 72c-76 0 -112 -31 -112 -73zM296 567l-81 -148h-26v10l51 148h56v-10z" />
    <glyph glyph-name="acircumflex" unicode="&#xe2;" horiz-adv-x="422" 
d="M32 103c0 57 48 104 151 104c79 0 119 -28 132 -40h5v30c0 71 -34 120 -128 120c-69 0 -109 -29 -109 -29l-16 34s43 32 133 32c118 0 162 -71 162 -162v-192h-30l-6 49h-3c-6 -9 -45 -57 -144 -57c-101 0 -147 51 -147 111zM75 103c0 -43 34 -77 112 -77
c75 0 132 44 132 78c0 41 -61 72 -132 72c-76 0 -112 -31 -112 -73zM313 419l-112 117l-113 -117h-27v10l114 148h51l114 -148v-10h-27z" />
    <glyph glyph-name="atilde" unicode="&#xe3;" horiz-adv-x="422" 
d="M32 103c0 57 48 104 151 104c79 0 119 -28 132 -40h5v30c0 71 -34 120 -128 120c-69 0 -109 -29 -109 -29l-16 34s43 32 133 32c118 0 162 -71 162 -162v-192h-30l-6 49h-3c-6 -9 -45 -57 -144 -57c-101 0 -147 51 -147 111zM75 103c0 -43 34 -77 112 -77
c75 0 132 44 132 78c0 41 -61 72 -132 72c-76 0 -112 -31 -112 -73zM266 449c-53 0 -91 51 -130 51c-30 0 -38 -19 -43 -39l-3 -12l-32 4l4 19c6 32 24 64 70 64c52 0 89 -52 131 -52c30 0 40 19 43 39l2 12l32 -3l-3 -19c-6 -32 -24 -64 -71 -64z" />
    <glyph glyph-name="adieresis" unicode="&#xe4;" horiz-adv-x="422" 
d="M32 103c0 57 48 104 151 104c79 0 119 -28 132 -40h5v30c0 71 -34 120 -128 120c-69 0 -109 -29 -109 -29l-16 34s43 32 133 32c118 0 162 -71 162 -162v-192h-30l-6 49h-3c-6 -9 -45 -57 -144 -57c-101 0 -147 51 -147 111zM75 103c0 -43 34 -77 112 -77
c75 0 132 44 132 78c0 41 -61 72 -132 72c-76 0 -112 -31 -112 -73zM77 483c0 19 16 35 35 35s35 -16 35 -35s-16 -35 -35 -35s-35 16 -35 35zM254 483c0 19 16 35 34 35c19 0 35 -16 35 -35s-16 -35 -35 -35c-18 0 -34 16 -34 35z" />
    <glyph glyph-name="aring" unicode="&#xe5;" horiz-adv-x="422" 
d="M32 103c0 57 48 104 151 104c79 0 119 -28 132 -40h5v30c0 71 -34 120 -128 120c-69 0 -109 -29 -109 -29l-16 34s43 32 133 32c118 0 162 -71 162 -162v-192h-30l-6 49h-3c-6 -9 -45 -57 -144 -57c-101 0 -147 51 -147 111zM75 103c0 -43 34 -77 112 -77
c75 0 132 44 132 78c0 41 -61 72 -132 72c-76 0 -112 -31 -112 -73zM202 436c-49 0 -86 36 -86 85s37 85 86 85c50 0 87 -36 87 -85s-37 -85 -87 -85zM257 521c0 33 -21 55 -55 55c-33 0 -54 -22 -54 -55s21 -54 54 -54c34 0 55 21 55 54z" />
    <glyph glyph-name="ae" unicode="&#xe6;" horiz-adv-x="701" 
d="M627 60l16 -31s-47 -37 -130 -37c-70 0 -130 30 -163 82c-26 -46 -81 -82 -169 -82c-103 0 -149 52 -149 111c0 58 49 104 146 104c88 0 128 -31 138 -40h3v28c0 72 -33 123 -127 123c-69 0 -111 -28 -111 -28l-15 33s49 31 134 31c80 0 126 -33 147 -83
c30 52 84 83 150 83c109 0 169 -68 169 -170v-13h-300c0 -93 69 -143 148 -143c71 0 113 32 113 32zM73 103c0 -44 34 -76 114 -76c73 0 132 39 132 76c0 42 -65 72 -132 72c-80 0 -114 -31 -114 -72zM497 318c-65 0 -118 -41 -129 -115h255c-4 62 -46 115 -126 115z" />
    <glyph glyph-name="ccedilla" unicode="&#xe7;" horiz-adv-x="366" 
d="M190 -56l-11 14l19 36c-91 10 -159 78 -159 177c0 110 81 183 185 183c73 0 114 -31 114 -31l-14 -33s-38 27 -97 27c-76 0 -144 -56 -144 -146c0 -89 68 -142 144 -142c59 0 97 27 97 27l13 -33s-39 -30 -110 -31l-11 -22c39 0 70 -18 70 -62c0 -40 -28 -68 -78 -68
c-45 0 -66 25 -66 25l12 23s21 -21 54 -21c30 0 49 15 49 41c0 24 -17 37 -48 37c-12 0 -19 -1 -19 -1z" />
    <glyph glyph-name="egrave" unicode="&#xe8;" horiz-adv-x="417" 
d="M343 61l16 -31s-46 -38 -129 -38c-110 0 -190 71 -190 179c0 112 74 183 174 183c108 0 169 -70 169 -170v-14h-300c1 -92 69 -142 147 -142c72 0 113 33 113 33zM213 318c-64 0 -116 -40 -128 -114h255c-5 63 -49 114 -127 114zM200 419l-80 148v10h56l51 -148v-10h-27z
" />
    <glyph glyph-name="eacute" unicode="&#xe9;" horiz-adv-x="417" 
d="M312 567l-81 -148h-26v10l51 148h56v-10zM343 61l16 -31s-46 -38 -129 -38c-110 0 -190 71 -190 179c0 112 74 183 174 183c108 0 169 -70 169 -170v-14h-300c1 -92 69 -142 147 -142c72 0 113 33 113 33zM213 318c-64 0 -116 -40 -128 -114h255c-5 63 -49 114 -127 114z
" />
    <glyph glyph-name="ecircumflex" unicode="&#xea;" horiz-adv-x="417" 
d="M331 419l-112 117l-113 -117h-27v10l114 148h51l114 -148v-10h-27zM343 61l16 -31s-46 -38 -129 -38c-110 0 -190 71 -190 179c0 112 74 183 174 183c108 0 169 -70 169 -170v-14h-300c1 -92 69 -142 147 -142c72 0 113 33 113 33zM213 318c-64 0 -116 -40 -128 -114h255
c-5 63 -49 114 -127 114z" />
    <glyph glyph-name="edieresis" unicode="&#xeb;" horiz-adv-x="417" 
d="M94 483c0 19 16 35 35 35s35 -16 35 -35s-16 -35 -35 -35s-35 16 -35 35zM271 483c0 19 16 35 34 35c19 0 35 -16 35 -35s-16 -35 -35 -35c-18 0 -34 16 -34 35zM343 61l16 -31s-46 -38 -129 -38c-110 0 -190 71 -190 179c0 112 74 183 174 183c108 0 169 -70 169 -170
v-14h-300c1 -92 69 -142 147 -142c72 0 113 33 113 33zM213 318c-64 0 -116 -40 -128 -114h255c-5 63 -49 114 -127 114z" />
    <glyph glyph-name="igrave" unicode="&#xec;" horiz-adv-x="180" 
d="M69 0v346h43v-346h-43zM76 419l-80 148v10h56l51 -148v-10h-27z" />
    <glyph glyph-name="iacute" unicode="&#xed;" horiz-adv-x="180" 
d="M185 567l-81 -148h-26v10l51 148h56v-10zM69 0v346h43v-346h-43z" />
    <glyph glyph-name="icircumflex" unicode="&#xee;" horiz-adv-x="180" 
d="M204 419l-112 117l-113 -117h-27v10l114 148h51l114 -148v-10h-27zM69 0v346h43v-346h-43z" />
    <glyph glyph-name="idieresis" unicode="&#xef;" horiz-adv-x="180" 
d="M-32 483c0 19 16 35 35 35s35 -16 35 -35s-16 -35 -35 -35s-35 16 -35 35zM145 483c0 19 16 35 34 35c19 0 35 -16 35 -35s-16 -35 -35 -35c-18 0 -34 16 -34 35zM69 0v346h43v-346h-43z" />
    <glyph glyph-name="eth" unicode="&#xf0;" horiz-adv-x="476" 
d="M116 400l-16 28l120 69l-63 95v8h41l56 -84l105 61l16 -28l-103 -59l111 -165c35 -53 53 -97 53 -154c0 -110 -81 -182 -198 -182s-199 72 -199 182c0 101 77 180 201 180c52 0 87 -19 92 -22l-94 141zM238 26c87 0 154 60 154 145c0 94 -75 143 -152 143
c-92 0 -157 -62 -157 -143c0 -85 67 -145 155 -145z" />
    <glyph glyph-name="ntilde" unicode="&#xf1;" horiz-adv-x="453" 
d="M66 0v346h30l6 -61h3c11 17 46 69 135 69c98 0 154 -66 154 -160v-194h-44v189c0 73 -39 128 -118 128c-86 0 -122 -65 -123 -107v-210h-43zM295 449c-53 0 -91 51 -130 51c-30 0 -38 -19 -43 -39l-3 -12l-32 4l4 19c6 32 24 64 70 64c52 0 89 -52 131 -52
c30 0 40 19 43 39l2 12l32 -3l-3 -19c-6 -32 -24 -64 -71 -64z" />
    <glyph glyph-name="ograve" unicode="&#xf2;" horiz-adv-x="447" 
d="M408 171c0 -111 -83 -179 -184 -179c-102 0 -185 68 -185 179s83 183 185 183c101 0 184 -72 184 -183zM224 28c75 0 141 54 141 143c0 90 -66 147 -141 147s-142 -57 -142 -147c0 -89 67 -143 142 -143zM211 419l-80 148v10h56l51 -148v-10h-27z" />
    <glyph glyph-name="oacute" unicode="&#xf3;" horiz-adv-x="447" 
d="M319 567l-81 -148h-26v10l51 148h56v-10zM408 171c0 -111 -83 -179 -184 -179c-102 0 -185 68 -185 179s83 183 185 183c101 0 184 -72 184 -183zM224 28c75 0 141 54 141 143c0 90 -66 147 -141 147s-142 -57 -142 -147c0 -89 67 -143 142 -143z" />
    <glyph glyph-name="ocircumflex" unicode="&#xf4;" horiz-adv-x="447" 
d="M336 419l-112 117l-113 -117h-27v10l114 148h51l114 -148v-10h-27zM408 171c0 -111 -83 -179 -184 -179c-102 0 -185 68 -185 179s83 183 185 183c101 0 184 -72 184 -183zM224 28c75 0 141 54 141 143c0 90 -66 147 -141 147s-142 -57 -142 -147c0 -89 67 -143 142 -143
z" />
    <glyph glyph-name="otilde" unicode="&#xf5;" horiz-adv-x="447" 
d="M408 171c0 -111 -83 -179 -184 -179c-102 0 -185 68 -185 179s83 183 185 183c101 0 184 -72 184 -183zM224 28c75 0 141 54 141 143c0 90 -66 147 -141 147s-142 -57 -142 -147c0 -89 67 -143 142 -143zM291 449c-53 0 -91 51 -130 51c-30 0 -38 -19 -43 -39l-3 -12
l-32 4l4 19c6 32 24 64 70 64c52 0 89 -52 131 -52c30 0 40 19 43 39l2 12l32 -3l-3 -19c-6 -32 -24 -64 -71 -64z" />
    <glyph glyph-name="odieresis" unicode="&#xf6;" horiz-adv-x="447" 
d="M101 483c0 19 16 35 35 35s35 -16 35 -35s-16 -35 -35 -35s-35 16 -35 35zM278 483c0 19 16 35 34 35c19 0 35 -16 35 -35s-16 -35 -35 -35c-18 0 -34 16 -34 35zM408 171c0 -111 -83 -179 -184 -179c-102 0 -185 68 -185 179s83 183 185 183c101 0 184 -72 184 -183z
M224 28c75 0 141 54 141 143c0 90 -66 147 -141 147s-142 -57 -142 -147c0 -89 67 -143 142 -143z" />
    <glyph glyph-name="divide" unicode="&#xf7;" horiz-adv-x="514" 
d="M219 162c0 21 17 38 38 38s38 -17 38 -38s-17 -37 -38 -37s-38 16 -38 37zM219 436c0 21 17 38 38 38s38 -17 38 -38s-17 -37 -38 -37s-38 16 -38 37zM69 277v38h377v-38h-377z" />
    <glyph glyph-name="oslash" unicode="&#xf8;" horiz-adv-x="447" 
d="M409 171c0 -111 -83 -179 -184 -179c-48 0 -91 15 -124 42l-40 -41l-20 20l40 40c-26 30 -41 70 -41 118c0 111 83 183 185 183c44 0 85 -14 117 -39l41 42l20 -20l-41 -41c29 -31 47 -74 47 -125zM225 28c75 0 141 54 141 143c0 39 -13 72 -33 96l-204 -204
c26 -23 60 -35 96 -35zM83 171c0 -36 11 -66 28 -89l203 204c-24 21 -56 32 -89 32c-75 0 -142 -57 -142 -147z" />
    <glyph glyph-name="ugrave" unicode="&#xf9;" horiz-adv-x="449" 
d="M384 346v-346h-29l-8 61h-2c-8 -13 -44 -69 -136 -69c-98 0 -149 66 -149 160v194h43v-189c0 -73 35 -128 114 -128c86 0 124 66 124 108v209h43zM210 419l-80 148v10h56l51 -148v-10h-27z" />
    <glyph glyph-name="uacute" unicode="&#xfa;" horiz-adv-x="449" 
d="M323 567l-81 -148h-26v10l51 148h56v-10zM384 346v-346h-29l-8 61h-2c-8 -13 -44 -69 -136 -69c-98 0 -149 66 -149 160v194h43v-189c0 -73 35 -128 114 -128c86 0 124 66 124 108v209h43z" />
    <glyph glyph-name="ucircumflex" unicode="&#xfb;" horiz-adv-x="449" 
d="M333 419l-112 117l-113 -117h-27v10l114 148h51l114 -148v-10h-27zM384 346v-346h-29l-8 61h-2c-8 -13 -44 -69 -136 -69c-98 0 -149 66 -149 160v194h43v-189c0 -73 35 -128 114 -128c86 0 124 66 124 108v209h43z" />
    <glyph glyph-name="udieresis" unicode="&#xfc;" horiz-adv-x="449" 
d="M100 483c0 19 16 35 35 35s35 -16 35 -35s-16 -35 -35 -35s-35 16 -35 35zM277 483c0 19 16 35 34 35c19 0 35 -16 35 -35s-16 -35 -35 -35c-18 0 -34 16 -34 35zM384 346v-346h-29l-8 61h-2c-8 -13 -44 -69 -136 -69c-98 0 -149 66 -149 160v194h43v-189
c0 -73 35 -128 114 -128c86 0 124 66 124 108v209h43z" />
    <glyph glyph-name="yacute" unicode="&#xfd;" horiz-adv-x="403" 
d="M387 346l-259 -538h-46l100 205l-164 333h48l131 -273c3 -7 6 -17 6 -22h3c0 5 3 15 6 22l130 273h45zM303 567l-81 -148h-26v10l51 148h56v-10z" />
    <glyph glyph-name="thorn" unicode="&#xfe;" horiz-adv-x="469" 
d="M110 77h-2v-269h-43v792h43v-330h2s32 84 144 84c98 0 175 -72 175 -181c0 -108 -78 -181 -175 -181c-112 0 -144 85 -144 85zM106 173c0 -91 66 -144 142 -144c77 0 137 59 137 144s-60 144 -137 144c-76 0 -142 -53 -142 -144z" />
    <glyph glyph-name="ydieresis" unicode="&#xff;" horiz-adv-x="403" 
d="M387 346l-259 -538h-46l100 205l-164 333h48l131 -273c3 -7 6 -17 6 -22h3c0 5 3 15 6 22l130 273h45zM84 483c0 19 16 35 35 35s35 -16 35 -35s-16 -35 -35 -35s-35 16 -35 35zM261 483c0 19 16 35 34 35c19 0 35 -16 35 -35s-16 -35 -35 -35c-18 0 -34 16 -34 35z" />
    <glyph glyph-name="NUL" horiz-adv-x="0" 
 />
    <glyph glyph-name="NUL" horiz-adv-x="0" 
 />
    <glyph glyph-name="CR" unicode="&#xd;" horiz-adv-x="52" 
 />
    <glyph glyph-name="f_f" unicode="&#xfb00;" horiz-adv-x="642" 
d="M287 310h-144v-310h-43v310h-87v36h87v159c0 110 48 161 137 161c40 0 67 -17 68 -17l-13 -37s-25 14 -51 14c-66 0 -98 -36 -98 -121v-159h144v-36zM628 310h-144v-310h-43v310h-87v36h87v159c0 110 48 161 137 161c40 0 67 -17 68 -17l-13 -37s-25 14 -51 14
c-66 0 -98 -36 -98 -121v-159h144v-36z" />
    <glyph glyph-name="f_f_i" unicode="&#xfb03;" horiz-adv-x="853" 
d="M762 497c-18 0 -32 13 -32 31s14 32 32 32s32 -14 32 -32s-14 -31 -32 -31zM741 0v346h43v-346h-43zM288 310h-144v-310h-43v310h-87v36h87v159c0 110 48 161 137 161c40 0 67 -17 68 -17l-13 -37s-25 14 -51 14c-66 0 -98 -36 -98 -121v-159h144v-36zM628 310h-144v-310
h-43v310h-87v36h87v159c0 110 48 161 137 161c40 0 67 -17 68 -17l-13 -37s-25 14 -51 14c-66 0 -98 -36 -98 -121v-159h144v-36z" />
    <glyph glyph-name="f_f_l" unicode="&#xfb04;" horiz-adv-x="841" 
d="M729 0v668h43v-668h-43zM288 310h-144v-310h-43v310h-87v36h87v159c0 110 48 161 137 161c40 0 67 -17 68 -17l-13 -37s-25 14 -51 14c-66 0 -98 -36 -98 -121v-159h144v-36zM628 310h-144v-310h-43v310h-87v36h87v159c0 110 48 161 137 161c40 0 67 -17 68 -17l-13 -37
s-25 14 -51 14c-66 0 -98 -36 -98 -121v-159h144v-36z" />
    <glyph glyph-name="three.alt" horiz-adv-x="517" 
d="M177 323h83c79 0 135 42 135 112c0 80 -66 137 -158 137c-94 0 -163 -78 -163 -78l-23 32s72 87 190 87c121 0 202 -70 202 -173c0 -64 -34 -110 -88 -134c63 -19 108 -68 108 -143c0 -105 -82 -176 -207 -176s-205 84 -205 84l24 33s73 -76 180 -76c94 0 161 56 161 136
c0 76 -58 119 -141 119h-98v40z" />
    <glyph glyph-name="published" horiz-adv-x="725" 
d="M362 602c195 0 312 -137 312 -303s-117 -303 -312 -303c-193 0 -311 137 -311 303s118 303 311 303zM362 572c-173 0 -278 -122 -278 -273c0 -150 105 -273 278 -273c174 0 280 123 280 273c0 151 -106 273 -280 273zM256 151v298h132c78 0 123 -39 123 -109
c0 -73 -45 -113 -124 -113h-96v-76h-35zM474 340c0 53 -35 78 -89 78h-94v-160h94c54 0 89 22 89 82z" />
    <glyph glyph-name="registered.alt" horiz-adv-x="725" 
d="M362 602c195 0 312 -137 312 -303s-117 -303 -312 -303c-193 0 -311 137 -311 303s118 303 311 303zM362 572c-173 0 -278 -122 -278 -273c0 -150 105 -273 278 -273c174 0 280 123 280 273c0 151 -106 273 -280 273zM377 449c78 0 123 -38 123 -105
c0 -52 -27 -86 -74 -99v-3l61 -84v-7h-36l-63 88h-108v-88h-35v298h132zM464 344c0 50 -36 74 -90 74h-94v-148h94c54 0 90 21 90 74z" />
    <glyph glyph-name="servicemark" unicode="&#x2120;" horiz-adv-x="754" 
d="M404 281h-35v319h14l140 -132l141 132h14v-319h-35v256l-114 -106h-13l-112 106v-256zM70 311l19 26s34 -31 93 -31c60 0 84 22 84 55c0 35 -43 49 -93 66c-57 19 -104 40 -104 93c0 52 46 83 116 83c76 0 107 -29 107 -29l-19 -27s-26 26 -88 26c-45 0 -81 -18 -81 -51
s36 -47 80 -61c63 -20 119 -41 119 -99c0 -48 -36 -86 -121 -86c-73 0 -112 35 -112 35z" />
    <glyph glyph-name="baht" horiz-adv-x="634" 
d="M586 162c0 -115 -95 -162 -220 -162h-76l-18 -102h-38l18 102h-153v600h257l17 96h39l-17 -99c102 -10 169 -59 169 -158c0 -69 -38 -112 -95 -132v-6c68 -19 117 -64 117 -139zM378 283h-38l-43 -244h71c95 0 172 35 172 125c0 82 -72 116 -162 119zM143 561v-243h164
l42 243h-206zM143 283v-244h116l42 244h-158zM518 435c0 80 -56 115 -130 124l-42 -241h5c102 0 167 33 167 117z" />
    <glyph glyph-name="colonmonetary" unicode="&#x20a1;" horiz-adv-x="606" 
d="M534 100l25 -34s-67 -80 -205 -80h-6l-15 -88h-39l16 91c-25 3 -49 9 -71 17l-19 -108h-39l22 124c-99 51 -160 154 -160 276c0 163 106 290 263 311l15 87h39l-15 -84c3 0 6 1 9 1c23 0 45 -2 64 -6l16 89h39l-18 -99c70 -23 104 -63 104 -63l-25 -33s-31 33 -86 53
l-92 -526c115 1 178 72 178 72zM88 298c0 -95 46 -182 123 -230l87 497c-127 -25 -210 -137 -210 -267zM246 49c22 -9 46 -15 71 -19l94 535c-18 4 -36 6 -57 6c-6 0 -11 0 -16 -1z" />
    <glyph glyph-name="naira" unicode="&#x20a6;" horiz-adv-x="740" 
d="M627 600v-131h44v-37h-44v-260h44v-37h-44v-135h-15l-121 135h-330v-135h-44v135h-64v37h64v260h-64v37h64v131h15l117 -131h334v131h44zM283 432l233 -260h67v260h-300zM161 432v-260h297l-233 260h-64zM550 135l33 -37v37h-33zM161 504v-35h31z" />
    <glyph glyph-name="peso" horiz-adv-x="684" 
d="M115 0v381h-73v36h73v183h233c142 0 229 -63 235 -183h68v-36h-69c-10 -120 -97 -181 -236 -181h-187v-200h-44zM159 559v-142h379c-7 98 -82 142 -191 142h-188zM347 241c107 0 182 42 191 140h-379v-140h188z" />
    <glyph glyph-name="R_p" horiz-adv-x="1034" 
d="M677 67h-2v-259h-43v538h30l7 -71h4s34 79 147 79c97 0 175 -72 175 -181c0 -108 -78 -181 -174 -181c-113 0 -144 75 -144 75zM672 173c0 -91 66 -144 142 -144c77 0 137 59 137 144s-60 144 -137 144c-76 0 -142 -53 -142 -144zM93 0v600h232c149 0 236 -67 236 -197
c0 -105 -62 -167 -155 -187v-3l167 -201v-12h-47l-174 209h-215v-209h-44zM516 402c0 109 -76 157 -191 157h-188v-309h200c102 0 179 46 179 152z" />
    <glyph glyph-name="rupee" unicode="&#x20a8;" horiz-adv-x="973" 
d="M629 29l19 31s52 -32 128 -32s112 26 112 62c0 92 -255 44 -255 169c0 56 47 95 144 95c91 0 139 -27 139 -27l-17 -36s-42 27 -118 27c-67 0 -106 -17 -106 -59c0 -88 255 -34 255 -168c0 -54 -43 -99 -152 -99c-101 0 -149 37 -149 37zM100 0v600h232
c149 0 236 -67 236 -197c0 -105 -62 -167 -155 -187v-3l167 -201v-12h-47l-174 209h-215v-209h-44zM523 402c0 109 -76 157 -191 157h-188v-309h200c102 0 179 46 179 152z" />
    <glyph glyph-name="won" unicode="&#x20a9;" horiz-adv-x="937" 
d="M878 180v-36h-182l-49 -144h-36l-41 144h-203l-41 -144h-34l-50 144h-184v36h171l-85 247h-86v37h73l-47 136h47l46 -136h238l39 136h33l38 -136h236l46 136h47l-47 -136h71v-37h-84l-85 -247h169zM189 427l84 -247h62l70 247h-216zM535 427l69 -247h61l83 247h-213z
M447 427l-70 -247h183l-69 247h-44zM316 110l9 34h-40l12 -34l8 -32h4zM634 78l8 32l11 34h-39l10 -34l6 -32h4zM465 488l-7 -24h22l-6 24l-3 17h-3z" />
    <glyph glyph-name="sheqel" unicode="&#x20aa;" horiz-adv-x="520" 
d="M432 346v-346h-104c-83 0 -110 41 -127 119l-18 84h30l18 -73c14 -56 29 -92 94 -92h73v308h34zM88 0v346h129c80 0 119 -46 119 -121v-82h-29l-2 73c0 58 -28 92 -90 92h-94v-308h-33z" />
    <glyph glyph-name="onehalf.alt" horiz-adv-x="777" 
d="M479 15v-15h261v31h-195l124 106c32 28 52 59 52 98c0 55 -33 100 -120 100c-71 0 -116 -42 -116 -42l18 -26c1 1 40 35 96 35c62 0 87 -30 87 -70c0 -29 -18 -55 -43 -77zM134 11l-26 20l469 564l26 -20zM53 569v31h111v-295h73v-31h-184v31h76v264h-76z" />
    <glyph glyph-name="onethird" unicode="&#x2153;" horiz-adv-x="722" 
d="M433 294v31h231v-12l-85 -121c64 -4 100 -40 100 -96c0 -57 -43 -105 -130 -105c-76 0 -127 46 -127 46l21 25s42 -38 105 -38c64 0 97 31 97 72c0 42 -31 67 -85 67h-33v13l84 118h-178zM79 11l-26 20l469 564l26 -20zM42 569v31h111v-326h-35v295h-76z" />
    <glyph glyph-name="onethird.alt" horiz-adv-x="787" 
d="M498 294v31h230v-12l-85 -121c64 -4 101 -39 101 -96s-43 -105 -130 -105c-76 0 -126 45 -127 46l20 25s43 -38 106 -38c64 0 96 31 96 72c0 42 -31 67 -84 67h-33v13l84 118h-178zM134 11l-26 20l469 564l26 -20zM53 569v31h111v-295h73v-31h-184v31h76v264h-76z" />
    <glyph glyph-name="twothirds" unicode="&#x2154;" horiz-adv-x="847" 
d="M558 295v31h230v-12l-85 -122c64 -4 101 -38 101 -96c0 -57 -44 -104 -130 -104c-76 0 -125 44 -127 46l20 25s43 -38 106 -38c64 0 96 31 96 72c0 42 -30 67 -84 67h-33v13l84 118h-178zM48 275v15l163 140c26 22 44 49 44 77c0 40 -25 70 -87 70c-56 0 -95 -34 -96 -34
l-18 26s45 41 116 41c86 0 120 -45 120 -100c0 -39 -20 -70 -53 -98l-124 -106h196v-31h-261zM209 10l-26 20l469 564l26 -20z" />
    <glyph glyph-name="onequarter.alt" horiz-adv-x="695" 
d="M392 95v21l186 210h26v-201h54v-30h-54v-95h-33v95h-179zM135 11l-25 20l469 564l25 -20zM53 569v31h111v-295h73v-31h-184v31h76v264h-76zM438 123v-1l57 3h76v147h-2l-93 -107c-17 -20 -38 -42 -38 -42z" />
    <glyph glyph-name="onefifth" horiz-adv-x="725" 
d="M454 326h206v-31h-177l-3 -112c17 4 40 9 78 9c80 0 124 -38 124 -99c0 -57 -43 -101 -130 -101c-76 0 -125 44 -126 46l19 24s41 -37 106 -37c64 0 97 27 97 68c0 42 -33 70 -96 70c-65 0 -91 -15 -91 -15l-13 9zM79 11l-25 20l469 564l25 -20zM42 600h111v-326h-35v295
h-76v31z" />
    <glyph glyph-name="onefifth.alt" horiz-adv-x="813" 
d="M541 326h207v-31h-177l-4 -112c17 5 41 9 79 9c80 0 124 -38 124 -99c0 -57 -43 -101 -130 -101c-76 0 -126 44 -127 46l20 24s40 -37 105 -37s97 27 97 68c0 42 -32 70 -96 70c-65 0 -91 -15 -91 -15l-13 9zM164 11l-26 20l469 564l26 -20zM51 569v31h111v-295h73v-31
h-184v31h77v264h-77z" />
    <glyph glyph-name="twofifths" horiz-adv-x="858" 
d="M586 326h207v-31h-177l-4 -112c16 5 41 9 79 9c80 0 124 -38 124 -99c0 -57 -43 -101 -130 -101c-76 0 -125 44 -127 46l20 24s41 -37 106 -37c64 0 97 27 97 68c0 42 -33 70 -96 70c-66 0 -91 -15 -91 -15l-13 9zM48 275v15l164 140c26 22 43 49 43 77
c0 40 -25 70 -87 70c-56 0 -95 -34 -96 -34l-18 26s45 41 116 41c87 0 120 -45 120 -100c0 -39 -20 -71 -52 -98l-124 -106h195v-31h-261zM217 10l-25 20l469 564l26 -20z" />
    <glyph glyph-name="threefifths" horiz-adv-x="779" 
d="M503 326h207v-31h-177l-3 -112c17 4 40 9 78 9c80 0 124 -38 124 -99c0 -57 -43 -101 -130 -101c-75 0 -125 44 -127 46l20 24s41 -37 106 -37s97 27 97 68c0 42 -32 70 -96 70c-66 0 -91 -15 -91 -15l-13 9zM56 569v31h230v-12l-86 -122c65 -4 101 -38 101 -96
c0 -57 -43 -104 -130 -104c-75 0 -125 44 -127 46l21 25s42 -38 106 -38s96 31 96 72c0 42 -31 67 -85 67h-32v13l84 118h-178zM186 11l-26 20l469 564l26 -20z" />
    <glyph glyph-name="fourfifths" horiz-adv-x="839" 
d="M34 369v21l186 210h25v-201h55v-30h-55v-95h-33v95h-178zM565 326h207v-31h-177l-3 -112c17 4 40 9 78 9c80 0 124 -38 124 -99c0 -57 -43 -101 -130 -101c-76 0 -125 44 -127 46l20 24s41 -37 106 -37c64 0 97 27 97 68c0 42 -33 70 -97 70c-65 0 -90 -15 -90 -15l-13 9
zM198 10l-26 20l469 564l26 -20zM80 397v-1l57 3h75v147h-1l-94 -107c-17 -20 -37 -42 -37 -42z" />
    <glyph glyph-name="onesixth" horiz-adv-x="723" 
d="M552 231c83 0 137 -44 137 -116c0 -75 -54 -123 -137 -123s-137 48 -137 123c0 40 16 79 53 122l77 89h42l-67 -75c-15 -17 -29 -28 -29 -28v-3c18 7 38 11 61 11zM552 200c-62 0 -102 -31 -102 -85c0 -56 40 -92 102 -92c63 0 103 36 103 92c0 53 -40 85 -103 85zM93 11
l-25 20l469 564l26 -20zM43 569v31h110v-326h-34v295h-76z" />
    <glyph glyph-name="onesixth.alt" horiz-adv-x="794" 
d="M623 231c83 0 137 -44 137 -116c0 -75 -54 -123 -137 -123s-137 48 -137 123c0 40 16 79 53 122l77 89h42l-67 -75c-15 -17 -29 -28 -29 -28v-3c18 7 38 11 61 11zM623 200c-62 0 -102 -31 -102 -85c0 -56 40 -92 102 -92c63 0 103 36 103 92c0 53 -40 85 -103 85z
M171 11l-26 20l469 564l26 -20zM52 569v31h111v-295h73v-31h-184v31h77v264h-77z" />
    <glyph glyph-name="fivesixths" horiz-adv-x="808" 
d="M636 231c83 0 137 -44 137 -116c0 -75 -54 -123 -137 -123s-137 48 -137 123c0 40 16 79 53 122l77 89h42l-67 -75c-15 -17 -29 -28 -29 -28v-3c18 7 38 11 61 11zM636 200c-62 0 -102 -31 -102 -85c0 -56 40 -92 102 -92c63 0 103 36 103 92c0 53 -40 85 -103 85z
M70 600h206v-31h-177l-3 -112c17 5 41 9 79 9c79 0 124 -38 124 -99c0 -57 -44 -101 -130 -101c-76 0 -125 44 -127 46l20 24s40 -37 105 -37s97 27 97 68c0 42 -32 70 -96 70c-65 0 -91 -15 -91 -15l-13 9zM185 11l-26 20l469 564l26 -20z" />
    <glyph glyph-name="oneeighth" unicode="&#x215b;" horiz-adv-x="724" 
d="M412 91c0 38 23 68 65 81c-35 15 -53 43 -53 76c0 49 50 87 125 87c76 0 126 -38 126 -87c0 -33 -18 -61 -53 -76c41 -13 64 -43 64 -81c0 -51 -48 -99 -137 -99c-88 0 -137 48 -137 99zM79 11l-25 20l469 564l25 -20zM549 157c-65 0 -102 -25 -102 -64
c0 -37 37 -70 102 -70c66 0 103 33 103 70c0 39 -37 64 -103 64zM549 183c60 0 92 28 92 62c0 33 -36 59 -92 59c-55 0 -91 -26 -91 -59c0 -34 32 -62 91 -62zM42 569v31h111v-326h-34v295h-77z" />
    <glyph glyph-name="oneeighth.alt" horiz-adv-x="815" 
d="M502 91c0 -51 49 -99 137 -99s137 48 137 99c0 38 -23 68 -65 81c35 15 53 43 53 76c0 49 -50 87 -125 87c-76 0 -126 -38 -126 -87c0 -33 18 -61 53 -76c-41 -13 -64 -43 -64 -81zM177 11l-26 20l469 564l26 -20zM639 157c66 0 102 -25 102 -64c0 -37 -36 -70 -102 -70
s-102 33 -102 70c0 39 36 64 102 64zM160 600v-295h73v-31h-183v31h76v264h-76v31h110zM639 183c-60 0 -92 28 -92 62c0 33 36 59 92 59c55 0 92 -26 92 -59c0 -34 -33 -62 -92 -62z" />
    <glyph glyph-name="threeeighths" unicode="&#x215c;" horiz-adv-x="793" 
d="M477 91c0 -51 49 -99 137 -99s137 48 137 99c0 38 -23 68 -65 81c35 15 53 43 53 76c0 49 -50 87 -125 87c-76 0 -126 -38 -126 -87c0 -33 18 -61 53 -76c-42 -13 -64 -43 -64 -81zM56 569v31h230v-12l-86 -122c65 -4 101 -38 101 -96c0 -57 -43 -104 -130 -104
c-75 0 -125 44 -127 46l21 25s42 -38 106 -38s96 31 96 72c0 42 -31 67 -85 67h-32v13l84 118h-178zM188 11l-26 20l469 564l26 -20zM614 157c65 0 102 -25 102 -64c0 -37 -37 -70 -102 -70c-66 0 -102 33 -102 70c0 39 36 64 102 64zM614 183c-60 0 -92 28 -92 62
c0 33 36 59 92 59c55 0 92 -26 92 -59c0 -34 -32 -62 -92 -62z" />
    <glyph glyph-name="fiveeighths" unicode="&#x215d;" horiz-adv-x="785" 
d="M469 91c0 -51 49 -99 137 -99s137 48 137 99c0 38 -23 68 -65 81c35 15 54 43 54 76c0 49 -50 87 -126 87s-126 -38 -126 -87c0 -33 19 -61 54 -76c-42 -13 -65 -43 -65 -81zM68 600h206v-31h-177l-3 -112c17 5 41 9 79 9c79 0 124 -38 124 -99c0 -57 -44 -101 -130 -101
c-76 0 -125 44 -127 46l20 24s40 -37 105 -37s97 27 97 68c0 42 -32 70 -96 70c-65 0 -91 -15 -91 -15l-13 9zM184 11l-25 20l469 564l25 -20zM606 157c66 0 102 -25 102 -64c0 -37 -36 -70 -102 -70s-102 33 -102 70c0 39 36 64 102 64zM606 183c-59 0 -92 28 -92 62
c0 33 37 59 92 59c56 0 92 -26 92 -59c0 -34 -32 -62 -92 -62z" />
    <glyph glyph-name="seveneighths" unicode="&#x215e;" horiz-adv-x="760" 
d="M443 91c0 -51 49 -99 137 -99s137 48 137 99c0 38 -23 68 -65 81c35 15 54 43 54 76c0 49 -50 87 -126 87s-126 -38 -126 -87c0 -33 19 -61 54 -76c-42 -13 -65 -43 -65 -81zM96 11l-25 20l469 564l26 -20zM580 157c66 0 102 -25 102 -64c0 -37 -36 -70 -102 -70
s-102 33 -102 70c0 39 36 64 102 64zM275 600v-11l-135 -315h-37l127 295h-196v31h241zM580 183c-59 0 -92 28 -92 62c0 33 37 59 92 59c56 0 92 -26 92 -59c0 -34 -32 -62 -92 -62z" />
    <glyph glyph-name="three.tab_alt" 
d="M193 323h83c79 0 135 42 135 112c0 80 -66 137 -158 137c-94 0 -163 -78 -163 -78l-23 32s72 87 190 87c121 0 201 -70 201 -173c0 -63 -35 -109 -88 -133c64 -20 109 -68 109 -144c0 -105 -82 -176 -207 -176s-205 84 -205 84l23 33s74 -76 180 -76c94 0 162 56 162 136
c0 76 -58 119 -142 119h-97v40z" />
    <glyph glyph-name="period.tab" horiz-adv-x="275" 
d="M100 29c0 21 16 37 37 37c20 0 37 -16 37 -37s-17 -37 -37 -37c-21 0 -37 16 -37 37z" />
    <glyph glyph-name="comma.tab" horiz-adv-x="275" 
d="M108 28c0 21 15 36 36 36c20 0 38 -15 38 -38c0 -18 -5 -28 -11 -40l-44 -80h-35l38 69c6 10 12 15 12 15v2c-20 1 -34 15 -34 36z" />
    <glyph glyph-name="colon.tab" horiz-adv-x="275" 
d="M100 33c0 21 16 37 37 37s37 -16 37 -37s-16 -37 -37 -37s-37 16 -37 37zM100 519c0 20 16 37 37 37s37 -17 37 -37c0 -21 -16 -37 -37 -37s-37 16 -37 37z" />
    <glyph glyph-name="semicolon.tab" horiz-adv-x="275" 
d="M106 32c0 21 15 36 36 36c20 0 38 -15 38 -38c0 -18 -4 -28 -11 -40l-46 -80h-33l38 69c5 10 12 15 12 15v2c-20 1 -34 16 -34 36zM108 519c0 20 16 37 36 37c21 0 37 -17 37 -37c0 -21 -16 -37 -37 -37c-20 0 -36 16 -36 37z" />
    <glyph glyph-name="twodotleader.tab" 
d="M89 29c0 21 16 37 37 37c20 0 37 -16 37 -37s-17 -37 -37 -37c-21 0 -37 16 -37 37zM385 29c0 21 16 37 37 37c20 0 37 -16 37 -37s-17 -37 -37 -37c-21 0 -37 16 -37 37z" />
    <glyph glyph-name="periodcentered.tab" horiz-adv-x="275" 
d="M99 350c0 21 17 38 37 38c21 0 38 -17 38 -38s-17 -37 -38 -37c-20 0 -37 16 -37 37z" />
    <glyph glyph-name="slash.tab" 
d="M407 703l-221 -879h-45l221 879h45z" />
    <glyph glyph-name="bar.tab" 
d="M295 673v-825h-41v825h41z" />
    <glyph glyph-name="underscore.tab" 
d="M82 -58v38h381v-38h-381z" />
    <glyph glyph-name="dollar.tab" 
d="M68 54l26 34s65 -60 177 -60c118 0 168 49 168 122c0 81 -71 109 -161 137c-106 32 -206 63 -206 167c0 95 77 155 195 159v93h34v-94c121 -5 174 -54 174 -54l-24 -37s-57 51 -172 51c-88 0 -159 -40 -159 -115c0 -78 80 -101 170 -128c105 -32 198 -68 198 -176
c0 -88 -56 -156 -187 -165v-94h-34v93c-131 2 -199 67 -199 67z" />
    <glyph glyph-name="sterling.tab" 
d="M468 45v-39h-380v39s67 25 67 115c0 21 -7 44 -17 69h-66v37h51c-16 39 -31 83 -31 134c0 97 68 205 223 205c115 0 162 -59 162 -59l-24 -32s-42 49 -136 49c-125 0 -177 -87 -177 -165c0 -50 16 -93 32 -132h259v-37h-245c9 -23 15 -46 15 -68c0 -61 -26 -96 -51 -116
h318z" />
    <glyph glyph-name="Euro.tab" 
d="M380 247v-34h-227c21 -101 82 -176 189 -176c90 0 134 60 134 60l27 -31s-49 -71 -161 -71c-138 0 -212 95 -235 218h-66v34h60c-2 17 -2 35 -2 53c0 22 2 50 2 50h-60v35h65c23 124 97 221 236 221c112 0 162 -70 162 -70l-28 -33s-44 60 -134 60
c-108 0 -169 -76 -189 -178h227v-35h-232c-2 -16 -3 -33 -3 -50c0 -18 1 -36 3 -53h232z" />
    <glyph glyph-name="yen.tab" 
d="M291 308l144 292h52l-171 -335h127v-34h-142v-83h142v-34h-142v-114h-44v114h-152v34h152v83h-152v34h136l-177 335h52l152 -292l11 -34z" />
    <glyph glyph-name="cent.tab" 
d="M286 45v77c-96 8 -166 77 -166 179c0 103 70 174 166 182v80h38v-80c58 -6 99 -33 99 -33l-16 -35s-44 32 -99 32c-77 0 -144 -56 -144 -146c0 -89 67 -142 144 -142c55 0 99 30 99 30l16 -34s-41 -27 -99 -32v-78h-38z" />
    <glyph glyph-name="numbersign.tab" 
d="M448 583l-38 -169h95l-7 -32h-96l-41 -184h90l-7 -32h-91l-37 -166h-35l37 166h-140l-37 -166h-35l38 166h-99l6 32h100l42 184h-94l6 32h95l39 169h35l-39 -169h139l39 169h35zM228 382l-42 -184h140l41 184h-139z" />
    <glyph glyph-name="paragraph.tab" 
d="M381 -181v291h-87c-147 0 -235 67 -235 200c0 129 86 194 233 194h133v-685h-44z" />
    <glyph glyph-name="section.tab" 
d="M56 -98l24 34s67 -66 194 -66c122 0 168 57 168 116c0 66 -32 97 -163 145c-115 41 -154 70 -154 128c0 43 23 67 40 78c-66 34 -101 78 -101 141c0 87 69 154 216 154c141 0 204 -62 204 -62l-25 -36s-59 57 -179 57c-115 0 -166 -50 -166 -114c0 -62 47 -103 147 -136
c110 -37 169 -74 169 -136c0 -42 -20 -68 -35 -81c73 -39 97 -77 97 -139c0 -79 -57 -156 -217 -156c-148 0 -219 73 -219 73zM246 305c-14 4 -28 9 -41 14c-10 -3 -36 -17 -36 -58c0 -36 31 -59 121 -92c24 -9 46 -18 66 -27c9 7 30 27 30 61c0 40 -43 70 -140 102z" />
    <glyph glyph-name="degree.tab" horiz-adv-x="275" 
d="M137 672c70 0 116 -48 116 -108s-46 -107 -116 -107s-117 47 -117 107s47 108 117 108zM137 643c-52 0 -86 -36 -86 -79s34 -78 86 -78s85 35 85 78s-33 79 -85 79z" />
    <glyph glyph-name="percent.tab" 
d="M169 613c82 0 127 -61 127 -129c0 -69 -45 -133 -127 -133c-83 0 -127 64 -127 133c0 68 44 129 127 129zM169 576c-57 0 -86 -43 -86 -92c0 -50 29 -96 86 -96s86 46 86 96c0 49 -29 92 -86 92zM58 12l-30 25l463 556l31 -25zM377 255c83 0 127 -61 127 -130
s-44 -133 -127 -133c-82 0 -127 64 -127 133s45 130 127 130zM377 218c-56 0 -86 -43 -86 -93s30 -96 86 -96c57 0 86 46 86 96s-29 93 -86 93z" />
    <glyph glyph-name="quotedbl.tab" horiz-adv-x="367" 
d="M249 662l-38 -199h-26v10l16 199h48v-10zM353 662l-37 -199h-27v10l16 199h48v-10z" />
    <glyph glyph-name="quotesingle.tab" horiz-adv-x="275" 
d="M175 662l-37 -199h-26v10l16 199h47v-10z" />
    <glyph glyph-name="plus.tab" 
d="M295 504v-168h169v-38h-169v-163h-39v163h-170v38h170v168h39z" />
    <glyph glyph-name="minus.tab" 
d="M83 280v37h377v-37h-377z" />
    <glyph glyph-name="divide.tab" 
d="M237 162c0 21 17 38 38 38s38 -17 38 -38s-17 -37 -38 -37s-38 16 -38 37zM237 436c0 21 17 38 38 38s38 -17 38 -38s-17 -37 -38 -37s-38 16 -38 37zM87 277v38h377v-38h-377z" />
    <glyph glyph-name="equal.tab" 
d="M104 368v38h342v-38h-342zM104 177v38h342v-38h-342z" />
    <glyph glyph-name="multiply.tab" 
d="M111 113l-27 26l164 164l-164 165l27 26l164 -164l164 164l27 -26l-165 -165l165 -164l-27 -26l-164 164z" />
    <glyph glyph-name="less.tab" 
d="M373 44l-241 232v23l241 232l27 -28l-224 -216l224 -215z" />
    <glyph glyph-name="greater.tab" 
d="M417 276l-241 -232l-27 28l224 215l-224 216l27 28l241 -232v-23z" />
    <glyph glyph-name="plusminus.tab" 
d="M296 161h-38v183h-193v38h193v185h38v-185h188v-38h-188v-183zM484 86v-38h-419v38h419z" />
    <glyph glyph-name="emspace" unicode="&#x2003;" horiz-adv-x="1000" 
 />
    <glyph glyph-name="enspace" unicode="&#x2002;" horiz-adv-x="500" 
 />
    <glyph glyph-name="threeperemspace" unicode="&#x2004;" horiz-adv-x="333" 
 />
    <glyph glyph-name="fourperemspace" unicode="&#x2005;" horiz-adv-x="250" 
 />
    <glyph glyph-name="thinspace" unicode="&#x2009;" horiz-adv-x="133" 
 />
    <glyph glyph-name="hairspace" unicode="&#x200a;" horiz-adv-x="75" 
 />
    <glyph glyph-name="space.tab" 
 />
    <glyph glyph-name="figurespace" unicode="&#x2007;" horiz-adv-x="600" 
 />
    <glyph glyph-name="latinotype" horiz-adv-x="221" 
 />
    <glyph glyph-name="i.dot" horiz-adv-x="180" 
d="M90 497c-18 0 -32 13 -32 31s14 32 32 32s32 -14 32 -32s-14 -31 -32 -31zM69 0v346h43v-346h-43z" />
    <glyph glyph-name="zero.numr" horiz-adv-x="385" 
d="M192 609c103 0 160 -82 160 -173c0 -88 -57 -170 -160 -170c-102 0 -159 82 -159 170c0 91 57 173 159 173zM192 576c-79 0 -122 -65 -122 -140c0 -72 43 -137 122 -137c80 0 123 65 123 137c0 75 -43 140 -123 140z" />
    <glyph glyph-name="one.numr" horiz-adv-x="188" 
d="M21 569v31h110v-326h-34v295h-76z" />
    <glyph glyph-name="two.numr" horiz-adv-x="318" 
d="M28 274v15l163 140c26 22 43 48 43 77c0 40 -24 70 -86 70c-56 0 -95 -34 -96 -35l-18 26s45 42 115 42c87 0 121 -45 121 -100c0 -39 -20 -70 -53 -98l-124 -106h196v-31h-261z" />
    <glyph glyph-name="three.numr" horiz-adv-x="316" 
d="M40 569v31h230v-12l-85 -122c64 -4 101 -38 101 -96c0 -57 -43 -104 -130 -104c-76 0 -125 44 -127 46l20 25s43 -38 106 -38c64 0 96 31 96 72c0 42 -30 67 -84 67h-33v13l84 118h-178z" />
    <glyph glyph-name="four.numr" horiz-adv-x="311" 
d="M21 369v21l187 210h25v-201h55v-30h-55v-95h-33v95h-179zM67 399v-3l55 3h78v100c0 14 0 33 1 49h-3l-94 -108c-17 -20 -37 -41 -37 -41z" />
    <glyph glyph-name="five.numr" horiz-adv-x="314" 
d="M56 600h207v-31h-177l-4 -112c16 5 41 9 79 9c80 0 124 -38 124 -99c0 -57 -43 -101 -130 -101c-75 0 -125 44 -127 46l20 24s41 -38 106 -38c64 0 97 28 97 69c0 42 -33 70 -96 70c-62 0 -91 -15 -91 -15l-13 9z" />
    <glyph glyph-name="six.numr" horiz-adv-x="331" 
d="M169 505c83 0 137 -44 137 -116c0 -76 -54 -123 -137 -123s-137 47 -137 123c0 40 16 79 53 122l77 89h42l-67 -76c-15 -17 -29 -28 -29 -27v-3c18 7 38 11 61 11zM169 474c-62 0 -102 -32 -102 -86c0 -56 40 -91 102 -91c63 0 102 35 102 91c0 54 -39 86 -102 86z" />
    <glyph glyph-name="seven.numr" horiz-adv-x="280" 
d="M264 600v-11l-135 -315h-37l127 295h-196v31h241z" />
    <glyph glyph-name="eight.numr" horiz-adv-x="340" 
d="M33 365c0 38 23 68 64 81c-34 15 -53 43 -53 76c0 49 50 87 126 87s126 -38 126 -87c0 -33 -19 -61 -54 -76c42 -13 65 -43 65 -81c0 -51 -49 -99 -137 -99s-137 48 -137 99zM170 431c-66 0 -102 -25 -102 -64c0 -37 36 -70 102 -70s102 33 102 70c0 39 -36 64 -102 64z
M170 457c60 0 92 28 92 62c0 33 -36 59 -92 59c-55 0 -92 -26 -92 -59c0 -34 33 -62 92 -62z" />
    <glyph glyph-name="nine.numr" horiz-adv-x="332" 
d="M163 370c-82 0 -137 44 -137 116c0 75 55 123 137 123c83 0 137 -48 137 -123c0 -45 -17 -82 -52 -122l-78 -90h-42l68 76c14 18 29 28 29 28v2c-18 -6 -39 -10 -62 -10zM163 401c62 0 102 31 102 85c0 56 -39 92 -102 92c-62 0 -102 -36 -102 -92c0 -53 40 -85 102 -85z
" />
    <glyph glyph-name="caron.alt" horiz-adv-x="158" 
d="M100 567l-24 -148h-24v158h48v-10z" />
    <glyph glyph-name="acute.cap" horiz-adv-x="247" 
d="M167 776l-81 -148h-26v10l51 148h56v-10z" />
    <glyph glyph-name="hungarumlaut.cap" horiz-adv-x="415" 
d="M165 776l-77 -148h-26v10l51 148h52v-10zM320 776l-77 -148h-27v10l51 148h53v-10z" />
    <glyph glyph-name="grave.cap" horiz-adv-x="254" 
d="M149 616l-80 148v10h56l51 -148v-10h-27z" />
    <glyph glyph-name="circumflex.cap" horiz-adv-x="329" 
d="M281 628l-112 117l-113 -117h-27v10l114 148h51l114 -148v-10h-27z" />
    <glyph glyph-name="caron.cap" horiz-adv-x="341" 
d="M169 669l112 117h27v-10l-114 -148h-51l-114 148v10h27z" />
    <glyph glyph-name="breve.cap" horiz-adv-x="356" 
d="M269 798h36c0 -88 -55 -144 -132 -144c-78 0 -133 56 -133 144h36c0 -67 38 -108 97 -108c57 -1 96 41 96 108z" />
    <glyph glyph-name="tilde.cap" horiz-adv-x="430" 
d="M276 616c-53 0 -91 51 -130 51c-30 0 -38 -19 -43 -39l-3 -12l-32 4l4 19c6 32 24 64 70 64c52 0 89 -52 131 -52c30 0 40 19 43 39l2 12l32 -3l-3 -19c-6 -32 -24 -64 -71 -64z" />
    <glyph glyph-name="macron.cap" horiz-adv-x="439" 
d="M93 636v31h257v-31h-257z" />
    <glyph glyph-name="dieresis.cap" horiz-adv-x="403" 
d="M75 694c0 19 16 35 35 35s35 -16 35 -35s-16 -35 -35 -35s-35 16 -35 35zM252 694c0 19 16 35 34 35c19 0 35 -16 35 -35s-16 -35 -35 -35c-18 0 -34 16 -34 35z" />
    <glyph glyph-name="dotaccent.cap" horiz-adv-x="317" 
d="M113 671c0 26 19 45 44 45s44 -19 44 -45c0 -24 -19 -43 -44 -43s-44 19 -44 43z" />
    <glyph glyph-name="ring.cap" horiz-adv-x="287" 
d="M143 629c-49 0 -86 36 -86 85s37 85 86 85c50 0 87 -36 87 -85s-37 -85 -87 -85zM198 714c0 33 -21 55 -55 55c-33 0 -54 -22 -54 -55s21 -54 54 -54c34 0 55 21 55 54z" />
    <glyph glyph-name="Amacron" unicode="&#x100;" horiz-adv-x="605" 
d="M8 0l288 600h12l289 -600h-50l-61 124h-368l-61 -124h-49zM459 179l-154 331h-7l-153 -331l-7 -13h327zM174 647v31h257v-31h-257z" />
    <glyph glyph-name="Abreve" unicode="&#x102;" horiz-adv-x="605" 
d="M8 0l288 600h12l289 -600h-50l-61 124h-368l-61 -124h-49zM459 179l-154 331h-7l-153 -331l-7 -13h327zM399 809h36c0 -88 -55 -144 -132 -144c-78 0 -133 56 -133 144h36c0 -67 38 -108 97 -108c57 -1 96 41 96 108z" />
    <glyph glyph-name="Aogonek" unicode="&#x104;" horiz-adv-x="605" 
d="M594 -93l16 -21s-20 -21 -56 -21c-42 0 -67 24 -67 63c0 43 30 68 55 81l-56 115h-368l-61 -124h-49l288 600h12l289 -600h-13s-66 -21 -66 -68c0 -24 13 -38 39 -38c22 0 37 13 37 13zM459 179l-154 331h-7l-153 -331l-7 -13h327z" />
    <glyph glyph-name="AEacute" unicode="&#x1fc;" horiz-adv-x="902" 
d="M697 786l-81 -148h-26v10l51 148h56v-10zM-8 0l438 600h432v-41h-384v-242h337v-41h-337v-235h384v-41h-428v124h-301l-89 -124h-52zM427 526l-264 -360h271v360h-7z" />
    <glyph glyph-name="Aringacute" unicode="&#x1fa;" horiz-adv-x="605" 
d="M8 0l278 580c-40 7 -69 40 -69 84c0 49 37 85 86 85c50 0 87 -36 87 -85c0 -44 -30 -78 -73 -84l280 -580h-50l-61 124h-368l-61 -124h-49zM459 179l-154 331h-7l-153 -331l-7 -13h327zM358 664c0 33 -21 55 -55 55c-33 0 -54 -22 -54 -55s21 -54 54 -54
c34 0 55 21 55 54zM398 913l-81 -148h-26v10l51 148h56v-10z" />
    <glyph glyph-name="Cacute" unicode="&#x106;" horiz-adv-x="595" 
d="M452 814l-81 -148h-26v10l51 148h56v-10zM538 100l25 -34s-67 -80 -205 -80c-182 0 -311 136 -311 312c0 179 129 315 311 315c138 0 205 -79 205 -79l-25 -33s-63 70 -180 70c-158 0 -266 -125 -266 -273c0 -145 108 -270 266 -270c117 0 180 72 180 72z" />
    <glyph glyph-name="Ccircumflex" unicode="&#x108;" horiz-adv-x="595" 
d="M471 638l-112 117l-113 -117h-27v10l114 148h51l114 -148v-10h-27zM538 100l25 -34s-67 -80 -205 -80c-182 0 -311 136 -311 312c0 179 129 315 311 315c138 0 205 -79 205 -79l-25 -33s-63 70 -180 70c-158 0 -266 -125 -266 -273c0 -145 108 -270 266 -270
c117 0 180 72 180 72z" />
    <glyph glyph-name="Ccaron" unicode="&#x10c;" horiz-adv-x="595" 
d="M344 694l112 117h27v-10l-114 -148h-51l-114 148v10h27zM538 100l25 -34s-67 -80 -205 -80c-182 0 -311 136 -311 312c0 179 129 315 311 315c138 0 205 -79 205 -79l-25 -33s-63 70 -180 70c-158 0 -266 -125 -266 -273c0 -145 108 -270 266 -270c117 0 180 72 180 72z
" />
    <glyph glyph-name="Cdotaccent" unicode="&#x10a;" horiz-adv-x="595" 
d="M538 100l25 -34s-67 -80 -205 -80c-182 0 -311 136 -311 312c0 179 129 315 311 315c138 0 205 -79 205 -79l-25 -33s-63 70 -180 70c-158 0 -266 -125 -266 -273c0 -145 108 -270 266 -270c117 0 180 72 180 72zM307 761c0 26 19 45 44 45s44 -19 44 -45
c0 -24 -19 -43 -44 -43s-44 19 -44 43z" />
    <glyph glyph-name="Dcaron" unicode="&#x10e;" horiz-adv-x="657" 
d="M308 694l112 117h27v-10l-114 -148h-51l-114 148v10h27zM608 300c0 -188 -135 -300 -321 -300h-194v600h194c186 0 321 -112 321 -300zM285 559h-148v-518h148c157 0 278 97 278 259s-122 259 -278 259z" />
    <glyph glyph-name="Dcroat" unicode="&#x110;" horiz-adv-x="665" 
d="M23 281v37h78v282h194c186 0 321 -112 321 -300s-135 -300 -321 -300h-194v281h-78zM293 559h-148v-241h144v-37h-144v-240h148c157 0 278 97 278 259s-122 259 -278 259z" />
    <glyph glyph-name="Ecaron" unicode="&#x11a;" horiz-adv-x="561" 
d="M316 691l112 117h27v-10l-114 -148h-51l-114 148v10h27zM474 317v-41h-337v-235h383v-41h-427v600h427v-41h-383v-242h337z" />
    <glyph glyph-name="Emacron" unicode="&#x112;" horiz-adv-x="561" 
d="M474 317v-41h-337v-235h383v-41h-427v600h427v-41h-383v-242h337zM176 690v31h257v-31h-257z" />
    <glyph glyph-name="Ebreve" unicode="&#x114;" horiz-adv-x="561" 
d="M474 317v-41h-337v-235h383v-41h-427v600h427v-41h-383v-242h337zM415 809h36c0 -88 -55 -144 -132 -144c-78 0 -133 56 -133 144h36c0 -67 38 -108 97 -108c57 -1 96 41 96 108z" />
    <glyph glyph-name="Edotaccent" unicode="&#x116;" horiz-adv-x="561" 
d="M474 317v-41h-337v-235h383v-41h-427v600h427v-41h-383v-242h337zM279 746c0 26 19 45 44 45s44 -19 44 -45c0 -24 -19 -43 -44 -43s-44 19 -44 43z" />
    <glyph glyph-name="Eogonek" unicode="&#x118;" horiz-adv-x="561" 
d="M474 317v-41h-337v-235h383v-41h-30s-66 -21 -66 -68c0 -24 13 -38 39 -38c22 0 37 13 37 13l16 -21s-20 -21 -56 -21c-42 0 -67 24 -67 63c0 35 20 58 41 72h-341v600h427v-41h-383v-242h337z" />
    <glyph glyph-name="Gcircumflex" unicode="&#x11c;" horiz-adv-x="669" 
d="M470 637l-112 117l-113 -117h-27v10l114 148h51l114 -148v-10h-27zM587 267v9h-249v41h293v-32c0 -185 -105 -299 -275 -299c-188 0 -308 136 -308 312c0 179 122 315 310 315c150 0 221 -80 221 -80l-26 -33s-67 71 -195 71c-168 0 -266 -125 -266 -273
c0 -145 96 -270 264 -270c138 0 231 91 231 239z" />
    <glyph glyph-name="Gbreve" unicode="&#x11e;" horiz-adv-x="669" 
d="M587 267v9h-249v41h293v-32c0 -185 -105 -299 -275 -299c-188 0 -308 136 -308 312c0 179 122 315 310 315c150 0 221 -80 221 -80l-26 -33s-67 71 -195 71c-168 0 -266 -125 -266 -273c0 -145 96 -270 264 -270c138 0 231 91 231 239zM455 809h36
c0 -88 -55 -144 -132 -144c-78 0 -133 56 -133 144h36c0 -67 38 -108 97 -108c57 -1 96 41 96 108z" />
    <glyph glyph-name="Gdotaccent" unicode="&#x120;" horiz-adv-x="669" 
d="M587 267v9h-249v41h293v-32c0 -185 -105 -299 -275 -299c-188 0 -308 136 -308 312c0 179 122 315 310 315c150 0 221 -80 221 -80l-26 -33s-67 71 -195 71c-168 0 -266 -125 -266 -273c0 -145 96 -270 264 -270c138 0 231 91 231 239zM313 746c0 26 19 45 44 45
s44 -19 44 -45c0 -24 -19 -43 -44 -43s-44 19 -44 43z" />
    <glyph glyph-name="Gcommaaccent" unicode="&#x122;" horiz-adv-x="669" 
d="M315 -72c0 20 15 36 38 36s40 -16 40 -41c0 -12 -4 -25 -11 -37l-27 -47h-35l21 36c5 9 11 14 11 14v3c-23 0 -37 16 -37 36zM587 267v9h-249v41h293v-32c0 -185 -105 -299 -275 -299c-188 0 -308 136 -308 312c0 179 122 315 310 315c150 0 221 -80 221 -80l-26 -33
s-67 71 -195 71c-168 0 -266 -125 -266 -273c0 -145 96 -270 264 -270c138 0 231 91 231 239z" />
    <glyph glyph-name="commaaccent" unicode="&#xf6c3;" horiz-adv-x="214" 
d="M71 -72c0 20 15 36 38 36s40 -16 40 -41c0 -12 -4 -25 -11 -37l-27 -47h-35l21 36c5 9 11 14 11 14v3c-23 0 -37 16 -37 36z" />
    <glyph glyph-name="Hcircumflex" unicode="&#x124;" horiz-adv-x="667" 
d="M448 638l-112 117l-113 -117h-27v10l114 148h51l114 -148v-10h-27zM575 600v-600h-44v276h-394v-276h-44v600h44v-283h394v283h44z" />
    <glyph glyph-name="Hbar" unicode="&#x126;" horiz-adv-x="676" 
d="M580 600v-103h34v-37h-34v-460h-44v276h-394v-276h-44v460h-40v37h40v103h44v-103h394v103h44zM142 317h394v143h-394v-143z" />
    <glyph glyph-name="Ibreve" unicode="&#x12c;" horiz-adv-x="230" 
d="M137 600v-600h-44v600h44zM213 809h36c0 -88 -55 -144 -132 -144c-78 0 -133 56 -133 144h36c0 -67 38 -108 97 -108c57 -1 96 41 96 108z" />
    <glyph glyph-name="Itilde" unicode="&#x128;" horiz-adv-x="230" 
d="M137 600v-600h-44v600h44zM183 670c-53 0 -91 51 -130 51c-30 0 -38 -19 -43 -39l-3 -12l-32 4l4 19c6 32 24 64 70 64c52 0 89 -52 131 -52c30 0 40 19 43 39l2 12l32 -3l-3 -19c-6 -32 -24 -64 -71 -64z" />
    <glyph glyph-name="Imacron" unicode="&#x12a;" horiz-adv-x="230" 
d="M137 600v-600h-44v600h44zM-13 678v31h257v-31h-257z" />
    <glyph glyph-name="Idotaccent" unicode="&#x130;" horiz-adv-x="230" 
d="M137 600v-600h-44v600h44zM72 745c0 26 19 45 44 45s44 -19 44 -45c0 -24 -19 -43 -44 -43s-44 19 -44 43z" />
    <glyph glyph-name="Iogonek" unicode="&#x12e;" horiz-adv-x="230" 
d="M147 -93l16 -21s-20 -21 -56 -21c-42 0 -67 24 -67 63c0 42 28 66 53 79v593h44v-600s-66 -21 -66 -68c0 -24 13 -38 39 -38c22 0 37 13 37 13z" />
    <glyph glyph-name="Jcircumflex" unicode="&#x134;" horiz-adv-x="441" 
d="M448 637l-112 117l-113 -117h-27v10l114 148h51l114 -148v-10h-27zM26 30l22 35s44 -36 114 -36c92 0 149 47 149 165v406h44v-414c0 -140 -75 -199 -190 -199c-88 0 -137 41 -139 43z" />
    <glyph glyph-name="Kcommaaccent" unicode="&#x136;" horiz-adv-x="579" 
d="M264 -72c0 20 15 36 38 36s40 -16 40 -41c0 -12 -4 -25 -11 -37l-27 -47h-35l21 36c5 9 11 14 11 14v3c-23 0 -37 16 -37 36zM137 600v-358l368 358h51v-9l-245 -239l245 -343v-9h-48l-229 321l-142 -139v-182h-44v600h44z" />
    <glyph glyph-name="Lacute" unicode="&#x139;" horiz-adv-x="515" 
d="M209 786l-81 -148h-26v10l51 148h56v-10zM503 0h-410v600h44v-559h366v-41z" />
    <glyph glyph-name="Lcaron" unicode="&#x13d;" horiz-adv-x="515" 
d="M343 564c0 20 15 36 38 36s40 -16 40 -41c0 -12 -4 -25 -11 -37l-27 -47h-35l21 36c5 9 11 14 11 14v3c-23 0 -37 16 -37 36zM503 0h-410v600h44v-559h366v-41z" />
    <glyph glyph-name="Lcommaaccent" unicode="&#x13b;" horiz-adv-x="515" 
d="M254 -72c0 20 15 36 38 36s40 -16 40 -41c0 -12 -4 -25 -11 -37l-27 -47h-35l21 36c5 9 11 14 11 14v3c-23 0 -37 16 -37 36zM503 0h-410v600h44v-559h366v-41z" />
    <glyph glyph-name="Ldot" unicode="&#x13f;" horiz-adv-x="515" 
d="M503 0h-410v600h44v-559h366v-41zM345 355c0 26 19 45 44 45s44 -19 44 -45c0 -24 -19 -43 -44 -43s-44 19 -44 43z" />
    <glyph glyph-name="Nacute" unicode="&#x143;" horiz-adv-x="695" 
d="M444 786l-81 -148h-26v10l51 148h56v-10zM603 600v-600h-15l-451 504v-504h-44v600h15l451 -502v502h44z" />
    <glyph glyph-name="Ncaron" unicode="&#x147;" horiz-adv-x="695" 
d="M345 679l112 117h27v-10l-114 -148h-51l-114 148v10h27zM603 600v-600h-15l-451 504v-504h-44v600h15l451 -502v502h44z" />
    <glyph glyph-name="Ncommaaccent" unicode="&#x145;" horiz-adv-x="695" 
d="M312 -72c0 20 15 36 38 36s40 -16 40 -41c0 -12 -4 -25 -11 -37l-27 -47h-35l21 36c5 9 11 14 11 14v3c-23 0 -37 16 -37 36zM603 600v-600h-15l-451 504v-504h-44v600h15l451 -502v502h44z" />
    <glyph glyph-name="Omacron" unicode="&#x14c;" horiz-adv-x="709" 
d="M226 667v31h257v-31h-257zM354 -14c-186 0 -306 136 -306 312c0 179 120 315 306 315s307 -136 307 -315c0 -176 -121 -312 -307 -312zM354 28c166 0 262 125 262 270c0 148 -96 273 -262 273c-165 0 -262 -125 -262 -273c0 -145 97 -270 262 -270z" />
    <glyph glyph-name="Obreve" unicode="&#x14e;" horiz-adv-x="709" 
d="M354 -14c-186 0 -306 136 -306 312c0 179 120 315 306 315s307 -136 307 -315c0 -176 -121 -312 -307 -312zM354 28c166 0 262 125 262 270c0 148 -96 273 -262 273c-165 0 -262 -125 -262 -273c0 -145 97 -270 262 -270zM450 810h36c0 -88 -55 -144 -132 -144
c-78 0 -133 56 -133 144h36c0 -67 38 -108 97 -108c57 -1 96 41 96 108z" />
    <glyph glyph-name="Ohungarumlaut" unicode="&#x150;" horiz-adv-x="709" 
d="M379 785l-77 -148h-26v10l51 148h52v-10zM534 785l-77 -148h-27v10l51 148h53v-10zM354 -14c-186 0 -306 136 -306 312c0 179 120 315 306 315s307 -136 307 -315c0 -176 -121 -312 -307 -312zM354 28c166 0 262 125 262 270c0 148 -96 273 -262 273
c-165 0 -262 -125 -262 -273c0 -145 97 -270 262 -270z" />
    <glyph glyph-name="Oslashacute" unicode="&#x1fe;" horiz-adv-x="707" 
d="M354 -14c-87 0 -160 30 -213 80l-62 -61l-28 27l64 62c-43 54 -67 125 -67 204c0 179 120 315 306 315c86 0 158 -29 211 -78l55 54l28 -27l-57 -56c45 -55 70 -127 70 -208c0 -176 -121 -312 -307 -312zM354 28c166 0 262 125 262 270c0 67 -20 129 -57 177l-386 -379
c44 -42 105 -68 181 -68zM92 298c0 -65 19 -125 55 -172l386 378c-44 41 -104 67 -179 67c-165 0 -262 -125 -262 -273zM447 786l-81 -148h-26v10l51 148h56v-10z" />
    <glyph glyph-name="Racute" unicode="&#x154;" horiz-adv-x="620" 
d="M403 786l-81 -148h-26v10l51 148h56v-10zM93 0v600h232c149 0 236 -67 236 -197c0 -105 -62 -167 -155 -187v-3l167 -201v-12h-47l-174 209h-215v-209h-44zM516 402c0 109 -76 157 -191 157h-188v-309h200c102 0 179 46 179 152z" />
    <glyph glyph-name="Rcaron" unicode="&#x158;" horiz-adv-x="620" 
d="M302 687l112 117h27v-10l-114 -148h-51l-114 148v10h27zM93 0v600h232c149 0 236 -67 236 -197c0 -105 -62 -167 -155 -187v-3l167 -201v-12h-47l-174 209h-215v-209h-44zM516 402c0 109 -76 157 -191 157h-188v-309h200c102 0 179 46 179 152z" />
    <glyph glyph-name="Rcommaaccent" unicode="&#x156;" horiz-adv-x="620" 
d="M275 -72c0 20 15 36 38 36s40 -16 40 -41c0 -12 -4 -25 -11 -37l-27 -47h-35l21 36c5 9 11 14 11 14v3c-23 0 -37 16 -37 36zM93 0v600h232c149 0 236 -67 236 -197c0 -105 -62 -167 -155 -187v-3l167 -201v-12h-47l-174 209h-215v-209h-44zM516 402
c0 109 -76 157 -191 157h-188v-309h200c102 0 179 46 179 152z" />
    <glyph glyph-name="Sacute" unicode="&#x15a;" horiz-adv-x="528" 
d="M362 786l-81 -148h-26v10l51 148h56v-10zM48 54l25 34s65 -60 186 -60c125 0 180 49 180 122c0 76 -67 106 -180 138c-123 36 -209 71 -209 168c0 100 87 157 215 157c144 0 205 -55 205 -55l-24 -37s-60 50 -181 50c-93 0 -170 -39 -170 -114c0 -69 67 -95 179 -127
c130 -36 210 -79 210 -180c0 -93 -67 -163 -225 -163c-141 0 -211 67 -211 67z" />
    <glyph glyph-name="Scircumflex" unicode="&#x15c;" horiz-adv-x="528" 
d="M378 646l-112 117l-113 -117h-27v10l114 148h51l114 -148v-10h-27zM48 54l25 34s65 -60 186 -60c125 0 180 49 180 122c0 76 -67 106 -180 138c-123 36 -209 71 -209 168c0 100 87 157 215 157c144 0 205 -55 205 -55l-24 -37s-60 50 -181 50c-93 0 -170 -39 -170 -114
c0 -69 67 -95 179 -127c130 -36 210 -79 210 -180c0 -93 -67 -163 -225 -163c-141 0 -211 67 -211 67z" />
    <glyph glyph-name="Scedilla" unicode="&#x15e;" horiz-adv-x="528" 
d="M242 -56l-11 14l15 29c-132 4 -198 67 -198 67l25 34s65 -60 186 -60c125 0 180 49 180 122c0 76 -67 106 -180 138c-123 36 -209 71 -209 168c0 100 87 157 215 157c144 0 205 -55 205 -55l-24 -37s-60 50 -181 50c-93 0 -170 -39 -170 -114c0 -69 67 -95 179 -127
c130 -36 210 -79 210 -180c0 -90 -62 -157 -207 -162l-9 -18c39 0 70 -18 70 -62c0 -40 -28 -68 -78 -68c-45 0 -66 25 -66 25l12 23s21 -21 54 -21c30 0 49 15 49 41c0 24 -17 37 -48 37c-12 0 -19 -1 -19 -1z" />
    <glyph glyph-name="Scommaaccent" unicode="&#x218;" horiz-adv-x="528" 
d="M222 -72c0 20 15 36 38 36s40 -16 40 -41c0 -12 -4 -25 -11 -37l-27 -47h-35l21 36c5 9 11 14 11 14v3c-23 0 -37 16 -37 36zM48 54l25 34s65 -60 186 -60c125 0 180 49 180 122c0 76 -67 106 -180 138c-123 36 -209 71 -209 168c0 100 87 157 215 157
c144 0 205 -55 205 -55l-24 -37s-60 50 -181 50c-93 0 -170 -39 -170 -114c0 -69 67 -95 179 -127c130 -36 210 -79 210 -180c0 -93 -67 -163 -225 -163c-141 0 -211 67 -211 67z" />
    <glyph glyph-name="Tcaron" unicode="&#x164;" horiz-adv-x="515" 
d="M258 687l112 117h27v-10l-114 -148h-51l-114 148v10h27zM17 559v41h480v-41h-218v-559h-44v559h-218z" />
    <glyph glyph-name="Tcommaaccent" unicode="&#x162;" horiz-adv-x="515" 
d="M218 -72c0 20 15 36 38 36s40 -16 40 -41c0 -12 -4 -25 -11 -37l-27 -47h-35l21 36c5 9 11 14 11 14v3c-23 0 -37 16 -37 36zM17 559v41h480v-41h-218v-559h-44v559h-218z" />
    <glyph glyph-name="uni021A" unicode="&#x21a;" horiz-adv-x="515" 
d="M218 -72c0 20 15 36 38 36s40 -16 40 -41c0 -12 -4 -25 -11 -37l-27 -47h-35l21 36c5 9 11 14 11 14v3c-23 0 -37 16 -37 36zM17 559v41h480v-41h-218v-559h-44v559h-218z" />
    <glyph glyph-name="Tbar" unicode="&#x166;" horiz-adv-x="522" 
d="M21 559v41h480v-41h-218v-234h116v-36h-116v-289h-44v289h-112v36h112v234h-218z" />
    <glyph glyph-name="Utilde" unicode="&#x168;" horiz-adv-x="656" 
d="M328 -13c-156 0 -244 104 -244 261v352h44v-352c0 -131 67 -220 200 -220s200 89 200 220v352h44v-352c0 -157 -87 -261 -244 -261zM395 700c-53 0 -91 51 -130 51c-30 0 -38 -19 -43 -39l-3 -12l-32 4l4 19c6 32 24 64 70 64c52 0 89 -52 131 -52c30 0 40 19 43 39l2 12
l32 -3l-3 -19c-6 -32 -24 -64 -71 -64z" />
    <glyph glyph-name="Umacron" unicode="&#x16a;" horiz-adv-x="656" 
d="M328 -13c-156 0 -244 104 -244 261v352h44v-352c0 -131 67 -220 200 -220s200 89 200 220v352h44v-352c0 -157 -87 -261 -244 -261zM200 677v31h257v-31h-257z" />
    <glyph glyph-name="Ubreve" unicode="&#x16c;" horiz-adv-x="656" 
d="M328 -13c-156 0 -244 104 -244 261v352h44v-352c0 -131 67 -220 200 -220s200 89 200 220v352h44v-352c0 -157 -87 -261 -244 -261zM424 810h36c0 -88 -55 -144 -132 -144c-78 0 -133 56 -133 144h36c0 -67 38 -108 97 -108c57 -1 96 41 96 108z" />
    <glyph glyph-name="Uring" unicode="&#x16e;" horiz-adv-x="656" 
d="M328 644c-49 0 -86 36 -86 85s37 85 86 85c50 0 87 -36 87 -85s-37 -85 -87 -85zM383 729c0 33 -21 55 -55 55c-33 0 -54 -22 -54 -55s21 -54 54 -54c34 0 55 21 55 54zM328 -13c-156 0 -244 104 -244 261v352h44v-352c0 -131 67 -220 200 -220s200 89 200 220v352h44
v-352c0 -157 -87 -261 -244 -261z" />
    <glyph glyph-name="Uhungarumlaut" unicode="&#x170;" horiz-adv-x="656" 
d="M328 -13c-156 0 -244 104 -244 261v352h44v-352c0 -131 67 -220 200 -220s200 89 200 220v352h44v-352c0 -157 -87 -261 -244 -261zM338 786l-77 -148h-26v10l51 148h52v-10zM493 786l-77 -148h-27v10l51 148h53v-10z" />
    <glyph glyph-name="Uogonek" unicode="&#x172;" horiz-adv-x="656" 
d="M368 -101l16 -21s-20 -21 -56 -21c-42 0 -67 24 -67 63c0 32 17 54 36 69c-137 12 -213 112 -213 259v352h44v-352c0 -131 67 -220 200 -220s200 89 200 220v352h44v-352c0 -151 -81 -252 -226 -260c-18 -8 -54 -28 -54 -64c0 -24 13 -38 39 -38c22 0 37 13 37 13z" />
    <glyph glyph-name="Wacute" unicode="&#x1e82;" horiz-adv-x="806" 
d="M498 786l-81 -148h-26v10l51 148h56v-10zM249 110l138 490h33l137 -490l6 -32h4l8 32l165 490h47l-207 -600h-36l-137 488l-3 17h-3l-3 -17l-139 -488h-34l-208 600h47l166 -490l8 -32h4z" />
    <glyph glyph-name="Wcircumflex" unicode="&#x174;" horiz-adv-x="806" 
d="M516 646l-112 117l-113 -117h-27v10l114 148h51l114 -148v-10h-27zM249 110l138 490h33l137 -490l6 -32h4l8 32l165 490h47l-207 -600h-36l-137 488l-3 17h-3l-3 -17l-139 -488h-34l-208 600h47l166 -490l8 -32h4z" />
    <glyph glyph-name="Wdieresis" unicode="&#x1e84;" horiz-adv-x="806" 
d="M279 713c0 19 16 35 35 35s35 -16 35 -35s-16 -35 -35 -35s-35 16 -35 35zM456 713c0 19 16 35 34 35c19 0 35 -16 35 -35s-16 -35 -35 -35c-18 0 -34 16 -34 35zM249 110l138 490h33l137 -490l6 -32h4l8 32l165 490h47l-207 -600h-36l-137 488l-3 17h-3l-3 -17
l-139 -488h-34l-208 600h47l166 -490l8 -32h4z" />
    <glyph glyph-name="Wgrave" unicode="&#x1e80;" horiz-adv-x="806" 
d="M389 638l-80 148v10h56l51 -148v-10h-27zM249 110l138 490h33l137 -490l6 -32h4l8 32l165 490h47l-207 -600h-36l-137 488l-3 17h-3l-3 -17l-139 -488h-34l-208 600h47l166 -490l8 -32h4z" />
    <glyph glyph-name="Ycircumflex" unicode="&#x176;" horiz-adv-x="535" 
d="M381 638l-112 117l-113 -117h-27v10l114 148h51l114 -148v-10h-27zM288 302l187 298h51l-236 -369v-231h-45v231l-235 369h52l188 -298l15 -29h7z" />
    <glyph glyph-name="Ygrave" unicode="&#x1ef2;" horiz-adv-x="535" 
d="M288 302l187 298h51l-236 -369v-231h-45v231l-235 369h52l188 -298l15 -29h7zM250 639l-80 148v10h56l51 -148v-10h-27z" />
    <glyph glyph-name="Zacute" unicode="&#x179;" horiz-adv-x="532" 
d="M348 786l-81 -148h-26v10l51 148h56v-10zM31 0v12l401 547h-393v41h467v-12l-399 -547h387v-41h-463z" />
    <glyph glyph-name="Zdotaccent" unicode="&#x17b;" horiz-adv-x="532" 
d="M31 0v12l401 547h-393v41h467v-12l-399 -547h387v-41h-463zM217 745c0 26 19 45 44 45s44 -19 44 -45c0 -24 -19 -43 -44 -43s-44 19 -44 43z" />
    <glyph glyph-name="amacron" unicode="&#x101;" horiz-adv-x="422" 
d="M32 103c0 57 48 104 151 104c79 0 119 -28 132 -40h5v30c0 71 -34 120 -128 120c-69 0 -109 -29 -109 -29l-16 34s43 32 133 32c118 0 162 -71 162 -162v-192h-30l-6 49h-3c-6 -9 -45 -57 -144 -57c-101 0 -147 51 -147 111zM75 103c0 -43 34 -77 112 -77
c75 0 132 44 132 78c0 41 -61 72 -132 72c-76 0 -112 -31 -112 -73zM82 446v31h257v-31h-257z" />
    <glyph glyph-name="abreve" unicode="&#x103;" horiz-adv-x="422" 
d="M32 103c0 57 48 104 151 104c79 0 119 -28 132 -40h5v30c0 71 -34 120 -128 120c-69 0 -109 -29 -109 -29l-16 34s43 32 133 32c118 0 162 -71 162 -162v-192h-30l-6 49h-3c-6 -9 -45 -57 -144 -57c-101 0 -147 51 -147 111zM75 103c0 -43 34 -77 112 -77
c75 0 132 44 132 78c0 41 -61 72 -132 72c-76 0 -112 -31 -112 -73zM305 584h36c0 -88 -55 -144 -132 -144c-78 0 -133 56 -133 144h36c0 -67 38 -108 97 -108c57 -1 96 41 96 108z" />
    <glyph glyph-name="aogonek" unicode="&#x105;" horiz-adv-x="423" 
d="M372 -93l16 -21s-20 -21 -56 -21c-42 0 -67 24 -67 63c0 49 39 74 65 85l-4 36h-3c-6 -9 -45 -57 -144 -57c-101 0 -147 51 -147 111c0 57 48 104 151 104c79 0 119 -28 132 -40h5v30c0 71 -34 120 -128 120c-69 0 -109 -29 -109 -29l-16 34s43 32 133 32
c118 0 162 -71 162 -162v-192s-66 -21 -66 -68c0 -24 13 -38 39 -38c22 0 37 13 37 13zM75 103c0 -43 34 -77 112 -77c75 0 132 44 132 78c0 41 -61 72 -132 72c-76 0 -112 -31 -112 -73z" />
    <glyph glyph-name="aeacute" unicode="&#x1fd;" horiz-adv-x="701" 
d="M458 567l-81 -148h-26v10l51 148h56v-10zM627 60l16 -31s-47 -37 -130 -37c-70 0 -130 30 -163 82c-26 -46 -81 -82 -169 -82c-103 0 -149 52 -149 111c0 58 49 104 146 104c88 0 128 -31 138 -40h3v28c0 72 -33 123 -127 123c-69 0 -111 -28 -111 -28l-15 33
s49 31 134 31c80 0 126 -33 147 -83c30 52 84 83 150 83c109 0 169 -68 169 -170v-13h-300c0 -93 69 -143 148 -143c71 0 113 32 113 32zM73 103c0 -44 34 -76 114 -76c73 0 132 39 132 76c0 42 -65 72 -132 72c-80 0 -114 -31 -114 -72zM497 318c-65 0 -118 -41 -129 -115
h255c-4 62 -46 115 -126 115z" />
    <glyph glyph-name="cacute" unicode="&#x107;" horiz-adv-x="366" 
d="M296 567l-81 -148h-26v10l51 148h56v-10zM224 -8c-104 0 -185 71 -185 179c0 110 81 183 185 183c73 0 114 -31 114 -31l-14 -33s-38 27 -97 27c-76 0 -144 -56 -144 -146c0 -89 68 -142 144 -142c59 0 97 27 97 27l13 -33s-40 -31 -113 -31z" />
    <glyph glyph-name="aringacute" unicode="&#x1fb;" horiz-adv-x="422" 
d="M32 103c0 57 48 104 151 104c79 0 119 -28 132 -40h5v30c0 71 -34 120 -128 120c-69 0 -109 -29 -109 -29l-16 34s43 32 133 32c118 0 162 -71 162 -162v-192h-30l-6 49h-3c-6 -9 -45 -57 -144 -57c-101 0 -147 51 -147 111zM75 103c0 -43 34 -77 112 -77
c75 0 132 44 132 78c0 41 -61 72 -132 72c-76 0 -112 -31 -112 -73zM295 791l-81 -148h-26v10l51 148h56v-10zM204 432c-49 0 -86 36 -86 85s37 85 86 85c50 0 87 -36 87 -85s-37 -85 -87 -85zM259 517c0 33 -21 55 -55 55c-33 0 -54 -22 -54 -55s21 -54 54 -54
c34 0 55 21 55 54z" />
    <glyph glyph-name="ccircumflex" unicode="&#x109;" horiz-adv-x="366" 
d="M338 419l-112 117l-113 -117h-27v10l114 148h51l114 -148v-10h-27zM224 -8c-104 0 -185 71 -185 179c0 110 81 183 185 183c73 0 114 -31 114 -31l-14 -33s-38 27 -97 27c-76 0 -144 -56 -144 -146c0 -89 68 -142 144 -142c59 0 97 27 97 27l13 -33s-40 -31 -113 -31z
" />
    <glyph glyph-name="ccaron" unicode="&#x10d;" horiz-adv-x="366" 
d="M219 460l112 117h27v-10l-114 -148h-51l-114 148v10h27zM224 -8c-104 0 -185 71 -185 179c0 110 81 183 185 183c73 0 114 -31 114 -31l-14 -33s-38 27 -97 27c-76 0 -144 -56 -144 -146c0 -89 68 -142 144 -142c59 0 97 27 97 27l13 -33s-40 -31 -113 -31z" />
    <glyph glyph-name="cdotaccent" unicode="&#x10b;" horiz-adv-x="366" 
d="M224 -8c-104 0 -185 71 -185 179c0 110 81 183 185 183c73 0 114 -31 114 -31l-14 -33s-38 27 -97 27c-76 0 -144 -56 -144 -146c0 -89 68 -142 144 -142c59 0 97 27 97 27l13 -33s-40 -31 -113 -31zM176 521c0 26 19 45 44 45s44 -19 44 -45c0 -24 -19 -43 -44 -43
s-44 19 -44 43z" />
    <glyph glyph-name="dcaron" unicode="&#x10f;" horiz-adv-x="469" 
d="M457 634c0 20 15 36 38 36s40 -16 40 -41c0 -12 -4 -25 -11 -37l-27 -47h-35l21 36c5 9 11 14 11 14v3c-23 0 -37 16 -37 36zM358 279h2v389h43v-668h-31l-7 72h-2s-34 -80 -148 -80c-98 0 -176 72 -176 181c0 108 78 181 175 181c112 0 144 -75 144 -75zM362 173
c0 91 -66 144 -141 144c-77 0 -138 -59 -138 -144s61 -144 138 -144c75 0 141 53 141 144z" />
    <glyph glyph-name="dcroat" unicode="&#x111;" horiz-adv-x="469" 
d="M207 468v33h153v167h43v-167h52v-33h-52v-468h-31l-7 72h-2s-34 -80 -148 -80c-98 0 -176 72 -176 181c0 108 78 181 175 181c112 0 144 -75 144 -75h2v189h-153zM362 173c0 91 -66 144 -141 144c-77 0 -138 -59 -138 -144s61 -144 138 -144c75 0 141 53 141 144z" />
    <glyph glyph-name="ecaron" unicode="&#x11b;" horiz-adv-x="417" 
d="M218 460l112 117h27v-10l-114 -148h-51l-114 148v10h27zM343 61l16 -31s-46 -38 -129 -38c-110 0 -190 71 -190 179c0 112 74 183 174 183c108 0 169 -70 169 -170v-14h-300c1 -92 69 -142 147 -142c72 0 113 33 113 33zM213 318c-64 0 -116 -40 -128 -114h255
c-5 63 -49 114 -127 114z" />
    <glyph glyph-name="emacron" unicode="&#x113;" horiz-adv-x="417" 
d="M343 61l16 -31s-46 -38 -129 -38c-110 0 -190 71 -190 179c0 112 74 183 174 183c108 0 169 -70 169 -170v-14h-300c1 -92 69 -142 147 -142c72 0 113 33 113 33zM213 318c-64 0 -116 -40 -128 -114h255c-5 63 -49 114 -127 114zM88 446v31h257v-31h-257z" />
    <glyph glyph-name="ebreve" unicode="&#x115;" horiz-adv-x="417" 
d="M343 61l16 -31s-46 -38 -129 -38c-110 0 -190 71 -190 179c0 112 74 183 174 183c108 0 169 -70 169 -170v-14h-300c1 -92 69 -142 147 -142c72 0 113 33 113 33zM213 318c-64 0 -116 -40 -128 -114h255c-5 63 -49 114 -127 114zM311 584h36c0 -88 -55 -144 -132 -144
c-78 0 -133 56 -133 144h36c0 -67 38 -108 97 -108c57 -1 96 41 96 108z" />
    <glyph glyph-name="edotaccent" unicode="&#x117;" horiz-adv-x="417" 
d="M343 61l16 -31s-46 -38 -129 -38c-110 0 -190 71 -190 179c0 112 74 183 174 183c108 0 169 -70 169 -170v-14h-300c1 -92 69 -142 147 -142c72 0 113 33 113 33zM213 318c-64 0 -116 -40 -128 -114h255c-5 63 -49 114 -127 114zM169 521c0 26 19 45 44 45s44 -19 44 -45
c0 -24 -19 -43 -44 -43s-44 19 -44 43z" />
    <glyph glyph-name="eogonek" unicode="&#x119;" horiz-adv-x="417" 
d="M343 61l16 -31s-19 -15 -52 -26c-19 -9 -51 -28 -51 -62c0 -24 13 -38 39 -38c22 0 37 13 37 13l16 -21s-20 -21 -56 -21c-42 0 -67 24 -67 63c0 23 9 41 21 55c-6 -1 -11 -1 -16 -1c-110 0 -190 71 -190 179c0 112 74 183 174 183c108 0 169 -70 169 -170v-14h-300
c1 -92 69 -142 147 -142c72 0 113 33 113 33zM213 318c-64 0 -116 -40 -128 -114h255c-5 63 -49 114 -127 114z" />
    <glyph glyph-name="gcircumflex" unicode="&#x11d;" horiz-adv-x="410" 
d="M331 419l-112 117l-113 -117h-27v10l114 148h51l114 -148v-10h-27zM217 -237c-117 0 -183 54 -183 129c0 49 28 86 85 105v4c-59 14 -79 42 -79 79c0 34 19 59 58 75c-14 20 -21 44 -21 71c0 71 53 126 137 126c52 0 177 -6 177 -6v-34h-80v-3s42 -17 42 -85
c0 -66 -53 -123 -139 -123c-38 0 -70 11 -93 30c-27 -10 -41 -26 -41 -48c0 -36 31 -59 137 -59c119 0 183 -50 183 -128c0 -76 -67 -133 -183 -133zM217 -13c-91 0 -142 -42 -142 -93c0 -53 51 -95 142 -95s141 41 141 95c0 53 -50 93 -141 93zM214 316
c-63 0 -99 -40 -99 -90s36 -89 99 -89c64 0 101 39 101 89s-37 90 -101 90z" />
    <glyph glyph-name="gbreve" unicode="&#x11f;" horiz-adv-x="410" 
d="M217 -237c-117 0 -183 54 -183 129c0 49 28 86 85 105v4c-59 14 -79 42 -79 79c0 34 19 59 58 75c-14 20 -21 44 -21 71c0 71 53 126 137 126c52 0 177 -6 177 -6v-34h-80v-3s42 -17 42 -85c0 -66 -53 -123 -139 -123c-38 0 -70 11 -93 30c-27 -10 -41 -26 -41 -48
c0 -36 31 -59 137 -59c119 0 183 -50 183 -128c0 -76 -67 -133 -183 -133zM217 -13c-91 0 -142 -42 -142 -93c0 -53 51 -95 142 -95s141 41 141 95c0 53 -50 93 -141 93zM214 316c-63 0 -99 -40 -99 -90s36 -89 99 -89c64 0 101 39 101 89s-37 90 -101 90zM328 584h36
c0 -88 -55 -144 -132 -144c-78 0 -133 56 -133 144h36c0 -67 38 -108 97 -108c57 -1 96 41 96 108z" />
    <glyph glyph-name="gdotaccent" unicode="&#x121;" horiz-adv-x="410" 
d="M217 -237c-117 0 -183 54 -183 129c0 49 28 86 85 105v4c-59 14 -79 42 -79 79c0 34 19 59 58 75c-14 20 -21 44 -21 71c0 71 53 126 137 126c52 0 177 -6 177 -6v-34h-80v-3s42 -17 42 -85c0 -66 -53 -123 -139 -123c-38 0 -70 11 -93 30c-27 -10 -41 -26 -41 -48
c0 -36 31 -59 137 -59c119 0 183 -50 183 -128c0 -76 -67 -133 -183 -133zM217 -13c-91 0 -142 -42 -142 -93c0 -53 51 -95 142 -95s141 41 141 95c0 53 -50 93 -141 93zM214 316c-63 0 -99 -40 -99 -90s36 -89 99 -89c64 0 101 39 101 89s-37 90 -101 90zM177 521
c0 26 19 45 44 45s44 -19 44 -45c0 -24 -19 -43 -44 -43s-44 19 -44 43z" />
    <glyph glyph-name="gcommaaccent" unicode="&#x123;" horiz-adv-x="410" 
d="M258 457c0 -20 -15 -36 -38 -36s-40 16 -40 41c0 12 4 25 11 37l27 47h35l-21 -36c-5 -9 -11 -14 -11 -14v-3c23 0 37 -16 37 -36zM217 -237c-117 0 -183 54 -183 129c0 49 28 86 85 105v4c-59 14 -79 42 -79 79c0 34 19 59 58 75c-14 20 -21 44 -21 71
c0 71 53 126 137 126c52 0 177 -6 177 -6v-34h-80v-3s42 -17 42 -85c0 -66 -53 -123 -139 -123c-38 0 -70 11 -93 30c-27 -10 -41 -26 -41 -48c0 -36 31 -59 137 -59c119 0 183 -50 183 -128c0 -76 -67 -133 -183 -133zM217 -13c-91 0 -142 -42 -142 -93
c0 -53 51 -95 142 -95s141 41 141 95c0 53 -50 93 -141 93zM214 316c-63 0 -99 -40 -99 -90s36 -89 99 -89c64 0 101 39 101 89s-37 90 -101 90z" />
    <glyph glyph-name="hcircumflex" unicode="&#x125;" horiz-adv-x="454" 
d="M330 717l-112 117l-113 -117h-27v10l114 148h51l114 -148v-10h-27zM66 0v668h43v-375h2c12 12 45 61 129 61c98 0 154 -66 154 -160v-194h-44v189c0 73 -39 128 -118 128c-86 0 -122 -65 -123 -107v-210h-43z" />
    <glyph glyph-name="hbar" unicode="&#x127;" horiz-adv-x="454" 
d="M11 468v33h55v167h43v-167h150v-33h-150v-175h2c12 12 45 61 129 61c98 0 154 -66 154 -160v-194h-44v189c0 73 -39 128 -118 128c-86 0 -122 -65 -123 -107v-210h-43v468h-55z" />
    <glyph glyph-name="ibreve" unicode="&#x12d;" horiz-adv-x="180" 
d="M69 0v346h43v-346h-43zM188 584h36c0 -88 -55 -144 -132 -144c-78 0 -133 56 -133 144h36c0 -67 38 -108 97 -108c57 -1 96 41 96 108z" />
    <glyph glyph-name="itilde" unicode="&#x129;" horiz-adv-x="180" 
d="M69 0v346h43v-346h-43zM158 449c-53 0 -91 51 -130 51c-30 0 -38 -19 -43 -39l-3 -12l-32 4l4 19c6 32 24 64 70 64c52 0 89 -52 131 -52c30 0 40 19 43 39l2 12l32 -3l-3 -19c-6 -32 -24 -64 -71 -64z" />
    <glyph glyph-name="imacron" unicode="&#x12b;" horiz-adv-x="180" 
d="M69 0v346h43v-346h-43zM-37 446v31h257v-31h-257z" />
    <glyph glyph-name="iogonek" unicode="&#x12f;" horiz-adv-x="182" 
d="M124 -93l16 -21s-20 -21 -56 -21c-42 0 -67 24 -67 63c0 42 29 67 54 80v338h43v-346s-66 -21 -66 -68c0 -24 13 -38 39 -38c22 0 37 13 37 13zM92 497c-18 0 -32 13 -32 31s14 32 32 32s32 -14 32 -32s-14 -31 -32 -31z" />
    <glyph glyph-name="dotlessj" unicode="&#x237;" horiz-adv-x="174" 
d="M-46 -183l14 34s21 -13 44 -13c37 0 53 21 53 70v438h44v-441c0 -71 -28 -106 -91 -106c-37 0 -64 18 -64 18z" />
    <glyph glyph-name="jcircumflex" unicode="&#x135;" horiz-adv-x="174" 
d="M-46 -183l14 34s21 -13 44 -13c37 0 53 21 53 70v438h44v-441c0 -71 -28 -106 -91 -106c-37 0 -64 18 -64 18zM200 419l-112 117l-113 -117h-27v10l114 148h51l114 -148v-10h-27z" />
    <glyph glyph-name="kcommaaccent" unicode="&#x137;" horiz-adv-x="375" 
d="M161 -72c0 20 15 36 38 36s40 -16 40 -41c0 -12 -4 -25 -11 -37l-27 -47h-35l21 36c5 9 11 14 11 14v3c-23 0 -37 16 -37 36zM285 346h55l-183 -169l211 -177h-61l-197 166h-2v-166h-43v668h43v-484h2z" />
    <glyph glyph-name="kgreenlandic" unicode="&#x138;" horiz-adv-x="376" 
d="M285 346h54l-182 -169l211 -177h-61l-197 166h-2v-166h-43v346h43v-162h2z" />
    <glyph glyph-name="lacute" unicode="&#x13a;" horiz-adv-x="180" 
d="M185 865l-81 -148h-26v10l51 148h56v-10zM69 0v668h43v-668h-43z" />
    <glyph glyph-name="lcaron" unicode="&#x13e;" horiz-adv-x="180" 
d="M166 634c0 20 15 36 38 36s40 -16 40 -41c0 -12 -4 -25 -11 -37l-27 -47h-35l21 36c5 9 11 14 11 14v3c-23 0 -37 16 -37 36zM69 0v668h43v-668h-43z" />
    <glyph glyph-name="lcommaaccent" unicode="&#x13c;" horiz-adv-x="180" 
d="M55 -72c0 20 15 36 38 36s40 -16 40 -41c0 -12 -4 -25 -11 -37l-27 -47h-35l21 36c5 9 11 14 11 14v3c-23 0 -37 16 -37 36zM69 0v668h43v-668h-43z" />
    <glyph glyph-name="ldot" unicode="&#x140;" horiz-adv-x="275" 
d="M69 0v668h43v-668h-43zM183 301c0 26 19 45 44 45s44 -19 44 -45c0 -24 -19 -43 -44 -43s-44 19 -44 43z" />
    <glyph glyph-name="nacute" unicode="&#x144;" horiz-adv-x="453" 
d="M334 567l-81 -148h-26v10l51 148h56v-10zM66 0v346h30l6 -61h3c11 17 46 69 135 69c98 0 154 -66 154 -160v-194h-44v189c0 73 -39 128 -118 128c-86 0 -122 -65 -123 -107v-210h-43z" />
    <glyph glyph-name="ncaron" unicode="&#x148;" horiz-adv-x="453" 
d="M221 460l112 117h27v-10l-114 -148h-51l-114 148v10h27zM66 0v346h30l6 -61h3c11 17 46 69 135 69c98 0 154 -66 154 -160v-194h-44v189c0 73 -39 128 -118 128c-86 0 -122 -65 -123 -107v-210h-43z" />
    <glyph glyph-name="ncommaaccent" unicode="&#x146;" horiz-adv-x="453" 
d="M193 -72c0 20 15 36 38 36s40 -16 40 -41c0 -12 -4 -25 -11 -37l-27 -47h-35l21 36c5 9 11 14 11 14v3c-23 0 -37 16 -37 36zM66 0v346h30l6 -61h3c11 17 46 69 135 69c98 0 154 -66 154 -160v-194h-44v189c0 73 -39 128 -118 128c-86 0 -122 -65 -123 -107v-210h-43z
" />
    <glyph glyph-name="napostrophe" unicode="&#x149;" horiz-adv-x="453" 
d="M45 569c0 20 15 36 38 36s40 -16 40 -41c0 -12 -4 -25 -11 -37l-27 -47h-35l21 36c5 9 11 14 11 14v3c-23 0 -37 16 -37 36zM66 0v346h30l6 -61h3c11 17 46 69 135 69c98 0 154 -66 154 -160v-194h-44v189c0 73 -39 128 -118 128c-86 0 -122 -65 -123 -107v-210h-43z" />
    <glyph glyph-name="omacron" unicode="&#x14d;" horiz-adv-x="447" 
d="M95 446v31h257v-31h-257zM408 171c0 -111 -83 -179 -184 -179c-102 0 -185 68 -185 179s83 183 185 183c101 0 184 -72 184 -183zM224 28c75 0 141 54 141 143c0 90 -66 147 -141 147s-142 -57 -142 -147c0 -89 67 -143 142 -143z" />
    <glyph glyph-name="obreve" unicode="&#x14f;" horiz-adv-x="447" 
d="M408 171c0 -111 -83 -179 -184 -179c-102 0 -185 68 -185 179s83 183 185 183c101 0 184 -72 184 -183zM224 28c75 0 141 54 141 143c0 90 -66 147 -141 147s-142 -57 -142 -147c0 -89 67 -143 142 -143zM321 584h36c0 -88 -55 -144 -132 -144c-78 0 -133 56 -133 144h36
c0 -67 38 -108 97 -108c57 -1 96 41 96 108z" />
    <glyph glyph-name="ohungarumlaut" unicode="&#x151;" horiz-adv-x="447" 
d="M237 567l-77 -148h-26v10l51 148h52v-10zM392 567l-77 -148h-27v10l51 148h53v-10zM408 171c0 -111 -83 -179 -184 -179c-102 0 -185 68 -185 179s83 183 185 183c101 0 184 -72 184 -183zM224 28c75 0 141 54 141 143c0 90 -66 147 -141 147s-142 -57 -142 -147
c0 -89 67 -143 142 -143z" />
    <glyph glyph-name="oslashacute" unicode="&#x1ff;" horiz-adv-x="447" 
d="M409 171c0 -111 -83 -179 -184 -179c-48 0 -91 15 -124 42l-40 -41l-20 20l40 40c-26 30 -41 70 -41 118c0 111 83 183 185 183c44 0 85 -14 117 -39l41 42l20 -20l-41 -41c29 -31 47 -74 47 -125zM225 28c75 0 141 54 141 143c0 39 -13 72 -33 96l-204 -204
c26 -23 60 -35 96 -35zM83 171c0 -36 11 -66 28 -89l203 204c-24 21 -56 32 -89 32c-75 0 -142 -57 -142 -147zM309 567l-81 -148h-26v10l51 148h56v-10z" />
    <glyph glyph-name="racute" unicode="&#x155;" horiz-adv-x="273" 
d="M247 567l-81 -148h-26v10l51 148h56v-10zM268 336l-16 -35s-18 11 -46 11c-61 0 -96 -59 -96 -114v-198h-43v346h30l6 -61h2c14 26 41 65 104 65c35 0 59 -14 59 -14z" />
    <glyph glyph-name="rcaron" unicode="&#x159;" horiz-adv-x="273" 
d="M170 460l112 117h27v-10l-114 -148h-51l-114 148v10h27zM268 336l-16 -35s-18 11 -46 11c-61 0 -96 -59 -96 -114v-198h-43v346h30l6 -61h2c14 26 41 65 104 65c35 0 59 -14 59 -14z" />
    <glyph glyph-name="rcommaaccent" unicode="&#x157;" horiz-adv-x="273" 
d="M52 -72c0 20 15 36 38 36s40 -16 40 -41c0 -12 -4 -25 -11 -37l-27 -47h-35l21 36c5 9 11 14 11 14v3c-23 0 -37 16 -37 36zM268 336l-16 -35s-18 11 -46 11c-61 0 -96 -59 -96 -114v-198h-43v346h30l6 -61h2c14 26 41 65 104 65c35 0 59 -14 59 -14z" />
    <glyph glyph-name="sacute" unicode="&#x15b;" horiz-adv-x="374" 
d="M267 567l-81 -148h-26v10l51 148h56v-10zM37 29l19 31s52 -32 128 -32s112 26 112 62c0 92 -255 44 -255 169c0 56 47 95 144 95c91 0 139 -27 139 -27l-17 -36s-42 27 -118 27c-67 0 -106 -17 -106 -59c0 -88 255 -34 255 -168c0 -54 -43 -99 -152 -99
c-101 0 -149 37 -149 37z" />
    <glyph glyph-name="scircumflex" unicode="&#x15d;" horiz-adv-x="374" 
d="M300 419l-112 117l-113 -117h-27v10l114 148h51l114 -148v-10h-27zM37 29l19 31s52 -32 128 -32s112 26 112 62c0 92 -255 44 -255 169c0 56 47 95 144 95c91 0 139 -27 139 -27l-17 -36s-42 27 -118 27c-67 0 -106 -17 -106 -59c0 -88 255 -34 255 -168
c0 -54 -43 -99 -152 -99c-101 0 -149 37 -149 37z" />
    <glyph glyph-name="scedilla" unicode="&#x15f;" horiz-adv-x="374" 
d="M162 -56l-11 14l18 35c-89 3 -132 36 -132 36l19 31s52 -32 128 -32s112 26 112 62c0 92 -255 44 -255 169c0 56 47 95 144 95c91 0 139 -27 139 -27l-17 -36s-42 27 -118 27c-67 0 -106 -17 -106 -59c0 -88 255 -34 255 -168c0 -52 -40 -95 -139 -99l-11 -22
c39 0 70 -18 70 -62c0 -40 -28 -68 -78 -68c-45 0 -66 25 -66 25l12 23s21 -21 54 -21c30 0 49 15 49 41c0 24 -17 37 -48 37c-12 0 -19 -1 -19 -1z" />
    <glyph glyph-name="scommaaccent" unicode="&#x219;" horiz-adv-x="374" 
d="M155 -72c0 20 15 36 38 36s40 -16 40 -41c0 -12 -4 -25 -11 -37l-27 -47h-35l21 36c5 9 11 14 11 14v3c-23 0 -37 16 -37 36zM37 29l19 31s52 -32 128 -32s112 26 112 62c0 92 -255 44 -255 169c0 56 47 95 144 95c91 0 139 -27 139 -27l-17 -36s-42 27 -118 27
c-67 0 -106 -17 -106 -59c0 -88 255 -34 255 -168c0 -54 -43 -99 -152 -99c-101 0 -149 37 -149 37z" />
    <glyph glyph-name="tcaron" unicode="&#x165;" horiz-adv-x="301" 
d="M248 569c0 20 15 36 38 36s40 -16 40 -41c0 -12 -4 -25 -11 -37l-27 -47h-35l21 36c5 9 11 14 11 14v3c-23 0 -37 16 -37 36zM14 346h72v105h43v-105h148v-36h-148v-165c0 -81 32 -115 95 -115c27 0 51 14 51 14l15 -31s-28 -21 -71 -21c-87 0 -133 50 -133 152v166h-72
v36z" />
    <glyph glyph-name="tcommaaccent" unicode="&#x163;" horiz-adv-x="301" 
d="M143 -72c0 20 15 36 38 36s40 -16 40 -41c0 -12 -4 -25 -11 -37l-27 -47h-35l21 36c5 9 11 14 11 14v3c-23 0 -37 16 -37 36zM14 346h72v105h43v-105h148v-36h-148v-165c0 -81 32 -115 95 -115c27 0 51 14 51 14l15 -31s-28 -21 -71 -21c-87 0 -133 50 -133 152v166h-72
v36z" />
    <glyph glyph-name="uni021B" unicode="&#x21b;" horiz-adv-x="301" 
d="M143 -72c0 20 15 36 38 36s40 -16 40 -41c0 -12 -4 -25 -11 -37l-27 -47h-35l21 36c5 9 11 14 11 14v3c-23 0 -37 16 -37 36zM14 346h72v105h43v-105h148v-36h-148v-165c0 -81 32 -115 95 -115c27 0 51 14 51 14l15 -31s-28 -21 -71 -21c-87 0 -133 50 -133 152v166h-72
v36z" />
    <glyph glyph-name="tbar" unicode="&#x167;" horiz-adv-x="306" 
d="M18 346h72v105h43v-105h148v-36h-148v-106h112v-37h-112v-22c0 -81 32 -115 95 -115c27 0 51 14 51 14l15 -31s-28 -21 -71 -21c-87 0 -133 50 -133 152v23h-67v37h67v106h-72v36z" />
    <glyph glyph-name="utilde" unicode="&#x169;" horiz-adv-x="449" 
d="M384 346v-346h-29l-8 61h-2c-8 -13 -44 -69 -136 -69c-98 0 -149 66 -149 160v194h43v-189c0 -73 35 -128 114 -128c86 0 124 66 124 108v209h43zM294 449c-53 0 -91 51 -130 51c-30 0 -38 -19 -43 -39l-3 -12l-32 4l4 19c6 32 24 64 70 64c52 0 89 -52 131 -52
c30 0 40 19 43 39l2 12l32 -3l-3 -19c-6 -32 -24 -64 -71 -64z" />
    <glyph glyph-name="umacron" unicode="&#x16b;" horiz-adv-x="449" 
d="M384 346v-346h-29l-8 61h-2c-8 -13 -44 -69 -136 -69c-98 0 -149 66 -149 160v194h43v-189c0 -73 35 -128 114 -128c86 0 124 66 124 108v209h43zM96 446v31h257v-31h-257z" />
    <glyph glyph-name="ubreve" unicode="&#x16d;" horiz-adv-x="449" 
d="M384 346v-346h-29l-8 61h-2c-8 -13 -44 -69 -136 -69c-98 0 -149 66 -149 160v194h43v-189c0 -73 35 -128 114 -128c86 0 124 66 124 108v209h43zM322 584h36c0 -88 -55 -144 -132 -144c-78 0 -133 56 -133 144h36c0 -67 38 -108 97 -108c57 -1 96 41 96 108z" />
    <glyph glyph-name="uring" unicode="&#x16f;" horiz-adv-x="449" 
d="M227 436c-49 0 -86 36 -86 85s37 85 86 85c50 0 87 -36 87 -85s-37 -85 -87 -85zM282 521c0 33 -21 55 -55 55c-33 0 -54 -22 -54 -55s21 -54 54 -54c34 0 55 21 55 54zM384 346v-346h-29l-8 61h-2c-8 -13 -44 -69 -136 -69c-98 0 -149 66 -149 160v194h43v-189
c0 -73 35 -128 114 -128c86 0 124 66 124 108v209h43z" />
    <glyph glyph-name="uhungarumlaut" unicode="&#x171;" horiz-adv-x="449" 
d="M384 346v-346h-29l-8 61h-2c-8 -13 -44 -69 -136 -69c-98 0 -149 66 -149 160v194h43v-189c0 -73 35 -128 114 -128c86 0 124 66 124 108v209h43zM236 567l-77 -148h-26v10l51 148h52v-10zM391 567l-77 -148h-27v10l51 148h53v-10z" />
    <glyph glyph-name="uogonek" unicode="&#x173;" horiz-adv-x="449" 
d="M384 346v-346s-66 -21 -66 -68c0 -24 13 -38 39 -38c22 0 37 13 37 13l16 -21s-20 -21 -56 -21c-42 0 -67 24 -67 63c0 49 39 74 66 86l-6 47h-2c-8 -13 -44 -69 -136 -69c-98 0 -149 66 -149 160v194h43v-189c0 -73 35 -128 114 -128c86 0 124 66 124 108v209h43z" />
    <glyph glyph-name="wacute" unicode="&#x1e83;" horiz-adv-x="573" 
d="M384 567l-81 -148h-26v10l51 148h56v-10zM154 0l-134 346h47l96 -267c3 -7 8 -23 8 -28h4c0 5 6 21 8 28l86 267h39l85 -267c3 -7 7 -23 7 -28h5c0 5 5 21 8 28l97 267h44l-134 -346h-39l-88 275c-2 6 -4 14 -4 18h-3c0 -4 -2 -12 -4 -18l-89 -275h-39z" />
    <glyph glyph-name="wcircumflex" unicode="&#x175;" horiz-adv-x="573" 
d="M400 419l-112 117l-113 -117h-27v10l114 148h51l114 -148v-10h-27zM154 0l-134 346h47l96 -267c3 -7 8 -23 8 -28h4c0 5 6 21 8 28l86 267h39l85 -267c3 -7 7 -23 7 -28h5c0 5 5 21 8 28l97 267h44l-134 -346h-39l-88 275c-2 6 -4 14 -4 18h-3c0 -4 -2 -12 -4 -18
l-89 -275h-39z" />
    <glyph glyph-name="wdieresis" unicode="&#x1e85;" horiz-adv-x="573" 
d="M165 483c0 19 16 35 35 35s35 -16 35 -35s-16 -35 -35 -35s-35 16 -35 35zM342 483c0 19 16 35 34 35c19 0 35 -16 35 -35s-16 -35 -35 -35c-18 0 -34 16 -34 35zM154 0l-134 346h47l96 -267c3 -7 8 -23 8 -28h4c0 5 6 21 8 28l86 267h39l85 -267c3 -7 7 -23 7 -28h5
c0 5 5 21 8 28l97 267h44l-134 -346h-39l-88 275c-2 6 -4 14 -4 18h-3c0 -4 -2 -12 -4 -18l-89 -275h-39z" />
    <glyph glyph-name="wgrave" unicode="&#x1e81;" horiz-adv-x="573" 
d="M154 0l-134 346h47l96 -267c3 -7 8 -23 8 -28h4c0 5 6 21 8 28l86 267h39l85 -267c3 -7 7 -23 7 -28h5c0 5 5 21 8 28l97 267h44l-134 -346h-39l-88 275c-2 6 -4 14 -4 18h-3c0 -4 -2 -12 -4 -18l-89 -275h-39zM274 419l-80 148v10h56l51 -148v-10h-27z" />
    <glyph glyph-name="ycircumflex" unicode="&#x177;" horiz-adv-x="403" 
d="M387 346l-259 -538h-46l100 205l-164 333h48l131 -273c3 -7 6 -17 6 -22h3c0 5 3 15 6 22l130 273h45zM318 419l-112 117l-113 -117h-27v10l114 148h51l114 -148v-10h-27z" />
    <glyph glyph-name="ygrave" unicode="&#x1ef3;" horiz-adv-x="403" 
d="M387 346l-259 -538h-46l100 205l-164 333h48l131 -273c3 -7 6 -17 6 -22h3c0 5 3 15 6 22l130 273h45zM191 419l-80 148v10h56l51 -148v-10h-27z" />
    <glyph glyph-name="zacute" unicode="&#x17a;" horiz-adv-x="369" 
d="M278 567l-81 -148h-26v10l51 148h56v-10zM34 24l241 285h-231v37h291v-23l-242 -286h242v-37h-301v24z" />
    <glyph glyph-name="zdotaccent" unicode="&#x17c;" horiz-adv-x="369" 
d="M34 24l241 285h-231v37h291v-23l-242 -286h242v-37h-301v24zM137 521c0 26 19 45 44 45s44 -19 44 -45c0 -24 -19 -43 -44 -43s-44 19 -44 43z" />
    <glyph glyph-name="IJ" unicode="&#x132;" horiz-adv-x="752" 
d="M137 600v-600h-44v600h44zM337 30l22 35s44 -36 114 -36c92 0 149 47 149 165v406h44v-414c0 -140 -75 -199 -190 -199c-88 0 -137 41 -139 43z" />
    <glyph glyph-name="ij" unicode="&#x133;" horiz-adv-x="401" 
d="M90 497c-18 0 -32 13 -32 31s14 32 32 32s32 -14 32 -32s-14 -31 -32 -31zM69 0v346h43v-346h-43zM186 -184l11 33s20 -12 43 -12c37 0 52 21 52 68v441h44v-442c0 -71 -26 -105 -89 -105c-36 0 -61 17 -61 17zM314 497c-18 0 -32 13 -32 31s14 32 32 32s32 -14 32 -32
s-14 -31 -32 -31z" />
    <glyph glyph-name="uni2219" unicode="&#x2219;" horiz-adv-x="123" 
d="M23 360c0 21 17 38 37 38c21 0 38 -17 38 -38s-17 -37 -38 -37c-20 0 -37 16 -37 37z" />
    <glyph glyph-name="schwa" unicode="&#x259;" horiz-adv-x="416" 
d="M72 285l-15 32s49 37 133 37c106 0 187 -71 187 -180c0 -115 -76 -182 -173 -182c-109 0 -171 66 -171 169c0 3 1 16 1 16h300c-2 90 -71 141 -149 141c-71 0 -113 -33 -113 -33zM204 25c62 0 117 40 128 119h-257c1 -63 43 -119 129 -119z" />
    <glyph glyph-name="uni2117" unicode="&#x2117;" horiz-adv-x="572" 
d="M522 380c0 -126 -89 -231 -237 -231c-147 0 -235 106 -235 231c0 126 88 232 235 232c148 0 237 -106 237 -232zM489 380c0 112 -79 201 -204 201c-124 0 -202 -87 -202 -201c0 -111 78 -201 202 -201c125 0 204 89 204 201zM207 478h91c53 0 91 -28 91 -75
c0 -52 -42 -77 -94 -77h-59v-50h-29v202zM298 451h-62v-98h59c36 0 64 16 64 50c0 31 -25 48 -61 48z" />
    <glyph glyph-name="notequal" unicode="&#x2260;" horiz-adv-x="471" 
d="M65 381v38h198l45 118l36 -12l-41 -106h103v-38h-117l-74 -193h191v-38h-205l-44 -115l-36 12l39 103h-95v38h110l73 193h-183z" />
    <glyph glyph-name="approxequal" unicode="&#x2248;" horiz-adv-x="447" 
d="M294 185c-56 0 -95 51 -136 51c-31 0 -39 -19 -45 -38l-3 -12l-36 3l4 22c6 31 27 63 76 63c54 0 93 -51 136 -51c30 0 38 19 44 39l3 12l36 -4l-4 -22c-6 -32 -26 -63 -75 -63zM294 372c-56 0 -95 51 -136 51c-31 0 -39 -19 -45 -39l-3 -12l-36 4l4 22c7 32 27 63 76 63
c54 0 93 -51 136 -51c30 0 38 19 44 38l3 12l36 -3l-4 -22c-6 -31 -26 -63 -75 -63z" />
    <glyph glyph-name="lessequal" unicode="&#x2264;" horiz-adv-x="412" 
d="M305 241l-27 -28l-190 172v12l190 179l27 -28l-168 -157zM350 137v-38h-282v38h282z" />
    <glyph glyph-name="greaterequal" unicode="&#x2265;" horiz-adv-x="412" 
d="M135 213l-27 28l167 150l-167 157l26 28l191 -179v-12zM62 99v38h282v-38h-282z" />
    <glyph glyph-name="Delta" unicode="&#x2206;" horiz-adv-x="632" 
d="M27 0v12l283 588h12l283 -588v-12h-578zM542 39l-224 479h-5l-224 -479h453z" />
    <glyph glyph-name="Omega" unicode="&#x2126;" horiz-adv-x="746" 
d="M56 0v39h170c-104 46 -168 154 -168 265c0 161 111 309 316 309c204 0 315 -148 315 -309c0 -111 -64 -219 -168 -265h171v-39h-282v40c135 3 235 130 235 261c0 142 -96 270 -271 270c-176 0 -272 -128 -272 -270c0 -131 100 -258 236 -261v-40h-282z" />
    <glyph glyph-name="pi" unicode="&#x3c0;" horiz-adv-x="467" 
d="M19 346h430v-37h-71v-309h-43v309h-203v-309h-43v309h-70v37z" />
    <glyph glyph-name="afii61289" unicode="&#x2113;" horiz-adv-x="421" 
d="M53 142l-14 20l80 63v290c0 84 56 153 143 153c88 0 144 -69 144 -153c0 -91 -39 -141 -104 -193l-142 -112v-66c0 -73 38 -114 105 -114c50 0 85 33 85 33l16 -30s-41 -41 -105 -41c-91 0 -142 54 -142 147v41zM160 515v-257l124 98c51 40 80 86 80 157
c0 66 -39 117 -102 117c-62 0 -102 -51 -102 -115z" />
    <glyph glyph-name="estimated" unicode="&#x212e;" horiz-adv-x="716" 
d="M680 282h-568v-80c35 -100 125 -173 256 -173c103 0 158 36 158 36l22 -38s-60 -40 -181 -40c-191 0 -316 135 -316 311c0 179 128 315 314 315s315 -136 315 -315v-16zM365 571c-128 0 -218 -75 -253 -177v-75h506v78c-36 101 -126 174 -253 174z" />
    <glyph glyph-name="eng" unicode="&#x14b;" horiz-adv-x="453" 
d="M66 0v346h30l6 -61h3c11 17 46 69 135 69c98 0 154 -66 154 -160v-288c0 -70 -28 -105 -91 -105c-37 0 -64 18 -64 18l14 34s21 -14 45 -14c36 0 52 22 52 71v279c0 73 -39 128 -118 128c-86 0 -122 -65 -123 -107v-210h-43z" />
    <glyph glyph-name="Eng" unicode="&#x14a;" horiz-adv-x="695" 
d="M603 600v-695c0 -71 -29 -106 -92 -106c-37 0 -64 18 -64 18l14 34s21 -13 44 -13c37 0 54 21 54 69v125l-422 472v-504h-44v600h15l451 -502v502h44z" />
    <glyph glyph-name="infinity" unicode="&#x221e;" horiz-adv-x="810" 
d="M229 119c-107 0 -170 77 -170 167c0 88 63 167 170 167c88 0 137 -64 176 -135c39 71 88 135 177 135c94 0 169 -66 169 -167c0 -88 -60 -167 -169 -167c-89 0 -139 63 -178 134c-38 -71 -87 -134 -175 -134zM580 416c-77 0 -120 -62 -154 -130c36 -67 78 -130 154 -130
c86 0 133 61 133 130c0 79 -58 130 -133 130zM230 156c76 0 119 63 154 130c-36 67 -77 130 -154 130c-85 0 -133 -61 -133 -130c0 -70 48 -130 133 -130z" />
    <glyph glyph-name="partialdiff" unicode="&#x2202;" horiz-adv-x="487" 
d="M321 359l-149 231v10h40l181 -277c35 -54 53 -91 53 -154c0 -110 -86 -182 -204 -182c-116 0 -204 72 -204 182c0 101 81 181 205 181c40 0 76 -10 104 -23c0 0 -15 15 -26 32zM242 24c88 0 161 61 161 146c0 91 -75 143 -160 143c-91 0 -161 -63 -161 -143
c0 -85 73 -146 160 -146z" />
    <glyph glyph-name="integral" unicode="&#x222b;" horiz-adv-x="300" 
d="M129 -5v548c0 71 27 106 90 106c37 0 64 -18 64 -18l-14 -34s-21 13 -44 13c-37 0 -53 -21 -53 -70v-548c0 -71 -27 -106 -91 -106c-37 0 -64 18 -64 18l14 34s22 -13 44 -13c38 0 54 21 54 70z" />
    <glyph glyph-name="radical" unicode="&#x221a;" horiz-adv-x="628" 
d="M629 600l-399 -792h-15l-203 399h50l146 -298c2 -5 12 -31 12 -34h6c0 3 9 29 11 34l342 691h50z" />
    <glyph glyph-name="summation" unicode="&#x2211;" horiz-adv-x="465" 
d="M45 600h370v-39h-315l208 -251v-20l-207 -251h314v-39h-370v39l213 255v11l-213 256v39z" />
    <glyph glyph-name="product" unicode="&#x220f;" horiz-adv-x="680" 
d="M581 600v-600h-44v561h-394v-561h-44v600h482z" />
    <glyph glyph-name="lozenge" unicode="&#x25ca;" horiz-adv-x="441" 
d="M233 600l168 -300l-168 -300h-26l-167 300l167 300h26zM91 299l125 -230h9l124 230l-124 232h-9z" />
    <glyph glyph-name="zero.tab" 
d="M275 -14c-156 0 -251 134 -251 312c0 181 95 315 251 315s251 -134 251 -315c0 -178 -95 -312 -251 -312zM275 29c135 0 206 120 206 269c0 152 -71 273 -206 273s-206 -121 -206 -273c0 -149 71 -269 206 -269z" />
    <glyph glyph-name="one.tab" 
d="M85 559v41h239v-559h177v-41h-434v41h212v518h-194z" />
    <glyph glyph-name="two.tab" 
d="M69 0v10l280 300c45 49 66 79 66 126c0 79 -63 135 -153 135c-105 0 -172 -77 -172 -77l-26 34s73 85 199 85c125 0 196 -72 196 -173c0 -58 -18 -94 -72 -151l-232 -250h330v-39h-416z" />
    <glyph glyph-name="three.tab" 
d="M290 303h-97v20l199 236h-312v41h389v-10l-215 -254h44c102 0 182 -60 182 -171c0 -104 -80 -178 -207 -178c-126 0 -209 84 -209 85c4 7 19 27 23 34c0 0 77 -78 185 -78c98 0 163 58 163 139c0 84 -60 136 -145 136z" />
    <glyph glyph-name="four.tab" 
d="M25 150v39l351 411h35v-408h105v-42h-105v-150h-44v150h-342zM80 194v-2h287v334l-278 -325c-4 -4 -9 -7 -9 -7z" />
    <glyph glyph-name="five.tab" 
d="M451 559h-297l-7 -222c27 7 70 16 128 16c129 0 209 -70 209 -179c0 -124 -80 -187 -207 -187c-126 0 -209 85 -209 85l23 34s77 -78 185 -78c94 0 163 51 163 148c0 85 -66 138 -167 138c-94 0 -155 -26 -155 -26l-14 11l11 301h337v-41z" />
    <glyph glyph-name="six.tab" 
d="M72 176c0 59 14 99 53 159l174 265h53l-161 -246c-9 -15 -18 -25 -18 -25v-8c30 21 68 36 115 36c127 0 210 -78 210 -182c0 -114 -93 -188 -212 -188c-122 0 -214 75 -214 189zM284 317c-82 0 -166 -52 -166 -143c0 -87 76 -146 167 -146c92 0 167 59 167 146
c0 81 -72 143 -168 143z" />
    <glyph glyph-name="seven.tab" 
d="M71 558v42h424v-12l-282 -588h-52l268 558h-358z" />
    <glyph glyph-name="eight.tab" 
d="M275 -13c-133 0 -219 77 -219 173c0 77 48 134 126 157c-66 24 -103 78 -103 139c0 89 78 157 196 157s196 -68 196 -157c0 -61 -37 -115 -103 -139c77 -23 126 -80 126 -157c0 -96 -86 -173 -219 -173zM275 29c103 0 174 59 174 134c0 81 -76 134 -174 134
c-101 0 -174 -56 -174 -134c0 -75 72 -134 174 -134zM425 453c0 68 -61 118 -150 118s-150 -50 -150 -118c0 -66 57 -118 150 -118c92 0 150 52 150 118z" />
    <glyph glyph-name="nine.tab" 
d="M478 423c0 -68 -25 -114 -54 -158l-174 -265h-53l161 246c10 15 18 25 18 25v7c-30 -21 -69 -35 -115 -35c-127 0 -210 78 -210 182c0 114 93 188 212 188c122 0 215 -75 215 -190zM265 283c81 0 166 51 166 143c0 87 -76 146 -167 146c-92 0 -167 -59 -167 -146
c0 -81 72 -143 168 -143z" />
    <glyph glyph-name="zerosuperior" unicode="&#x2070;" horiz-adv-x="385" 
d="M192 677c103 0 160 -82 160 -173c0 -88 -57 -170 -160 -170c-102 0 -159 82 -159 170c0 91 57 173 159 173zM192 644c-79 0 -122 -65 -122 -140c0 -72 43 -137 122 -137c80 0 123 65 123 137c0 75 -43 140 -123 140z" />
    <glyph glyph-name="onesuperior_alt" horiz-adv-x="237" 
d="M32 637v31h111v-295h73v-31h-184v31h76v264h-76z" />
    <glyph glyph-name="foursuperior" unicode="&#x2074;" horiz-adv-x="311" 
d="M21 437v21l187 210h25v-201h55v-30h-55v-95h-33v95h-179zM69 467v-3l56 3h75v147h-2l-92 -106c-17 -20 -37 -41 -37 -41z" />
    <glyph glyph-name="fivesuperior" unicode="&#x2075;" horiz-adv-x="314" 
d="M56 668h207v-31h-177l-4 -112c16 5 41 9 79 9c80 0 124 -38 124 -99c0 -57 -43 -101 -130 -101c-75 0 -125 44 -127 46l20 24s41 -38 106 -38c64 0 97 28 97 69c0 42 -33 70 -96 70c-62 0 -91 -15 -91 -15l-13 9z" />
    <glyph glyph-name="sixsuperior" unicode="&#x2076;" horiz-adv-x="331" 
d="M169 573c83 0 137 -44 137 -116c0 -75 -54 -123 -137 -123s-137 48 -137 123c0 45 22 87 53 122l77 89h42l-67 -75c-14 -18 -29 -27 -29 -27v-3c18 7 38 10 61 10zM169 542c-62 0 -102 -31 -102 -85c0 -56 40 -92 102 -92c63 0 102 36 102 92c0 53 -39 85 -102 85z" />
    <glyph glyph-name="sevensuperior" unicode="&#x2077;" horiz-adv-x="280" 
d="M264 668v-11l-135 -315h-37l127 295h-196v31h241z" />
    <glyph glyph-name="eightsuperior" unicode="&#x2078;" horiz-adv-x="340" 
d="M33 433c0 38 23 68 64 81c-34 15 -53 43 -53 76c0 49 50 87 126 87s126 -38 126 -87c0 -33 -19 -61 -54 -76c42 -13 65 -43 65 -81c0 -51 -49 -99 -137 -99s-137 48 -137 99zM170 499c-66 0 -102 -25 -102 -64c0 -37 36 -70 102 -70s102 33 102 70c0 39 -36 64 -102 64z
M170 525c60 0 92 28 92 62c0 33 -36 59 -92 59c-55 0 -92 -26 -92 -59c0 -34 33 -62 92 -62z" />
    <glyph glyph-name="ninesuperior" unicode="&#x2079;" horiz-adv-x="334" 
d="M165 438c-83 0 -137 44 -137 116c0 75 54 123 137 123s137 -48 137 -123c0 -41 -15 -80 -53 -122l-77 -90h-43l68 76c15 18 29 28 29 28v2c-18 -6 -39 -10 -61 -10zM165 469c62 0 102 31 102 85c0 56 -40 92 -102 92c-63 0 -103 -36 -103 -92c0 -53 40 -85 103 -85z" />
    <glyph glyph-name="one.numr_alt" horiz-adv-x="237" 
d="M32 569v31h111v-295h73v-31h-184v31h76v264h-76z" />
    <glyph glyph-name="zeroinferior" unicode="&#x2080;" horiz-adv-x="384" 
d="M192 210c103 0 160 -82 160 -173c0 -88 -57 -170 -160 -170c-102 0 -159 82 -159 170c0 91 57 173 159 173zM192 177c-79 0 -122 -65 -122 -140c0 -72 43 -137 122 -137c80 0 123 65 123 137c0 75 -43 140 -123 140z" />
    <glyph glyph-name="oneinferior" unicode="&#x2081;" horiz-adv-x="187" 
d="M20 170v31h110v-326h-34v295h-76z" />
    <glyph glyph-name="oneinferior_alt" horiz-adv-x="236" 
d="M32 170v31h110v-295h73v-31h-183v31h76v264h-76z" />
    <glyph glyph-name="twoinferior" unicode="&#x2082;" horiz-adv-x="317" 
d="M28 -125v15l163 140c26 22 43 48 43 77c0 40 -25 70 -87 70c-56 0 -94 -34 -95 -35l-18 26s45 42 115 42c87 0 121 -45 121 -100c0 -39 -21 -70 -53 -98l-124 -106h196v-31h-261z" />
    <glyph glyph-name="threeinferior" unicode="&#x2083;" horiz-adv-x="315" 
d="M40 170v31h230v-12l-86 -122c65 -4 101 -38 101 -96c0 -57 -43 -104 -130 -104c-75 0 -125 44 -127 46l21 25s42 -38 106 -38s96 31 96 72c0 42 -31 67 -85 67h-32v13l84 118h-178z" />
    <glyph glyph-name="fourinferior" unicode="&#x2084;" horiz-adv-x="312" 
d="M22 -30v21l187 210h25v-201h55v-30h-55v-95h-33v95h-179zM64 -3l62 3h75v147h-2l-93 -107c-17 -20 -42 -43 -42 -43z" />
    <glyph glyph-name="fiveinferior" unicode="&#x2085;" horiz-adv-x="313" 
d="M56 201h206v-31h-177l-3 -112c17 5 41 9 78 9c80 0 125 -38 125 -99c0 -57 -44 -101 -130 -101c-76 0 -126 44 -127 46l20 24s40 -38 105 -38s97 28 97 69c0 42 -32 70 -96 70c-62 0 -91 -15 -91 -15l-13 9z" />
    <glyph glyph-name="sixinferior" unicode="&#x2086;" horiz-adv-x="331" 
d="M169 106c83 0 137 -44 137 -116c0 -75 -54 -123 -137 -123s-137 48 -137 123c0 45 22 87 53 122l77 89h42l-67 -75c-14 -18 -29 -28 -29 -28v-3c18 7 38 11 61 11zM169 75c-62 0 -102 -31 -102 -85c0 -56 40 -92 102 -92c63 0 102 36 102 92c0 53 -39 85 -102 85z" />
    <glyph glyph-name="seveninferior" unicode="&#x2087;" horiz-adv-x="280" 
d="M264 201v-11l-135 -315h-37l127 295h-196v31h241z" />
    <glyph glyph-name="eightinferior" unicode="&#x2088;" horiz-adv-x="340" 
d="M33 -34c0 38 23 68 64 81c-34 15 -53 43 -53 76c0 49 50 87 126 87s126 -38 126 -87c0 -33 -19 -61 -54 -76c42 -13 65 -43 65 -81c0 -51 -49 -99 -137 -99s-137 48 -137 99zM170 32c-66 0 -102 -25 -102 -64c0 -37 36 -70 102 -70s102 33 102 70c0 39 -36 64 -102 64z
M170 58c60 0 92 28 92 62c0 33 -36 59 -92 59c-55 0 -92 -26 -92 -59c0 -34 33 -62 92 -62z" />
    <glyph glyph-name="nineinferior" unicode="&#x2089;" horiz-adv-x="331" 
d="M163 -29c-83 0 -137 44 -137 116c0 75 54 123 137 123s137 -48 137 -123c0 -41 -15 -80 -53 -122l-77 -90h-43l68 76c15 18 29 28 29 28v3c-18 -7 -39 -11 -61 -11zM163 2c62 0 102 31 102 85c0 56 -40 92 -102 92c-63 0 -103 -36 -103 -92c0 -53 40 -85 103 -85z" />
    <glyph glyph-name="zero.dnom" horiz-adv-x="385" 
d="M192 335c103 0 160 -82 160 -173c0 -88 -57 -170 -160 -170c-102 0 -159 82 -159 170c0 91 57 173 159 173zM192 302c-79 0 -122 -65 -122 -140c0 -72 43 -137 122 -137c80 0 123 65 123 137c0 75 -43 140 -123 140z" />
    <glyph glyph-name="one.dnom" horiz-adv-x="188" 
d="M21 295v31h111v-326h-34v295h-77z" />
    <glyph glyph-name="one.dnom_alt" horiz-adv-x="236" 
d="M32 295v31h111v-295h73v-31h-184v31h76v264h-76z" />
    <glyph glyph-name="two.dnom" horiz-adv-x="317" 
d="M28 0v15l163 140c26 22 43 48 43 77c0 40 -24 70 -86 70c-56 0 -95 -34 -96 -35l-18 26s45 42 115 42c87 0 121 -45 121 -100c0 -39 -20 -70 -53 -98l-124 -106h196v-31h-261z" />
    <glyph glyph-name="three.dnom" horiz-adv-x="315" 
d="M28 38l21 25s42 -38 106 -38s96 31 96 72c0 42 -31 67 -85 67h-32v13l84 118h-178v31h230v-12l-86 -122c65 -4 101 -38 101 -96c0 -57 -43 -104 -130 -104c-75 0 -125 44 -127 46z" />
    <glyph glyph-name="four.dnom" horiz-adv-x="312" 
d="M22 95v21l186 210h25v-201h55v-30h-55v-95h-33v95h-178zM68 126v-3l57 2h75v147h-1l-94 -107c-17 -20 -37 -39 -37 -39z" />
    <glyph glyph-name="five.dnom" horiz-adv-x="314" 
d="M56 326h207v-31h-177l-4 -112c16 5 41 9 79 9c80 0 124 -38 124 -99c0 -57 -43 -101 -130 -101c-75 0 -125 44 -127 46l20 24s41 -38 106 -38c64 0 97 28 97 69c0 42 -33 70 -96 70c-62 0 -91 -15 -91 -15l-13 9z" />
    <glyph glyph-name="six.dnom" horiz-adv-x="331" 
d="M169 231c83 0 137 -44 137 -116c0 -75 -54 -123 -137 -123s-137 48 -137 123c0 8 1 15 2 22c5 33 20 65 51 100l77 89h42l-67 -75c-15 -17 -29 -27 -29 -27v-3c18 7 38 10 61 10zM169 200c-62 0 -102 -31 -102 -85c0 -56 40 -92 102 -92c63 0 102 36 102 92
c0 53 -39 85 -102 85z" />
    <glyph glyph-name="seven.dnom" horiz-adv-x="281" 
d="M264 326v-11l-135 -315h-37l127 295h-196v31h241z" />
    <glyph glyph-name="eight.dnom" horiz-adv-x="340" 
d="M33 91c0 38 23 68 64 81c-34 15 -53 43 -53 76c0 49 50 87 126 87s126 -38 126 -87c0 -33 -19 -61 -54 -76c42 -13 65 -43 65 -81c0 -51 -49 -99 -137 -99s-137 48 -137 99zM170 157c-66 0 -102 -25 -102 -64c0 -37 36 -70 102 -70s102 33 102 70c0 39 -36 64 -102 64z
M170 183c60 0 92 28 92 62c0 33 -36 59 -92 59c-55 0 -92 -26 -92 -59c0 -34 33 -62 92 -62z" />
    <glyph glyph-name="nine.dnom" horiz-adv-x="332" 
d="M163 96c-83 0 -137 44 -137 116c0 75 54 123 137 123s137 -48 137 -123c0 -41 -15 -80 -53 -122l-77 -90h-43l68 76c15 18 29 28 29 28v3c-18 -6 -39 -11 -61 -11zM163 127c62 0 102 31 102 85c0 56 -40 92 -102 92c-63 0 -103 -36 -103 -92c0 -53 40 -85 103 -85z" />
    <glyph glyph-name="zero.osf" horiz-adv-x="449" 
d="M225 354c107 0 180 -76 180 -181c0 -106 -73 -181 -180 -181c-108 0 -181 75 -181 181c0 105 73 181 181 181zM225 318c-82 0 -140 -62 -140 -145c0 -84 58 -145 140 -145c81 0 139 61 139 145c0 83 -58 145 -139 145z" />
    <glyph glyph-name="one.osf" horiz-adv-x="252" 
d="M28 309v37h146v-346h-44v309h-102z" />
    <glyph glyph-name="two.osf" horiz-adv-x="391" 
d="M45 0v22l180 132c41 30 56 53 56 88c0 46 -28 75 -96 75c-69 0 -125 -38 -125 -38l-14 32s55 43 150 43c91 0 133 -44 133 -108c0 -45 -21 -79 -70 -114l-143 -99l75 5h161v-38h-307z" />
    <glyph glyph-name="three.osf" horiz-adv-x="399" 
d="M41 309v37h292v-16l-138 -216h2c106 0 168 -57 168 -155c0 -92 -66 -160 -185 -160c-104 0 -151 51 -151 51l20 31s47 -45 127 -45c91 0 144 51 144 123c0 75 -50 121 -132 121h-50v16l134 213h-231z" />
    <glyph glyph-name="four.osf" horiz-adv-x="458" 
d="M23 11v28l256 307h38v-298h110v-37h-110v-204h-43v204h-251zM75 48v-4l62 4h137v196c0 10 0 23 1 36h-4l-154 -187c-20 -25 -42 -45 -42 -45z" />
    <glyph glyph-name="five.osf" horiz-adv-x="396" 
d="M69 346h259v-37h-222l-7 -196c19 5 45 9 84 9c117 0 183 -61 183 -159c0 -93 -67 -164 -191 -164c-93 0 -141 51 -141 51l20 30s45 -43 118 -43c96 0 149 54 149 126c0 76 -53 122 -143 122c-83 0 -106 -16 -106 -16l-12 10z" />
    <glyph glyph-name="six.osf" horiz-adv-x="450" 
d="M235 353c108 0 184 -76 184 -181c0 -107 -76 -181 -184 -181c-109 0 -185 74 -185 181c0 51 12 89 48 152l138 237h47l-111 -191c-14 -24 -26 -36 -26 -36v-2c25 13 55 21 89 21zM235 316c-83 0 -141 -61 -141 -144s58 -144 141 -144c81 0 140 61 140 144
s-59 144 -140 144z" />
    <glyph glyph-name="seven.osf" horiz-adv-x="360" 
d="M350 346v-13l-227 -522h-46l220 498h-275v37h328z" />
    <glyph glyph-name="eight.osf" horiz-adv-x="476" 
d="M78 437c0 83 64 144 160 144s160 -61 160 -144c0 -60 -33 -109 -86 -132c65 -22 108 -73 108 -148c0 -103 -77 -165 -182 -165c-106 0 -183 62 -183 165c0 75 43 126 107 148c-52 23 -84 72 -84 132zM238 284c-86 -1 -139 -51 -139 -127c0 -77 56 -127 139 -127
s139 50 139 127s-56 127 -139 127zM238 323c69 0 116 49 116 113c0 62 -47 107 -116 107c-70 0 -116 -45 -116 -107c0 -64 46 -113 116 -113z" />
    <glyph glyph-name="nine.osf" horiz-adv-x="446" 
d="M226 -7c-108 0 -185 76 -185 181c0 107 77 181 185 181c109 0 184 -74 184 -181c0 -51 -11 -89 -47 -152l-132 -225h-47l105 179c14 24 26 36 26 36v3c-23 -13 -56 -22 -89 -22zM226 30c82 0 140 61 140 144s-58 144 -140 144s-140 -61 -140 -144s58 -144 140 -144z" />
    <glyph glyph-name="three.osf_alt" horiz-adv-x="409" 
d="M107 95h53c80 0 138 40 138 111c0 64 -50 110 -128 110c-66 0 -112 -43 -112 -43l-19 31s53 50 137 50c107 0 167 -57 167 -143c0 -63 -36 -107 -89 -129c67 -17 111 -62 111 -132c0 -89 -74 -151 -188 -151c-96 0 -148 51 -148 51l20 31s50 -45 127 -45
c86 0 143 48 143 115c0 70 -61 109 -140 109h-72v35z" />
    <glyph glyph-name="ampersand.small" horiz-adv-x="630" 
d="M604 310h-85v-19c0 -139 -46 -304 -267 -304c-123 0 -207 77 -207 186c0 111 75 177 171 177c93 0 148 -60 148 -134v-7l-273 -78c20 -64 81 -107 162 -107c190 0 227 144 227 268v54h124v-36zM85 176v-12l235 66c-4 39 -42 86 -105 86c-70 0 -130 -49 -130 -140z" />
    <glyph glyph-name="dagger.small" horiz-adv-x="394" 
d="M24 157v38h153v184h39v-184h153v-38h-153l-6 -407h-27l-6 407h-153z" />
    <glyph glyph-name="daggerdbl.small" horiz-adv-x="446" 
d="M50 195v37h153v146h39v-146h153v-37h-153v-155h153v-38h-153l-6 -252h-27l-6 252h-153v38h153v155h-153z" />
    <glyph glyph-name="ampersand.alt" horiz-adv-x="587" 
d="M562 0h-47l-58 75c-39 -51 -101 -88 -199 -88c-125 0 -206 76 -206 184c0 114 84 181 193 186l-155 205v37h358v-38h-302l307 -409c13 37 18 78 18 116v81h43v-81c0 -50 -10 -105 -33 -154l81 -107v-7zM260 25c89 0 142 35 172 84l-161 213h-15c-92 0 -158 -58 -158 -149
c0 -86 68 -148 162 -148z" />
    <glyph glyph-name="asterisk.small" horiz-adv-x="392" 
d="M103 331l74 80l-108 22l-27 9l14 45l28 -9l101 -46l-12 110v29h47v-29l-13 -109l100 45l28 9l14 -45l-27 -9l-107 -21l74 -81l17 -24l-38 -27l-18 24l-54 96l-54 -96l-17 -24l-38 27z" />
    <glyph glyph-name="copyright.small" horiz-adv-x="493" 
d="M246 372c127 0 205 -90 205 -200c0 -109 -78 -199 -205 -199c-126 0 -204 90 -204 199c0 110 78 200 204 200zM246 348c-112 0 -180 -80 -180 -176c0 -95 68 -175 180 -175c113 0 181 80 181 175c0 96 -68 176 -181 176zM317 103l16 -21s-26 -29 -81 -29
c-76 0 -122 54 -122 119c0 64 46 118 122 118c56 0 81 -27 81 -27l-17 -22s-17 21 -63 21c-53 0 -91 -38 -91 -90c0 -55 38 -90 91 -90c38 0 64 21 64 21z" />
    <glyph glyph-name="published.small" horiz-adv-x="493" 
d="M246 372c127 0 205 -90 205 -200c0 -109 -78 -199 -205 -199c-126 0 -204 90 -204 199c0 110 78 200 204 200zM246 348c-112 0 -180 -80 -180 -176c0 -95 68 -175 180 -175c113 0 181 80 181 175c0 96 -68 176 -181 176zM165 56v231h89c63 0 106 -31 106 -89
s-43 -85 -106 -85h-58v-57h-31zM327 198c0 42 -29 61 -76 61h-55v-118h55c47 0 76 15 76 57z" />
    <glyph glyph-name="registered.small" horiz-adv-x="493" 
d="M246 372c127 0 205 -90 205 -200c0 -109 -78 -199 -205 -199c-126 0 -204 90 -204 199c0 110 78 200 204 200zM246 348c-112 0 -180 -80 -180 -176c0 -95 68 -175 180 -175c113 0 181 80 181 175c0 96 -68 176 -181 176zM157 287h95c54 0 92 -31 92 -86
c0 -40 -20 -64 -50 -76l50 -61v-8h-31l-50 62h-74v-62h-32v231zM248 259h-59v-113h58c36 0 64 14 64 55c0 39 -26 58 -63 58z" />
    <glyph glyph-name="registered.osf.alt" horiz-adv-x="455" 
d="M51 194c0 119 78 178 176 178c100 0 178 -70 178 -178c0 -107 -78 -177 -178 -177c-98 0 -176 69 -176 177zM75 194c0 -94 68 -153 152 -153c86 0 154 60 154 153c0 94 -68 154 -154 154c-84 0 -152 -51 -152 -154zM149 283h81c47 0 80 -24 80 -63c0 -30 -16 -49 -39 -59
l34 -49v-8h-26l-35 51c-6 -1 -12 -1 -17 -1h-50v-50h-28v179zM229 258h-52v-79h50c30 0 55 11 55 41c0 22 -21 38 -53 38z" />
    <glyph glyph-name="trademark.small" horiz-adv-x="705" 
d="M382 173h-34v269h18l121 -127c33 35 90 92 123 127h18v-269h-35v206l-100 -101h-13l-98 101v-206zM298 442v-31h-107v-238h-35v238h-107v31h249z" />
    <glyph glyph-name="servicemark.small" horiz-adv-x="699" 
d="M380 173h-34v269h17l122 -127c34 35 90 92 123 127h17v-269h-34v207l-100 -102h-13l-98 101v-206zM63 201l19 25s31 -30 86 -30c54 0 76 16 76 40c0 28 -38 41 -81 56c-54 18 -99 37 -99 82c0 46 40 73 101 73c73 0 105 -27 105 -27l-17 -26s-26 23 -87 23
c-37 0 -67 -13 -67 -42c0 -27 34 -38 75 -52c54 -17 106 -35 106 -85c0 -39 -33 -71 -110 -71c-70 0 -107 34 -107 34z" />
    <glyph glyph-name="ordfeminine.small" horiz-adv-x="349" 
d="M41 253c0 52 43 83 115 83c59 0 85 -20 98 -37v21c0 61 -24 97 -102 97c-48 0 -87 -22 -87 -22l-11 29s47 24 99 24c103 0 136 -50 136 -129v-146h-25l-4 39h-4c-11 -20 -38 -47 -109 -47c-63 0 -106 35 -106 88zM76 254c0 -37 30 -60 76 -60c68 0 101 28 101 58
s-33 58 -92 58c-55 0 -85 -22 -85 -56z" />
    <glyph glyph-name="ordmasculine.small" horiz-adv-x="365" 
d="M42 308c0 83 52 140 138 140c85 0 137 -57 137 -140s-52 -141 -137 -141c-86 0 -138 58 -138 141zM282 308c0 65 -38 109 -102 109s-103 -44 -103 -109s39 -110 103 -110s102 45 102 110z" />
    <glyph glyph-name="asciicircum.small" horiz-adv-x="501" 
d="M361 374l-111 139l-110 -139h-29v10l123 170h33l123 -170v-10h-29z" />
    <glyph glyph-name="asciitilde.small" horiz-adv-x="460" 
d="M303 447c51 0 74 20 74 20l15 -27s-25 -30 -88 -30c-51 0 -93 28 -147 28c-51 0 -74 -20 -74 -20l-16 27s26 29 89 29c51 0 93 -27 147 -27z" />
    <glyph glyph-name="numbersign.small" horiz-adv-x="512" 
d="M399 346l-20 -92h95l-7 -32h-95l-23 -102h92l-7 -32h-92l-19 -88h-35l19 88h-133l-19 -88h-35l19 88h-100l7 32h100l23 102h-97l7 32h97l21 92h35l-21 -92h133l20 92h35zM204 222l-23 -102h133l23 102h-133z" />
    <glyph glyph-name="percent.small" horiz-adv-x="551" 
d="M146 0h-32v8l274 334h32v-8zM518 92c0 -52 -35 -100 -103 -100s-103 48 -103 100s35 101 103 101s103 -49 103 -101zM339 92c0 -38 27 -75 76 -75c48 0 75 37 75 75s-27 76 -75 76c-49 0 -76 -38 -76 -76zM241 253c0 -52 -35 -100 -103 -100s-103 48 -103 100
s35 101 103 101s103 -49 103 -101zM63 253c0 -38 27 -75 75 -75c49 0 75 37 75 75s-26 76 -75 76c-48 0 -75 -38 -75 -76z" />
    <glyph glyph-name="perthousand.small" horiz-adv-x="791" 
d="M146 0h-32v8l274 334h32v-8zM518 92c0 -52 -35 -100 -103 -100s-103 48 -103 100s35 101 103 101s103 -49 103 -101zM339 92c0 -38 27 -75 76 -75c48 0 75 37 75 75s-27 76 -75 76c-49 0 -76 -38 -76 -76zM241 253c0 -52 -35 -100 -103 -100s-103 48 -103 100
s35 101 103 101s103 -49 103 -101zM63 253c0 -38 27 -75 75 -75c49 0 75 37 75 75s-26 76 -75 76c-48 0 -75 -38 -75 -76zM757 92c0 -52 -35 -100 -103 -100s-104 48 -104 100s36 101 104 101s103 -49 103 -101zM578 92c0 -38 27 -75 76 -75c48 0 75 37 75 75s-27 76 -75 76
c-49 0 -76 -38 -76 -76z" />
    <glyph glyph-name="plus.small" horiz-adv-x="390" 
d="M219 326v-137h129v-37h-129v-132h-39v132h-137v37h137v137h39z" />
    <glyph glyph-name="minus.small" horiz-adv-x="396" 
d="M45 152v37h306v-37h-306z" />
    <glyph glyph-name="plusminus.small" horiz-adv-x="383" 
d="M212 346v-91h107v-34h-107v-101h-35v101h-113v34h113v91h35zM64 32v35h255v-35h-255z" />
    <glyph glyph-name="multiply.small" horiz-adv-x="364" 
d="M78 293l102 -102l107 106l26 -27l-106 -105l97 -96l-26 -27l-98 96l-93 -92l-27 27l93 92l-102 101z" />
    <glyph glyph-name="divide.small" horiz-adv-x="405" 
d="M168 46c0 19 15 34 34 34s34 -15 34 -34s-15 -34 -34 -34s-34 15 -34 34zM168 294c0 18 15 34 34 34s34 -16 34 -34c0 -19 -15 -34 -34 -34s-34 15 -34 34zM57 152v30h291v-30h-291z" />
    <glyph glyph-name="equal.small" horiz-adv-x="456" 
d="M59 240v36h338v-36h-338zM59 68v36h338v-36h-338z" />
    <glyph glyph-name="less.small" horiz-adv-x="277" 
d="M206 0l-167 162v23l167 162l27 -28l-151 -146l151 -145z" />
    <glyph glyph-name="greater.small" horiz-adv-x="277" 
d="M238 162l-167 -162l-27 28l150 145l-150 146l27 28l167 -162v-23z" />
    <glyph glyph-name="quotedbl.small" horiz-adv-x="294" 
d="M130 465l-37 -199h-27v10l17 199h47v-10zM234 465l-37 -199h-26v10l16 199h47v-10z" />
    <glyph glyph-name="quotesingle.small" horiz-adv-x="189" 
d="M130 465l-37 -199h-27v10l17 199h47v-10z" />
    <glyph glyph-name="degree.small" horiz-adv-x="336" 
d="M168 481c70 0 116 -48 116 -108s-46 -107 -116 -107s-116 47 -116 107s46 108 116 108zM168 452c-52 0 -85 -35 -85 -79c0 -43 33 -78 85 -78s86 35 86 78c0 44 -34 79 -86 79z" />
    <glyph glyph-name="paragraph.small" horiz-adv-x="480" 
d="M364 -250v202h-87c-147 0 -235 67 -235 200c0 128 86 194 233 194h133v-596h-44z" />
    <glyph glyph-name="section.small" horiz-adv-x="364" 
d="M180 356c95 0 127 -27 127 -27l-16 -34s-37 23 -107 23c-53 0 -97 -19 -97 -62c0 -42 39 -61 82 -78c61 -25 132 -44 132 -105c0 -39 -24 -58 -39 -67c33 -16 59 -37 59 -73c0 -53 -37 -93 -134 -93c-92 0 -144 37 -144 37l17 33s46 -32 123 -32c66 0 93 21 93 56
c0 45 -66 58 -124 77c-51 16 -98 38 -98 87c0 41 26 62 45 72c-32 18 -57 44 -57 85c0 64 54 101 138 101zM168 42l58 -20c6 2 31 14 31 48c0 33 -27 44 -103 74l-20 8c-10 -4 -35 -17 -35 -50c0 -29 17 -42 69 -60z" />
    <glyph glyph-name="dollar.small" horiz-adv-x="368" 
d="M281 84c0 86 -237 56 -237 172c0 57 45 94 123 99v94h36v-94c86 -4 116 -30 116 -30l-17 -34c-1 1 -31 27 -114 27c-57 0 -99 -19 -99 -61c0 -83 237 -49 237 -173c0 -51 -36 -89 -123 -94v-88h-36v88c-83 4 -126 38 -126 38l16 34s53 -35 127 -35c67 0 97 22 97 57z" />
    <glyph glyph-name="sterling.small" horiz-adv-x="412" 
d="M365 43v-37h-323v35c5 0 63 13 63 74c0 6 -1 11 -2 17h-50v32h41c-7 20 -15 40 -15 68c0 65 50 122 142 122c90 0 141 -54 141 -54l-19 -28s-49 46 -116 46c-64 0 -102 -41 -102 -88c0 -24 8 -45 14 -66h143v-32h-135c1 -6 2 -11 2 -16c0 -37 -17 -60 -35 -75z" />
    <glyph glyph-name="Euro.small" horiz-adv-x="403" 
d="M243 -8c-83 0 -147 47 -168 124h-38v32h32s-1 12 -1 23c0 10 1 25 1 25h-32v33h38c22 77 86 125 168 125c72 0 115 -31 115 -31l-14 -30s-38 27 -97 27c-56 0 -106 -33 -126 -91h170v-33h-178s-1 -8 -1 -25c0 -15 1 -23 1 -23h178v-32h-171c20 -59 70 -90 127 -90
c59 0 97 26 97 26l14 -29s-43 -31 -115 -31z" />
    <glyph glyph-name="yen.small" horiz-adv-x="431" 
d="M233 214l102 132h50l-130 -165h115v-33h-135v-55h135v-32h-135v-61h-44v61h-129v32h129v55h-129v33h109l-131 165h50l103 -132l17 -29h6z" />
    <glyph glyph-name="florin.small" horiz-adv-x="326" 
d="M177 239v-32h106v-32h-106v-94c0 -73 -30 -114 -99 -114c-35 0 -62 14 -62 14l14 30s22 -9 42 -9c43 0 62 28 62 78v95h-46v32h46v31c0 73 29 114 98 114c35 0 62 -14 62 -14l-14 -30s-21 9 -42 9c-42 0 -61 -28 -61 -78z" />
    <glyph glyph-name="cent.small" horiz-adv-x="394" 
d="M203 -83v77c-89 12 -155 79 -155 177c0 99 66 168 155 181v80h37v-78c68 -2 107 -31 107 -31l-14 -33s-38 27 -97 27c-76 0 -144 -56 -144 -146c0 -89 68 -142 144 -142c59 0 97 27 97 27l13 -33s-38 -29 -106 -31v-75h-37z" />
    <glyph glyph-name="at.small" horiz-adv-x="792" 
d="M192 173c0 110 78 181 174 181c103 0 139 -67 148 -86l8 78h28v-259c0 -50 25 -79 62 -79c68 0 112 87 112 196c0 162 -111 307 -329 307c-202 0 -329 -140 -329 -340c0 -182 128 -326 330 -326c106 0 159 35 159 35l12 -20s-57 -36 -171 -36c-211 0 -353 147 -353 347
c0 214 140 362 352 362c232 0 351 -152 351 -329c0 -122 -49 -217 -136 -217c-60 0 -92 47 -92 94h-3c-3 -10 -37 -89 -149 -89c-96 0 -174 72 -174 181zM234 173c0 -85 60 -145 137 -145c76 0 142 54 142 145c0 92 -66 145 -142 145c-77 0 -137 -59 -137 -145z" />
    <glyph glyph-name="hyphen.small" horiz-adv-x="387" 
d="M59 155v38h283v-38h-283z" />
    <glyph glyph-name="endash.small" horiz-adv-x="443" 
d="M59 150v38h339v-38h-339z" />
    <glyph glyph-name="emdash.small" horiz-adv-x="720" 
d="M59 150v38h615v-38h-615z" />
    <glyph glyph-name="slash.small" horiz-adv-x="342" 
d="M70 -79l-47 28l245 467l49 -27z" />
    <glyph glyph-name="colon.case" horiz-adv-x="220" 
d="M73 33c0 21 16 37 37 37s37 -16 37 -37s-16 -37 -37 -37s-37 16 -37 37zM73 519c0 20 16 37 37 37s37 -17 37 -37c0 -21 -16 -37 -37 -37s-37 16 -37 37z" />
    <glyph glyph-name="semicolon.case" horiz-adv-x="242" 
d="M89 32c0 21 15 36 36 36c20 0 38 -15 38 -38c0 -18 -4 -28 -11 -40l-46 -80h-33l38 69c5 10 12 15 12 15v2c-20 1 -34 16 -34 36zM91 519c0 20 16 37 36 37c21 0 37 -17 37 -37c0 -21 -16 -37 -37 -37c-20 0 -36 16 -36 37z" />
    <glyph glyph-name="slash.case" horiz-adv-x="337" 
d="M301 745l-221 -879h-45l221 879h45z" />
    <glyph glyph-name="bar.case" horiz-adv-x="230" 
d="M135 715v-825h-41v825h41z" />
    <glyph glyph-name="parenleft.case" horiz-adv-x="318" 
d="M292 690c-39 -28 -202 -141 -202 -390c0 -250 163 -363 202 -391l-22 -31c-46 31 -225 153 -225 422c0 270 179 390 225 421z" />
    <glyph glyph-name="parenright.case" horiz-adv-x="318" 
d="M26 690l22 31c46 -31 225 -151 225 -421c0 -269 -179 -391 -225 -422l-22 31c39 28 202 141 202 391c0 249 -163 362 -202 390z" />
    <glyph glyph-name="at.case" horiz-adv-x="923" 
d="M458 -202c-256 0 -415 191 -415 424c0 237 164 427 419 427c257 0 408 -189 408 -378c0 -134 -54 -242 -168 -242c-82 0 -114 59 -114 90h-3c-3 -9 -37 -85 -149 -85c-99 0 -177 72 -177 181c0 110 78 181 177 181c101 0 138 -63 147 -83l9 75h31v-240
c0 -50 30 -81 81 -81c86 0 127 91 127 200c0 181 -142 345 -369 345c-225 0 -380 -168 -380 -390c0 -217 151 -387 376 -387c129 0 195 42 195 42l16 -33s-67 -46 -211 -46zM582 215c0 92 -65 144 -141 144c-77 0 -138 -58 -138 -144c0 -85 61 -144 138 -144
c76 0 141 53 141 144z" />
    <glyph glyph-name="bracketleft.case" horiz-adv-x="329" 
d="M94 -116v832h199v-38h-156v-756h156v-38h-199z" />
    <glyph glyph-name="backslash.case" horiz-adv-x="337" 
d="M256 -134l-221 879h45l221 -879h-45z" />
    <glyph glyph-name="bracketright.case" horiz-adv-x="329" 
d="M36 -116v38h156v756h-156v38h199v-832h-199z" />
    <glyph glyph-name="braceleft.case" horiz-adv-x="257" 
d="M35 319h11c33 0 62 29 62 83v249c0 57 25 89 86 95l6 -38c-34 -4 -46 -19 -46 -64v-243c0 -52 -18 -88 -52 -100v-7c34 -11 52 -48 52 -98v-244c0 -44 12 -59 46 -64l-6 -37c-61 5 -86 38 -86 94v250c0 53 -29 83 -62 83h-11v41z" />
    <glyph glyph-name="braceright.case" horiz-adv-x="257" 
d="M222 278h-12c-33 0 -62 -30 -62 -83v-250c0 -56 -24 -89 -85 -94l-6 37c34 5 46 20 46 64v244c0 50 17 87 52 98v7c-35 12 -52 48 -52 100v243c0 45 -12 60 -46 64l6 38c61 -6 85 -38 85 -95v-249c0 -54 29 -83 62 -83h12v-41z" />
    <glyph glyph-name="guilsinglleft.case" horiz-adv-x="285" 
d="M59 290v17l106 156h40v-7l-105 -155v-3l105 -157v-7h-40z" />
    <glyph glyph-name="guilsinglright.case" horiz-adv-x="285" 
d="M226 307v-17l-106 -156h-39v7l105 157v3l-105 155v7h39z" />
    <glyph glyph-name="guillemotleft.case" horiz-adv-x="441" 
d="M59 290v17l106 156h40v-7l-105 -155v-3l105 -157v-7h-40zM215 290v17l106 156h39v-7l-105 -155v-3l105 -157v-7h-39z" />
    <glyph glyph-name="guillemotright.case" horiz-adv-x="441" 
d="M226 307v-17l-106 -156h-39v7l105 157v3l-105 155v7h39zM381 307v-17l-106 -156h-39v7l105 157v3l-105 155v7h39z" />
    <glyph glyph-name="bullet.case" horiz-adv-x="292" 
d="M84 300c0 33 27 62 62 62c33 0 61 -29 61 -62c0 -34 -28 -61 -61 -61c-35 0 -62 27 -62 61z" />
    <glyph glyph-name="section.case" horiz-adv-x="526" 
d="M42 -85l25 35s70 -68 196 -68c122 0 170 59 170 119c0 70 -39 102 -169 150c-109 40 -150 68 -150 127c0 43 23 67 41 78c-66 33 -101 77 -101 140c0 90 69 159 216 159c142 0 205 -61 205 -61l-26 -37s-59 57 -179 57c-115 0 -167 -51 -167 -116c0 -64 48 -106 148 -139
c110 -37 169 -74 169 -136c0 -43 -21 -69 -35 -82c67 -37 97 -77 97 -140c0 -82 -60 -160 -218 -160c-150 0 -222 74 -222 74zM235 324c-14 4 -27 8 -39 13c-10 -3 -38 -16 -38 -57c0 -37 31 -60 122 -93c24 -9 46 -18 66 -27c8 7 29 27 29 61c0 40 -43 70 -140 103z" />
    <glyph glyph-name="brokenbar.case" horiz-adv-x="231" 
d="M136 -110h-42v825h42v-825z" />
    </font>
</defs>
</svg>
