<?xml version="1.0" standalone="no"?>
<!DOCTYPE svg PUBLIC "-//W3C//DTD SVG 1.1//EN" "http://www.w3.org/Graphics/SVG/1.1/DTD/svg11.dtd" >
<svg>
<metadata>
Created by FontForge 20120731 at Mon Aug  8 22:05:12 2016
 By Apache
 (C) Copyright 1990, 2002 The Monotype Corporation Plc. All Rights Reserved. 
</metadata>
<defs>
<font id="BemboStd" horiz-adv-x="521" >
  <font-face 
    font-family="Bembo Std"
    font-weight="400"
    font-stretch="normal"
    units-per-em="1000"
    panose-1="2 2 6 5 6 3 6 2 10 3"
    ascent="672"
    descent="-328"
    x-height="396"
    cap-height="622"
    bbox="-206 -233 1026 896"
    underline-thickness="50"
    underline-position="-50"
    stemh="24"
    stemv="67"
    unicode-range="U+0020-FB04"
  />
<missing-glyph horiz-adv-x="500" 
d="M0 0v700h500v-700h-500zM250 395l170 255h-340zM280 350l170 -255v510zM80 50h340l-170 255zM50 605v-510l170 255z" />
    <glyph glyph-name="f_i" unicode="fi" horiz-adv-x="552" 
d="M460 412v-336c0 -35 19 -57 72 -57v-19h-207v19c61 0 68 20 68 73v201c0 40 -4 48 -53 58v17l105 44h15zM286 396l6 -44h-133v-274c0 -46 18 -59 74 -59h31v-19h-240v19c58 0 68 13 68 69v264h-74v17c28 6 52 15 74 27c5 90 18 142 77 201c39 39 101 75 169 75
c67 0 119 -36 119 -57c0 -13 -34 -39 -43 -39c-13 0 -54 58 -122 58c-65 0 -133 -56 -133 -153v-85h127z" />
    <glyph glyph-name="f_l" unicode="fl" 
d="M366 352h-209v-274c0 -46 18 -59 74 -59v-19h-209v19c58 0 68 13 68 69v264h-74v17c28 6 52 15 74 27c0 83 14 139 70 195c49 49 98 63 144 63c44 0 36 -5 61 -5c24 0 39 12 44 23h24v-593c0 -41 19 -60 58 -60h17v-19h-225v19c64 0 83 19 83 67v266zM366 396v183
c-22 17 -65 39 -101 39c-84 0 -108 -72 -108 -181v-41h209z" />
    <glyph glyph-name="f_f" unicode="ff" horiz-adv-x="552" 
d="M432 396h90l6 -44h-96v-252c0 -62 0 -81 74 -81h25v-19h-234v19c64 0 68 16 68 78v255h-207v-255c0 -70 13 -78 69 -78v-19h-208v19c67 0 72 16 72 74v259h-78v16c34 9 51 14 78 28c0 42 0 85 46 146c23 29 83 95 170 95c58 0 103 -27 118 -54c25 28 84 89 159 89
c60 0 104 -35 104 -46c0 -9 -19 -49 -29 -49c-2 0 -23 14 -27 17c-12 8 -49 33 -90 33c-16 0 -75 -7 -97 -69c-10 -28 -12 -56 -13 -98v-64zM158 396h207c1 71 10 107 30 143c-15 3 -21 6 -46 26c-15 12 -44 35 -89 35c-53 0 -76 -38 -84 -54c-18 -32 -18 -57 -18 -91v-59z
" />
    <glyph glyph-name="f_f_i" unicode="ffi" horiz-adv-x="792" 
d="M361 352h-203v-256c0 -69 14 -77 68 -77v-19h-203v19c68 2 68 19 68 78v255h-68v17c11 2 30 6 68 27c1 56 6 96 50 152c41 51 97 90 162 90c30 0 91 -10 115 -55c25 30 82 87 158 87c57 0 108 -32 108 -47c0 -9 -22 -48 -32 -48c-3 0 -31 22 -37 25c-37 24 -71 25 -82 25
c-27 0 -80 -16 -98 -80c-5 -17 -7 -42 -7 -72v-77h77l11 -44h-88v-256c0 -71 20 -77 72 -77v-19h-212v19c73 0 73 17 73 78v255zM158 396h203c2 80 2 101 27 144c-15 4 -18 7 -51 32c-30 23 -61 29 -81 29c-38 0 -98 -31 -98 -140v-65zM698 412v-315c0 -61 10 -78 61 -78
v-19h-197v19c69 0 69 19 69 78v195c0 12 0 34 -2 37c-4 7 -30 13 -43 16l-33 8v17l129 42h16z" />
    <glyph glyph-name="f_f_l" unicode="ffl" horiz-adv-x="792" 
d="M636 352h-206v-264c0 -63 20 -69 71 -69v-19h-211v19c73 0 73 21 73 70v263h-206v-260c0 -66 14 -73 74 -73v-19h-204v19c63 3 63 18 63 74v259h-63v16c31 9 47 17 63 28c5 56 9 106 71 170c35 37 84 73 147 73c54 0 104 -27 118 -60c26 35 84 76 154 76
c24 0 43 -5 55 -5c25 0 43 10 51 27h17v-584c0 -61 8 -73 58 -74v-19h-197v19c72 0 72 22 72 78v255zM430 396h206v185c-5 2 -9 4 -42 19c-13 6 -39 15 -64 15c-35 0 -65 -25 -83 -60c-16 -34 -17 -63 -17 -99v-60zM157 396h206c-1 72 19 119 34 143c-9 3 -18 5 -46 26
s-48 36 -88 36c-106 0 -106 -122 -106 -189v-16z" />
    <glyph glyph-name=".notdef" horiz-adv-x="500" 
d="M0 0v700h500v-700h-500zM250 395l170 255h-340zM280 350l170 -255v510zM80 50h340l-170 255zM50 605v-510l170 255z" />
    <glyph glyph-name="space" unicode=" " horiz-adv-x="278" 
 />
    <glyph glyph-name="exclam" unicode="!" horiz-adv-x="260" 
d="M140 178h-20l-37 450c-1 18 3 22 25 22h45c23 0 26 -5 24 -24zM79 35c0 28 22 47 51 47c28 0 51 -18 51 -47c0 -30 -23 -47 -51 -47c-29 0 -51 19 -51 47z" />
    <glyph glyph-name="quotedbl" unicode="&#x22;" horiz-adv-x="406" 
d="M114 637c29 0 49 -22 49 -53c0 -26 -8 -64 -12 -88l-25 -144h-24l-25 144c-4 24 -12 62 -12 88c0 31 20 53 49 53zM292 637c29 0 49 -22 49 -53c0 -26 -8 -64 -12 -88l-25 -144h-24l-25 144c-4 24 -12 62 -12 88c0 31 20 53 49 53z" />
    <glyph glyph-name="numbersign" unicode="#" horiz-adv-x="668" 
d="M46 464h164l42 203h43l-42 -203h221l43 203h43l-43 -203h104v-43h-113l-41 -198h154v-43h-162l-43 -203h-43l43 203h-223l-43 -203h-43l43 203h-104v43h113l41 198h-154v43zM243 421l-41 -198h222l41 198h-222z" />
    <glyph glyph-name="dollar" unicode="$" horiz-adv-x="458" 
d="M157 -6c-71 15 -131 62 -131 109c0 18 16 34 33 34c50 0 29 -85 98 -116v285c-73 45 -113 87 -113 150c0 60 45 111 113 131v65h26v-62c22 3 45 3 67 0v62h26v-65c73 -21 117 -54 117 -88c0 -17 -13 -31 -29 -31c-33 0 -37 42 -88 86v-231c114 -71 142 -109 142 -175
c0 -75 -50 -130 -142 -154v-96h-26v89c-22 -2 -49 -1 -67 1v-90h-26v96zM183 570v-188l67 -47v228c-20 12 -47 9 -67 7zM157 399v167c-35 -12 -58 -42 -58 -75c0 -35 16 -61 58 -92zM183 293v-279c16 -7 38 -9 67 -7v240zM276 234v-220c53 23 82 60 82 110
c0 43 -18 66 -82 110z" />
    <glyph glyph-name="percent" unicode="%" horiz-adv-x="719" 
d="M439 162c0 95 56 169 128 169s129 -74 129 -169s-57 -169 -129 -169s-128 74 -128 169zM495 162c0 -104 23 -154 72 -154s73 50 73 154s-24 154 -73 154s-72 -50 -72 -154zM23 468c0 95 56 169 128 169s129 -74 129 -169s-57 -169 -129 -169s-128 74 -128 169zM79 468
c0 -104 23 -154 72 -154s73 50 73 154s-24 154 -73 154s-72 -50 -72 -154zM137 -27h-42l486 681h41z" />
    <glyph glyph-name="ampersand" unicode="&#x26;" horiz-adv-x="729" 
d="M539 418h177v-18c-56 0 -71 -5 -85 -19c-20 -20 -70 -123 -150 -216c55 -85 72 -145 120 -145c20 0 45 11 78 34l9 -16c-43 -34 -85 -52 -123 -52c-62 0 -79 23 -134 124c-74 -79 -157 -124 -228 -124c-91 0 -162 72 -162 165c0 82 49 135 175 186c-43 37 -71 87 -71 130
c0 70 54 116 136 116c74 0 127 -40 127 -97c0 -46 -40 -91 -113 -127c65 -44 126 -105 174 -177c47 59 125 171 125 198c0 14 -11 20 -55 20v18zM123 163c0 -76 49 -127 121 -127c58 0 133 39 176 91c-44 74 -106 140 -190 198c-76 -53 -107 -100 -107 -162zM347 479
c0 51 -29 84 -73 84c-41 0 -66 -28 -66 -72c0 -42 25 -83 74 -120c46 27 65 58 65 108z" />
    <glyph glyph-name="quoteright" unicode="&#x2019;" horiz-adv-x="260" 
d="M81 430l-7 18c50 29 77 64 77 100c0 12 -4 21 -14 21c-9 0 -13 -3 -24 -3c-26 0 -45 19 -45 45c0 27 24 49 54 49c40 0 70 -35 70 -83c0 -62 -45 -122 -111 -147z" />
    <glyph glyph-name="parenleft" unicode="(" horiz-adv-x="302" 
d="M140 222c0 -173 50 -280 151 -413l-28 -25c-110 135 -178 262 -178 438s68 303 178 438l28 -25c-101 -133 -151 -240 -151 -413z" />
    <glyph glyph-name="parenright" unicode=")" horiz-adv-x="302" 
d="M162 222c0 173 -50 280 -151 413l28 25c110 -135 178 -262 178 -438s-68 -303 -178 -438l-28 25c101 133 151 240 151 413z" />
    <glyph glyph-name="asterisk" unicode="*" horiz-adv-x="510" 
d="M255 343l-124 -116l-26 18l75 158l-153 84l8 28l172 -22l34 170h31l31 -170l172 22l9 -28l-153 -84l76 -158l-27 -18z" />
    <glyph glyph-name="plus" unicode="+" horiz-adv-x="667" 
d="M355 342h241v-44h-241v-241h-44v241h-240v44h240v240h44v-240z" />
    <glyph glyph-name="comma" unicode="," horiz-adv-x="260" 
d="M81 -148l-7 18c50 29 77 64 77 100c0 12 -4 21 -14 21c-4 0 -8 -1 -11 -1c-4 -1 -7 -2 -13 -2c-26 0 -45 19 -45 45c0 27 24 49 54 49c40 0 70 -35 70 -83c0 -62 -45 -122 -111 -147z" />
    <glyph glyph-name="hyphen" unicode="-" horiz-adv-x="396" 
d="M35 221h326v-50h-326v50z" />
    <glyph glyph-name="period" unicode="." horiz-adv-x="260" 
d="M130 82c28 0 51 -18 51 -47c0 -30 -23 -47 -51 -47c-29 0 -51 19 -51 47s22 47 51 47z" />
    <glyph glyph-name="slash" unicode="/" horiz-adv-x="458" 
d="M369 637h43l-323 -651h-43z" />
    <glyph glyph-name="zero" unicode="0" horiz-adv-x="490" 
d="M453 311c0 -185 -95 -325 -208 -325c-104 0 -208 129 -208 325c0 188 98 326 208 326c117 0 208 -152 208 -326zM378 311c0 177 -23 307 -133 307c-104 0 -133 -125 -133 -307c0 -195 32 -306 133 -306c108 0 133 120 133 306z" />
    <glyph glyph-name="one" unicode="1" horiz-adv-x="490" 
d="M254 637h35v-580c0 -30 6 -38 37 -38h56v-19h-252v19h54c32 0 38 9 38 39v499c-32 -28 -88 -65 -125 -82l-8 14c58 39 141 114 165 148z" />
    <glyph glyph-name="two" unicode="2" horiz-adv-x="490" 
d="M30 0v16c118 152 318 272 318 430c0 75 -57 134 -132 134c-71 0 -134 -54 -157 -135h-16c12 114 94 192 202 192c105 0 184 -76 184 -177c0 -59 -24 -112 -72 -160c-28 -28 -118 -89 -263 -238h263c54 0 62 15 76 78h16l-19 -140h-400z" />
    <glyph glyph-name="three" unicode="3" horiz-adv-x="490" 
d="M184 306l-9 14c83 69 136 119 136 174c0 51 -43 92 -97 92c-51 0 -105 -39 -133 -98l-18 7c34 87 106 142 185 142c74 0 130 -48 130 -111c0 -51 -37 -102 -103 -141l2 -2c92 9 161 -71 161 -163c0 -124 -119 -234 -253 -234c-81 0 -151 33 -151 71c0 18 15 34 31 34
c45 0 82 -78 154 -78c78 0 144 83 144 181c0 78 -47 139 -109 139c-24 0 -47 -9 -70 -27z" />
    <glyph glyph-name="four" unicode="4" horiz-adv-x="490" 
d="M291 182h-256v23l295 432h28v-405h100v-50h-100v-196h-67v196zM291 232v310h-2l-207 -310h209z" />
    <glyph glyph-name="five" unicode="5" horiz-adv-x="490" 
d="M88 307l14 317h237c18 0 24 4 29 13h19l-11 -78h-253l-8 -180c31 17 67 25 108 25c112 0 205 -93 205 -205c0 -121 -101 -213 -235 -213c-80 0 -146 28 -146 63c0 17 15 31 33 31c54 0 73 -70 136 -70c74 0 137 77 137 168c0 92 -63 159 -149 159c-37 0 -76 -14 -106 -37
z" />
    <glyph glyph-name="six" unicode="6" horiz-adv-x="490" 
d="M380 637l11 -15c-156 -64 -239 -162 -261 -308c54 42 93 58 142 58c98 0 177 -82 177 -184c0 -110 -88 -202 -195 -202c-123 0 -209 107 -209 260c0 185 126 332 335 391zM374 179c0 107 -50 169 -117 169c-26 0 -71 -11 -132 -60c-3 -14 -5 -28 -5 -62
c0 -168 73 -223 136 -223c70 0 118 63 118 176z" />
    <glyph glyph-name="seven" unicode="7" horiz-adv-x="490" 
d="M196 -14h-55l242 571h-275c-38 0 -49 -8 -55 -58h-16l7 123h396v-21z" />
    <glyph glyph-name="eight" unicode="8" horiz-adv-x="490" 
d="M421 493c0 -64 -42 -111 -130 -146c105 -47 150 -100 150 -177c0 -104 -86 -184 -197 -184c-108 0 -194 73 -194 164c0 70 48 125 145 164c-94 42 -137 93 -137 161c0 88 83 162 183 162s180 -64 180 -144zM377 142c0 67 -46 109 -162 162c-68 -37 -102 -87 -102 -152
c0 -85 56 -148 132 -148c75 0 132 60 132 138zM361 494c0 72 -51 125 -121 125c-69 0 -123 -50 -123 -113c0 -55 30 -95 160 -150c56 35 84 81 84 138z" />
    <glyph glyph-name="nine" unicode="9" horiz-adv-x="490" 
d="M110 -14l-11 15c156 64 239 162 261 308c-54 -42 -93 -58 -142 -58c-98 0 -177 82 -177 184c0 110 88 202 195 202c123 0 209 -107 209 -260c0 -185 -126 -332 -335 -391zM116 445c0 -109 51 -170 117 -170c32 0 88 22 132 61c3 13 5 28 5 61c0 165 -71 223 -136 223
c-71 0 -118 -64 -118 -175z" />
    <glyph glyph-name="colon" unicode=":" horiz-adv-x="260" 
d="M130 406c28 0 51 -18 51 -47c0 -30 -23 -47 -51 -47c-29 0 -51 19 -51 47s22 47 51 47zM130 82c28 0 51 -18 51 -47c0 -30 -23 -47 -51 -47c-29 0 -51 19 -51 47s22 47 51 47z" />
    <glyph glyph-name="semicolon" unicode=";" horiz-adv-x="260" 
d="M81 -148l-7 18c50 29 77 64 77 100c0 12 -4 21 -14 21c-4 0 -8 -1 -11 -1c-4 -1 -7 -2 -13 -2c-26 0 -45 19 -45 45c0 27 24 49 54 49c40 0 70 -35 70 -83c0 -62 -45 -122 -111 -147zM133 406c28 0 51 -18 51 -47c0 -30 -23 -47 -51 -47c-29 0 -51 19 -51 47s22 47 51 47
z" />
    <glyph glyph-name="less" unicode="&#x3c;" horiz-adv-x="667" 
d="M71 300v40l524 222v-50l-464 -192l464 -192v-50z" />
    <glyph glyph-name="equal" unicode="=" horiz-adv-x="667" 
d="M71 457h525v-44h-525v44zM71 276h525v-44h-525v44z" />
    <glyph glyph-name="greater" unicode="&#x3e;" horiz-adv-x="667" 
d="M596 340v-40l-524 -222v50l464 192l-464 192v50z" />
    <glyph glyph-name="question" unicode="?" horiz-adv-x="354" 
d="M138 633c96 0 173 -69 173 -177c0 -189 -180 -146 -180 -216c0 -25 15 -49 38 -72h-22c-27 29 -49 69 -49 103c0 117 189 64 189 197c0 59 -43 89 -102 89c-32 0 -59 -7 -77 -7c-28 0 -57 8 -57 36c0 26 23 47 87 47zM155 82c28 0 51 -18 51 -47c0 -30 -23 -47 -51 -47
c-29 0 -51 19 -51 47s22 47 51 47z" />
    <glyph glyph-name="at" unicode="@" horiz-adv-x="917" 
d="M688 467l-87 -297c-22 -76 -26 -119 22 -119c91 0 205 138 205 318c0 177 -131 302 -316 302c-261 0 -419 -237 -419 -466c0 -230 158 -391 383 -391c177 0 318 97 392 270h28c-52 -176 -226 -300 -423 -300c-245 0 -426 184 -426 433c0 268 204 478 462 478
c208 0 349 -136 349 -335c0 -145 -88 -345 -269 -345c-49 0 -75 23 -75 67c0 21 2 37 8 70l-2 2c-67 -89 -132 -139 -190 -139c-50 0 -89 50 -89 113c0 153 158 342 269 342c35 0 77 -18 84 -67h2l15 54zM516 446c-90 0 -200 -208 -200 -303c0 -38 26 -69 57 -69
c82 0 204 153 204 302c0 41 -25 70 -61 70z" />
    <glyph glyph-name="A" unicode="A" horiz-adv-x="677" 
d="M423 276h-207l-58 -157c-7 -19 -20 -49 -20 -63c0 -27 26 -37 81 -37h16v-19h-231v19c65 1 76 12 108 99l182 497l-9 22h87l209 -555c20 -53 41 -63 91 -63v-19h-275v19h26c57 0 78 6 78 34c0 16 -7 31 -11 41zM406 320l-88 233l-85 -233h173z" />
    <glyph glyph-name="B" unicode="B" horiz-adv-x="635" 
d="M121 101v415c0 57 -7 87 -77 87h-35v19c28 1 97 5 126 6c55 2 131 3 150 3c88 0 165 -13 201 -39c41 -29 61 -63 61 -111c0 -57 -47 -110 -114 -122v-2c94 -28 149 -89 149 -167c0 -79 -55 -190 -216 -190h-366v19h23c82 0 98 19 98 82zM204 609v-247h109
c96 0 144 38 144 116c0 70 -42 134 -165 134c-22 0 -63 -2 -88 -3zM204 343v-213c0 -76 30 -103 114 -103c132 0 170 82 170 160c0 77 -59 156 -176 156h-108z" />
    <glyph glyph-name="C" unicode="C" horiz-adv-x="729" 
d="M664 458h-19c-33 93 -119 154 -228 154c-167 0 -271 -121 -271 -289c0 -181 130 -314 282 -314c79 0 176 27 244 148h19c-13 -45 -40 -107 -64 -146c-64 9 -108 -27 -226 -27c-203 0 -349 134 -349 319c0 194 150 334 359 334c126 0 180 -40 211 -40c11 0 16 3 18 6h15z
" />
    <glyph glyph-name="D" unicode="D" horiz-adv-x="760" 
d="M111 92v430c0 65 -17 81 -76 81h-20v19c37 2 86 4 141 6s116 3 168 3c264 0 381 -134 381 -299c0 -151 -117 -332 -370 -332h-320v19h17c54 0 79 15 79 73zM194 608v-534c0 -41 3 -55 82 -55c134 0 190 19 252 81c37 36 83 113 83 216c0 74 -21 156 -80 215
c-46 46 -117 81 -257 81c-41 0 -68 -3 -80 -4z" />
    <glyph glyph-name="E" unicode="E" horiz-adv-x="594" 
d="M464 415v-190h-19c-8 71 -27 79 -68 79h-169v-213c0 -46 17 -55 54 -55h154c70 0 91 27 116 113h18l-16 -149h-531v19h28c80 0 94 22 94 82v422c0 56 -13 80 -80 80h-22v19h480l8 -139h-18c-13 85 -38 103 -74 103h-211v-246h179c36 0 53 17 58 75h19z" />
    <glyph glyph-name="F" unicode="F" horiz-adv-x="531" 
d="M474 415v-176h-17c-2 58 -23 76 -71 76h-185v-219c0 -56 12 -77 87 -77v-19h-243v19c62 4 73 17 73 98v392c0 64 -5 93 -75 94v19h448v-118h-17c-1 58 -21 82 -83 82h-190v-235h198c37 0 55 21 58 64h17z" />
    <glyph glyph-name="G" unicode="G" horiz-adv-x="740" 
d="M646 186v-139c-99 -51 -226 -63 -268 -63c-219 0 -321 169 -321 315c0 150 105 338 349 338c107 0 178 -34 199 -34c9 0 17 2 23 7h14v-162h-20c-27 125 -112 164 -205 164c-176 0 -266 -146 -266 -307c0 -205 144 -296 259 -296c46 0 97 10 153 38v126
c0 57 -20 76 -80 76h-37v18h270v-18c-50 -3 -70 -20 -70 -63z" />
    <glyph glyph-name="H" unicode="H" horiz-adv-x="792" 
d="M590 297h-392v-190c0 -65 13 -88 80 -88h3v-19h-251v19h6c59 0 79 16 79 73v440c0 52 -17 67 -72 71v19h238v-19c-71 0 -83 -19 -83 -96v-174h392v197c0 53 -17 73 -79 73h-19v19h257v-19c-60 -2 -76 -20 -76 -82v-415c0 -71 20 -87 80 -87h10v-19h-283v19h31
c65 0 79 23 79 75v203z" />
    <glyph glyph-name="I" unicode="I" horiz-adv-x="333" 
d="M288 19v-19h-243v19c62 3 75 19 75 86v426c0 54 -19 69 -75 72v19h243v-19c-63 0 -85 -14 -85 -81v-424c0 -59 16 -79 85 -79z" />
    <glyph glyph-name="J" unicode="J" horiz-adv-x="302" 
d="M195 530v-427c0 -201 -82 -336 -207 -336c-55 0 -97 23 -97 54c0 21 16 40 36 40c34 0 61 -47 103 -47c48 0 82 36 82 147v534c0 88 -9 108 -81 108h-11v19h253v-19c-64 -2 -78 -20 -78 -73z" />
    <glyph glyph-name="K" unicode="K" horiz-adv-x="698" 
d="M699 0h-293v19c46 1 65 9 65 28c0 17 -22 51 -123 152c-80 80 -104 95 -148 90v-187c0 -63 18 -83 80 -83h13v-19h-274v19h18c64 0 80 22 80 73v439c0 60 -27 72 -80 72h-18v19h270v-19h-9c-60 0 -80 -19 -80 -79v-216c39 4 70 22 112 64c78 78 139 168 139 200
c0 23 -15 31 -69 31v19h263v-19c-71 -1 -102 -11 -132 -41c-31 -31 -94 -156 -199 -236c18 -3 36 -18 80 -62c105 -105 161 -183 194 -216c17 -17 43 -29 111 -29v-19z" />
    <glyph glyph-name="L" unicode="L" horiz-adv-x="552" 
d="M544 146l-77 -146h-447v19h33c46 0 63 15 63 66v443c0 53 -16 75 -79 75h-14v19h295v-19h-37c-65 0 -82 -7 -82 -69v-461c0 -27 11 -37 40 -37h147c59 0 77 23 140 110h18z" />
    <glyph glyph-name="M" unicode="M" horiz-adv-x="917" 
d="M448 0h-23l-255 533h-2l-27 -450c-3 -51 35 -62 80 -64v-19h-208v19c73 0 82 16 87 107l24 389c4 66 2 84 -60 88v18h151l241 -504l240 504h147v-18c-49 -4 -68 -5 -66 -39l32 -453c6 -92 14 -92 87 -92v-19h-257v19c47 0 93 13 89 66l-29 448h-2z" />
    <glyph glyph-name="N" unicode="N" horiz-adv-x="813" 
d="M705 -7h-26l-518 542v-429c0 -72 16 -87 101 -87v-19h-232v19h4c62 0 82 21 82 67v492c-23 16 -49 24 -84 25v19h157l471 -491v398c0 61 -18 72 -98 74v19h234v-19c-75 0 -91 -13 -91 -52v-558z" />
    <glyph glyph-name="O" unicode="O" horiz-adv-x="823" 
d="M770 328c0 -202 -162 -344 -356 -344c-196 0 -361 126 -361 313c0 199 153 340 366 340c189 0 351 -129 351 -309zM676 295c0 186 -118 317 -283 317c-176 0 -246 -164 -246 -284c0 -187 127 -319 288 -319c163 0 241 144 241 286z" />
    <glyph glyph-name="P" unicode="P" horiz-adv-x="563" 
d="M200 271v-175c0 -56 17 -77 80 -77h33v-19h-277v19h14c52 0 67 11 67 58v473c0 37 -12 53 -47 53h-50v19c28 1 77 4 126 6s97 3 124 3c209 0 257 -100 257 -177c0 -117 -94 -191 -242 -191c-30 0 -55 2 -85 8zM200 608v-318c13 -3 35 -8 54 -8c109 0 179 74 179 175
c0 78 -31 155 -164 155c-23 0 -45 0 -69 -4z" />
    <glyph glyph-name="Q" unicode="Q" horiz-adv-x="823" 
d="M801 -181l-16 -21c-16 -4 -29 -6 -46 -6c-157 0 -227 143 -355 193c-190 13 -331 140 -331 316c0 191 157 336 362 336c193 0 355 -125 355 -312c0 -155 -103 -291 -267 -331v-2c116 -43 174 -170 298 -173zM676 295c0 186 -118 317 -283 317c-176 0 -246 -164 -246 -284
c0 -187 127 -318 288 -318c163 0 241 143 241 285z" />
    <glyph glyph-name="R" unicode="R" horiz-adv-x="802" 
d="M199 263v-169c0 -60 24 -75 80 -75h23v-19h-283v19h17c59 0 80 16 80 83v421c0 62 -17 80 -75 80h-22v19c24 0 85 4 126 6s61 3 126 3c185 0 268 -76 268 -178c0 -75 -51 -138 -133 -162c37 -29 67 -57 114 -104l79 -79c59 -59 120 -96 197 -101v-18
c-175 -8 -220 30 -309 119l-66 66c-44 44 -79 73 -103 89c-25 -1 -41 -2 -68 -2c-22 0 -35 1 -51 2zM199 610v-328c24 -3 39 -2 62 -2c111 0 184 47 184 167c0 93 -42 165 -196 165c-19 0 -32 0 -50 -2z" />
    <glyph glyph-name="S" unicode="S" horiz-adv-x="490" 
d="M44 152h19c21 -89 91 -141 169 -141c67 0 138 39 138 118c0 144 -321 188 -321 363c0 83 76 145 178 145c84 0 101 -25 136 -25c8 0 12 2 18 10h16l17 -127h-17c-28 72 -92 118 -161 118c-66 0 -112 -38 -112 -94c0 -142 321 -180 321 -364c0 -98 -87 -171 -204 -171
c-55 0 -125 27 -139 27c-9 0 -16 -5 -20 -11h-17z" />
    <glyph glyph-name="T" unicode="T" horiz-adv-x="677" 
d="M380 586v-494c0 -54 18 -73 79 -73h37v-19h-315v19h37c61 0 79 19 79 73v494h-174c-40 0 -58 -23 -73 -111h-18l16 162h19c1 -6 5 -10 11 -12s13 -3 20 -3h481c14 0 29 3 31 15h19l16 -162h-18c-15 88 -33 111 -73 111h-174z" />
    <glyph glyph-name="U" unicode="U" horiz-adv-x="792" 
d="M545 622h235v-19c-67 -1 -91 -28 -91 -92v-270c0 -124 -79 -257 -296 -257c-191 0 -289 109 -289 252v292c0 64 -18 74 -86 75v19h257v-19h-9c-55 0 -79 -15 -79 -73v-278c0 -135 79 -216 228 -216c113 0 228 47 228 217v233c0 96 -15 113 -98 117v19z" />
    <glyph glyph-name="V" unicode="V" horiz-adv-x="688" 
d="M369 -16h-50l-217 541c-25 63 -37 78 -98 78v19h275v-19c-92 -2 -114 -23 -95 -69l180 -448l158 413c11 28 17 48 17 62c0 30 -25 42 -93 42v19h232v-19c-52 0 -79 -24 -103 -86z" />
    <glyph glyph-name="W" unicode="W" horiz-adv-x="1000" 
d="M687 -16h-48l-131 309l-126 -309h-49l-208 532c-30 76 -54 87 -118 87h-6v19h259v-19h-17c-47 0 -65 -21 -48 -63l182 -458l108 267l-81 197c-20 49 -50 57 -103 57v19h410v-19c-62 0 -83 -15 -99 -53l-64 -156l131 -312l177 464c16 41 3 55 -70 57v19h207v-19
c-61 0 -75 -12 -105 -91zM525 450l45 110c11 27 4 43 -25 43h-42c-26 0 -40 -10 -28 -37z" />
    <glyph glyph-name="X" unicode="X" horiz-adv-x="750" 
d="M356 283l-159 -191c-39 -47 -36 -73 30 -73h20v-19h-238v19c70 6 97 23 167 107l155 187l-155 195c-62 78 -88 93 -167 95v19h298v-19c-88 1 -92 -21 -61 -60l136 -168l108 129c60 71 58 99 4 99h-29v19h240v-19c-66 0 -112 -31 -170 -102l-128 -157l188 -234
c58 -73 76 -84 152 -91v-19h-276v19c70 0 86 17 35 79z" />
    <glyph glyph-name="Y" unicode="Y" horiz-adv-x="708" 
d="M371 291l141 240c32 55 13 72 -51 72v19h226v-19c-68 -5 -97 -32 -125 -79l-166 -281v-150c0 -53 19 -74 80 -74h13v-19h-275v19h19c62 0 80 23 80 72v141l-178 278c-49 77 -72 91 -137 93v19h266v-19c-78 0 -83 -19 -53 -65z" />
    <glyph glyph-name="Z" unicode="Z" horiz-adv-x="677" 
d="M40 0v23l449 563h-297c-65 0 -84 -20 -92 -105h-18l5 141h515v-23l-452 -563h354c75 0 84 38 107 145h18l-12 -181h-577z" />
    <glyph glyph-name="bracketleft" unicode="[" horiz-adv-x="302" 
d="M102 652h193v-20h-71c-45 0 -55 -12 -55 -39v-748c0 -27 10 -39 55 -39h71v-20h-193v866z" />
    <glyph glyph-name="backslash" unicode="\" horiz-adv-x="458" 
d="M89 637l323 -651h-43l-323 651h43z" />
    <glyph glyph-name="bracketright" unicode="]" horiz-adv-x="302" 
d="M200 652v-866h-193v20h71c45 0 55 12 55 39v748c0 27 -10 39 -55 39h-71v20h193z" />
    <glyph glyph-name="asciicircum" unicode="^" horiz-adv-x="469" 
d="M242 672l209 -350h-46l-171 286l-170 -286h-46l209 350h15z" />
    <glyph glyph-name="underscore" unicode="_" horiz-adv-x="500" 
d="M508 -125h-516v50h516v-50z" />
    <glyph glyph-name="quoteleft" unicode="&#x2018;" horiz-adv-x="260" 
d="M179 660l7 -18c-50 -29 -77 -64 -77 -100c0 -12 4 -21 14 -21c9 0 13 3 24 3c26 0 45 -19 45 -45c0 -27 -24 -49 -54 -49c-40 0 -70 35 -70 83c0 62 45 122 111 147z" />
    <glyph glyph-name="a" unicode="a" horiz-adv-x="396" 
d="M113 310l-68 -33c-2 6 -3 9 -3 14c0 35 83 116 148 116c30 0 77 -14 105 -53c15 -21 15 -34 15 -86v-134c0 -80 0 -98 26 -98c11 0 24 1 49 22l5 -15c-54 -44 -82 -55 -99 -55c-41 0 -45 45 -46 61c-69 -57 -89 -61 -116 -61c-58 0 -93 33 -93 82c0 61 54 82 118 98
c21 5 54 17 89 38v79c0 28 0 44 -17 64c-13 16 -34 29 -56 29c-33 0 -62 -28 -62 -49c0 -6 1 -10 5 -19zM243 67v119c-19 -11 -35 -18 -59 -28c-61 -25 -84 -35 -84 -76c0 -36 29 -59 59 -59c16 0 28 5 84 44z" />
    <glyph glyph-name="b" unicode="b" horiz-adv-x="500" 
d="M142 672v-335c71 51 114 70 151 70c89 0 164 -88 164 -193c0 -128 -101 -226 -234 -226c-45 0 -84 7 -148 19v542c0 52 -3 56 -41 61l-28 4v17l120 41h16zM142 314v-192c0 -50 33 -105 109 -105c82 0 139 69 139 169s-59 175 -136 175c-31 0 -67 -15 -112 -47z" />
    <glyph glyph-name="c" unicode="c" horiz-adv-x="427" 
d="M376 101l15 -9c-42 -67 -97 -104 -177 -104c-120 0 -168 114 -168 193c0 125 103 226 230 226c63 0 112 -25 112 -57c0 -17 -13 -30 -29 -30c-49 0 -61 61 -117 61c-69 0 -129 -82 -129 -178c0 -100 60 -174 141 -174c48 0 86 22 122 72z" />
    <glyph glyph-name="d" unicode="d" horiz-adv-x="500" 
d="M358 388v194c0 19 -7 24 -39 28l-33 4v17l139 41v-587c0 -34 21 -41 49 -33l24 7v-21l-128 -50h-12v71c-65 -47 -117 -71 -155 -71c-89 0 -160 86 -160 193c0 125 95 226 217 226c30 0 71 -8 98 -19zM358 81v224c-36 53 -72 75 -119 75c-78 0 -129 -71 -129 -165
c0 -100 58 -184 130 -184c31 0 74 19 118 50z" />
    <glyph glyph-name="e" unicode="e" horiz-adv-x="438" 
d="M406 254h-292c-2 -15 -4 -29 -4 -42c0 -104 73 -174 152 -174c50 0 89 20 127 65l11 -12c-42 -53 -105 -103 -178 -103c-98 0 -174 89 -174 205c0 106 71 214 193 214c135 0 132 -97 165 -130v-23zM117 280h205c-11 65 -51 108 -99 108c-33 0 -83 -15 -106 -108z" />
    <glyph glyph-name="f" unicode="f" horiz-adv-x="271" 
d="M258 396l7 -44h-108v-274c0 -46 18 -59 74 -59h38v-19h-247v19c58 0 68 13 68 69v264h-74v17c28 6 52 15 74 27c0 83 18 146 77 205c49 49 96 71 142 71c56 0 103 -32 103 -47c0 -8 -19 -48 -27 -48c-14 0 -51 49 -117 49c-72 0 -111 -57 -111 -154v-76h101z" />
    <glyph glyph-name="g" unicode="g" horiz-adv-x="469" 
d="M472 377v-63c-15 1 -62 5 -100 12c6 -11 17 -32 17 -64c0 -74 -64 -145 -175 -145c-19 0 -28 2 -46 8c-16 -17 -61 -28 -61 -51c0 -25 43 -35 143 -36c113 -1 152 -6 182 -36c24 -24 30 -49 30 -70c0 -65 -88 -165 -273 -165c-104 0 -154 46 -154 95c0 58 61 67 107 123
c-54 5 -95 39 -95 71c0 46 67 48 102 74c-61 24 -96 67 -96 124c0 86 77 153 176 153c46 0 85 -14 112 -40c45 0 87 5 131 10zM322 253c0 86 -44 135 -105 135c-38 0 -97 -21 -97 -114c0 -59 30 -138 106 -138c58 0 96 48 96 117zM97 -105c0 -47 66 -100 148 -100
c85 0 165 56 165 119c0 37 -31 56 -67 59c-26 3 -152 4 -181 8c-28 -33 -65 -47 -65 -86z" />
    <glyph glyph-name="h" unicode="h" 
d="M160 319v-240c0 -47 13 -60 65 -60v-19h-200v19c55 3 68 22 68 77v479c0 22 -4 30 -25 33l-43 6v17l119 41h16v-328c66 39 114 63 165 63c77 0 111 -48 111 -149c0 -91 -2 -147 -5 -201c2 -27 17 -38 76 -38v-19h-216v19c26 0 45 5 56 16c18 18 22 61 22 210
c0 107 -58 121 -91 121s-69 -16 -118 -47z" />
    <glyph glyph-name="i" unicode="i" horiz-adv-x="260" 
d="M168 412v-336c0 -35 19 -57 72 -57v-19h-222v19c61 0 83 20 83 73v201c0 39 -5 44 -31 49l-47 9v16l130 45h15zM84 599c0 21 19 38 43 38s44 -17 44 -38s-20 -38 -44 -38s-43 17 -43 38z" />
    <glyph glyph-name="j" unicode="j" horiz-adv-x="250" 
d="M168 412v-430c0 -137 -74 -215 -166 -215c-60 0 -107 23 -107 52c0 25 15 46 30 46c30 0 63 -60 109 -60c40 0 67 29 67 109v388c0 30 -6 36 -33 41l-45 8v16l131 45h14zM82 599c0 21 19 38 43 38s44 -17 44 -38s-20 -38 -44 -38s-43 17 -43 38z" />
    <glyph glyph-name="k" unicode="k" horiz-adv-x="500" 
d="M265 396h198v-19c-71 -3 -103 -26 -154 -63l-92 -66l160 -163c50 -51 73 -65 119 -66v-19h-215v19c49 0 56 16 30 44l-152 158v-153c0 -35 12 -49 58 -49h10v-19h-205v19c53 0 70 24 70 67v483c0 28 -5 36 -29 39l-41 6v17l122 41h15v-434l144 103c26 19 16 36 -21 36
h-17v19z" />
    <glyph glyph-name="l" unicode="l" horiz-adv-x="240" 
d="M156 672v-593c0 -41 19 -60 58 -60h17v-19h-225v19c64 0 83 19 83 67v483c0 28 -3 37 -31 40l-45 5v17l128 41h15z" />
    <glyph glyph-name="m" unicode="m" horiz-adv-x="792" 
d="M159 309v-228c0 -52 14 -62 70 -62v-19h-208v19c58 0 71 26 71 77v196c0 39 -6 48 -29 51l-39 5v17l120 42h15v-80c72 51 138 80 178 80c49 0 85 -31 95 -80c67 42 128 80 177 80c72 0 100 -55 100 -151c0 -64 0 -131 -3 -192c0 -21 12 -45 53 -45h32v-19h-225v19h9
c29 0 42 5 51 14c15 15 16 73 16 142v78c0 77 -26 114 -75 114c-31 0 -71 -15 -133 -56v-230c0 -50 12 -62 62 -62v-19h-205v19c56 0 76 20 76 77v185c0 63 -39 86 -74 86c-28 0 -66 -13 -134 -58z" />
    <glyph glyph-name="n" unicode="n" 
d="M160 304v-217c0 -55 13 -68 67 -68v-19h-201v19c44 0 67 24 67 63v210c0 37 -4 44 -30 49l-34 7v16l115 42h16v-78c67 42 123 79 172 79c68 0 107 -50 107 -150c0 -133 -7 -159 -8 -198c-1 -27 15 -40 56 -40h22v-19h-215v19c29 1 46 8 57 19c19 19 21 92 21 225
c0 80 -39 105 -79 105c-32 0 -81 -28 -133 -64z" />
    <glyph glyph-name="o" unicode="o" 
d="M45 195c0 138 112 212 216 212c122 0 215 -91 215 -210c0 -118 -93 -209 -212 -209c-124 0 -219 90 -219 207zM120 229c0 -121 69 -217 155 -217c59 0 126 60 126 160c0 114 -70 211 -154 211c-66 0 -127 -68 -127 -154z" />
    <glyph glyph-name="p" unicode="p" horiz-adv-x="500" 
d="M150 13v-162c0 -50 25 -65 67 -65h25v-19h-236v19h10c51 0 67 17 67 74v441c0 19 -4 27 -28 33l-32 8v19l107 66h20v-96c62 47 115 73 155 73c78 0 148 -88 148 -186c0 -121 -98 -225 -212 -225c-27 0 -53 6 -91 20zM150 306v-228c36 -32 81 -54 118 -54
c68 0 118 67 118 149c0 132 -78 182 -131 182c-31 0 -69 -18 -105 -49z" />
    <glyph glyph-name="q" unicode="q" horiz-adv-x="500" 
d="M427 354v-507c0 -43 27 -61 58 -61h11v-19h-242v19h39c52 0 67 20 67 77v199c-55 -48 -102 -70 -151 -70c-94 0 -163 83 -163 196c0 122 93 219 211 219c42 0 81 -11 126 -34c8 11 22 25 33 32h17c-4 -18 -6 -31 -6 -51zM360 85v178c0 71 -49 119 -113 119
c-81 0 -134 -65 -134 -168c0 -102 60 -180 138 -180c33 0 77 19 109 51z" />
    <glyph glyph-name="r" unicode="r" horiz-adv-x="333" 
d="M160 267v-194c0 -41 15 -54 65 -54h38v-19h-237v19c51 1 67 22 67 75v231l-67 24v17l114 40h20v-106h2c50 82 62 101 95 101c12 0 15 -1 34 -9c10 -4 28 -8 52 -15l-24 -60c-15 2 -34 7 -53 16c-11 5 -23 10 -35 10c-18 0 -29 -12 -39 -26c-13 -18 -24 -35 -32 -50z" />
    <glyph glyph-name="s" unicode="s" horiz-adv-x="302" 
d="M32 101h16c12 -60 50 -94 95 -94c40 0 71 30 71 66c0 21 -5 34 -32 61c-71 71 -150 78 -150 161c0 66 52 112 128 112c27 0 55 -6 80 -16l2 -91h-17c-7 51 -40 83 -80 83c-33 0 -61 -23 -61 -56c0 -88 186 -103 186 -225c0 -65 -54 -114 -124 -114c-19 0 -33 3 -44 7
c-11 3 -19 6 -27 6c-6 0 -12 -4 -17 -12h-15z" />
    <glyph glyph-name="t" unicode="t" horiz-adv-x="292" 
d="M142 396h143l-16 -44h-127v-233c0 -63 45 -84 66 -84c22 0 42 17 61 50l16 -15c-24 -52 -63 -82 -109 -82c-59 0 -101 49 -101 116v248h-46v16c39 19 73 65 96 127h17v-99z" />
    <glyph glyph-name="u" unicode="u" 
d="M497 47v-18l-134 -41v80c-75 -54 -130 -80 -170 -80c-50 0 -106 34 -106 102v222c0 24 -6 35 -27 41l-35 10v15l129 28v-280c0 -62 45 -90 90 -90c34 0 78 21 119 55v215c0 39 -5 47 -37 53l-50 9v14l154 24v-337c0 -28 10 -33 46 -26z" />
    <glyph glyph-name="v" unicode="v" horiz-adv-x="479" 
d="M256 -9h-29l-145 332c-15 35 -28 47 -44 50l-31 5v18h204v-18c-61 -2 -80 -10 -56 -57l106 -249l102 231c18 41 9 70 -64 75v18h174v-18c-38 -7 -60 -29 -79 -73z" />
    <glyph glyph-name="w" unicode="w" horiz-adv-x="740" 
d="M525 -9h-27l-119 282l-120 -282h-28l-149 336c-14 31 -28 46 -74 51v18h194v-18c-59 -3 -63 -20 -42 -67l108 -241l98 232c-22 51 -39 69 -74 73l-24 3v18h207v-18c-49 -1 -64 -16 -43 -66l98 -238l96 234c22 53 5 70 -58 70v18h168v-18c-38 -4 -62 -23 -82 -72z" />
    <glyph glyph-name="x" unicode="x" horiz-adv-x="490" 
d="M15 378v18h202v-18c-46 0 -52 -13 -33 -41l75 -99l65 73c35 39 18 67 -33 67v18h193v-18l-29 -3c-44 -5 -69 -27 -98 -59l-85 -94l120 -150c26 -32 46 -52 92 -52v-20h-200v20c49 0 61 10 36 42l-89 114l-88 -99c-29 -33 -7 -57 51 -57v-20h-186v20c48 0 67 12 102 52
l107 120l-97 127c-24 32 -51 57 -105 59z" />
    <glyph glyph-name="y" unicode="y" horiz-adv-x="469" 
d="M261 73l85 212c30 76 11 91 -48 93v18h166v-18c-41 -5 -64 -33 -83 -80l-170 -424c-30 -74 -53 -107 -88 -107c-24 0 -41 15 -41 35c0 41 58 31 83 56c11 11 26 37 34 57l30 75l-155 329c-19 41 -37 58 -79 59v18h201v-18c-61 -1 -68 -19 -48 -61z" />
    <glyph glyph-name="z" unicode="z" horiz-adv-x="406" 
d="M31 0v19l253 341h-137h-32c-26 0 -31 -26 -53 -96h-19l31 159h17c0 -22 9 -27 47 -27h238v-18l-252 -342h183c34 0 49 24 69 73h18l-41 -109h-322z" />
    <glyph glyph-name="braceleft" unicode="{" horiz-adv-x="479" 
d="M103 211v17c65 12 111 53 111 100c0 23 -6 47 -12 72c-6 26 -11 54 -11 84c0 87 76 178 184 188v-18c-73 -7 -113 -65 -113 -116c0 -31 4 -55 9 -79s10 -48 10 -78c0 -62 -51 -133 -139 -160v-2c88 -27 139 -99 139 -161c0 -30 -5 -53 -10 -77s-9 -49 -9 -80
c0 -51 40 -109 113 -116v-18c-108 10 -184 101 -184 188c0 31 5 59 11 84c6 26 12 50 12 72c0 47 -46 88 -111 100z" />
    <glyph glyph-name="bar" unicode="|" horiz-adv-x="510" 
d="M234 637h43v-870h-43v870z" />
    <glyph glyph-name="braceright" unicode="}" horiz-adv-x="479" 
d="M376 228v-17c-65 -12 -111 -53 -111 -100c0 -22 5 -46 11 -72c6 -25 12 -53 12 -84c0 -87 -76 -178 -184 -188v18c73 7 113 65 113 116c0 31 -5 56 -10 80s-9 47 -9 77c0 62 51 134 139 161v2c-88 27 -139 98 -139 160c0 30 4 54 9 78s10 48 10 79c0 51 -40 109 -113 116
v18c108 -10 184 -101 184 -188c0 -30 -6 -58 -12 -84c-6 -25 -11 -49 -11 -72c0 -47 46 -88 111 -100z" />
    <glyph glyph-name="asciitilde" unicode="~" horiz-adv-x="542" 
d="M507 387h28c-4 -98 -52 -149 -129 -149c-45 0 -99 22 -150 44c-52 22 -101 44 -137 44c-47 0 -73 -29 -84 -88h-28c2 101 53 149 129 149c40 0 90 -21 145 -44c54 -23 108 -46 144 -46c46 0 77 34 82 90z" />
    <glyph glyph-name="exclamdown" unicode="&#xa1;" horiz-adv-x="260" 
d="M118 239h20l37 -450c1 -18 -3 -22 -25 -22h-45c-23 0 -26 5 -24 24zM179 382c0 -28 -22 -47 -51 -47c-28 0 -51 18 -51 47c0 30 23 47 51 47c29 0 51 -19 51 -47z" />
    <glyph glyph-name="cent" unicode="&#xa2;" horiz-adv-x="427" 
d="M72 -168l70 172c-64 36 -96 108 -96 177c0 124 106 239 256 225l52 127h32l-54 -134c39 -12 56 -28 56 -49c0 -17 -13 -30 -29 -30c-17 0 -33 8 -50 24l-119 -299c27 -12 44 -16 65 -16c48 0 83 21 122 72l14 -9c-47 -76 -121 -121 -221 -98l-66 -162h-32zM165 65
l121 299c-20 13 -30 17 -44 17c-69 0 -129 -82 -129 -178c0 -55 17 -99 52 -138z" />
    <glyph glyph-name="sterling" unicode="&#xa3;" horiz-adv-x="760" 
d="M208 88l78 202c46 119 93 218 171 296c53 53 103 74 161 74c64 0 118 -33 118 -71c0 -18 -13 -31 -32 -31c-43 0 -56 68 -124 68c-19 0 -48 -11 -73 -36c-65 -65 -147 -334 -236 -502h172l-5 -24h-178c-27 -56 -50 -92 -85 -135l2 -2c33 18 70 27 109 27
c130 0 187 -125 284 -125c50 0 90 33 90 74c0 31 -28 52 -28 73s16 37 35 37c26 0 44 -28 44 -66c0 -86 -90 -167 -186 -167c-135 0 -182 141 -289 141c-25 0 -50 -8 -81 -23c-34 -69 -81 -116 -114 -116c-14 0 -27 11 -27 23c0 32 57 86 118 109c29 51 47 99 66 150h-147
l5 24h152z" />
    <glyph glyph-name="fraction" unicode="&#x2044;" horiz-adv-x="115" 
d="M-165 -27h-41l486 681h41z" />
    <glyph glyph-name="yen" unicode="&#xa5;" horiz-adv-x="500" 
d="M160 457h205l43 74c31 54 13 72 -51 72v19h226v-19c-68 -5 -97 -31 -125 -79l-39 -67h111v-33h-131l-93 -157h224v-33h-238v-141c0 -53 19 -74 80 -74h13v-19h-275v19h19c62 0 80 23 80 72v143h-268v33h246l-101 157h-145v33h124l-34 53c-49 77 -72 91 -137 93v19h266
v-19c-78 0 -83 -19 -53 -65zM345 424h-164l86 -133z" />
    <glyph glyph-name="florin" unicode="&#x192;" horiz-adv-x="500" 
d="M201 363h-69l3 19c24 3 48 7 73 13c15 82 45 168 101 224c35 35 79 54 118 54s71 -22 71 -48c0 -16 -12 -29 -28 -29c-33 0 -60 41 -89 41c-39 0 -71 -44 -85 -110l-27 -131h86l-10 -33h-82l-51 -292c-39 -224 -153 -304 -247 -304c-42 0 -77 21 -77 46c0 16 16 30 33 30
c37 0 57 -44 95 -44c23 0 43 11 61 29c50 50 69 221 73 245z" />
    <glyph glyph-name="section" unicode="&#xa7;" horiz-adv-x="469" 
d="M313 -114c0 102 -261 322 -261 520c0 135 99 254 225 254c63 0 128 -33 128 -65c0 -18 -16 -32 -36 -32c-42 0 -57 67 -122 67c-49 0 -91 -36 -91 -81c0 -41 48 -105 126 -214c81 -113 134 -199 134 -317c0 -152 -132 -239 -228 -239c-63 0 -123 31 -123 63
c0 17 15 32 32 32c44 0 52 -66 125 -66c49 0 91 37 91 78zM175 192c62 -99 155 -205 170 -295c23 34 33 68 33 111c0 114 -43 177 -114 280c-63 91 -137 194 -140 253h-2c-20 -31 -33 -80 -33 -125c0 -90 55 -174 86 -224z" />
    <glyph glyph-name="currency" unicode="&#xa4;" horiz-adv-x="667" 
d="M472 488l61 61l30 -31l-61 -60c36 -49 49 -85 49 -138c0 -51 -13 -87 -49 -137l61 -61l-30 -30l-61 61c-50 -37 -86 -50 -138 -50s-89 14 -138 49l-61 -60l-30 30l61 60c-36 50 -49 86 -49 138s13 89 49 138l-61 60l30 31l61 -60c50 36 86 48 138 48s87 -12 138 -49z
M160 320c0 -95 78 -174 174 -174c95 0 174 79 174 174c0 96 -79 174 -174 174c-96 0 -174 -78 -174 -174z" />
    <glyph glyph-name="quotesingle" unicode="'" horiz-adv-x="177" 
d="M89 637c29 0 49 -22 49 -53c0 -26 -8 -64 -12 -88l-25 -144h-24l-25 144c-4 24 -12 62 -12 88c0 31 20 53 49 53z" />
    <glyph glyph-name="quotedblleft" unicode="&#x201c;" horiz-adv-x="479" 
d="M398 660l7 -18c-50 -29 -77 -64 -77 -100c0 -12 4 -21 14 -21c9 0 13 3 24 3c26 0 45 -19 45 -45c0 -27 -24 -49 -54 -49c-40 0 -70 35 -70 83c0 62 45 122 111 147zM171 660l7 -18c-50 -29 -77 -64 -77 -100c0 -12 4 -21 14 -21c9 0 13 3 24 3c26 0 45 -19 45 -45
c0 -27 -24 -49 -54 -49c-40 0 -70 35 -70 83c0 62 45 122 111 147z" />
    <glyph glyph-name="guillemotleft" unicode="&#xab;" horiz-adv-x="354" 
d="M245 219l65 -169h-18l-117 169l117 169h18zM104 219l95 -184h-18l-147 184l147 184h18z" />
    <glyph glyph-name="guilsinglleft" unicode="&#x2039;" horiz-adv-x="229" 
d="M104 219l95 -184h-18l-147 184l147 184h18z" />
    <glyph glyph-name="guilsinglright" unicode="&#x203a;" horiz-adv-x="229" 
d="M125 219l-95 184h18l147 -184l-147 -184h-18z" />
    <glyph glyph-name="endash" unicode="&#x2013;" horiz-adv-x="500" 
d="M-6 271h512v-44h-512v44z" />
    <glyph glyph-name="dagger" unicode="&#x2020;" horiz-adv-x="500" 
d="M234 373l-188 -26c-13 -2 -19 2 -19 21v49c0 15 6 20 14 19l193 -28l-28 223c-2 13 3 19 16 19h45c27 0 29 -3 27 -18l-27 -224l188 27c15 2 19 -2 19 -24v-41c0 -19 -5 -24 -14 -23l-193 26l32 -568c1 -17 -4 -20 -13 -20h-67c-14 0 -18 4 -17 21z" />
    <glyph glyph-name="daggerdbl" unicode="&#x2021;" 
d="M298 219l-19 -187l180 25c19 3 25 -2 25 -20v-43c0 -22 -4 -26 -18 -24l-187 26l25 -185c2 -16 -3 -23 -19 -23h-48c-17 0 -22 5 -19 24l25 184l-186 -26c-14 -2 -20 5 -20 18v49c0 19 8 22 23 20l183 -25l-19 187l19 187l-183 -25c-15 -2 -23 1 -23 20v49
c0 13 6 20 20 18l186 -26l-25 184c-3 19 2 24 19 24h48c16 0 21 -7 19 -23l-25 -185l187 26c14 2 18 -2 18 -24v-43c0 -18 -6 -23 -25 -20l-180 25z" />
    <glyph glyph-name="periodcentered" unicode="&#xb7;" horiz-adv-x="260" 
d="M130 370c28 0 51 -18 51 -47c0 -30 -23 -47 -51 -47c-29 0 -51 19 -51 47s22 47 51 47z" />
    <glyph glyph-name="paragraph" unicode="&#xb6;" horiz-adv-x="448" 
d="M390 595v-828h-36v828h-91v-828h-36v486c-164 0 -234 75 -234 185c0 115 82 184 220 184h241v-27h-64z" />
    <glyph glyph-name="bullet" unicode="&#x2022;" horiz-adv-x="354" 
d="M178 434c68 0 122 -54 122 -122s-54 -123 -122 -123s-123 55 -123 123s55 122 123 122z" />
    <glyph glyph-name="quotesinglbase" unicode="&#x201a;" horiz-adv-x="260" 
d="M81 -148l-7 18c50 29 77 64 77 100c0 12 -4 21 -14 21c-4 0 -8 -1 -11 -1c-4 -1 -7 -2 -13 -2c-26 0 -45 19 -45 45c0 27 24 49 54 49c40 0 70 -35 70 -83c0 -62 -45 -122 -111 -147z" />
    <glyph glyph-name="quotedblbase" unicode="&#x201e;" horiz-adv-x="479" 
d="M308 -148l-7 18c50 29 77 64 77 100c0 12 -4 21 -14 21c-4 0 -8 -1 -11 -1c-4 -1 -7 -2 -13 -2c-26 0 -45 19 -45 45c0 27 24 49 54 49c40 0 70 -35 70 -83c0 -62 -45 -122 -111 -147zM81 -148l-7 18c50 29 77 64 77 100c0 12 -4 21 -14 21c-4 0 -8 -1 -11 -1
c-4 -1 -7 -2 -13 -2c-26 0 -45 19 -45 45c0 27 24 49 54 49c40 0 70 -35 70 -83c0 -62 -45 -122 -111 -147z" />
    <glyph glyph-name="quotedblright" unicode="&#x201d;" horiz-adv-x="479" 
d="M308 430l-7 18c50 29 77 64 77 100c0 12 -4 21 -14 21c-9 0 -13 -3 -24 -3c-26 0 -45 19 -45 45c0 27 24 49 54 49c40 0 70 -35 70 -83c0 -62 -45 -122 -111 -147zM81 430l-7 18c50 29 77 64 77 100c0 12 -4 21 -14 21c-9 0 -13 -3 -24 -3c-26 0 -45 19 -45 45
c0 27 24 49 54 49c40 0 70 -35 70 -83c0 -62 -45 -122 -111 -147z" />
    <glyph glyph-name="guillemotright" unicode="&#xbb;" horiz-adv-x="354" 
d="M109 219l-65 169h18l117 -169l-117 -169h-18zM250 219l-95 184h18l147 -184l-147 -184h-18z" />
    <glyph glyph-name="ellipsis" unicode="&#x2026;" horiz-adv-x="1000" 
d="M833 82c28 0 51 -18 51 -47c0 -30 -23 -47 -51 -47c-29 0 -51 19 -51 47s22 47 51 47zM500 82c28 0 51 -18 51 -47c0 -30 -23 -47 -51 -47c-29 0 -51 19 -51 47s22 47 51 47zM167 82c28 0 51 -18 51 -47c0 -30 -23 -47 -51 -47c-29 0 -51 19 -51 47s22 47 51 47z" />
    <glyph glyph-name="perthousand" unicode="&#x2030;" horiz-adv-x="1000" 
d="M16 468c0 95 56 169 128 169s129 -74 129 -169s-57 -169 -129 -169s-128 74 -128 169zM72 468c0 -104 23 -154 72 -154s73 50 73 154s-24 154 -73 154s-72 -50 -72 -154zM726 162c0 95 56 169 128 169s129 -74 129 -169s-57 -169 -129 -169s-128 74 -128 169zM782 162
c0 -104 23 -154 72 -154s73 50 73 154s-24 154 -73 154s-72 -50 -72 -154zM420 162c0 95 56 169 128 169s129 -74 129 -169s-57 -169 -129 -169s-128 74 -128 169zM476 162c0 -104 23 -154 72 -154s73 50 73 154s-24 154 -73 154s-72 -50 -72 -154zM125 -27h-42l486 681h41z
" />
    <glyph glyph-name="questiondown" unicode="&#xbf;" horiz-adv-x="354" 
d="M216 -233c-96 0 -173 69 -173 177c0 189 180 146 180 216c0 25 -15 49 -38 72h22c27 -29 49 -69 49 -103c0 -117 -189 -64 -189 -197c0 -59 43 -89 102 -89c32 0 59 7 77 7c28 0 57 -8 57 -36c0 -26 -23 -47 -87 -47zM199 318c-28 0 -51 18 -51 47c0 30 23 47 51 47
c29 0 51 -19 51 -47s-22 -47 -51 -47z" />
    <glyph glyph-name="grave" unicode="`" horiz-adv-x="333" 
d="M244 488l-106 71c-48 32 -68 52 -68 71c0 17 13 29 31 29c20 0 44 -17 64 -44l92 -127h-13z" />
    <glyph glyph-name="acute" unicode="&#xb4;" horiz-adv-x="333" 
d="M83 488h-13l92 127c20 27 44 44 64 44c18 0 31 -12 31 -29c0 -19 -20 -39 -68 -71z" />
    <glyph glyph-name="circumflex" unicode="&#x2c6;" horiz-adv-x="333" 
d="M164 611l-118 -125v17l108 180h28l106 -180v-17z" />
    <glyph glyph-name="tilde" unicode="&#x2dc;" horiz-adv-x="333" 
d="M43 508h-11c0 74 31 112 81 112c26 0 50 -15 71 -30c22 -15 42 -31 60 -31c27 0 43 19 46 61h11c7 -66 -34 -111 -77 -111c-26 0 -49 16 -71 31c-21 15 -41 30 -61 30c-27 0 -44 -21 -49 -62z" />
    <glyph glyph-name="macron" unicode="&#xaf;" horiz-adv-x="333" 
d="M29 589h275v-58h-275v58z" />
    <glyph glyph-name="breve" unicode="&#x2d8;" horiz-adv-x="333" 
d="M30 660h16c15 -60 57 -92 121 -92c63 0 106 32 120 92h16c-3 -90 -60 -156 -136 -156s-134 66 -137 156z" />
    <glyph glyph-name="dotaccent" unicode="&#x2d9;" horiz-adv-x="333" 
d="M167 603c24 0 44 -20 44 -44s-20 -44 -44 -44s-44 20 -44 44s20 44 44 44z" />
    <glyph glyph-name="dieresis" unicode="&#xa8;" horiz-adv-x="333" 
d="M264 603c24 0 44 -20 44 -44s-20 -44 -44 -44s-44 20 -44 44s20 44 44 44zM70 603c24 0 44 -20 44 -44s-20 -44 -44 -44s-44 20 -44 44s20 44 44 44z" />
    <glyph glyph-name="ring" unicode="&#x2da;" horiz-adv-x="333" 
d="M167 644c50 0 91 -41 91 -91s-41 -91 -91 -91s-91 41 -91 91s41 91 91 91zM167 620c-37 0 -67 -30 -67 -67s30 -67 67 -67s67 30 67 67s-30 67 -67 67z" />
    <glyph glyph-name="cedilla" unicode="&#xb8;" horiz-adv-x="333" 
d="M112 -201l7 14c10 -3 18 -4 26 -4c29 0 53 23 53 51c0 22 -12 36 -32 36c-16 0 -37 -7 -64 -20l78 129h15l-32 -54c43 8 77 -33 77 -74c0 -48 -38 -86 -85 -86c-15 0 -28 3 -43 8z" />
    <glyph glyph-name="hungarumlaut" unicode="&#x2dd;" horiz-adv-x="333" 
d="M148 488h-13l92 127c20 27 44 44 64 44c18 0 31 -12 31 -29c0 -19 -20 -39 -68 -71zM7 488h-13l92 127c20 27 44 44 64 44c18 0 31 -12 31 -29c0 -19 -20 -39 -68 -71z" />
    <glyph glyph-name="ogonek" unicode="&#x2db;" horiz-adv-x="333" 
d="M112 8h25c-10 -20 -13 -32 -13 -49c0 -68 61 -95 104 -95c20 0 38 4 59 11l10 -15c-56 -31 -75 -37 -113 -37c-66 0 -112 37 -112 90c0 36 15 71 40 95z" />
    <glyph glyph-name="caron" unicode="&#x2c7;" horiz-adv-x="333" 
d="M169 558l118 125v-17l-108 -180h-28l-106 180v17z" />
    <glyph glyph-name="emdash" unicode="&#x2014;" horiz-adv-x="1000" 
d="M-6 271h1012v-44h-1012v44z" />
    <glyph glyph-name="AE" unicode="&#xc6;" horiz-adv-x="875" 
d="M418 597h-9l-190 -314h199v314zM745 415v-190h-19c-8 71 -27 79 -68 79h-157v-213c0 -46 17 -55 54 -55h142c70 0 91 27 116 113h18l-16 -149h-519v19h28c80 0 94 22 94 82v146h-220l-99 -161c-25 -40 -20 -67 63 -67v-19h-214v19c47 0 74 23 112 85l263 435
c25 42 16 64 -27 64h-22v19h510l8 -139h-18c-14 92 -43 103 -74 103h-199v-246h167c36 0 53 17 58 75h19z" />
    <glyph glyph-name="ordfeminine" unicode="&#xaa;" horiz-adv-x="260" 
d="M83 576l-54 -24c-21 27 48 85 96 85c40 0 83 -25 83 -63v-128c0 -17 1 -27 11 -27s25 8 34 17l6 -17c-29 -24 -51 -35 -70 -35c-18 0 -30 11 -34 31c-33 -25 -46 -31 -71 -31c-37 0 -63 21 -63 52c0 56 82 52 132 81v55c0 26 -24 42 -41 42c-16 0 -43 -17 -29 -38z
M153 434v63c-47 -22 -79 -22 -79 -54c0 -18 13 -32 31 -32c8 0 34 15 48 23z" />
    <glyph glyph-name="Lslash" unicode="&#x141;" horiz-adv-x="552" 
d="M321 459l-122 -116v-270c0 -27 11 -37 40 -37h147c59 0 77 23 140 110h18l-77 -146h-447v19h33c46 0 63 15 63 66v191l-96 -92v43l96 92v209c0 53 -16 75 -79 75h-14v19h295v-19h-37c-65 0 -82 -7 -82 -69v-148l122 116v-43z" />
    <glyph glyph-name="Oslash" unicode="&#xd8;" horiz-adv-x="823" 
d="M633 575l79 90l14 -14l-76 -89c58 -43 121 -115 121 -237c0 -198 -161 -341 -357 -341c-38 0 -127 4 -217 61l-96 -108l-14 12l93 107c-95 68 -126 164 -126 246c0 173 136 335 362 335c111 0 179 -37 217 -62zM224 107l368 421c-53 57 -126 84 -203 84
c-156 0 -241 -145 -241 -287c0 -80 25 -158 76 -218zM605 513l-368 -420c22 -23 89 -84 193 -84c185 0 247 162 247 286c0 80 -20 156 -72 218z" />
    <glyph glyph-name="OE" unicode="&#x152;" horiz-adv-x="990" 
d="M858 415v-190h-19c-8 71 -27 79 -68 79h-162v-268h200c70 0 91 27 116 113h18l-16 -149h-399c-20 0 -56 -2 -88 -3c-33 -2 -63 -4 -74 -4c-146 0 -309 117 -309 314c0 122 83 322 340 322c27 0 58 -2 93 -4c34 -1 71 -3 108 -3h298l8 -139h-18c-13 92 -40 103 -74 103
h-203v-246h172c36 0 53 17 58 75h19zM526 156v338c0 74 -55 110 -142 110c-168 0 -240 -124 -240 -281c0 -177 111 -305 249 -305c46 0 133 18 133 138z" />
    <glyph glyph-name="ordmasculine" unicode="&#xba;" horiz-adv-x="344" 
d="M314 511c0 -60 -56 -127 -144 -127c-113 0 -144 92 -144 127c0 54 50 126 144 126c113 0 144 -90 144 -126zM87 530c0 -69 41 -125 93 -125c43 0 75 39 75 91c0 65 -43 120 -93 120c-43 0 -75 -37 -75 -86z" />
    <glyph glyph-name="ae" unicode="&#xe6;" horiz-adv-x="625" 
d="M595 254h-279v-24c0 -35 5 -79 13 -101c17 -53 69 -90 124 -90c46 0 78 17 119 61l12 -12c-55 -65 -114 -100 -168 -100c-58 0 -106 30 -140 86c-46 -55 -105 -86 -151 -86c-50 0 -89 35 -89 81c0 65 48 78 131 99c27 7 51 15 84 37v72c0 40 -3 52 -18 70s-36 29 -56 29
c-36 0 -65 -24 -65 -53c0 -4 0 -5 2 -12l1 -4l-66 -30c-4 6 -4 10 -4 14c0 24 17 46 62 80c34 25 60 36 87 36c43 0 89 -25 110 -60c36 40 82 60 126 60c135 0 132 -97 165 -130v-23zM319 280h192c-10 63 -52 108 -93 108c-32 0 -58 -22 -75 -44c-13 -18 -20 -35 -24 -64z
M251 71v114c-22 -16 -55 -27 -77 -34c-44 -14 -72 -27 -72 -68c0 -36 24 -60 58 -60c27 0 61 16 91 48z" />
    <glyph glyph-name="dotlessi" unicode="&#x131;" horiz-adv-x="260" 
d="M168 412v-336c0 -35 19 -57 72 -57v-19h-222v19c61 0 83 20 83 73v201c0 39 -5 44 -31 49l-47 9v16l130 45h15z" />
    <glyph glyph-name="lslash" unicode="&#x142;" horiz-adv-x="240" 
d="M231 402l-75 -69v-254c0 -41 19 -60 58 -60h17v-19h-225v19c64 0 83 19 83 67v197l-83 -77v40l83 77v246c0 28 -3 37 -31 40l-45 5v17l128 41h15v-299l75 69v-40z" />
    <glyph glyph-name="oslash" unicode="&#xf8;" 
d="M394 364l57 64l14 -12l-57 -65c27 -25 68 -70 68 -154c0 -133 -109 -209 -213 -209c-36 0 -87 9 -135 43l-68 -78l-14 13l68 77c-47 41 -69 92 -69 153c0 132 109 211 215 211c61 0 103 -21 134 -43zM155 90l201 230c-27 37 -63 63 -109 63c-72 0 -127 -74 -127 -157
c0 -42 11 -94 35 -136zM366 303l-200 -229c15 -23 56 -62 108 -62c35 0 127 34 127 160c0 53 -13 93 -35 131z" />
    <glyph glyph-name="oe" unicode="&#x153;" horiz-adv-x="740" 
d="M709 254h-271c-7 -133 60 -223 135 -223c37 0 71 28 118 71l10 -11c-54 -59 -110 -103 -172 -103c-46 0 -86 25 -116 73c-37 -50 -86 -73 -152 -73c-122 0 -215 91 -215 211c0 116 96 208 213 208c60 0 112 -27 143 -74c43 52 87 74 146 74c126 0 126 -90 161 -130v-23z
M440 280h177c0 71 -37 108 -84 108c-36 0 -58 -28 -66 -38c-15 -20 -23 -38 -27 -70zM377 173c0 123 -57 210 -136 210c-47 0 -120 -56 -120 -160c0 -126 81 -211 149 -211c67 0 107 59 107 161z" />
    <glyph glyph-name="germandbls" unicode="&#xdf;" 
d="M235 354v15c89 9 140 62 140 146c0 79 -45 133 -112 133c-72 0 -111 -66 -111 -152v-415c0 -52 17 -62 65 -62v-19h-197v19c53 0 65 12 65 52v365c0 170 93 236 189 236c94 0 168 -65 168 -148c0 -70 -52 -127 -141 -157v-2c82 -17 174 -74 174 -185
c0 -135 -106 -192 -168 -192c-27 0 -46 13 -46 32c0 15 11 27 23 27c21 0 37 -22 61 -22c31 0 55 59 55 138c0 69 -15 123 -47 155c-29 29 -65 36 -118 36z" />
    <glyph glyph-name="logicalnot" unicode="&#xac;" horiz-adv-x="667" 
d="M71 462h525v-282h-45v238h-480v44z" />
    <glyph glyph-name="mu" unicode="&#xb5;" horiz-adv-x="500" 
d="M57 396h67v-216c0 -102 18 -139 81 -139c50 0 87 20 130 70v285h67v-301c0 -36 16 -56 34 -56c20 0 33 21 39 60h21c-3 -67 -36 -113 -86 -113c-40 0 -74 34 -75 93c-58 -58 -109 -93 -166 -93c-34 0 -53 10 -76 42c-8 -74 22 -134 22 -191c0 -29 -20 -53 -45 -53
s-43 21 -43 53c0 50 30 101 30 199v360z" />
    <glyph glyph-name="trademark" unicode="&#x2122;" horiz-adv-x="979" 
d="M25 662h356l11 -98h-17c-8 51 -32 69 -94 69h-35v-284c0 -53 6 -61 50 -64v-17h-183v17c44 5 50 11 50 64v284h-39c-60 0 -82 -17 -92 -69h-17zM566 662l133 -280l129 280h136v-18c-47 -1 -53 -9 -53 -67v-228c0 -55 5 -61 53 -64v-17h-195v17c50 1 59 10 59 64v240h-2
l-148 -321h-16l-149 317h-2v-236c0 -53 8 -64 47 -64h18v-17h-151v17c48 0 56 9 56 64v228c0 60 -7 67 -56 67v18h141z" />
    <glyph glyph-name="Eth" unicode="&#xd0;" horiz-adv-x="760" 
d="M111 331v191c0 65 -17 81 -76 81h-20v19c37 2 86 4 141 6s116 3 168 3c264 0 381 -134 381 -299c0 -151 -117 -332 -370 -332h-320v19h17c54 0 79 15 79 73v199h-96v40h96zM372 331v-40h-178v-217c0 -41 3 -55 82 -55c134 0 190 19 252 81c37 36 83 113 83 216
c0 74 -21 156 -80 215c-46 46 -117 81 -257 81c-41 0 -68 -3 -80 -4v-277h178z" />
    <glyph glyph-name="onehalf" unicode="&#xbd;" horiz-adv-x="719" 
d="M117 -27h-41l486 681h41zM642 78h21l-12 -78h-247v12c98 99 188 147 188 219c0 37 -31 65 -72 65s-75 -27 -88 -69h-21c7 62 57 104 125 104c65 0 115 -40 115 -93c0 -87 -89 -95 -191 -202h137c32 0 40 6 45 42zM132 338v246c-31 -20 -47 -29 -70 -38l-9 13
c39 22 84 60 100 78h30v-298c0 -13 4 -17 19 -17h36v-16h-160v16h41c8 0 13 3 13 16z" />
    <glyph glyph-name="plusminus" unicode="&#xb1;" horiz-adv-x="667" 
d="M71 26h525v-44h-525v44zM355 421h241v-44h-241v-241h-44v241h-240v44h240v240h44v-240z" />
    <glyph glyph-name="Thorn" unicode="&#xde;" horiz-adv-x="563" 
d="M117 77v468c0 47 -15 58 -67 58h-14v19h245v-19h-14c-52 0 -67 -11 -67 -58v-48c28 1 61 2 70 2c209 0 257 -100 257 -177c0 -117 -94 -191 -242 -191c-30 0 -55 2 -85 8v-43c0 -55 17 -77 80 -77h33v-19h-277v19h14c52 0 67 11 67 58zM200 476v-318c13 -3 35 -8 54 -8
c109 0 179 74 179 175c0 92 -46 155 -164 155c-23 0 -45 0 -69 -4z" />
    <glyph glyph-name="onequarter" unicode="&#xbc;" horiz-adv-x="719" 
d="M567 93v-100h-51v100h-151v15l176 223h26v-207h59v-31h-59zM516 124v140h-2l-107 -140h109zM132 338v246c-31 -20 -47 -29 -70 -38l-9 13c39 22 84 60 100 78h30v-298c0 -13 4 -17 19 -17h36v-16h-160v16h41c8 0 13 3 13 16zM117 -27h-41l486 681h41z" />
    <glyph glyph-name="divide" unicode="&#xf7;" horiz-adv-x="667" 
d="M71 342h525v-44h-525v44zM334 557c17 0 32 -16 32 -33s-15 -32 -32 -32s-33 15 -33 32s16 33 33 33zM334 148c17 0 32 -15 32 -32s-15 -33 -32 -33s-33 16 -33 33s16 32 33 32z" />
    <glyph glyph-name="brokenbar" unicode="&#xa6;" horiz-adv-x="510" 
d="M234 136h43v-369h-43v369zM234 637h43v-369h-43v369z" />
    <glyph glyph-name="degree" unicode="&#xb0;" horiz-adv-x="396" 
d="M198 598c-60 0 -109 -49 -109 -109s49 -109 109 -109s109 49 109 109s-49 109 -109 109zM198 639c83 0 150 -67 150 -150s-67 -150 -150 -150s-150 67 -150 150s67 150 150 150z" />
    <glyph glyph-name="thorn" unicode="&#xfe;" horiz-adv-x="500" 
d="M150 672v-341c72 53 115 73 155 73c78 0 148 -88 148 -186c0 -121 -98 -225 -212 -225c-27 0 -53 6 -91 20v-162c0 -50 25 -65 67 -65h25v-19h-236v19h10c51 0 67 17 67 74v709c0 26 -3 37 -32 40l-44 5v17l128 41h15zM150 306v-226c36 -34 81 -56 118 -56
c68 0 118 67 118 155c0 99 -57 176 -131 176c-31 0 -69 -18 -105 -49z" />
    <glyph glyph-name="threequarters" unicode="&#xbe;" horiz-adv-x="719" 
d="M584 -7h-51v100h-151v15l176 223h26v-207h59v-31h-59v-100zM533 124v140h-2l-107 -140h109zM134 -27h-41l486 681h41zM120 459l-12 14c50 33 83 59 83 88c0 25 -23 44 -52 44s-58 -19 -76 -52l-20 7c22 48 66 77 116 77c47 0 83 -26 83 -60c0 -24 -18 -47 -54 -68v-2
c54 -4 89 -38 89 -86c0 -65 -73 -122 -156 -122c-50 0 -94 18 -94 39c0 11 11 21 24 21c30 0 52 -40 91 -40c42 0 79 41 79 89c0 38 -26 68 -59 68c-14 0 -25 -4 -42 -17z" />
    <glyph glyph-name="registered" unicode="&#xae;" horiz-adv-x="760" 
d="M188 544h188c88 0 146 -44 146 -110c0 -54 -36 -90 -109 -108l102 -146c22 -32 35 -41 59 -43v-16h-90l-144 198h-36v-144c0 -27 13 -38 57 -38v-16h-179v16c37 0 51 15 51 43v304c0 26 -8 42 -45 42v18zM304 340h19c61 0 120 25 120 89c0 53 -42 93 -99 93
c-14 0 -23 -2 -40 -7v-175zM380 677c191 0 346 -155 346 -346s-155 -346 -346 -346s-346 155 -346 346s155 346 346 346zM380 647c-175 0 -316 -141 -316 -316s141 -316 316 -316s316 141 316 316s-141 316 -316 316z" />
    <glyph glyph-name="minus" unicode="&#x2212;" horiz-adv-x="667" 
d="M71 342h525v-44h-525v44z" />
    <glyph glyph-name="eth" unicode="&#xf0;" 
d="M120 229c0 -121 69 -217 159 -217c63 0 130 60 130 160c0 114 -70 211 -158 211c-70 0 -131 -68 -131 -154zM437 619l-116 -60c114 -97 155 -248 155 -324c0 -205 -145 -247 -212 -247c-124 0 -219 90 -219 207c0 138 112 212 216 212c27 0 62 -2 106 -36l2 2
c-20 57 -54 114 -99 160l-128 -66l-9 17l123 63c-28 27 -62 51 -98 68l13 22c53 -14 97 -36 133 -65l125 65z" />
    <glyph glyph-name="multiply" unicode="&#xd7;" horiz-adv-x="667" 
d="M333 289l-206 -206l-32 32l206 206l-206 206l32 32l206 -206l207 207l33 -33l-207 -207l206 -206l-32 -32z" />
    <glyph glyph-name="copyright" unicode="&#xa9;" horiz-adv-x="760" 
d="M550 554l10 -137h-19c-23 77 -73 116 -148 116c-96 0 -157 -74 -157 -190c0 -147 73 -202 162 -202c64 0 114 26 152 79l19 -9c-46 -67 -107 -99 -188 -99c-128 0 -226 94 -226 216c0 128 105 226 243 226c62 0 88 -22 110 -22c13 0 19 9 23 22h19zM380 677
c191 0 346 -155 346 -346s-155 -346 -346 -346s-346 155 -346 346s155 346 346 346zM380 647c-175 0 -316 -141 -316 -316s141 -316 316 -316s316 141 316 316s-141 316 -316 316z" />
    <glyph glyph-name="Aacute" unicode="&#xc1;" horiz-adv-x="677" 
d="M255 701h-13l92 127c20 27 44 44 64 44c18 0 31 -12 31 -29c0 -19 -20 -39 -68 -71zM423 276h-207l-58 -157c-7 -19 -20 -49 -20 -63c0 -27 26 -37 81 -37h16v-19h-231v19c65 1 76 12 108 99l182 497l-9 22h87l209 -555c20 -53 41 -63 91 -63v-19h-275v19h26
c57 0 78 6 78 34c0 16 -7 31 -11 41zM406 320l-88 233l-85 -233h173z" />
    <glyph glyph-name="Acircumflex" unicode="&#xc2;" horiz-adv-x="677" 
d="M336 824l-118 -125v17l108 180h28l106 -180v-17zM423 276h-207l-58 -157c-7 -19 -20 -49 -20 -63c0 -27 26 -37 81 -37h16v-19h-231v19c65 1 76 12 108 99l182 497l-9 22h87l209 -555c20 -53 41 -63 91 -63v-19h-275v19h26c57 0 78 6 78 34c0 16 -7 31 -11 41zM406 320
l-88 233l-85 -233h173z" />
    <glyph glyph-name="Adieresis" unicode="&#xc4;" horiz-adv-x="677" 
d="M423 276h-207l-58 -157c-7 -19 -20 -49 -20 -63c0 -27 26 -37 81 -37h16v-19h-231v19c65 1 76 12 108 99l182 497l-9 22h87l209 -555c20 -53 41 -63 91 -63v-19h-275v19h26c57 0 78 6 78 34c0 16 -7 31 -11 41zM406 320l-88 233l-85 -233h173zM436 816
c24 0 44 -20 44 -44s-20 -44 -44 -44s-44 20 -44 44s20 44 44 44zM242 816c24 0 44 -20 44 -44s-20 -44 -44 -44s-44 20 -44 44s20 44 44 44z" />
    <glyph glyph-name="Agrave" unicode="&#xc0;" horiz-adv-x="677" 
d="M416 701l-106 71c-48 32 -68 52 -68 71c0 17 13 29 31 29c20 0 44 -17 64 -44l92 -127h-13zM423 276h-207l-58 -157c-7 -19 -20 -49 -20 -63c0 -27 26 -37 81 -37h16v-19h-231v19c65 1 76 12 108 99l182 497l-9 22h87l209 -555c20 -53 41 -63 91 -63v-19h-275v19h26
c57 0 78 6 78 34c0 16 -7 31 -11 41zM406 320l-88 233l-85 -233h173z" />
    <glyph glyph-name="Aring" unicode="&#xc5;" horiz-adv-x="677" 
d="M339 857c50 0 91 -41 91 -91s-41 -91 -91 -91s-91 41 -91 91s41 91 91 91zM339 833c-37 0 -67 -30 -67 -67s30 -67 67 -67s67 30 67 67s-30 67 -67 67zM423 276h-207l-58 -157c-7 -19 -20 -49 -20 -63c0 -27 26 -37 81 -37h16v-19h-231v19c65 1 76 12 108 99l182 497
l-9 22h87l209 -555c20 -53 41 -63 91 -63v-19h-275v19h26c57 0 78 6 78 34c0 16 -7 31 -11 41zM406 320l-88 233l-85 -233h173z" />
    <glyph glyph-name="Atilde" unicode="&#xc3;" horiz-adv-x="677" 
d="M215 721h-11c0 74 31 112 81 112c26 0 50 -15 71 -30c22 -15 42 -31 60 -31c27 0 43 19 46 61h11c7 -66 -34 -111 -77 -111c-26 0 -49 16 -71 31c-21 15 -41 30 -61 30c-27 0 -44 -21 -49 -62zM423 276h-207l-58 -157c-7 -19 -20 -49 -20 -63c0 -27 26 -37 81 -37h16v-19
h-231v19c65 1 76 12 108 99l182 497l-9 22h87l209 -555c20 -53 41 -63 91 -63v-19h-275v19h26c57 0 78 6 78 34c0 16 -7 31 -11 41zM406 320l-88 233l-85 -233h173z" />
    <glyph glyph-name="Ccedilla" unicode="&#xc7;" horiz-adv-x="729" 
d="M302 -124l67 110c-187 12 -317 141 -317 317c0 194 150 334 359 334c126 0 180 -40 211 -40c11 0 16 3 18 6h15l9 -145h-19c-33 93 -123 155 -228 155c-160 0 -271 -138 -271 -289c0 -171 128 -314 282 -314c79 0 185 42 244 147h19c-13 -45 -40 -107 -64 -146
c-64 9 -104 -27 -244 -27l-20 -33c43 8 77 -33 77 -74c0 -48 -38 -86 -85 -86c-15 0 -28 3 -43 8l7 14c10 -3 18 -4 26 -4c29 0 53 23 53 51c0 22 -12 36 -32 36c-16 0 -37 -7 -64 -20z" />
    <glyph glyph-name="Eacute" unicode="&#xc9;" horiz-adv-x="594" 
d="M214 701h-13l92 127c20 27 44 44 64 44c18 0 31 -12 31 -29c0 -19 -20 -39 -68 -71zM464 415v-190h-19c-8 71 -27 79 -68 79h-169v-213c0 -46 17 -55 54 -55h154c70 0 91 27 116 113h18l-16 -149h-531v19h28c80 0 94 22 94 82v422c0 56 -13 80 -80 80h-22v19h480l8 -139
h-18c-13 85 -38 103 -74 103h-211v-246h179c36 0 53 17 58 75h19z" />
    <glyph glyph-name="Ecircumflex" unicode="&#xca;" horiz-adv-x="594" 
d="M295 824l-118 -125v17l108 180h28l106 -180v-17zM464 415v-190h-19c-8 71 -27 79 -68 79h-169v-213c0 -46 17 -55 54 -55h154c70 0 91 27 116 113h18l-16 -149h-531v19h28c80 0 94 22 94 82v422c0 56 -13 80 -80 80h-22v19h480l8 -139h-18c-13 85 -38 103 -74 103h-211
v-246h179c36 0 53 17 58 75h19z" />
    <glyph glyph-name="Edieresis" unicode="&#xcb;" horiz-adv-x="594" 
d="M395 816c24 0 44 -20 44 -44s-20 -44 -44 -44s-44 20 -44 44s20 44 44 44zM201 816c24 0 44 -20 44 -44s-20 -44 -44 -44s-44 20 -44 44s20 44 44 44zM464 415v-190h-19c-8 71 -27 79 -68 79h-169v-213c0 -46 17 -55 54 -55h154c70 0 91 27 116 113h18l-16 -149h-531v19
h28c80 0 94 22 94 82v422c0 56 -13 80 -80 80h-22v19h480l8 -139h-18c-13 85 -38 103 -74 103h-211v-246h179c36 0 53 17 58 75h19z" />
    <glyph glyph-name="Egrave" unicode="&#xc8;" horiz-adv-x="594" 
d="M375 701l-106 71c-48 32 -68 52 -68 71c0 17 13 29 31 29c20 0 44 -17 64 -44l92 -127h-13zM464 415v-190h-19c-8 71 -27 79 -68 79h-169v-213c0 -46 17 -55 54 -55h154c70 0 91 27 116 113h18l-16 -149h-531v19h28c80 0 94 22 94 82v422c0 56 -13 80 -80 80h-22v19h480
l8 -139h-18c-13 85 -38 103 -74 103h-211v-246h179c36 0 53 17 58 75h19z" />
    <glyph glyph-name="Iacute" unicode="&#xcd;" horiz-adv-x="333" 
d="M83 701h-13l92 127c20 27 44 44 64 44c18 0 31 -12 31 -29c0 -19 -20 -39 -68 -71zM288 19v-19h-243v19c62 3 75 19 75 86v426c0 54 -19 69 -75 72v19h243v-19c-63 0 -85 -14 -85 -81v-424c0 -59 16 -79 85 -79z" />
    <glyph glyph-name="Icircumflex" unicode="&#xce;" horiz-adv-x="333" 
d="M164 824l-118 -125v17l108 180h28l106 -180v-17zM288 19v-19h-243v19c62 3 75 19 75 86v426c0 54 -19 69 -75 72v19h243v-19c-63 0 -85 -14 -85 -81v-424c0 -59 16 -79 85 -79z" />
    <glyph glyph-name="Idieresis" unicode="&#xcf;" horiz-adv-x="333" 
d="M264 816c24 0 44 -20 44 -44s-20 -44 -44 -44s-44 20 -44 44s20 44 44 44zM70 816c24 0 44 -20 44 -44s-20 -44 -44 -44s-44 20 -44 44s20 44 44 44zM288 19v-19h-243v19c62 3 75 19 75 86v426c0 54 -19 69 -75 72v19h243v-19c-63 0 -85 -14 -85 -81v-424
c0 -59 16 -79 85 -79z" />
    <glyph glyph-name="Igrave" unicode="&#xcc;" horiz-adv-x="333" 
d="M244 701l-106 71c-48 32 -68 52 -68 71c0 17 13 29 31 29c20 0 44 -17 64 -44l92 -127h-13zM288 19v-19h-243v19c62 3 75 19 75 86v426c0 54 -19 69 -75 72v19h243v-19c-63 0 -85 -14 -85 -81v-424c0 -59 16 -79 85 -79z" />
    <glyph glyph-name="Ntilde" unicode="&#xd1;" horiz-adv-x="813" 
d="M283 721h-11c0 74 31 112 81 112c26 0 50 -15 71 -30c22 -15 42 -31 60 -31c27 0 43 19 46 61h11c7 -66 -34 -111 -77 -111c-26 0 -49 16 -71 31c-21 15 -41 30 -61 30c-27 0 -44 -21 -49 -62zM705 -7h-26l-518 542v-429c0 -72 16 -87 101 -87v-19h-232v19h4
c62 0 82 21 82 67v492c-23 16 -49 24 -84 25v19h157l471 -491v398c0 61 -18 72 -98 74v19h234v-19c-75 0 -91 -13 -91 -52v-558z" />
    <glyph glyph-name="Oacute" unicode="&#xd3;" horiz-adv-x="823" 
d="M328 701h-13l92 127c20 27 44 44 64 44c18 0 31 -12 31 -29c0 -19 -20 -39 -68 -71zM770 328c0 -202 -162 -344 -356 -344c-196 0 -361 126 -361 313c0 199 153 340 366 340c189 0 351 -129 351 -309zM676 295c0 186 -118 317 -283 317c-176 0 -246 -164 -246 -284
c0 -187 127 -319 288 -319c163 0 241 144 241 286z" />
    <glyph glyph-name="Ocircumflex" unicode="&#xd4;" horiz-adv-x="823" 
d="M409 824l-118 -125v17l108 180h28l106 -180v-17zM770 328c0 -202 -162 -344 -356 -344c-196 0 -361 126 -361 313c0 199 153 340 366 340c189 0 351 -129 351 -309zM676 295c0 186 -118 317 -283 317c-176 0 -246 -164 -246 -284c0 -187 127 -319 288 -319
c163 0 241 144 241 286z" />
    <glyph glyph-name="Odieresis" unicode="&#xd6;" horiz-adv-x="823" 
d="M770 328c0 -202 -162 -344 -356 -344c-196 0 -361 126 -361 313c0 199 153 340 366 340c189 0 351 -129 351 -309zM676 295c0 186 -118 317 -283 317c-176 0 -246 -164 -246 -284c0 -187 127 -319 288 -319c163 0 241 144 241 286zM509 816c24 0 44 -20 44 -44
s-20 -44 -44 -44s-44 20 -44 44s20 44 44 44zM315 816c24 0 44 -20 44 -44s-20 -44 -44 -44s-44 20 -44 44s20 44 44 44z" />
    <glyph glyph-name="Ograve" unicode="&#xd2;" horiz-adv-x="823" 
d="M489 701l-106 71c-48 32 -68 52 -68 71c0 17 13 29 31 29c20 0 44 -17 64 -44l92 -127h-13zM770 328c0 -202 -162 -344 -356 -344c-196 0 -361 126 -361 313c0 199 153 340 366 340c189 0 351 -129 351 -309zM676 295c0 186 -118 317 -283 317
c-176 0 -246 -164 -246 -284c0 -187 127 -319 288 -319c163 0 241 144 241 286z" />
    <glyph glyph-name="Otilde" unicode="&#xd5;" horiz-adv-x="823" 
d="M288 721h-11c0 74 31 112 81 112c26 0 50 -15 71 -30c22 -15 42 -31 60 -31c27 0 43 19 46 61h11c7 -66 -34 -111 -77 -111c-26 0 -49 16 -71 31c-21 15 -41 30 -61 30c-27 0 -44 -21 -49 -62zM770 328c0 -202 -162 -344 -356 -344c-196 0 -361 126 -361 313
c0 199 153 340 366 340c189 0 351 -129 351 -309zM676 295c0 186 -118 317 -283 317c-176 0 -246 -164 -246 -284c0 -187 127 -319 288 -319c163 0 241 144 241 286z" />
    <glyph glyph-name="Scaron" unicode="&#x160;" horiz-adv-x="490" 
d="M248 771l118 125v-17l-108 -180h-28l-106 180v17zM44 152h19c21 -89 91 -141 169 -141c67 0 138 39 138 118c0 144 -321 188 -321 363c0 83 76 145 178 145c84 0 101 -25 136 -25c8 0 12 2 18 10h16l17 -127h-17c-28 72 -92 118 -161 118c-66 0 -112 -38 -112 -94
c0 -142 321 -180 321 -364c0 -98 -87 -171 -204 -171c-55 0 -125 27 -139 27c-9 0 -16 -5 -20 -11h-17z" />
    <glyph glyph-name="Uacute" unicode="&#xda;" horiz-adv-x="792" 
d="M313 701h-13l92 127c20 27 44 44 64 44c18 0 31 -12 31 -29c0 -19 -20 -39 -68 -71zM545 622h235v-19c-67 -1 -91 -28 -91 -92v-270c0 -124 -79 -257 -296 -257c-191 0 -289 109 -289 252v292c0 64 -18 74 -86 75v19h257v-19h-9c-55 0 -79 -15 -79 -73v-278
c0 -135 79 -216 228 -216c113 0 228 47 228 217v233c0 96 -15 113 -98 117v19z" />
    <glyph glyph-name="Ucircumflex" unicode="&#xdb;" horiz-adv-x="792" 
d="M394 824l-118 -125v17l108 180h28l106 -180v-17zM545 622h235v-19c-67 -1 -91 -28 -91 -92v-270c0 -124 -79 -257 -296 -257c-191 0 -289 109 -289 252v292c0 64 -18 74 -86 75v19h257v-19h-9c-55 0 -79 -15 -79 -73v-278c0 -135 79 -216 228 -216c113 0 228 47 228 217
v233c0 96 -15 113 -98 117v19z" />
    <glyph glyph-name="Udieresis" unicode="&#xdc;" horiz-adv-x="792" 
d="M494 816c24 0 44 -20 44 -44s-20 -44 -44 -44s-44 20 -44 44s20 44 44 44zM300 816c24 0 44 -20 44 -44s-20 -44 -44 -44s-44 20 -44 44s20 44 44 44zM545 622h235v-19c-67 -1 -91 -28 -91 -92v-270c0 -124 -79 -257 -296 -257c-191 0 -289 109 -289 252v292
c0 64 -18 74 -86 75v19h257v-19h-9c-55 0 -79 -15 -79 -73v-278c0 -135 79 -216 228 -216c113 0 228 47 228 217v233c0 96 -15 113 -98 117v19z" />
    <glyph glyph-name="Ugrave" unicode="&#xd9;" horiz-adv-x="792" 
d="M474 701l-106 71c-48 32 -68 52 -68 71c0 17 13 29 31 29c20 0 44 -17 64 -44l92 -127h-13zM545 622h235v-19c-67 -1 -91 -28 -91 -92v-270c0 -124 -79 -257 -296 -257c-191 0 -289 109 -289 252v292c0 64 -18 74 -86 75v19h257v-19h-9c-55 0 -79 -15 -79 -73v-278
c0 -135 79 -216 228 -216c113 0 228 47 228 217v233c0 96 -15 113 -98 117v19z" />
    <glyph glyph-name="Yacute" unicode="&#xdd;" horiz-adv-x="708" 
d="M271 701h-13l92 127c20 27 44 44 64 44c18 0 31 -12 31 -29c0 -19 -20 -39 -68 -71zM371 291l141 240c32 55 13 72 -51 72v19h226v-19c-68 -5 -97 -32 -125 -79l-166 -281v-150c0 -53 19 -74 80 -74h13v-19h-275v19h19c62 0 80 23 80 72v141l-178 278
c-49 77 -72 91 -137 93v19h266v-19c-78 0 -83 -19 -53 -65z" />
    <glyph glyph-name="Ydieresis" unicode="&#x178;" horiz-adv-x="708" 
d="M452 816c24 0 44 -20 44 -44s-20 -44 -44 -44s-44 20 -44 44s20 44 44 44zM258 816c24 0 44 -20 44 -44s-20 -44 -44 -44s-44 20 -44 44s20 44 44 44zM371 291l141 240c32 55 13 72 -51 72v19h226v-19c-68 -5 -97 -32 -125 -79l-166 -281v-150c0 -53 19 -74 80 -74h13
v-19h-275v19h19c62 0 80 23 80 72v141l-178 278c-49 77 -72 91 -137 93v19h266v-19c-78 0 -83 -19 -53 -65z" />
    <glyph glyph-name="Zcaron" unicode="&#x17d;" horiz-adv-x="677" 
d="M341 771l118 125v-17l-108 -180h-28l-106 180v17zM40 0v23l449 563h-297c-65 0 -84 -20 -92 -105h-18l5 141h515v-23l-452 -563h354c75 0 84 38 107 145h18l-12 -181h-577z" />
    <glyph glyph-name="aacute" unicode="&#xe1;" horiz-adv-x="396" 
d="M115 488h-13l92 127c20 27 44 44 64 44c18 0 31 -12 31 -29c0 -19 -20 -39 -68 -71zM113 310l-68 -33c-2 6 -3 9 -3 14c0 35 83 116 148 116c30 0 77 -14 105 -53c15 -21 15 -34 15 -86v-134c0 -80 0 -98 26 -98c11 0 24 1 49 22l5 -15c-54 -44 -82 -55 -99 -55
c-41 0 -45 45 -46 61c-69 -57 -89 -61 -116 -61c-58 0 -93 33 -93 82c0 61 54 82 118 98c21 5 54 17 89 38v79c0 28 0 44 -17 64c-13 16 -34 29 -56 29c-33 0 -62 -28 -62 -49c0 -6 1 -10 5 -19zM243 67v119c-19 -11 -35 -18 -59 -28c-61 -25 -84 -35 -84 -76
c0 -36 29 -59 59 -59c16 0 28 5 84 44z" />
    <glyph glyph-name="acircumflex" unicode="&#xe2;" horiz-adv-x="396" 
d="M196 611l-118 -125v17l108 180h28l106 -180v-17zM113 310l-68 -33c-2 6 -3 9 -3 14c0 35 83 116 148 116c30 0 77 -14 105 -53c15 -21 15 -34 15 -86v-134c0 -80 0 -98 26 -98c11 0 24 1 49 22l5 -15c-54 -44 -82 -55 -99 -55c-41 0 -45 45 -46 61
c-69 -57 -89 -61 -116 -61c-58 0 -93 33 -93 82c0 61 54 82 118 98c21 5 54 17 89 38v79c0 28 0 44 -17 64c-13 16 -34 29 -56 29c-33 0 -62 -28 -62 -49c0 -6 1 -10 5 -19zM243 67v119c-19 -11 -35 -18 -59 -28c-61 -25 -84 -35 -84 -76c0 -36 29 -59 59 -59
c16 0 28 5 84 44z" />
    <glyph glyph-name="adieresis" unicode="&#xe4;" horiz-adv-x="396" 
d="M113 310l-68 -33c-2 6 -3 9 -3 14c0 35 83 116 148 116c30 0 77 -14 105 -53c15 -21 15 -34 15 -86v-134c0 -80 0 -98 26 -98c11 0 24 1 49 22l5 -15c-54 -44 -82 -55 -99 -55c-41 0 -45 45 -46 61c-69 -57 -89 -61 -116 -61c-58 0 -93 33 -93 82c0 61 54 82 118 98
c21 5 54 17 89 38v79c0 28 0 44 -17 64c-13 16 -34 29 -56 29c-33 0 -62 -28 -62 -49c0 -6 1 -10 5 -19zM243 67v119c-19 -11 -35 -18 -59 -28c-61 -25 -84 -35 -84 -76c0 -36 29 -59 59 -59c16 0 28 5 84 44zM276 603c24 0 44 -20 44 -44s-20 -44 -44 -44s-44 20 -44 44
s20 44 44 44zM82 603c24 0 44 -20 44 -44s-20 -44 -44 -44s-44 20 -44 44s20 44 44 44z" />
    <glyph glyph-name="agrave" unicode="&#xe0;" horiz-adv-x="396" 
d="M276 488l-106 71c-48 32 -68 52 -68 71c0 17 13 29 31 29c20 0 44 -17 64 -44l92 -127h-13zM113 310l-68 -33c-2 6 -3 9 -3 14c0 35 83 116 148 116c30 0 77 -14 105 -53c15 -21 15 -34 15 -86v-134c0 -80 0 -98 26 -98c11 0 24 1 49 22l5 -15c-54 -44 -82 -55 -99 -55
c-41 0 -45 45 -46 61c-69 -57 -89 -61 -116 -61c-58 0 -93 33 -93 82c0 61 54 82 118 98c21 5 54 17 89 38v79c0 28 0 44 -17 64c-13 16 -34 29 -56 29c-33 0 -62 -28 -62 -49c0 -6 1 -10 5 -19zM243 67v119c-19 -11 -35 -18 -59 -28c-61 -25 -84 -35 -84 -76
c0 -36 29 -59 59 -59c16 0 28 5 84 44z" />
    <glyph glyph-name="aring" unicode="&#xe5;" horiz-adv-x="396" 
d="M199 644c50 0 91 -41 91 -91s-41 -91 -91 -91s-91 41 -91 91s41 91 91 91zM199 620c-37 0 -67 -30 -67 -67s30 -67 67 -67s67 30 67 67s-30 67 -67 67zM113 310l-68 -33c-2 6 -3 9 -3 14c0 35 83 116 148 116c30 0 77 -14 105 -53c15 -21 15 -34 15 -86v-134
c0 -80 0 -98 26 -98c11 0 24 1 49 22l5 -15c-54 -44 -82 -55 -99 -55c-41 0 -45 45 -46 61c-69 -57 -89 -61 -116 -61c-58 0 -93 33 -93 82c0 61 54 82 118 98c21 5 54 17 89 38v79c0 28 0 44 -17 64c-13 16 -34 29 -56 29c-33 0 -62 -28 -62 -49c0 -6 1 -10 5 -19zM243 67
v119c-19 -11 -35 -18 -59 -28c-61 -25 -84 -35 -84 -76c0 -36 29 -59 59 -59c16 0 28 5 84 44z" />
    <glyph glyph-name="atilde" unicode="&#xe3;" horiz-adv-x="396" 
d="M75 508h-11c0 74 31 112 81 112c26 0 50 -15 71 -30c22 -15 42 -31 60 -31c27 0 43 19 46 61h11c7 -66 -34 -111 -77 -111c-26 0 -49 16 -71 31c-21 15 -41 30 -61 30c-27 0 -44 -21 -49 -62zM113 310l-68 -33c-2 6 -3 9 -3 14c0 35 83 116 148 116c30 0 77 -14 105 -53
c15 -21 15 -34 15 -86v-134c0 -80 0 -98 26 -98c11 0 24 1 49 22l5 -15c-54 -44 -82 -55 -99 -55c-41 0 -45 45 -46 61c-69 -57 -89 -61 -116 -61c-58 0 -93 33 -93 82c0 61 54 82 118 98c21 5 54 17 89 38v79c0 28 0 44 -17 64c-13 16 -34 29 -56 29c-33 0 -62 -28 -62 -49
c0 -6 1 -10 5 -19zM243 67v119c-19 -11 -35 -18 -59 -28c-61 -25 -84 -35 -84 -76c0 -36 29 -59 59 -59c16 0 28 5 84 44z" />
    <glyph glyph-name="ccedilla" unicode="&#xe7;" horiz-adv-x="427" 
d="M376 101l15 -9c-41 -65 -94 -102 -171 -104l-22 -37c43 8 77 -33 77 -74c0 -48 -38 -86 -85 -86c-15 0 -28 3 -43 8l7 14c10 -3 18 -4 26 -4c29 0 53 23 53 51c0 22 -12 36 -32 36c-16 0 -37 -7 -64 -20l68 113c-114 6 -159 115 -159 192c0 125 103 226 230 226
c63 0 112 -25 112 -57c0 -17 -13 -30 -29 -30c-49 0 -61 61 -117 61c-69 0 -129 -82 -129 -178c0 -100 60 -174 141 -174c48 0 86 22 122 72z" />
    <glyph glyph-name="eacute" unicode="&#xe9;" horiz-adv-x="438" 
d="M136 488h-13l92 127c20 27 44 44 64 44c18 0 31 -12 31 -29c0 -19 -20 -39 -68 -71zM406 254h-292c-2 -15 -4 -29 -4 -42c0 -104 73 -174 152 -174c50 0 89 20 127 65l11 -12c-42 -53 -105 -103 -178 -103c-98 0 -174 89 -174 205c0 106 71 214 193 214
c135 0 132 -97 165 -130v-23zM117 280h205c-11 65 -51 108 -99 108c-33 0 -83 -15 -106 -108z" />
    <glyph glyph-name="ecircumflex" unicode="&#xea;" horiz-adv-x="438" 
d="M217 611l-118 -125v17l108 180h28l106 -180v-17zM406 254h-292c-2 -15 -4 -29 -4 -42c0 -104 73 -174 152 -174c50 0 89 20 127 65l11 -12c-42 -53 -105 -103 -178 -103c-98 0 -174 89 -174 205c0 106 71 214 193 214c135 0 132 -97 165 -130v-23zM117 280h205
c-11 65 -51 108 -99 108c-33 0 -83 -15 -106 -108z" />
    <glyph glyph-name="edieresis" unicode="&#xeb;" horiz-adv-x="438" 
d="M406 254h-292c-2 -15 -4 -29 -4 -42c0 -104 73 -174 152 -174c50 0 89 20 127 65l11 -12c-42 -53 -105 -103 -178 -103c-98 0 -174 89 -174 205c0 106 71 214 193 214c135 0 132 -97 165 -130v-23zM117 280h205c-11 65 -51 108 -99 108c-33 0 -83 -15 -106 -108zM317 603
c24 0 44 -20 44 -44s-20 -44 -44 -44s-44 20 -44 44s20 44 44 44zM123 603c24 0 44 -20 44 -44s-20 -44 -44 -44s-44 20 -44 44s20 44 44 44z" />
    <glyph glyph-name="egrave" unicode="&#xe8;" horiz-adv-x="438" 
d="M297 488l-106 71c-48 32 -68 52 -68 71c0 17 13 29 31 29c20 0 44 -17 64 -44l92 -127h-13zM406 254h-292c-2 -15 -4 -29 -4 -42c0 -104 73 -174 152 -174c50 0 89 20 127 65l11 -12c-42 -53 -105 -103 -178 -103c-98 0 -174 89 -174 205c0 106 71 214 193 214
c135 0 132 -97 165 -130v-23zM117 280h205c-11 65 -51 108 -99 108c-33 0 -83 -15 -106 -108z" />
    <glyph glyph-name="iacute" unicode="&#xed;" horiz-adv-x="260" 
d="M47 488h-13l92 127c20 27 44 44 64 44c18 0 31 -12 31 -29c0 -19 -20 -39 -68 -71zM168 412v-336c0 -35 19 -57 72 -57v-19h-222v19c61 0 83 20 83 73v201c0 39 -5 44 -31 49l-47 9v16l130 45h15z" />
    <glyph glyph-name="icircumflex" unicode="&#xee;" horiz-adv-x="260" 
d="M128 611l-118 -125v17l108 180h28l106 -180v-17zM168 412v-336c0 -35 19 -57 72 -57v-19h-222v19c61 0 83 20 83 73v201c0 39 -5 44 -31 49l-47 9v16l130 45h15z" />
    <glyph glyph-name="idieresis" unicode="&#xef;" horiz-adv-x="260" 
d="M228 603c24 0 44 -20 44 -44s-20 -44 -44 -44s-44 20 -44 44s20 44 44 44zM34 603c24 0 44 -20 44 -44s-20 -44 -44 -44s-44 20 -44 44s20 44 44 44zM168 412v-336c0 -35 19 -57 72 -57v-19h-222v19c61 0 83 20 83 73v201c0 39 -5 44 -31 49l-47 9v16l130 45h15z" />
    <glyph glyph-name="igrave" unicode="&#xec;" horiz-adv-x="260" 
d="M208 488l-106 71c-48 32 -68 52 -68 71c0 17 13 29 31 29c20 0 44 -17 64 -44l92 -127h-13zM168 412v-336c0 -35 19 -57 72 -57v-19h-222v19c61 0 83 20 83 73v201c0 39 -5 44 -31 49l-47 9v16l130 45h15z" />
    <glyph glyph-name="ntilde" unicode="&#xf1;" 
d="M137 508h-11c0 74 31 112 81 112c26 0 50 -15 71 -30c22 -15 42 -31 60 -31c27 0 43 19 46 61h11c7 -66 -34 -111 -77 -111c-26 0 -49 16 -71 31c-21 15 -41 30 -61 30c-27 0 -44 -21 -49 -62zM160 304v-217c0 -55 13 -68 67 -68v-19h-201v19c44 0 67 24 67 63v210
c0 37 -4 44 -30 49l-34 7v16l115 42h16v-78c67 42 123 79 172 79c68 0 107 -50 107 -150c0 -133 -7 -159 -8 -198c-1 -27 15 -40 56 -40h22v-19h-215v19c29 1 46 8 57 19c19 19 21 92 21 225c0 80 -39 105 -79 105c-32 0 -81 -28 -133 -64z" />
    <glyph glyph-name="oacute" unicode="&#xf3;" 
d="M177 488h-13l92 127c20 27 44 44 64 44c18 0 31 -12 31 -29c0 -19 -20 -39 -68 -71zM45 195c0 138 112 212 216 212c122 0 215 -91 215 -210c0 -118 -93 -209 -212 -209c-124 0 -219 90 -219 207zM120 229c0 -121 69 -217 155 -217c59 0 126 60 126 160
c0 114 -70 211 -154 211c-66 0 -127 -68 -127 -154z" />
    <glyph glyph-name="ocircumflex" unicode="&#xf4;" 
d="M258 611l-118 -125v17l108 180h28l106 -180v-17zM45 195c0 138 112 212 216 212c122 0 215 -91 215 -210c0 -118 -93 -209 -212 -209c-124 0 -219 90 -219 207zM120 229c0 -121 69 -217 155 -217c59 0 126 60 126 160c0 114 -70 211 -154 211c-66 0 -127 -68 -127 -154z
" />
    <glyph glyph-name="odieresis" unicode="&#xf6;" 
d="M45 195c0 138 112 212 216 212c122 0 215 -91 215 -210c0 -118 -93 -209 -212 -209c-124 0 -219 90 -219 207zM120 229c0 -121 69 -217 155 -217c59 0 126 60 126 160c0 114 -70 211 -154 211c-66 0 -127 -68 -127 -154zM358 603c24 0 44 -20 44 -44s-20 -44 -44 -44
s-44 20 -44 44s20 44 44 44zM164 603c24 0 44 -20 44 -44s-20 -44 -44 -44s-44 20 -44 44s20 44 44 44z" />
    <glyph glyph-name="ograve" unicode="&#xf2;" 
d="M338 488l-106 71c-48 32 -68 52 -68 71c0 17 13 29 31 29c20 0 44 -17 64 -44l92 -127h-13zM45 195c0 138 112 212 216 212c122 0 215 -91 215 -210c0 -118 -93 -209 -212 -209c-124 0 -219 90 -219 207zM120 229c0 -121 69 -217 155 -217c59 0 126 60 126 160
c0 114 -70 211 -154 211c-66 0 -127 -68 -127 -154z" />
    <glyph glyph-name="otilde" unicode="&#xf5;" 
d="M137 508h-11c0 74 31 112 81 112c26 0 50 -15 71 -30c22 -15 42 -31 60 -31c27 0 43 19 46 61h11c7 -66 -34 -111 -77 -111c-26 0 -49 16 -71 31c-21 15 -41 30 -61 30c-27 0 -44 -21 -49 -62zM45 195c0 138 112 212 216 212c122 0 215 -91 215 -210
c0 -118 -93 -209 -212 -209c-124 0 -219 90 -219 207zM120 229c0 -121 69 -217 155 -217c59 0 126 60 126 160c0 114 -70 211 -154 211c-66 0 -127 -68 -127 -154z" />
    <glyph glyph-name="scaron" unicode="&#x161;" horiz-adv-x="302" 
d="M154 558l118 125v-17l-108 -180h-28l-106 180v17zM32 101h16c12 -60 50 -94 95 -94c40 0 71 30 71 66c0 21 -5 34 -32 61c-71 71 -150 78 -150 161c0 66 52 112 128 112c27 0 55 -6 80 -16l2 -91h-17c-7 51 -40 83 -80 83c-33 0 -61 -23 -61 -56c0 -88 186 -103 186 -225
c0 -65 -54 -114 -124 -114c-19 0 -33 3 -44 7c-11 3 -19 6 -27 6c-6 0 -12 -4 -17 -12h-15z" />
    <glyph glyph-name="uacute" unicode="&#xfa;" 
d="M177 488h-13l92 127c20 27 44 44 64 44c18 0 31 -12 31 -29c0 -19 -20 -39 -68 -71zM497 47v-18l-134 -41v80c-75 -54 -130 -80 -170 -80c-50 0 -106 34 -106 102v222c0 24 -6 35 -27 41l-35 10v15l129 28v-280c0 -62 45 -90 90 -90c34 0 78 21 119 55v215
c0 39 -5 47 -37 53l-50 9v14l154 24v-337c0 -28 10 -33 46 -26z" />
    <glyph glyph-name="ucircumflex" unicode="&#xfb;" 
d="M258 611l-118 -125v17l108 180h28l106 -180v-17zM497 47v-18l-134 -41v80c-75 -54 -130 -80 -170 -80c-50 0 -106 34 -106 102v222c0 24 -6 35 -27 41l-35 10v15l129 28v-280c0 -62 45 -90 90 -90c34 0 78 21 119 55v215c0 39 -5 47 -37 53l-50 9v14l154 24v-337
c0 -28 10 -33 46 -26z" />
    <glyph glyph-name="udieresis" unicode="&#xfc;" 
d="M358 603c24 0 44 -20 44 -44s-20 -44 -44 -44s-44 20 -44 44s20 44 44 44zM164 603c24 0 44 -20 44 -44s-20 -44 -44 -44s-44 20 -44 44s20 44 44 44zM497 47v-18l-134 -41v80c-75 -54 -130 -80 -170 -80c-50 0 -106 34 -106 102v222c0 24 -6 35 -27 41l-35 10v15l129 28
v-280c0 -62 45 -90 90 -90c34 0 78 21 119 55v215c0 39 -5 47 -37 53l-50 9v14l154 24v-337c0 -28 10 -33 46 -26z" />
    <glyph glyph-name="ugrave" unicode="&#xf9;" 
d="M338 488l-106 71c-48 32 -68 52 -68 71c0 17 13 29 31 29c20 0 44 -17 64 -44l92 -127h-13zM497 47v-18l-134 -41v80c-75 -54 -130 -80 -170 -80c-50 0 -106 34 -106 102v222c0 24 -6 35 -27 41l-35 10v15l129 28v-280c0 -62 45 -90 90 -90c34 0 78 21 119 55v215
c0 39 -5 47 -37 53l-50 9v14l154 24v-337c0 -28 10 -33 46 -26z" />
    <glyph glyph-name="yacute" unicode="&#xfd;" horiz-adv-x="469" 
d="M151 488h-13l92 127c20 27 44 44 64 44c18 0 31 -12 31 -29c0 -19 -20 -39 -68 -71zM261 73l85 212c30 76 11 91 -48 93v18h166v-18c-41 -5 -64 -33 -83 -80l-170 -424c-30 -74 -53 -107 -88 -107c-24 0 -41 15 -41 35c0 41 58 31 83 56c11 11 26 37 34 57l30 75
l-155 329c-19 41 -37 58 -79 59v18h201v-18c-61 -1 -68 -19 -48 -61z" />
    <glyph glyph-name="ydieresis" unicode="&#xff;" horiz-adv-x="469" 
d="M332 603c24 0 44 -20 44 -44s-20 -44 -44 -44s-44 20 -44 44s20 44 44 44zM138 603c24 0 44 -20 44 -44s-20 -44 -44 -44s-44 20 -44 44s20 44 44 44zM261 73l85 212c30 76 11 91 -48 93v18h166v-18c-41 -5 -64 -33 -83 -80l-170 -424c-30 -74 -53 -107 -88 -107
c-24 0 -41 15 -41 35c0 41 58 31 83 56c11 11 26 37 34 57l30 75l-155 329c-19 41 -37 58 -79 59v18h201v-18c-61 -1 -68 -19 -48 -61z" />
    <glyph glyph-name="zcaron" unicode="&#x17e;" horiz-adv-x="406" 
d="M206 558l118 125v-17l-108 -180h-28l-106 180v17zM31 0v19l253 341h-137h-32c-26 0 -31 -26 -53 -96h-19l31 159h17c0 -22 9 -27 47 -27h238v-18l-252 -342h183c34 0 49 24 69 73h18l-41 -109h-322z" />
    <glyph glyph-name="twodotenleader" unicode="&#x2025;" horiz-adv-x="500" 
d="M73 35c0 28 22 47 51 47c30 0 52 -20 52 -47c0 -28 -22 -47 -52 -47c-28 0 -51 19 -51 47zM323 35c0 28 22 47 52 47c29 0 51 -20 51 -47c0 -28 -22 -47 -51 -47s-52 19 -52 47z" />
    <glyph glyph-name="onedotenleader" unicode="&#x2024;" horiz-adv-x="500" 
d="M198 35c0 28 22 47 52 47c29 0 51 -20 51 -47c0 -28 -22 -47 -51 -47s-52 19 -52 47z" />
    <glyph glyph-name="colonmonetary" unicode="&#x20a1;" horiz-adv-x="729" 
d="M226 22l-38 -124h-23l41 135c-48 28 -154 107 -154 269c0 171 125 326 338 334l35 117h24l-36 -116c17 0 68 -1 122 -16l40 132h24l-42 -138c7 -2 29 -10 39 -13c6 -2 18 -6 27 -6c7 0 11 2 16 6h16l9 -144h-19c-18 50 -54 92 -99 120l-171 -562c10 -2 26 -5 53 -5
c161 0 224 110 244 145h19c-14 -49 -44 -112 -64 -146c-6 1 -12 2 -20 2c-21 0 -26 -1 -87 -15c-51 -11 -103 -16 -155 -12l-26 -87h-24l27 90c-54 6 -94 24 -116 34zM406 613l-161 -529c50 -44 87 -56 108 -62l172 567c-44 22 -89 25 -119 24zM227 102l155 509
c-178 -25 -236 -163 -236 -288c0 -102 35 -168 81 -221z" />
    <glyph glyph-name="figuredash" unicode="&#x2012;" horiz-adv-x="500" 
d="M82 273h337v-45h-337v45z" />
    <glyph glyph-name="oneeighth" unicode="&#x215b;" horiz-adv-x="719" 
d="M528 163c-25 11 -76 34 -76 82c0 44 47 86 114 86c59 0 112 -33 112 -77c0 -46 -52 -66 -73 -74c33 -14 84 -37 84 -90c0 -51 -48 -97 -122 -97c-62 0 -120 35 -120 87c0 37 29 63 81 83zM586 188c16 10 44 27 44 67c0 30 -22 61 -65 61c-34 0 -67 -21 -67 -55
s30 -49 88 -73zM551 155c-23 -13 -55 -31 -55 -74c0 -42 30 -73 72 -73c39 0 72 27 72 67c0 28 -14 50 -89 80zM138 -27h-42l486 680h41zM153 637h30v-295c0 -16 5 -20 18 -20h37v-16h-160v16h33c20 0 21 4 21 20v242c-24 -15 -44 -27 -71 -38l-8 13c27 16 76 51 100 78z
" />
    <glyph glyph-name="threeeighths" unicode="&#x215c;" horiz-adv-x="719" 
d="M527 163c-25 11 -76 34 -76 82c0 44 47 86 114 86c59 0 112 -33 112 -77c0 -46 -52 -66 -73 -74c33 -14 84 -37 84 -90c0 -51 -48 -97 -122 -97c-62 0 -120 35 -120 87c0 37 29 63 81 83zM585 188c16 10 44 27 44 67c0 30 -22 61 -65 61c-34 0 -67 -21 -67 -54
c0 -35 28 -49 88 -74zM550 155c-23 -13 -55 -31 -55 -74c0 -42 30 -73 72 -73c40 0 72 28 72 67c0 28 -15 50 -89 80zM137 -27h-42l486 680h41zM100 459l-11 14c29 18 82 55 82 88c0 30 -29 44 -51 44c-6 0 -47 0 -76 -52l-21 7c27 58 79 77 116 77c45 0 83 -24 83 -60
c0 -24 -19 -48 -54 -69c59 -5 89 -45 89 -87c0 -61 -70 -122 -156 -122c-41 0 -94 15 -94 39c0 13 13 21 25 21s18 -4 45 -23c12 -8 25 -17 45 -17c38 0 79 37 79 89c0 49 -35 68 -58 68c-19 0 -33 -9 -43 -17z" />
    <glyph glyph-name="fiveeighths" unicode="&#x215d;" horiz-adv-x="719" 
d="M527 163c-25 11 -76 34 -76 82c0 44 47 86 114 86c59 0 112 -33 112 -77c0 -46 -52 -66 -73 -74c33 -14 84 -37 84 -90c0 -51 -48 -97 -122 -97c-62 0 -120 35 -120 87c0 37 29 63 81 83zM550 155c-23 -12 -55 -30 -55 -74c0 -42 30 -73 72 -73c40 0 72 28 72 67
c0 28 -15 50 -89 80zM585 188c16 10 44 27 44 67c0 30 -22 61 -65 61c-34 0 -67 -21 -67 -54c0 -35 28 -49 88 -74zM137 -27h-42l486 680h41zM242 637l-8 -46h-149l-4 -82c9 4 19 6 28 8c10 1 20 2 29 2c71 0 127 -51 127 -108c0 -63 -62 -112 -144 -112
c-33 0 -92 10 -92 35c0 10 11 19 25 19c18 0 32 -11 42 -19c9 -8 21 -17 38 -17c31 0 75 28 75 83c0 61 -53 78 -82 78c-33 0 -55 -15 -62 -20l-12 7l8 165h132c20 0 23 0 27 7h22z" />
    <glyph glyph-name="seveneighths" unicode="&#x215e;" horiz-adv-x="719" 
d="M528 163c-25 11 -76 34 -76 82c0 44 47 86 114 86c59 0 112 -33 112 -77c0 -46 -52 -66 -73 -74c33 -14 84 -37 84 -90c0 -51 -48 -97 -122 -97c-62 0 -120 35 -120 87c0 37 29 63 81 83zM586 188c16 10 44 27 44 67c0 30 -22 61 -65 61c-34 0 -67 -21 -67 -55
s30 -49 88 -73zM551 155c-23 -13 -55 -31 -55 -74c0 -42 30 -73 72 -73c39 0 72 27 72 67c0 28 -14 50 -89 80zM114 -27h-41l485 680h41zM140 299h-45l143 291h-159c-16 0 -19 -5 -23 -30h-21l4 69h246z" />
    <glyph glyph-name="onethird" unicode="&#x2153;" horiz-adv-x="719" 
d="M138 -26h-42l486 679h42zM517 153l-12 14c29 18 82 56 82 88c0 30 -29 44 -51 44c-6 0 -47 0 -76 -52l-21 7c27 58 79 77 116 77c45 0 83 -24 83 -60c0 -24 -19 -48 -52 -69c58 -5 88 -45 88 -87c0 -61 -70 -122 -156 -122c-42 0 -94 15 -94 39c0 13 14 21 24 21
c13 0 19 -4 46 -23c12 -8 25 -17 45 -17c38 0 79 37 79 89c0 49 -35 68 -58 68c-20 0 -33 -9 -43 -17zM153 637h30v-295c0 -16 5 -20 18 -20h37v-16h-160v16h33c20 0 21 4 21 20v242c-24 -15 -44 -27 -71 -38l-8 13c27 16 76 51 100 78z" />
    <glyph glyph-name="twothirds" unicode="&#x2154;" horiz-adv-x="719" 
d="M137 -26h-41l485 680h42zM9 306v12c20 22 48 47 111 102c50 43 76 81 76 117c0 41 -36 65 -72 65c-24 0 -70 -13 -88 -69h-20c8 73 69 105 125 105c60 0 114 -37 114 -93c0 -54 -35 -79 -96 -122c-40 -29 -75 -59 -97 -79h127c44 0 49 0 57 40h21l-12 -78h-246zM516 153
l-11 14c29 18 82 56 82 88c0 30 -29 44 -51 44c-6 0 -48 0 -76 -52l-21 7c27 58 79 77 116 77c45 0 83 -24 83 -60c0 -24 -19 -48 -53 -69c58 -5 88 -45 88 -87c0 -61 -70 -122 -156 -122c-41 0 -94 15 -94 39c0 13 14 21 25 21c12 0 18 -4 45 -23c12 -8 25 -17 45 -17
c38 0 79 37 79 89c0 49 -35 68 -58 68c-20 0 -33 -9 -43 -17z" />
    <glyph glyph-name="exclam.sc" unicode="&#xf721;" horiz-adv-x="177" 
d="M45 29c0 24 19 40 44 40s43 -17 43 -40c0 -24 -19 -41 -44 -41s-43 17 -43 41zM102 107h-27l-27 310c-2 22 -2 32 24 32h32c24 0 26 -8 24 -32z" />
    <glyph glyph-name="hungarumlaut.sc" unicode="&#xf6f8;" horiz-adv-x="333" 
d="M16 488h-13l62 84c35 51 60 87 94 87c19 0 31 -14 31 -28c0 -15 -6 -31 -68 -72zM158 488h-13l62 84c34 51 59 87 93 87c20 0 31 -14 31 -28c0 -15 -5 -31 -67 -72z" />
    <glyph glyph-name="dollar.superior" unicode="&#xf6e4;" horiz-adv-x="281" 
d="M93 325v138c-21 12 -67 38 -67 78c0 30 24 57 67 69v35h22v-31c13 1 25 1 37 0v31h22v-35c51 -12 70 -33 70 -46c0 -10 -10 -20 -23 -20c-2 0 -14 1 -22 10c-4 4 -21 24 -25 28v-107c68 -37 84 -58 84 -90c0 -41 -33 -69 -84 -82v-49h-22v46c-9 -1 -20 -1 -37 0v-46h-22
v49c-74 18 -78 54 -78 58c0 10 11 21 26 21c18 0 25 -16 27 -21c7 -16 11 -27 25 -36zM93 521v71c-18 -9 -23 -22 -23 -33c0 -16 7 -25 23 -38zM152 486v109c-12 5 -25 5 -37 4v-92c13 -8 18 -11 37 -21zM152 316v116c-8 5 -31 17 -37 19v-134c9 -2 20 -3 37 -1zM174 420
v-98c37 17 37 44 37 50c0 25 -17 36 -37 48z" />
    <glyph glyph-name="ampersand.sc" unicode="&#xf726;" horiz-adv-x="573" 
d="M398 291h121v-18c-47 1 -55 -4 -66 -25c-31 -60 -72 -112 -89 -134c26 -43 57 -93 84 -93c16 0 29 8 44 17l10 -16c-18 -12 -56 -37 -92 -37c-50 0 -79 49 -95 76c-32 -27 -90 -76 -145 -76c-38 0 -112 22 -112 112s69 115 116 132c-26 28 -48 54 -48 92
c0 58 45 87 100 87c51 0 96 -27 96 -71c0 -47 -40 -70 -70 -87c39 -36 65 -64 102 -119c52 67 82 120 82 130s-8 12 -23 12h-15v18zM235 265c14 15 29 31 29 68c0 48 -26 61 -42 61c-23 0 -38 -23 -38 -49c0 -34 15 -49 51 -80zM188 214c-19 -14 -61 -45 -61 -102
c0 -50 34 -85 81 -85c41 0 74 30 96 50c-23 42 -32 51 -116 137z" />
    <glyph glyph-name="acute.sc" unicode="&#xf7b4;" horiz-adv-x="333" 
d="M87 488h-13l62 84c35 51 59 87 93 87c20 0 31 -14 31 -28c0 -15 -5 -31 -67 -72z" />
    <glyph glyph-name="parenleft.superior" unicode="&#x207d;" horiz-adv-x="198" 
d="M171 675l25 -20c-19 -19 -33 -41 -42 -54c-45 -72 -57 -125 -57 -194c0 -48 5 -98 37 -158c17 -32 37 -64 62 -90l-25 -20c-77 78 -121 168 -121 268c0 99 42 188 121 268z" />
    <glyph glyph-name="parenright.superior" unicode="&#x207e;" horiz-adv-x="198" 
d="M27 139l-25 21c20 20 36 45 42 54c47 76 57 130 57 193c0 48 -5 98 -37 158c-15 29 -36 63 -62 90l25 20c27 -27 50 -58 71 -91c22 -36 50 -90 50 -177s-28 -147 -73 -211c-23 -32 -34 -43 -48 -57z" />
    <glyph glyph-name="comma.superior" unicode="&#xf6e2;" horiz-adv-x="167" 
d="M54 179l-6 17c22 12 50 31 50 60c0 5 -2 8 -5 8c-2 0 -4 -2 -15 -2c-24 0 -34 18 -34 31c0 20 20 33 41 33c20 0 51 -13 51 -54c0 -29 -19 -71 -82 -93z" />
    <glyph glyph-name="uni2014.alt" unicode="&#xe041;" horiz-adv-x="1000" 
d="M125 273h750v-45h-750v45z" />
    <glyph glyph-name="period.superior" unicode="&#xf6e8;" horiz-adv-x="167" 
d="M44 294c0 18 18 31 39 31c22 0 40 -12 40 -31c0 -21 -19 -32 -39 -32s-40 11 -40 32z" />
    <glyph glyph-name="question.sc" unicode="&#xf73f;" horiz-adv-x="240" 
d="M132 115h-38c-13 16 -37 46 -37 79c0 45 36 59 56 66c37 14 75 28 75 71c0 53 -52 53 -63 53c-9 0 -46 -5 -54 -5c-9 0 -46 0 -46 33c0 41 58 41 67 41c59 0 129 -39 129 -132c0 -64 -33 -101 -90 -122c-25 -9 -35 -13 -35 -27c0 -18 10 -29 36 -57zM61 29
c0 24 19 40 44 40c24 0 43 -17 43 -41s-19 -40 -44 -40s-43 17 -43 41z" />
    <glyph glyph-name="a.superior" unicode="&#xf6e9;" horiz-adv-x="260" 
d="M75 455l-43 -20c-2 4 -3 6 -3 9c0 21 54 69 98 69c29 0 59 -15 71 -35c7 -11 7 -18 7 -48v-81c0 -46 0 -58 16 -58c12 0 22 7 31 13l3 -9c-7 -6 -44 -33 -64 -33c-13 0 -29 8 -30 36c-2 -1 -25 -17 -27 -19c-11 -7 -27 -17 -51 -17c-35 0 -59 20 -59 49s24 48 65 58
c21 5 43 10 71 26v46c0 16 0 25 -11 38c-9 9 -22 16 -37 16c-22 0 -40 -17 -40 -27c0 -1 2 -9 3 -13zM160 309v72c-9 -5 -57 -24 -68 -29c-10 -5 -23 -13 -23 -34c0 -22 18 -35 36 -35c7 0 12 1 25 8z" />
    <glyph glyph-name="b.superior" unicode="&#xf6ea;" horiz-adv-x="313" 
d="M-3 646l78 25h15v-195c47 27 69 37 94 37c48 0 106 -44 106 -116s-62 -135 -148 -135c-36 0 -90 10 -97 12v325c0 5 0 22 -1 25c-1 4 -14 5 -19 6l-28 4v12zM90 456v-82c0 -31 0 -47 8 -62c10 -17 29 -28 66 -28c47 0 81 41 81 97s-36 99 -84 99c-24 0 -42 -8 -71 -24z
" />
    <glyph glyph-name="cent.superior" unicode="&#xf6e0;" horiz-adv-x="260" 
d="M182 519l30 65h24l-32 -69c8 -2 35 -10 35 -28c0 -8 -8 -18 -24 -18c-13 0 -19 5 -27 11l-68 -145c7 -4 16 -8 34 -8c36 0 53 19 71 39l17 -9c-26 -37 -63 -57 -109 -57c-15 0 -21 1 -28 3l-38 -83h-24l41 89c-55 28 -58 81 -58 92c0 65 65 125 156 118zM102 348l68 146
c-5 3 -11 6 -22 6c-38 0 -71 -40 -71 -87c0 -11 0 -38 25 -65z" />
    <glyph glyph-name="d.superior" unicode="&#xf6eb;" horiz-adv-x="313" 
d="M237 262h-13v37c-21 -10 -37 -19 -52 -26s-30 -11 -46 -11c-52 0 -104 45 -104 117c0 87 74 134 140 134c18 0 44 -6 62 -9v95c0 5 0 22 -1 25c-2 4 -13 5 -18 6l-32 2v14l81 28h15v-338c0 -29 0 -32 15 -32c4 0 8 1 25 5c3 1 7 2 10 2v-18zM224 320v129
c-32 38 -59 42 -79 42c-51 0 -78 -47 -78 -95c0 -69 46 -102 82 -102c26 0 55 17 75 26z" />
    <glyph glyph-name="e.superior" unicode="&#xf6ec;" horiz-adv-x="281" 
d="M262 423h-189c-1 -5 -2 -14 -2 -26c0 -55 39 -105 97 -105c47 0 71 27 80 36l7 -7c-13 -15 -57 -59 -116 -59c-68 0 -113 59 -113 122c0 60 45 129 124 129c29 0 71 -4 94 -50c8 -16 10 -20 18 -28v-12zM74 437h133c-4 27 -24 64 -65 64c-28 0 -55 -19 -68 -64z" />
    <glyph glyph-name="i.superior" unicode="&#xf6ed;" horiz-adv-x="167" 
d="M82 653c21 0 28 -14 28 -23c0 -12 -10 -23 -28 -23c-19 0 -28 13 -28 23s8 23 28 23zM107 513v-174c0 -45 0 -56 47 -59v-11h-144v11c48 2 52 11 52 59v97c0 23 0 25 -6 29c-6 5 -12 6 -28 9l-14 3v9l78 27h15z" />
    <glyph glyph-name="l.superior" unicode="&#xf6ee;" horiz-adv-x="156" 
d="M101 672v-322c0 -52 0 -55 13 -64c8 -6 27 -6 36 -6v-11h-146v11c52 0 52 15 52 65v243c0 7 0 34 -2 38c-3 6 -12 7 -25 9l-20 3v10l77 24h15z" />
    <glyph glyph-name="m.superior" unicode="&#xf6ef;" horiz-adv-x="510" 
d="M101 513v-47c22 13 80 47 116 47c10 0 49 -1 61 -48c26 16 81 48 118 48c63 0 63 -64 63 -106c0 -16 -3 -85 -3 -100c0 -27 22 -27 55 -27v-11h-146v11c45 0 49 0 49 117c0 43 0 92 -47 92c-11 0 -25 -2 -54 -16c-18 -9 -26 -15 -33 -19v-111c0 -53 0 -63 40 -63v-11
h-132v11c47 0 47 20 47 63v70c0 38 0 76 -46 76c-22 0 -47 -10 -88 -34v-112c0 -56 0 -63 46 -63v-11h-135v11c44 0 44 21 44 63v83c0 36 0 39 -6 43c-8 5 -11 6 -36 9v10l72 25h15z" />
    <glyph glyph-name="n.superior" unicode="&#x207f;" horiz-adv-x="323" 
d="M100 513v-44c45 26 79 44 104 44c72 0 72 -76 72 -103c0 -16 -5 -91 -5 -104c0 -20 12 -20 54 -20v-17h-148v16c30 3 42 4 47 20c5 17 7 92 7 115c0 16 0 63 -50 63c-20 0 -38 -10 -81 -35v-103c0 -53 2 -59 46 -59v-17h-138v17c47 0 47 14 47 59v77c0 25 0 38 -2 42
c-3 3 -10 5 -23 8l-20 3v12l75 26h15z" />
    <glyph glyph-name="o.superior" unicode="&#xf6f0;" horiz-adv-x="344" 
d="M31 385c0 86 74 128 140 128c72 0 141 -48 141 -126c0 -79 -72 -125 -139 -125c-69 0 -142 45 -142 123zM80 408c0 -76 45 -132 101 -132c44 0 82 38 82 96c0 55 -36 127 -101 127c-46 0 -82 -40 -82 -91z" />
    <glyph glyph-name="r.superior" unicode="&#xf6f1;" horiz-adv-x="219" 
d="M19 488l71 25h15v-60c16 23 26 38 35 47c9 10 17 13 28 13c5 0 23 -6 27 -7c11 -3 22 -6 29 -7l-16 -36c-8 1 -16 2 -35 9c-7 3 -15 6 -22 6c-21 0 -45 -43 -46 -45v-90c0 -53 0 -63 42 -63h25v-11h-153v11c41 0 41 24 41 63v120l-41 15v10z" />
    <glyph glyph-name="s.superior" unicode="&#xf6f2;" horiz-adv-x="198" 
d="M22 334h9c13 -57 47 -60 62 -60c22 0 44 15 44 39c0 25 -29 47 -57 64c-41 25 -59 36 -59 69c0 44 40 67 84 67c5 0 27 0 51 -9l2 -55h-12c-3 15 -14 50 -51 50c-19 0 -38 -13 -38 -34c0 -23 24 -38 49 -53c36 -21 70 -41 70 -82c0 -34 -30 -68 -80 -68
c-10 0 -23 2 -31 4c-3 1 -11 4 -16 4c-4 0 -7 -3 -10 -7h-11z" />
    <glyph glyph-name="t.superior" unicode="&#xf6f3;" horiz-adv-x="188" 
d="M93 506h91l-11 -26h-80v-135c0 -20 3 -30 10 -39c8 -10 23 -16 31 -16c17 0 31 14 40 30l10 -9c-23 -49 -64 -49 -71 -49c-22 0 -43 12 -54 29c-11 16 -11 31 -11 58v131h-30v10c23 9 48 36 62 75h13v-59z" />
    <glyph glyph-name="parenleft.inferior" unicode="&#x208d;" horiz-adv-x="198" 
d="M171 395l25 -20c-26 -26 -45 -56 -62 -88c-31 -60 -36 -109 -36 -156s5 -96 37 -155c16 -32 35 -63 61 -88l-25 -20c-28 27 -51 59 -71 92c-41 66 -49 125 -49 171c0 137 89 234 120 264z" />
    <glyph glyph-name="parenright.inferior" unicode="&#x208e;" horiz-adv-x="198" 
d="M27 -132l-25 20c25 25 45 56 61 88c32 59 37 108 37 155s-5 96 -37 156c-16 32 -35 62 -61 88l25 20c28 -27 51 -59 71 -92c41 -67 49 -126 49 -172c0 -85 -28 -138 -50 -173c-7 -12 -35 -57 -70 -90z" />
    <glyph glyph-name="circumflex.sc" unicode="&#xf6f6;" horiz-adv-x="333" 
d="M164 612l-118 -126v18l108 179h28l106 -179v-18z" />
    <glyph glyph-name="hyphen.superior" unicode="&#xf6e6;" horiz-adv-x="260" 
d="M17 413h224v-47h-224v47z" />
    <glyph glyph-name="grave.sc" unicode="&#xf760;" horiz-adv-x="333" 
d="M247 488l-106 71c-64 43 -67 59 -67 71c0 19 15 29 30 29c35 0 59 -35 94 -87l62 -84h-13z" />
    <glyph glyph-name="a.sc" unicode="&#xf761;" 
d="M217 449h72l137 -372c17 -48 20 -56 72 -59v-18h-209v18c34 1 68 2 68 30c0 15 -7 36 -14 55l-31 84h-144l-23 -58c-7 -18 -19 -48 -19 -73c0 -31 33 -34 69 -38v-18h-172v18c51 10 57 27 80 84l124 318zM242 379l-63 -163h123z" />
    <glyph glyph-name="b.sc" unicode="&#xf762;" horiz-adv-x="469" 
d="M40 410v18c50 5 120 12 180 12c29 0 179 -2 179 -97c0 -67 -72 -87 -101 -95c64 -16 132 -46 132 -121c0 -95 -103 -127 -155 -127h-251v18c75 10 82 18 82 86v253c0 41 -1 51 -66 53zM179 420v-165h37c75 0 108 27 108 87c0 64 -54 77 -103 79c-17 0 -31 0 -42 -1z
M179 234v-154c0 -33 1 -59 59 -59c60 0 116 24 116 102c0 81 -53 111 -130 111h-45z" />
    <glyph glyph-name="c.sc" unicode="&#xf763;" 
d="M472 425l4 -104h-15c-19 37 -58 109 -157 109c-102 0 -167 -102 -167 -221c0 -134 85 -202 157 -202c98 0 156 72 178 100h17c-15 -41 -24 -59 -56 -111c-22 2 -33 2 -57 0c-58 -5 -69 -6 -86 -6c-146 0 -232 94 -232 223c0 149 126 238 240 238c76 0 114 -35 137 -35
c12 0 16 4 21 9h16z" />
    <glyph glyph-name="d.sc" unicode="&#xf764;" horiz-adv-x="573" 
d="M28 0v18c67 3 78 9 78 65v265c0 52 -6 61 -78 62v18c74 8 155 12 218 12c57 0 277 -11 277 -216c0 -129 -103 -196 -166 -210c-51 -11 -105 -14 -154 -14h-175zM178 417v-349c0 -18 0 -27 3 -34c7 -12 44 -13 59 -13c178 0 205 133 205 203c0 44 -11 135 -97 173
c-50 22 -114 21 -170 20z" />
    <glyph glyph-name="e.sc" unicode="&#xf765;" horiz-adv-x="417" 
d="M167 413v-180h108c36 0 48 0 52 54h20v-135h-20c-2 55 -10 59 -59 59h-101v-143c0 -43 2 -43 45 -43h76c45 0 68 6 87 81h19l-9 -106h-361v17c64 -2 71 17 71 58v284c0 51 -15 59 -71 58v18h342l4 -95h-18c-11 66 -27 73 -76 73h-109z" />
    <glyph glyph-name="f.sc" unicode="&#xf766;" horiz-adv-x="365" 
d="M28 435h311v-88h-18c-7 47 -11 51 -16 56s-20 9 -48 9h-100v-170h110c36 0 53 9 54 47h18v-122h-18c-3 45 -13 53 -50 53h-114v-154c0 -38 0 -43 66 -48v-18h-195v18c52 5 57 13 57 52v286c0 50 -4 55 -57 61v18z" />
    <glyph glyph-name="g.sc" unicode="&#xf767;" 
d="M441 428v-114h-17c-8 26 -16 52 -40 76c-25 24 -64 40 -101 40c-93 0 -153 -88 -153 -211c0 -175 107 -209 161 -209c37 0 60 12 78 22v68c0 47 0 49 -80 51v18h212v-18c-56 -4 -60 -4 -60 -57v-55c-50 -24 -102 -49 -172 -49c-96 0 -217 62 -217 221
c0 155 116 240 226 240c73 0 116 -33 131 -33c8 0 12 6 15 10h17z" />
    <glyph glyph-name="h.sc" unicode="&#xf768;" horiz-adv-x="573" 
d="M172 232h229v117c0 51 -5 64 -76 68v18h224v-18c-68 -4 -76 -16 -76 -68v-263c0 -56 14 -64 76 -68v-18h-224v18c61 4 76 12 76 68v121h-229v-121c0 -56 14 -64 76 -68v-18h-224v18c61 4 76 12 76 68v263c0 56 -14 64 -76 68v18h224v-18c-61 -4 -76 -11 -76 -68v-117z
" />
    <glyph glyph-name="i.sc" unicode="&#xf769;" horiz-adv-x="271" 
d="M243 435v-18c-72 -3 -72 -14 -72 -75v-248c0 -64 14 -72 76 -76v-18h-220v18c62 2 73 10 73 78v245c0 64 -14 72 -76 76v18h219z" />
    <glyph glyph-name="j.sc" unicode="&#xf76a;" horiz-adv-x="313" 
d="M64 417v18h221v-18c-57 -5 -76 -7 -76 -76v-299c0 -34 0 -97 -34 -147c-25 -36 -71 -81 -128 -81c-36 0 -71 24 -71 35c0 9 19 45 38 45c15 0 33 -16 39 -22c21 -18 32 -21 42 -21c22 0 32 19 35 26c6 19 8 51 8 138v324c0 74 -20 80 -74 78z" />
    <glyph glyph-name="k.sc" unicode="&#xf76b;" 
d="M289 435h191v-18c-76 -1 -79 -5 -121 -62c-10 -14 -21 -28 -31 -43c-36 -51 -54 -64 -75 -80c24 -18 30 -22 76 -74c15 -17 83 -95 98 -111c27 -29 57 -29 77 -29v-18h-210v18c30 -1 56 -1 56 14c0 18 -69 90 -91 113c-46 48 -61 61 -90 63v-143c0 -27 0 -47 41 -47h27
v-18h-212v18c64 -2 71 16 71 58v293c0 41 0 49 -74 48v18h218v-18c-65 2 -71 -17 -71 -58v-134c27 3 53 7 100 61c31 35 71 96 71 113c0 16 -14 16 -51 18v18z" />
    <glyph glyph-name="l.sc" unicode="&#xf76c;" horiz-adv-x="417" 
d="M20 435h232v-18c-75 -1 -82 -2 -82 -58v-299c0 -23 0 -26 7 -29c15 -7 46 -7 62 -7c75 0 96 7 135 78h18l-43 -102h-322v18c64 0 71 12 71 58v274c0 56 -3 68 -78 67v18z" />
    <glyph glyph-name="m.sc" unicode="&#xf76d;" horiz-adv-x="677" 
d="M490 435h141v-18c-49 0 -64 -4 -63 -29c0 -7 1 -35 2 -57l15 -237c4 -60 5 -78 71 -76v-18h-208v18c43 3 71 6 71 37c0 11 -1 33 -2 45l-18 278l-165 -378h-19l-160 378l-25 -299c-1 -10 -2 -24 -2 -30c0 -23 25 -31 61 -31v-18h-168v18c22 1 57 3 67 16
c9 11 11 46 13 70l22 265c3 42 -4 44 -61 48v18h143l141 -331z" />
    <glyph glyph-name="n.sc" unicode="&#xf76e;" horiz-adv-x="573" 
d="M28 435h123l294 -326v250c0 27 0 53 -33 56c-7 1 -37 2 -43 2v18h179v-18c-65 2 -71 -17 -71 -58v-362h-24l-323 359v-267c0 -67 12 -70 83 -71v-18h-186v18c64 -2 71 16 71 58v280c0 57 -28 59 -70 61v18z" />
    <glyph glyph-name="o.sc" unicode="&#xf76f;" horiz-adv-x="573" 
d="M48 223c0 154 129 229 240 229c115 0 238 -75 238 -229c0 -168 -129 -235 -239 -235c-109 0 -239 67 -239 235zM448 222c0 154 -77 213 -163 213c-103 0 -159 -99 -159 -204c0 -110 27 -154 55 -182c30 -30 66 -44 105 -44c76 0 162 57 162 217z" />
    <glyph glyph-name="p.sc" unicode="&#xf770;" horiz-adv-x="417" 
d="M255 18v-18h-229v18c64 -2 71 16 71 58v287c0 22 0 49 -44 49c-11 0 -25 -1 -31 -2v18c37 4 114 12 183 12c40 0 184 0 184 -127c0 -82 -70 -134 -149 -134c-27 0 -52 7 -70 12v-117c0 -49 5 -54 85 -56zM170 419v-211c15 -4 30 -8 52 -8c91 0 92 98 92 111
c0 34 -12 110 -104 110c-15 0 -31 -1 -40 -2z" />
    <glyph glyph-name="q.sc" unicode="&#xf771;" horiz-adv-x="573" 
d="M546 -128v-18c-5 -1 -24 -3 -36 -3c-65 0 -131 44 -148 57c-82 61 -91 67 -112 82c-116 19 -203 106 -203 226c0 103 75 234 241 234c164 0 240 -121 240 -231c0 -111 -70 -198 -175 -224c19 -12 26 -17 66 -52c74 -66 99 -68 127 -71zM126 227c0 -80 17 -136 52 -175
c22 -25 59 -47 108 -47c52 0 163 29 163 218c0 143 -80 210 -161 210c-86 0 -162 -68 -162 -206z" />
    <glyph glyph-name="r.sc" unicode="&#xf772;" horiz-adv-x="469" 
d="M169 189v-100c0 -59 6 -71 49 -71h29v-18h-221v18h16c49 0 55 20 55 58v283c0 11 0 27 -8 37c-8 11 -14 11 -64 14v18c42 4 105 12 176 12c88 0 194 -20 194 -125c0 -82 -63 -104 -95 -115c19 -17 25 -23 61 -100c32 -69 51 -83 88 -89v-18c-69 3 -111 19 -153 85
c-11 17 -54 96 -63 111h-64zM169 418v-211h45c53 0 106 24 106 106c0 84 -63 107 -107 107c-17 0 -34 -1 -44 -2z" />
    <glyph glyph-name="s.sc" unicode="&#xf773;" horiz-adv-x="365" 
d="M287 437l10 -100h-19c-7 18 -15 39 -34 58c-22 23 -50 33 -71 33c-41 0 -69 -31 -69 -64c0 -41 27 -59 128 -125c26 -17 87 -57 87 -130c0 -67 -52 -124 -134 -124c-25 0 -35 3 -86 17c-4 1 -9 2 -12 2c-9 0 -12 -3 -14 -9h-16l-12 108h20c30 -86 92 -98 112 -98
c28 0 84 18 84 77c0 51 -38 78 -111 123c-88 55 -104 94 -104 132c0 65 57 112 117 112c23 0 45 -4 64 -11c4 -1 25 -10 30 -10c3 0 7 2 12 9h18z" />
    <glyph glyph-name="t.sc" unicode="&#xf774;" horiz-adv-x="469" 
d="M29 338l9 112h14c5 -7 9 -11 15 -13s12 -2 20 -2h292c27 0 32 3 37 15h14l8 -112h-16c-14 63 -23 72 -69 72h-83v-329c0 -57 7 -59 82 -63v-18h-236v18c75 3 82 6 82 59v333h-90c-39 0 -42 -2 -62 -72h-17z" />
    <glyph glyph-name="u.sc" unicode="&#xf775;" horiz-adv-x="573" 
d="M32 435h221v-18c-66 -3 -76 -17 -76 -68v-182c0 -32 0 -67 14 -93c11 -21 42 -54 111 -54c41 0 104 11 127 69c11 26 11 70 11 99v148c0 68 0 79 -77 81v18h179v-18c-66 2 -72 -17 -72 -58v-180c0 -30 0 -80 -18 -116c-31 -63 -112 -78 -163 -78c-38 0 -128 6 -168 78
c-15 27 -15 68 -15 92v196c0 53 -1 62 -74 66v18z" />
    <glyph glyph-name="v.sc" unicode="&#xf776;" 
d="M24 435h211v-18c-31 1 -71 1 -71 -25c0 -8 3 -15 12 -39l109 -278l98 275c12 32 13 36 13 42c0 26 -36 25 -72 25v18h173v-18c-44 0 -56 -7 -82 -77l-130 -350h-42l-144 374c-21 52 -39 53 -75 53v18z" />
    <glyph glyph-name="w.sc" unicode="&#xf777;" horiz-adv-x="781" 
d="M24 435h190v-18c-27 0 -51 0 -51 -20c0 -9 2 -20 13 -49l111 -286l95 177l-63 136c-16 35 -22 42 -62 42v18h304v-18c-44 1 -53 -4 -79 -55l-45 -84l100 -212l117 275c13 33 17 43 17 55c0 21 -32 21 -56 21v18h142v-18c-36 1 -42 -12 -60 -56l-159 -374h-38l-102 217
l-115 -217h-38l-141 362c-22 57 -25 64 -80 68v18zM445 417h-44c-12 0 -19 -3 -19 -12c0 -7 4 -15 7 -22l33 -69l30 58c10 19 12 25 12 32c0 10 -7 13 -19 13z" />
    <glyph glyph-name="x.sc" unicode="&#xf778;" horiz-adv-x="573" 
d="M27 435h224v-18c-30 0 -59 -1 -59 -17c0 -10 24 -41 32 -50l70 -87l77 93c16 19 24 29 24 41c0 20 -31 20 -57 20v18h195v-18c-70 -4 -85 -19 -128 -71l-90 -109l122 -153c43 -54 58 -63 109 -66v-18h-234v18c46 2 61 2 61 21c0 14 -7 23 -24 43l-81 101l-83 -101
c-17 -20 -23 -28 -23 -39c0 -21 30 -23 54 -25v-18h-190v18c55 1 84 23 132 82l90 108l-133 164c-33 42 -40 42 -88 45v18z" />
    <glyph glyph-name="y.sc" unicode="&#xf779;" 
d="M19 435h212v-18c-40 -2 -43 -2 -48 -6c-4 -3 -6 -8 -6 -12c0 -8 14 -31 23 -46l94 -142l78 135c11 19 23 40 23 53c0 17 -23 18 -53 18v18h159v-18c-54 -1 -57 -7 -86 -55l-107 -185v-88c0 -58 5 -71 49 -71h28v-18h-225v18h22c54 0 55 7 55 68v91l-129 195
c-27 41 -30 45 -89 45v18z" />
    <glyph glyph-name="z.sc" unicode="&#xf77a;" horiz-adv-x="469" 
d="M63 435h363v-17l-309 -392h194c42 0 54 3 63 13c13 18 26 58 34 93h18l-8 -132h-387v26l305 387h-173c-57 0 -73 -2 -86 -80h-18z" />
    <glyph glyph-name="one.fitted" unicode="&#xf6dc;" horiz-adv-x="365" 
d="M180 637h35v-580c0 -30 6 -38 37 -38h56v-19h-252v19h54c32 0 38 9 38 39v499c-32 -28 -88 -65 -125 -82l-8 14c58 39 141 114 165 148z" />
    <glyph glyph-name="R_p" unicode="&#xf6dd;" horiz-adv-x="1063" 
d="M642 5v-18c-105 -2 -155 44 -227 150c-13 20 -69 109 -83 125h-133v-135c1 -87 1 -106 107 -110v-17h-287v17c19 0 63 0 84 23c13 14 13 26 13 89v371c0 54 0 66 -14 80c-15 14 -34 21 -83 22v18c52 5 185 11 248 11c59 0 119 -7 174 -30c52 -23 99 -81 99 -150
c0 -32 -13 -120 -130 -161l121 -185c55 -83 82 -91 111 -100zM199 610v-330c75 -1 112 -1 151 12c67 21 95 88 95 155c0 31 -7 109 -80 143c-48 24 -111 22 -166 20zM723 427v-96c38 27 67 45 91 56c25 12 44 16 63 16c77 0 149 -86 149 -186c0 -122 -101 -223 -212 -223
c-21 0 -47 3 -91 19v-119c0 -74 0 -108 67 -108h25v-19h-236v19c77 0 77 24 77 108v378c-1 43 -1 47 -10 54c-5 4 -6 5 -50 16v19l107 66h20zM723 306v-226c43 -41 90 -55 118 -55c58 0 118 54 118 154c0 106 -63 176 -131 176c-43 0 -86 -32 -105 -49z" />
    <glyph glyph-name="tilde.sc" unicode="&#xf6fe;" horiz-adv-x="333" 
d="M43 516h-11c1 16 2 51 15 74c14 23 37 40 66 40c26 0 42 -11 75 -34c34 -24 44 -28 58 -28c39 0 43 43 44 61h11c3 -79 -40 -112 -77 -112c-24 0 -37 8 -75 34c-35 23 -42 28 -57 28c-41 0 -47 -48 -49 -63z" />
    <glyph glyph-name="exclamdown.sc" unicode="&#xf7a1;" horiz-adv-x="177" 
d="M132 256c0 -22 -18 -40 -43 -40c-26 0 -44 17 -44 41c0 23 19 40 44 40c24 0 43 -17 43 -41zM75 184h27l27 -309c2 -22 2 -32 -24 -32h-32c-24 0 -26 7 -24 32z" />
    <glyph glyph-name="lslash.sc" unicode="&#xf6f9;" horiz-adv-x="417" 
d="M30 156l68 65v121c0 64 -3 76 -78 75v18h232v-18c-75 -1 -82 -2 -82 -50v-86l65 62v-37l-65 -62v-184c0 -23 0 -26 7 -29c15 -7 46 -7 62 -7c75 0 96 7 135 78h18l-43 -102h-322v18c64 -3 71 16 71 58v107l-68 -65v38z" />
    <glyph glyph-name="scaron.sc" unicode="&#xf6fd;" horiz-adv-x="365" 
d="M287 437l10 -100h-19c-7 18 -15 39 -34 58c-22 23 -50 33 -71 33c-41 0 -69 -31 -69 -64c0 -41 27 -59 128 -125c26 -17 87 -57 87 -130c0 -67 -52 -124 -134 -124c-25 0 -35 3 -86 17c-4 1 -9 2 -12 2c-9 0 -12 -3 -14 -9h-16l-12 108h20c30 -86 92 -98 112 -98
c28 0 84 18 84 77c0 51 -38 78 -111 123c-88 55 -104 94 -104 132c0 65 57 112 117 112c23 0 45 -4 64 -11c4 -1 25 -10 30 -10c3 0 7 2 12 9h18zM166 558l122 125v-17l-105 -180h-31l-106 180v17z" />
    <glyph glyph-name="zcaron.sc" unicode="&#xf6ff;" horiz-adv-x="469" 
d="M63 435h363v-17l-309 -392h194c42 0 54 3 63 13c13 18 26 58 34 93h18l-8 -132h-387v26l305 387h-173c-57 0 -73 -2 -86 -80h-18zM228 557l122 126v-18l-105 -179h-32l-105 179v18z" />
    <glyph glyph-name="dieresis.sc" unicode="&#xf7a8;" horiz-adv-x="333" 
d="M26 560c0 24 20 44 44 44s44 -20 44 -44c0 -25 -20 -44 -44 -44s-44 20 -44 44zM220 560c0 25 20 44 44 44c25 0 44 -20 44 -44s-20 -44 -44 -44c-23 0 -44 19 -44 44z" />
    <glyph glyph-name="breve.sc" unicode="&#xf6f4;" horiz-adv-x="333" 
d="M30 660h16c4 -17 23 -92 120 -92c98 0 117 75 121 92h16c-2 -80 -52 -156 -137 -156c-84 0 -134 76 -136 156z" />
    <glyph glyph-name="caron.sc" unicode="&#xf6f5;" horiz-adv-x="333" 
d="M166 558l122 125v-17l-105 -180h-31l-106 180v17z" />
    <glyph glyph-name="dotaccent.sc" unicode="&#xf6f7;" horiz-adv-x="333" 
d="M123 560c0 24 20 44 44 44s44 -20 44 -44c0 -25 -20 -44 -44 -44s-44 20 -44 44z" />
    <glyph glyph-name="macron.sc" unicode="&#xf7af;" horiz-adv-x="333" 
d="M29 588h275v-57h-275v57z" />
    <glyph glyph-name="hyphen.inferior" unicode="&#xf6e5;" horiz-adv-x="250" 
d="M13 141h221v-46h-221v46z" />
    <glyph glyph-name="ogonek.sc" unicode="&#xf6fb;" horiz-adv-x="333" 
d="M93 6h26c-6 -12 -13 -25 -13 -48c0 -77 73 -95 104 -95c14 0 34 2 58 11l11 -16c-50 -27 -72 -37 -113 -37c-81 0 -112 50 -112 90c0 16 5 63 39 95z" />
    <glyph glyph-name="ring.sc" unicode="&#xf6fc;" horiz-adv-x="333" 
d="M76 553c0 50 41 91 91 91s91 -41 91 -91s-41 -91 -91 -91c-49 0 -91 41 -91 91zM100 553c0 -38 30 -67 67 -67s67 30 67 67s-30 67 -67 67s-67 -30 -67 -67z" />
    <glyph glyph-name="cedilla.sc" unicode="&#xf7b8;" horiz-adv-x="333" 
d="M107 -200l7 14c4 -2 15 -5 26 -5c24 0 53 19 53 52c0 5 0 36 -33 36c-22 0 -54 -16 -62 -20l77 129h15l-32 -54c54 4 78 -40 78 -75c0 -36 -28 -86 -86 -86c-21 0 -35 5 -43 9z" />
    <glyph glyph-name="questiondown.sc" unicode="&#xf7bf;" horiz-adv-x="240" 
d="M177 256c0 -22 -18 -40 -43 -40c-26 0 -44 17 -44 41c0 23 19 40 44 40c24 0 43 -17 43 -41zM106 176h38c17 -20 37 -47 37 -79c0 -45 -35 -58 -56 -66c-36 -13 -75 -27 -75 -70c0 -45 38 -53 62 -53c9 0 47 5 55 5c6 0 46 0 46 -33c0 -41 -58 -41 -67 -41
c-61 0 -129 40 -129 132c0 78 51 107 91 121c23 9 34 13 34 27c0 17 -11 29 -36 57z" />
    <glyph glyph-name="zero.superior" unicode="&#x2070;" horiz-adv-x="302" 
d="M23 572c0 99 60 169 129 169c70 0 128 -73 128 -169c0 -95 -57 -169 -129 -169c-68 0 -128 71 -128 169zM79 572c0 -95 19 -154 73 -154c56 0 72 67 72 154c0 88 -16 154 -72 154c-54 0 -73 -59 -73 -154z" />
    <glyph glyph-name="one.superior" unicode="&#xb9;" horiz-adv-x="302" 
d="M153 741h30v-295c0 -16 5 -20 18 -20h37v-16h-160v16h33c20 0 21 4 21 20v242c-24 -15 -44 -27 -71 -38l-8 13c27 16 76 51 100 78z" />
    <glyph glyph-name="two.superior" unicode="&#xb2;" horiz-adv-x="302" 
d="M8 410v12c20 22 48 47 112 102c50 43 76 81 76 117c0 41 -37 65 -72 65c-25 0 -71 -13 -89 -69h-20c8 73 69 105 125 105c61 0 115 -37 115 -93c0 -54 -35 -79 -96 -122c-40 -29 -75 -59 -98 -79h128c44 0 49 0 57 40h21l-12 -78h-247z" />
    <glyph glyph-name="three.superior" unicode="&#xb3;" horiz-adv-x="302" 
d="M100 563l-11 14c29 18 82 55 82 88c0 30 -29 44 -51 44c-6 0 -47 0 -76 -52l-21 7c27 58 79 77 116 77c45 0 83 -24 83 -60c0 -24 -19 -48 -54 -69c59 -5 89 -45 89 -87c0 -61 -70 -122 -156 -122c-41 0 -94 15 -94 39c0 13 13 21 25 21s18 -4 45 -23
c12 -8 25 -17 45 -17c38 0 79 37 79 89c0 49 -35 68 -58 68c-19 0 -33 -9 -43 -17z" />
    <glyph glyph-name="four.superior" unicode="&#x2074;" horiz-adv-x="302" 
d="M173 503h-151v15l176 224h26v-207h59v-32h-59v-100h-51v100zM64 535h109v139z" />
    <glyph glyph-name="five.superior" unicode="&#x2075;" horiz-adv-x="302" 
d="M241 741l-8 -46h-148l-4 -82c9 4 19 6 28 8c10 1 20 2 29 2c70 0 126 -51 126 -108c0 -63 -62 -112 -143 -112c-33 0 -92 10 -92 35c0 10 11 19 25 19c18 0 32 -11 42 -19c9 -8 21 -17 38 -17c30 0 74 28 74 83c0 61 -53 78 -81 78c-33 0 -55 -15 -62 -20l-12 7l8 165
h131c20 0 23 0 27 7h22z" />
    <glyph glyph-name="six.superior" unicode="&#x2076;" horiz-adv-x="302" 
d="M238 742l11 -13c-54 -19 -131 -52 -153 -146c16 10 38 23 75 23c66 0 111 -47 111 -97c0 -52 -49 -106 -121 -106c-67 0 -129 47 -129 136c0 104 88 175 206 203zM90 559c0 -5 -2 -13 -2 -30c0 -78 35 -111 74 -111c45 0 64 41 64 86c0 52 -26 84 -63 84
c-26 0 -53 -16 -73 -29z" />
    <glyph glyph-name="seven.superior" unicode="&#x2077;" horiz-adv-x="302" 
d="M127 403h-44l142 291h-158c-16 0 -19 -5 -23 -30h-21l4 69h246z" />
    <glyph glyph-name="eight.superior" unicode="&#x2078;" horiz-adv-x="302" 
d="M111 573c-25 11 -76 34 -76 82c0 44 47 86 114 86c59 0 112 -33 112 -77c0 -46 -52 -66 -73 -74c33 -14 84 -37 84 -90c0 -51 -48 -97 -122 -97c-62 0 -120 35 -120 87c0 37 29 63 81 83zM169 598c16 10 44 27 44 67c0 30 -22 61 -65 61c-34 0 -67 -21 -67 -54
c0 -35 28 -49 88 -74zM134 565c-23 -13 -55 -31 -55 -74c0 -42 30 -73 72 -73c40 0 72 28 72 67c0 28 -15 50 -89 80z" />
    <glyph glyph-name="nine.superior" unicode="&#x2079;" horiz-adv-x="302" 
d="M69 403l-11 13c119 42 139 98 153 146c-19 -11 -40 -23 -75 -23c-66 0 -111 47 -111 97c0 53 50 106 121 106c66 0 129 -47 129 -136c0 -105 -89 -175 -206 -203zM216 586c1 5 3 24 3 38c0 23 -10 103 -74 103c-48 0 -64 -45 -64 -85c0 -55 27 -85 63 -85
c28 0 55 17 72 29z" />
    <glyph glyph-name="zero.inferior" unicode="&#x2080;" horiz-adv-x="302" 
d="M23 51c0 99 60 169 129 169c70 0 128 -73 128 -169c0 -95 -57 -169 -129 -169c-68 0 -128 71 -128 169zM79 51c0 -95 19 -154 73 -154c56 0 72 67 72 154c0 88 -16 154 -72 154c-54 0 -73 -59 -73 -154z" />
    <glyph glyph-name="one.inferior" unicode="&#x2081;" horiz-adv-x="302" 
d="M153 220h30v-295c0 -16 5 -20 18 -20h37v-16h-160v16h33c20 0 21 4 21 20v242c-24 -15 -44 -27 -71 -38l-8 13c27 16 76 51 100 78z" />
    <glyph glyph-name="two.inferior" unicode="&#x2082;" horiz-adv-x="302" 
d="M8 -111v12c19 21 61 58 112 102c50 43 76 81 76 117c0 41 -36 65 -72 65c-24 0 -70 -12 -88 -69h-21c10 77 75 105 126 105c60 0 114 -37 114 -93c0 -46 -32 -77 -61 -98c-36 -25 -71 -50 -102 -77l-30 -26h127c44 0 49 0 57 40h21l-12 -78h-247z" />
    <glyph glyph-name="three.inferior" unicode="&#x2083;" horiz-adv-x="302" 
d="M100 42l-11 14c10 6 82 51 82 88c0 30 -29 44 -51 44c-6 0 -48 0 -76 -52l-21 7c26 58 78 77 116 77c45 0 83 -24 83 -60c0 -29 -27 -52 -53 -69c66 -7 88 -52 88 -87c0 -61 -70 -122 -156 -122c-41 0 -94 15 -94 39c0 12 12 21 24 21c13 0 19 -4 46 -23
c12 -8 25 -17 45 -17c38 0 79 37 79 89c0 49 -35 68 -58 68c-19 0 -32 -9 -43 -17z" />
    <glyph glyph-name="four.inferior" unicode="&#x2084;" horiz-adv-x="302" 
d="M173 -18h-151v15l176 224h26v-207h59v-32h-59v-100h-51v100zM64 14h109v139z" />
    <glyph glyph-name="five.inferior" unicode="&#x2085;" horiz-adv-x="302" 
d="M242 220l-8 -46h-149l-4 -82c27 10 51 10 57 10c71 0 127 -51 127 -108c0 -63 -62 -112 -144 -112c-33 0 -92 10 -92 35c0 13 13 19 25 19c17 0 34 -13 42 -19c9 -8 21 -17 38 -17c32 0 75 29 75 83c0 60 -52 78 -82 78s-54 -15 -62 -20l-12 7l8 165h148c7 0 9 2 11 7h22
z" />
    <glyph glyph-name="six.inferior" unicode="&#x2086;" horiz-adv-x="302" 
d="M238 221l11 -13c-54 -19 -131 -52 -153 -146c16 10 38 23 75 23c66 0 111 -47 111 -97c0 -52 -49 -106 -121 -106c-67 0 -129 47 -129 136c0 104 88 175 206 203zM90 38c0 -5 -2 -13 -2 -30c0 -78 35 -111 74 -111c45 0 64 41 64 86c0 52 -26 84 -63 84
c-26 0 -53 -16 -73 -29z" />
    <glyph glyph-name="seven.inferior" unicode="&#x2087;" horiz-adv-x="302" 
d="M127 -117h-44l142 291h-141c-10 0 -30 0 -33 -5c-4 -6 -5 -15 -7 -25h-21l4 69h246v-14z" />
    <glyph glyph-name="eight.inferior" unicode="&#x2088;" horiz-adv-x="302" 
d="M111 52l-18 9c-31 14 -58 39 -58 73c0 44 47 86 114 86c59 0 112 -33 112 -77c0 -45 -50 -65 -73 -74l21 -10c25 -11 63 -36 63 -80c0 -51 -48 -97 -122 -97c-62 0 -120 35 -120 87c0 49 53 72 81 83zM151 -103c40 0 72 28 72 67c0 38 -22 48 -88 79
c-34 -15 -56 -37 -56 -73c0 -42 30 -73 72 -73zM81 151c0 -36 27 -47 87 -74c23 13 45 32 45 67c0 30 -22 61 -65 61c-34 0 -67 -21 -67 -54z" />
    <glyph glyph-name="nine.inferior" unicode="&#x2089;" horiz-adv-x="302" 
d="M69 -118l-11 13c119 42 139 98 153 146c-19 -11 -40 -23 -75 -23c-66 0 -111 47 -111 97c0 53 50 106 121 106c66 0 129 -47 129 -136c0 -105 -89 -175 -206 -203zM216 65c1 5 3 24 3 38c0 23 -10 103 -74 103c-48 0 -64 -45 -64 -85c0 -55 27 -85 63 -85
c28 0 55 17 72 29z" />
    <glyph glyph-name="cent.inferior" unicode="&#xf6df;" horiz-adv-x="281" 
d="M188 212l30 65h24l-32 -69c8 -2 35 -10 35 -28c0 -8 -8 -18 -24 -18c-13 0 -19 5 -27 11l-68 -145c7 -4 16 -8 34 -8c36 0 53 19 71 39l17 -9c-26 -37 -63 -57 -109 -57c-15 0 -21 1 -28 3l-38 -83h-24l41 89c-55 28 -58 81 -58 92c0 65 65 125 156 118zM108 41l68 146
c-5 3 -11 6 -22 6c-38 0 -71 -40 -71 -87c0 -11 0 -38 25 -65z" />
    <glyph glyph-name="dollar.inferior" unicode="&#xf6e3;" horiz-adv-x="281" 
d="M97 19v137c-21 13 -67 41 -67 78c0 30 24 57 67 69v35h22v-31c13 1 25 1 37 0v31h22v-35c51 -12 70 -33 70 -46c0 -10 -10 -19 -23 -19c-2 0 -14 0 -22 9c-4 4 -21 24 -25 28v-107c68 -36 84 -58 84 -89c0 -41 -33 -69 -84 -82v-49h-22v46c-9 -1 -20 -1 -37 0v-46h-22v49
c-74 18 -78 54 -78 58c0 10 11 21 26 21c18 0 25 -16 27 -21c7 -16 11 -27 25 -36zM156 180v108c-12 5 -25 5 -37 4v-92c13 -8 18 -10 37 -20zM97 215v70c-18 -9 -23 -21 -23 -33c0 -16 7 -25 23 -37zM156 10v116c-8 4 -31 16 -37 19v-134c9 -2 20 -3 37 -1zM178 114v-98
c37 16 37 43 37 50c0 25 -17 36 -37 48z" />
    <glyph glyph-name="period.inferior" unicode="&#xf6e7;" horiz-adv-x="167" 
d="M44 24c0 19 18 31 39 31c22 0 39 -13 39 -31c0 -19 -18 -31 -39 -31c-20 0 -39 11 -39 31z" />
    <glyph glyph-name="comma.inferior" unicode="&#xf6e1;" horiz-adv-x="167" 
d="M55 -89l-7 17c17 8 50 29 50 57c0 4 -2 9 -7 9c-2 0 -10 -2 -11 -2c-29 0 -35 21 -35 30c0 20 19 33 40 33s51 -14 51 -53c0 -33 -24 -72 -81 -91z" />
    <glyph glyph-name="agrave.sc" unicode="&#xf7e0;" 
d="M217 449h72l137 -372c17 -48 20 -56 72 -59v-18h-209v18c34 1 68 2 68 30c0 15 -7 36 -14 55l-31 84h-144l-23 -58c-7 -18 -19 -48 -19 -73c0 -31 33 -34 69 -38v-18h-172v18c51 10 57 27 80 84l124 318zM242 379l-63 -163h123zM287 488l-106 71c-64 43 -67 59 -67 71
c0 19 15 29 30 29c35 0 59 -35 94 -87l62 -84h-13z" />
    <glyph glyph-name="aacute.sc" unicode="&#xf7e1;" 
d="M217 449h72l137 -372c17 -48 20 -56 72 -59v-18h-209v18c34 1 68 2 68 30c0 15 -7 36 -14 55l-31 84h-144l-23 -58c-7 -18 -19 -48 -19 -73c0 -31 33 -34 69 -38v-18h-172v18c51 10 57 27 80 84l124 318zM242 379l-63 -163h123zM201 488h-13l62 84c35 51 59 87 93 87
c20 0 31 -14 31 -28c0 -15 -5 -31 -67 -72z" />
    <glyph glyph-name="acircumflex.sc" unicode="&#xf7e2;" 
d="M217 449h72l137 -372c17 -48 20 -56 72 -59v-18h-209v18c34 1 68 2 68 30c0 15 -7 36 -14 55l-31 84h-144l-23 -58c-7 -18 -19 -48 -19 -73c0 -31 33 -34 69 -38v-18h-172v18c51 10 57 27 80 84l124 318zM242 379l-63 -163h123zM258 612l-118 -126v18l108 179h28
l106 -179v-18z" />
    <glyph glyph-name="atilde.sc" unicode="&#xf7e3;" 
d="M217 449h72l137 -372c17 -48 20 -56 72 -59v-18h-209v18c34 1 68 2 68 30c0 15 -7 36 -14 55l-31 84h-144l-23 -58c-7 -18 -19 -48 -19 -73c0 -31 33 -34 69 -38v-18h-172v18c51 10 57 27 80 84l124 318zM242 379l-63 -163h123zM137 516h-11c1 16 2 51 15 74
c14 23 37 40 66 40c26 0 42 -11 75 -34c34 -24 44 -28 58 -28c39 0 43 43 44 61h11c3 -79 -40 -112 -77 -112c-24 0 -37 8 -75 34c-35 23 -42 28 -57 28c-41 0 -47 -48 -49 -63z" />
    <glyph glyph-name="adieresis.sc" unicode="&#xf7e4;" 
d="M216 449h74l136 -372c17 -48 20 -56 72 -59v-18h-208v18c34 1 67 2 67 30c0 15 -7 36 -14 55l-31 84h-144l-23 -58c-7 -18 -19 -48 -19 -73c0 -31 33 -34 69 -38v-18h-172v18c51 10 57 27 80 84l124 318zM243 379l-64 -163h123zM119 560c0 24 19 44 44 44
c24 0 44 -20 44 -44c0 -25 -20 -44 -44 -44s-44 20 -44 44zM314 560c0 25 20 44 44 44c25 0 44 -20 44 -44s-20 -44 -44 -44c-23 0 -44 19 -44 44z" />
    <glyph glyph-name="aring.sc" unicode="&#xf7e5;" 
d="M217 449h72l137 -372c17 -48 20 -56 72 -59v-18h-209v18c34 1 68 2 68 30c0 15 -7 36 -14 55l-31 84h-144l-23 -58c-7 -18 -19 -48 -19 -73c0 -31 33 -34 69 -38v-18h-172v18c51 10 57 27 80 84l124 318zM242 379l-63 -163h123zM170 553c0 50 41 91 91 91s91 -41 91 -91
s-41 -91 -91 -91c-49 0 -91 41 -91 91zM194 553c0 -38 30 -67 67 -67s67 30 67 67s-30 67 -67 67s-67 -30 -67 -67z" />
    <glyph glyph-name="ae.sc" unicode="&#xf7e6;" horiz-adv-x="677" 
d="M238 435h374l8 -97h-20c-13 72 -29 74 -70 74h-112v-179h97c44 0 54 0 61 54h18v-134h-18c-5 54 -8 58 -56 58h-102v-124c0 -49 0 -54 17 -60c10 -3 42 -3 55 -3h30c60 0 89 8 105 82h16l-9 -106h-368v17c84 9 84 22 84 63v113h-131l-47 -84c-17 -30 -25 -46 -25 -63
c0 -23 39 -27 60 -28v-18h-182v17c59 10 73 22 113 93l143 257c13 23 14 25 14 33c0 12 -19 14 -55 17v18zM342 417l-112 -199h118v199h-6z" />
    <glyph glyph-name="ccedilla.sc" unicode="&#xf7e7;" 
d="M292 -10l-23 -38c54 4 78 -40 78 -75c0 -36 -28 -86 -86 -86c-21 0 -34 5 -42 9l6 14c4 -2 15 -5 26 -5c25 0 53 19 53 52c0 5 0 36 -33 36c-22 0 -54 -16 -62 -20l68 113c-36 2 -67 7 -97 21c-77 36 -122 116 -122 202c0 129 106 238 239 238c42 0 49 -3 122 -32
c6 -2 11 -3 16 -3c12 0 16 4 21 9h16l4 -104h-15c-20 37 -59 109 -158 109c-101 0 -166 -102 -166 -221c0 -134 84 -202 156 -202c99 0 157 72 179 100h17c-15 -41 -24 -59 -56 -111c-31 2 -60 0 -96 -4c-14 -1 -32 -3 -45 -2z" />
    <glyph glyph-name="egrave.sc" unicode="&#xf7e8;" horiz-adv-x="417" 
d="M167 413v-180h108c36 0 48 0 52 54h20v-135h-20c-2 55 -10 59 -59 59h-101v-143c0 -43 2 -43 45 -43h76c45 0 68 6 87 81h19l-9 -106h-361v17c64 -2 71 17 71 58v284c0 51 -15 59 -71 58v18h342l4 -95h-18c-11 66 -27 73 -76 73h-109zM247 488l-106 71
c-64 43 -67 59 -67 71c0 19 15 29 30 29c35 0 59 -35 94 -87l62 -84h-13z" />
    <glyph glyph-name="eacute.sc" unicode="&#xf7e9;" horiz-adv-x="417" 
d="M167 413v-180h108c36 0 48 0 52 54h20v-135h-20c-2 55 -10 59 -59 59h-101v-143c0 -43 2 -43 45 -43h76c45 0 68 6 87 81h19l-9 -106h-361v17c64 -2 71 17 71 58v284c0 51 -15 59 -71 58v18h342l4 -95h-18c-11 66 -27 73 -76 73h-109zM177 488h-13l62 84
c35 51 59 87 93 87c20 0 31 -14 31 -28c0 -15 -5 -31 -67 -72z" />
    <glyph glyph-name="ecircumflex.sc" unicode="&#xf7ea;" horiz-adv-x="417" 
d="M167 413v-180h108c36 0 48 0 52 54h20v-135h-20c-2 55 -10 59 -59 59h-101v-143c0 -43 2 -43 45 -43h76c45 0 68 6 87 81h19l-9 -106h-361v17c64 -2 71 17 71 58v284c0 51 -15 59 -71 58v18h342l4 -95h-18c-11 66 -27 73 -76 73h-109zM204 612l-118 -126v18l108 179h28
l106 -179v-18z" />
    <glyph glyph-name="edieresis.sc" unicode="&#xf7eb;" horiz-adv-x="417" 
d="M167 413v-180h108c36 0 48 0 52 54h20v-135h-20c-2 55 -10 59 -59 59h-101v-143c0 -43 2 -43 45 -43h76c45 0 68 6 87 81h19l-9 -106h-361v17c64 -2 71 17 71 58v284c0 51 -15 59 -71 58v18h342l4 -95h-18c-11 66 -27 73 -76 73h-109zM66 560c0 24 20 44 44 44
s44 -20 44 -44c0 -25 -20 -44 -44 -44s-44 20 -44 44zM260 560c0 25 20 44 44 44c25 0 44 -20 44 -44s-20 -44 -44 -44c-23 0 -44 19 -44 44z" />
    <glyph glyph-name="igrave.sc" unicode="&#xf7ec;" horiz-adv-x="271" 
d="M243 435v-18c-72 -3 -72 -14 -72 -75v-248c0 -64 14 -72 76 -76v-18h-220v18c62 2 73 10 73 78v245c0 64 -14 72 -76 76v18h219zM187 488l-106 71c-64 43 -67 59 -67 71c0 19 15 29 30 29c35 0 59 -35 94 -87l62 -84h-13z" />
    <glyph glyph-name="iacute.sc" unicode="&#xf7ed;" horiz-adv-x="271" 
d="M243 435v-18c-72 -3 -72 -14 -72 -75v-248c0 -64 14 -72 76 -76v-18h-220v18c62 2 73 10 73 78v245c0 64 -14 72 -76 76v18h219zM87 488h-13l62 84c35 51 59 87 93 87c20 0 31 -14 31 -28c0 -15 -5 -31 -67 -72z" />
    <glyph glyph-name="icircumflex.sc" unicode="&#xf7ee;" horiz-adv-x="271" 
d="M243 435v-18c-72 -3 -72 -14 -72 -75v-248c0 -64 14 -72 76 -76v-18h-220v18c62 2 73 10 73 78v245c0 64 -14 72 -76 76v18h219zM134 612l-118 -126v18l108 179h28l106 -179v-18z" />
    <glyph glyph-name="idieresis.sc" unicode="&#xf7ef;" horiz-adv-x="271" 
d="M243 435v-18c-72 -3 -72 -14 -72 -75v-248c0 -64 14 -72 76 -76v-18h-220v18c62 2 73 10 73 78v245c0 64 -14 72 -76 76v18h219zM-5 560c0 24 20 44 44 44s44 -20 44 -44c0 -25 -20 -44 -44 -44s-44 20 -44 44zM189 560c0 25 20 44 44 44c25 0 44 -20 44 -44
s-20 -44 -44 -44c-23 0 -44 19 -44 44z" />
    <glyph glyph-name="eth.sc" unicode="&#xf7f0;" horiz-adv-x="531" 
d="M99 206h-68v23h68v115c0 66 -2 68 -43 68h-17v21c68 3 159 7 204 7c189 0 239 -121 239 -209c0 -109 -68 -174 -111 -199c-52 -32 -110 -32 -169 -32h-163v22h23c34 0 37 9 37 69v115zM280 206h-107v-141c0 -12 0 -31 1 -34c1 -6 5 -10 26 -10c50 0 81 1 113 20
c29 16 87 73 87 178c0 56 -18 168 -119 191c-42 9 -88 8 -108 7v-188h107v-23z" />
    <glyph glyph-name="ntilde.sc" unicode="&#xf7f1;" horiz-adv-x="573" 
d="M28 435h123l294 -326v250c0 27 0 53 -33 56c-7 1 -37 2 -43 2v18h179v-18c-65 2 -71 -17 -71 -58v-362h-24l-323 359v-267c0 -67 12 -70 83 -71v-18h-186v18c64 -2 71 16 71 58v280c0 57 -28 59 -70 61v18zM163 516h-11c1 16 2 51 15 74c14 23 37 40 66 40
c26 0 42 -11 75 -34c34 -24 44 -28 58 -28c39 0 43 43 44 61h11c3 -79 -40 -112 -77 -112c-24 0 -37 8 -75 34c-35 23 -42 28 -57 28c-41 0 -47 -48 -49 -63z" />
    <glyph glyph-name="ograve.sc" unicode="&#xf7f2;" horiz-adv-x="573" 
d="M48 223c0 154 129 229 240 229c115 0 238 -75 238 -229c0 -168 -129 -235 -239 -235c-109 0 -239 67 -239 235zM448 222c0 154 -77 213 -163 213c-103 0 -159 -99 -159 -204c0 -110 27 -154 55 -182c30 -30 66 -44 105 -44c76 0 162 57 162 217zM287 488l-106 71
c-64 43 -67 59 -67 71c0 19 15 29 30 29c35 0 59 -35 94 -87l62 -84h-13z" />
    <glyph glyph-name="oacute.sc" unicode="&#xf7f3;" horiz-adv-x="573" 
d="M48 223c0 154 129 229 240 229c115 0 238 -75 238 -229c0 -168 -129 -235 -239 -235c-109 0 -239 67 -239 235zM448 222c0 154 -77 213 -163 213c-103 0 -159 -99 -159 -204c0 -110 27 -154 55 -182c30 -30 66 -44 105 -44c76 0 162 57 162 217zM247 488h-13l62 84
c35 51 59 87 93 87c20 0 31 -14 31 -28c0 -15 -5 -31 -67 -72z" />
    <glyph glyph-name="ocircumflex.sc" unicode="&#xf7f4;" horiz-adv-x="573" 
d="M48 223c0 154 129 229 240 229c115 0 238 -75 238 -229c0 -168 -129 -235 -239 -235c-109 0 -239 67 -239 235zM448 222c0 154 -77 213 -163 213c-103 0 -159 -99 -159 -204c0 -110 27 -154 55 -182c30 -30 66 -44 105 -44c76 0 162 57 162 217zM284 612l-118 -126v18
l108 179h28l106 -179v-18z" />
    <glyph glyph-name="otilde.sc" unicode="&#xf7f5;" horiz-adv-x="573" 
d="M48 223c0 154 129 229 240 229c115 0 238 -75 238 -229c0 -168 -129 -235 -239 -235c-109 0 -239 67 -239 235zM448 222c0 154 -77 213 -163 213c-103 0 -159 -99 -159 -204c0 -110 27 -154 55 -182c30 -30 66 -44 105 -44c76 0 162 57 162 217zM163 516h-11
c1 16 2 51 15 74c14 23 37 40 66 40c26 0 42 -11 75 -34c34 -24 44 -28 58 -28c39 0 43 43 44 61h11c3 -79 -40 -112 -77 -112c-24 0 -37 8 -75 34c-35 23 -42 28 -57 28c-41 0 -47 -48 -49 -63z" />
    <glyph glyph-name="odieresis.sc" unicode="&#xf7f6;" horiz-adv-x="573" 
d="M48 223c0 98 73 229 240 229c155 0 238 -113 238 -230c0 -119 -81 -234 -239 -234c-125 0 -239 83 -239 235zM125 229c0 -110 28 -154 56 -182c30 -30 66 -44 105 -44c76 0 163 57 163 217c0 196 -122 217 -164 217c-103 0 -160 -101 -160 -208zM145 560
c0 24 19 44 44 44c24 0 44 -20 44 -44c0 -25 -20 -44 -44 -44s-44 20 -44 44zM340 560c0 25 20 44 44 44c25 0 44 -20 44 -44s-20 -44 -44 -44c-23 0 -44 19 -44 44z" />
    <glyph glyph-name="oe.sc" unicode="&#xf6fa;" horiz-adv-x="677" 
d="M618 435l6 -95h-19c-5 36 -14 53 -26 62c-11 9 -25 9 -40 9h-114v-177h108c34 0 45 1 49 53h18v-133h-18c-4 53 -6 57 -62 57h-95v-144c0 -38 4 -41 52 -41h64c48 0 73 10 89 81h17l-8 -107h-264c-21 0 -40 -1 -56 -1c-17 -1 -31 -2 -46 -2c-165 0 -232 127 -232 221
c0 117 91 219 227 219c36 0 88 -2 124 -2h226zM353 141v199c0 31 0 76 -81 76c-123 0 -153 -115 -153 -195c0 -121 66 -203 152 -203c82 0 82 54 82 123z" />
    <glyph glyph-name="oslash.sc" unicode="&#xf7f8;" horiz-adv-x="573" 
d="M431 410l50 61l15 -11l-50 -61c51 -44 80 -109 80 -177c0 -119 -81 -234 -239 -234c-77 0 -121 27 -142 41l-62 -76l-15 12l62 76c-74 62 -83 133 -83 176c0 120 86 235 240 235c51 0 102 -12 144 -42zM158 75l247 304c-40 52 -98 56 -120 56c-90 0 -160 -78 -160 -212
c0 -14 0 -96 33 -148zM416 363l-247 -303c27 -33 65 -55 117 -55c80 0 162 60 162 214c0 16 0 89 -32 144z" />
    <glyph glyph-name="ugrave.sc" unicode="&#xf7f9;" horiz-adv-x="573" 
d="M32 435h221v-18c-66 -3 -76 -17 -76 -68v-182c0 -32 0 -67 14 -93c11 -21 42 -54 111 -54c41 0 104 11 127 69c11 26 11 70 11 99v148c0 68 0 79 -77 81v18h179v-18c-66 2 -72 -17 -72 -58v-180c0 -30 0 -80 -18 -116c-31 -63 -112 -78 -163 -78c-38 0 -128 6 -168 78
c-15 27 -15 68 -15 92v196c0 53 -1 62 -74 66v18zM307 488l-106 71c-64 43 -67 59 -67 71c0 19 15 29 30 29c35 0 59 -35 94 -87l62 -84h-13z" />
    <glyph glyph-name="uacute.sc" unicode="&#xf7fa;" horiz-adv-x="573" 
d="M32 435h221v-18c-66 -3 -76 -17 -76 -68v-182c0 -32 0 -67 14 -93c11 -21 42 -54 111 -54c41 0 104 11 127 69c11 26 11 70 11 99v148c0 68 0 79 -77 81v18h179v-18c-66 2 -72 -17 -72 -58v-180c0 -30 0 -80 -18 -116c-31 -63 -112 -78 -163 -78c-38 0 -128 6 -168 78
c-15 27 -15 68 -15 92v196c0 53 -1 62 -74 66v18zM287 488h-13l62 84c35 51 59 87 93 87c20 0 31 -14 31 -28c0 -15 -5 -31 -67 -72z" />
    <glyph glyph-name="ucircumflex.sc" unicode="&#xf7fb;" horiz-adv-x="573" 
d="M32 435h221v-18c-66 -3 -76 -17 -76 -68v-182c0 -32 0 -67 14 -93c11 -21 42 -54 111 -54c41 0 104 11 127 69c11 26 11 70 11 99v148c0 68 0 79 -77 81v18h179v-18c-66 2 -72 -17 -72 -58v-180c0 -30 0 -80 -18 -116c-31 -63 -112 -78 -163 -78c-38 0 -128 6 -168 78
c-15 27 -15 68 -15 92v196c0 53 -1 62 -74 66v18zM304 612l-118 -126v18l108 179h28l106 -179v-18z" />
    <glyph glyph-name="udieresis.sc" unicode="&#xf7fc;" horiz-adv-x="573" 
d="M32 435h221v-18c-66 -3 -76 -17 -76 -68v-182c0 -32 0 -67 14 -93c11 -21 42 -54 111 -54c41 0 104 11 127 69c11 26 11 70 11 99v148c0 68 0 79 -77 81v18h179v-18c-66 2 -72 -17 -72 -58v-180c0 -30 0 -80 -18 -116c-31 -63 -112 -78 -163 -78c-38 0 -128 6 -168 78
c-15 27 -15 68 -15 92v196c0 53 -1 62 -74 66v18zM166 560c0 24 20 44 44 44s44 -20 44 -44c0 -25 -20 -44 -44 -44s-44 20 -44 44zM360 560c0 25 20 44 44 44c25 0 44 -20 44 -44s-20 -44 -44 -44c-23 0 -44 19 -44 44z" />
    <glyph glyph-name="yacute.sc" unicode="&#xf7fd;" 
d="M19 435h212v-18c-40 -2 -43 -2 -48 -6c-4 -3 -6 -8 -6 -12c0 -8 14 -31 23 -46l94 -142l78 135c11 19 23 40 23 53c0 17 -23 18 -53 18v18h159v-18c-54 -1 -57 -7 -86 -55l-107 -185v-88c0 -58 5 -71 49 -71h28v-18h-225v18h22c54 0 55 7 55 68v91l-129 195
c-27 41 -30 45 -89 45v18zM261 488h-13l62 84c35 51 59 87 93 87c20 0 31 -14 31 -28c0 -15 -5 -31 -67 -72z" />
    <glyph glyph-name="thorn.sc" unicode="&#xf7fe;" horiz-adv-x="375" 
d="M151 93v-25c0 -40 3 -47 36 -47h33v-21h-194v20h21c28 0 28 4 28 66v275c0 53 -1 53 -31 53h-27v21h183v-20h-21c-28 0 -28 -8 -28 -38v-27c46 1 79 -2 105 -8c17 -5 91 -30 91 -117c0 -69 -47 -135 -158 -135c-17 0 -27 1 -38 3zM151 329v-215c6 -1 11 -2 22 -2
c70 0 96 65 96 115c0 103 -65 103 -96 103c-10 0 -16 -1 -22 -1z" />
    <glyph glyph-name="ydieresis.sc" unicode="&#xf7ff;" 
d="M19 435h212v-18c-40 -2 -43 -2 -48 -6c-4 -3 -6 -8 -6 -12c0 -8 14 -31 23 -46l94 -142l78 135c11 19 23 40 23 53c0 17 -23 18 -53 18v18h159v-18c-54 -1 -57 -7 -86 -55l-107 -185v-88c0 -58 5 -71 49 -71h28v-18h-225v18h22c54 0 55 7 55 68v91l-129 195
c-27 41 -30 45 -89 45v18zM140 560c0 24 20 44 44 44s44 -20 44 -44c0 -25 -20 -44 -44 -44s-44 20 -44 44zM334 560c0 25 20 44 44 44c25 0 44 -20 44 -44s-20 -44 -44 -44c-23 0 -44 19 -44 44z" />
    <glyph glyph-name="Delta" unicode="&#x2206;" horiz-adv-x="555" 
d="M523 0h-492v19l228 608l30 9l234 -617v-19zM441 38l-185 494l-181 -494h366z" />
    <glyph glyph-name="Omega" unicode="&#x2126;" horiz-adv-x="641" 
d="M610 122l-21 -122h-204l-5 16c39 74 120 193 119 329c-1 195 -90 266 -180 266c-96 0 -178 -74 -178 -270c0 -131 69 -241 118 -325l-7 -16h-202l-20 122l20 1c19 -60 33 -70 67 -70h95c-54 51 -147 145 -147 294c0 177 113 290 256 290c147 0 254 -106 254 -283
c0 -132 -87 -234 -150 -301h97c38 0 48 7 67 70z" />
    <glyph glyph-name="uni03BC" unicode="&#x3bc;" horiz-adv-x="500" 
d="M57 396h67v-216c0 -102 18 -139 81 -139c50 0 87 20 130 70v285h67v-301c0 -36 16 -56 34 -56c20 0 33 21 39 60h21c-3 -67 -36 -113 -86 -113c-40 0 -74 34 -75 93c-58 -58 -109 -93 -166 -93c-34 0 -53 10 -76 42c-8 -74 22 -134 22 -191c0 -29 -20 -53 -45 -53
s-43 21 -43 53c0 50 30 101 30 199v360z" />
    <glyph glyph-name="pi" unicode="&#x3c0;" horiz-adv-x="496" 
d="M450 428l20 -8c-8 -33 -20 -58 -31 -73c-14 -3 -37 -4 -62 -4c-5 -55 -4 -158 -4 -223c0 -53 10 -84 40 -84c19 0 30 10 46 30l12 -17c-23 -43 -57 -60 -88 -60c-44 0 -75 24 -75 115c0 83 5 167 9 241c-53 1 -108 2 -145 2v-19c0 -208 -46 -308 -59 -323
c-14 -7 -37 -15 -50 -16l-6 14c67 83 84 250 84 345c-62 1 -84 -18 -116 -42l-12 17c25 30 59 79 148 78c32 0 69 -1 109 -1c40 -1 83 -2 126 -2c27 0 39 4 54 30z" />
    <glyph glyph-name="Euro" unicode="&#x20ac;" horiz-adv-x="500" 
d="M509 119l15 -13c-76 -109 -145 -120 -190 -120c-103 0 -227 76 -243 278h-56l5 26h49c0 25 0 27 2 48h-56l5 26h53c19 149 110 273 247 273c55 0 89 -18 125 -36c8 -3 12 -4 16 -4l13 6h10l6 -142h-19c-11 39 -44 150 -152 150c-90 0 -161 -81 -174 -247h305l-5 -26h-302
c0 -23 0 -34 1 -48h291l-5 -26h-284c14 -139 88 -238 186 -238c54 0 105 34 157 93z" />
    <glyph glyph-name="afii61289" unicode="&#x2113;" horiz-adv-x="356" 
d="M323 97l16 -14c-32 -62 -79 -95 -141 -95c-40 0 -68 12 -87 35c-19 26 -29 58 -29 131v79l-53 -41l-11 19l64 53v115c0 154 7 202 46 247c21 27 44 40 71 40c51 0 76 -55 76 -119c0 -109 -59 -196 -130 -271v-89c0 -122 31 -154 81 -154c42 0 73 28 97 64zM145 434v-119
c52 63 89 152 89 232c0 53 -14 92 -43 92c-34 0 -46 -56 -46 -205z" />
    <glyph glyph-name="estimated" unicode="&#x212e;" horiz-adv-x="784" 
d="M752 302h-584c-3 0 -5 -1 -5 -4v-177c0 -8 3 -14 8 -20c56 -59 134 -96 221 -96c93 0 176 42 233 107h51c-64 -76 -169 -125 -285 -125c-199 0 -361 145 -361 324s162 325 361 325c200 0 361 -146 361 -325v-9zM620 325v178c0 8 -3 15 -9 21c-57 56 -134 92 -219 92
c-86 0 -164 -37 -220 -95c-6 -6 -9 -13 -9 -22v-174c0 -2 2 -6 5 -6h448c3 0 4 4 4 6z" />
    <glyph glyph-name="partialdiff" unicode="&#x2202;" horiz-adv-x="463" 
d="M231 388h1c41 0 92 -20 122 -66c3 30 6 61 7 96c1 46 -6 97 -24 145c-18 45 -64 95 -122 95c-46 0 -87 -23 -119 -49c-13 -2 -31 30 -24 50c30 20 73 37 123 37c82 0 138 -48 178 -128c35 -69 43 -156 43 -210c0 -67 -10 -161 -42 -231c-36 -82 -93 -139 -176 -139
c-95 0 -159 68 -159 182c0 63 23 115 51 150c32 38 85 68 141 68zM247 354h-1c-38 0 -72 -15 -100 -53c-27 -43 -40 -103 -40 -164c-1 -66 34 -123 91 -123c51 0 86 48 107 96c25 55 34 102 44 175c-12 26 -51 69 -101 69z" />
    <glyph glyph-name="product" unicode="&#x220f;" horiz-adv-x="597" 
d="M571 628v-22c-76 -5 -80 -11 -80 -57v-540c0 -54 6 -61 78 -67v-21h-218v21c70 5 75 9 75 67v563c0 25 -5 28 -31 28h-196c-25 0 -29 -3 -29 -25v-566c0 -53 -1 -60 69 -67v-21h-212v21c70 6 77 11 77 67v540c0 47 -4 52 -80 57v22h547z" />
    <glyph glyph-name="summation" unicode="&#x2211;" horiz-adv-x="485" 
d="M464 79l-38 -160h-400v19l200 322l-196 348v20h397c0 -17 6 -84 10 -141l-22 -4c-7 43 -17 72 -28 90c-11 21 -25 28 -92 28h-180l170 -298l-199 -325h233c76 0 86 5 122 108z" />
    <glyph glyph-name="uni2219" unicode="&#x2219;" horiz-adv-x="260" 
d="M130 370c28 0 51 -18 51 -47c0 -30 -23 -47 -51 -47c-29 0 -51 19 -51 47s22 47 51 47z" />
    <glyph glyph-name="radical" unicode="&#x221a;" horiz-adv-x="485" 
d="M467 808l-145 -938l-16 -9l-193 500l-77 -38l-9 28l130 62l154 -410h2l122 814z" />
    <glyph glyph-name="infinity" unicode="&#x221e;" horiz-adv-x="669" 
d="M626 261v-1c0 -85 -64 -139 -133 -139c-53 0 -97 32 -157 102c-46 -52 -93 -102 -163 -102c-71 0 -130 58 -130 136c0 80 57 138 136 138c65 0 114 -48 160 -102c43 48 87 102 160 102c75 0 127 -55 127 -134zM178 164h2c54 0 96 53 131 91c-38 47 -76 98 -137 98
c-55 0 -86 -45 -86 -97c0 -51 37 -92 90 -92zM495 353h-1c-58 0 -103 -63 -133 -94c57 -64 89 -95 135 -95c54 0 85 48 85 93c0 60 -37 96 -86 96z" />
    <glyph glyph-name="integral" unicode="&#x222b;" horiz-adv-x="325" 
d="M143 18l-17 377c-14 307 55 372 130 372c21 0 49 -13 49 -39c0 -23 -16 -34 -35 -34c-27 0 -24 36 -45 36c-20 0 -47 -29 -41 -155l16 -351c15 -332 -55 -398 -130 -398c-30 0 -50 18 -50 39c-1 21 18 38 41 38s23 -39 43 -39c28 0 44 61 39 154z" />
    <glyph glyph-name="approxequal" unicode="&#x2248;" horiz-adv-x="479" 
d="M411 384l29 -25c-23 -46 -59 -83 -111 -83c-35 0 -60 13 -99 35c-26 16 -51 30 -79 30c-39 0 -63 -30 -84 -65l-30 24c25 51 69 84 119 84c42 0 72 -22 96 -35c30 -17 49 -30 79 -30c34 0 56 23 80 65zM411 236l29 -25c-23 -46 -59 -83 -111 -83c-35 0 -60 13 -99 36
c-27 15 -51 29 -79 29c-40 0 -63 -31 -84 -65l-30 25c25 51 69 83 119 83c43 0 72 -22 95 -34c28 -16 49 -31 80 -31c34 0 56 23 80 65z" />
    <glyph glyph-name="notequal" unicode="&#x2260;" horiz-adv-x="479" 
d="M341 445l-37 -84h131v-44h-149l-57 -125h206v-44h-224l-45 -100l-35 15l38 85h-126v44h144l56 125h-200v44h218l45 99z" />
    <glyph glyph-name="lessequal" unicode="&#x2264;" horiz-adv-x="479" 
d="M433 91l-385 196v47l385 196v-54l-337 -164v-2l337 -165v-54zM435 10h-391v46h391v-46z" />
    <glyph glyph-name="greaterequal" unicode="&#x2265;" horiz-adv-x="479" 
d="M49 530l384 -196v-47l-384 -196v54l336 165v2l-336 164v54zM434 10h-390v46h390v-46z" />
    <glyph glyph-name="lozenge" unicode="&#x25ca;" horiz-adv-x="490" 
d="M446 304l-175 -365h-52l-175 365l176 367h51zM396 304l-149 317h-3l-149 -316l150 -318h2z" />
    <glyph glyph-name="uni00A0" unicode="&#xa0;" horiz-adv-x="278" 
 />
    <glyph glyph-name="uni00AD" unicode="&#xad;" horiz-adv-x="396" 
d="M35 221h326v-50h-326v50z" />
    <glyph glyph-name="uni02C9" unicode="&#x2c9;" horiz-adv-x="333" 
d="M29 589h275v-58h-275v58z" />
    <glyph glyph-name="zero.taboldstyle" unicode="&#xf643;" horiz-adv-x="469" 
d="M233 -10c-97 0 -202 67 -202 233c0 86 57 217 204 217c110 0 202 -83 202 -227c0 -121 -75 -223 -204 -223zM232 27c88 0 145 68 145 188c0 37 -5 90 -32 131c-19 28 -58 57 -113 57c-91 0 -141 -81 -141 -182c0 -135 62 -194 141 -194z" />
    <glyph glyph-name="one.taboldstyle" unicode="&#xf644;" horiz-adv-x="469" 
d="M108 426h253v-18c-90 0 -92 -5 -92 -51v-287c0 -47 4 -50 92 -52v-18h-253v18c88 4 92 5 92 52v287c0 42 -3 51 -92 51v18z" />
    <glyph glyph-name="two.taboldstyle" unicode="&#xf645;" horiz-adv-x="469" 
d="M424 151l-36 -151h-354v18c56 38 117 81 182 137c71 62 85 100 85 138c0 58 -42 100 -102 100c-57 0 -95 -35 -117 -56l-14 12c29 33 81 91 169 91c76 0 131 -50 131 -110c0 -89 -68 -144 -242 -269h204c28 0 42 0 77 90h17z" />
    <glyph glyph-name="three.taboldstyle" unicode="&#xf646;" horiz-adv-x="469" 
d="M112 331l-14 12c42 80 104 97 139 97c75 0 107 -66 107 -114c0 -73 -56 -113 -101 -145c19 -1 41 -3 62 -20c45 -36 52 -95 52 -126c0 -116 -80 -205 -183 -205c-50 0 -108 24 -108 59c0 20 17 31 30 31c19 0 47 -20 57 -27c41 -30 55 -31 67 -31c42 0 72 49 72 121
c0 71 -14 100 -42 124c-20 16 -41 20 -50 20c-15 0 -34 -5 -41 -6l-6 16c64 39 127 95 127 166c0 28 -12 83 -72 83c-47 0 -77 -33 -96 -55z" />
    <glyph glyph-name="four.taboldstyle" unicode="&#xf647;" horiz-adv-x="469" 
d="M326 440v-387h117v-48h-117v-173h-70v173h-227v19l278 416h19zM256 53v265l-177 -265h177z" />
    <glyph glyph-name="five.taboldstyle" unicode="&#xf648;" horiz-adv-x="469" 
d="M390 424l-38 -60l-111 13l-65 -78c50 -31 201 -124 201 -260c0 -133 -150 -207 -250 -207c-29 0 -48 14 -48 36c0 25 24 32 32 32s12 -1 44 -12c7 -3 38 -13 54 -13c53 0 110 54 110 135c0 114 -128 196 -209 246l151 184z" />
    <glyph glyph-name="six.taboldstyle" unicode="&#xf649;" horiz-adv-x="469" 
d="M402 593l19 -16c-105 -46 -195 -95 -260 -212c22 7 44 14 80 14c119 0 190 -84 190 -188c0 -114 -81 -201 -190 -201c-96 0 -200 76 -200 223c0 175 148 312 361 380zM151 343c-24 -57 -34 -89 -34 -152c0 -130 58 -184 121 -184c28 0 55 11 75 31c27 26 43 66 43 137
c0 98 -35 188 -128 188c-26 0 -45 -6 -77 -20z" />
    <glyph glyph-name="seven.taboldstyle" unicode="&#xf64a;" horiz-adv-x="469" 
d="M67 426h369v-19l-245 -575h-50l239 531h-241c-42 0 -48 0 -63 -53l-13 -49h-19z" />
    <glyph glyph-name="eight.taboldstyle" unicode="&#xf64b;" horiz-adv-x="469" 
d="M279 321c60 -47 116 -95 116 -180c0 -77 -59 -151 -163 -151c-115 0 -159 82 -159 145c0 83 65 125 118 156c-35 26 -103 76 -103 164c0 72 51 138 150 138c108 0 145 -78 145 -131c0 -78 -62 -116 -104 -141zM263 331c22 13 69 41 69 123c0 67 -33 122 -99 122
c-49 0 -94 -30 -94 -87c0 -72 85 -131 124 -158zM205 280c-33 -21 -77 -49 -77 -144c0 -86 49 -127 111 -127c52 0 100 35 100 96c0 75 -57 123 -134 175z" />
    <glyph glyph-name="nine.taboldstyle" unicode="&#xf64c;" horiz-adv-x="469" 
d="M57 -169l-12 22c48 17 104 38 161 80c76 57 97 103 111 135c-26 -9 -55 -19 -93 -19c-88 0 -188 63 -188 186c0 119 86 204 192 204c89 0 200 -67 200 -227c0 -94 -35 -202 -145 -284c-79 -59 -162 -81 -226 -97zM327 91c12 37 25 80 25 149c0 150 -76 183 -121 183
c-24 0 -64 -11 -89 -44c-21 -28 -30 -82 -30 -127c0 -47 10 -186 128 -186c35 0 59 11 87 25z" />
    <glyph glyph-name="dollar.taboldstyle" unicode="&#xf653;" horiz-adv-x="469" 
d="M172 26v197c-30 18 -96 55 -96 111c0 44 35 83 96 99v51h32v-45c18 1 36 1 52 0v45h32v-51c73 -16 100 -47 100 -66c0 -14 -15 -27 -33 -27c-3 0 -20 1 -31 13c-6 6 -31 35 -36 40v-152c97 -54 120 -84 120 -129c0 -58 -47 -99 -120 -117v-71h-32v66c-12 -1 -29 -1 -52 0
v-66h-32v71c-106 26 -111 77 -111 82c0 15 15 30 37 30c25 0 36 -23 39 -30c9 -22 15 -38 35 -51zM172 307v100c-26 -12 -33 -30 -33 -47c0 -23 10 -35 33 -53zM256 256v156c-16 7 -35 7 -52 6v-132c18 -11 25 -15 52 -30zM256 13v166c-11 7 -44 24 -52 27v-192
c12 -3 28 -4 52 -1zM288 162v-140c52 24 52 62 52 71c0 36 -23 52 -52 69z" />
    <glyph glyph-name="cent.taboldstyle" unicode="&#xf654;" horiz-adv-x="469" 
d="M303 303l43 93h34l-45 -99c11 -2 50 -14 50 -40c0 -11 -12 -25 -35 -25c-18 0 -27 7 -38 15l-97 -207c10 -6 22 -11 48 -11c52 0 76 27 102 55l24 -12c-37 -53 -90 -82 -156 -82c-21 0 -30 1 -40 4l-54 -118h-35l59 127c-79 40 -83 116 -83 131c0 93 93 179 223 169z
M189 59l97 208c-7 5 -16 9 -31 9c-55 0 -102 -57 -102 -124c0 -16 0 -55 36 -93z" />
    <glyph glyph-name="zero.denominator" unicode="&#xf655;" horiz-adv-x="302" 
d="M23 162c0 99 60 169 129 169c70 0 128 -73 128 -169c0 -95 -57 -169 -129 -169c-68 0 -128 71 -128 169zM79 162c0 -95 19 -154 73 -154c56 0 72 67 72 154c0 88 -16 154 -72 154c-54 0 -73 -59 -73 -154z" />
    <glyph glyph-name="one.denominator" unicode="&#xf656;" horiz-adv-x="302" 
d="M153 331h30v-295c0 -16 5 -20 18 -20h37v-16h-160v16h33c20 0 21 4 21 20v242c-24 -15 -44 -27 -71 -38l-8 13c27 16 76 51 100 78z" />
    <glyph glyph-name="two.denominator" unicode="&#xf657;" horiz-adv-x="302" 
d="M8 0v12c19 21 61 58 112 102c50 43 76 81 76 117c0 41 -36 65 -72 65c-24 0 -70 -12 -88 -69h-21c10 77 75 105 126 105c60 0 114 -37 114 -93c0 -46 -32 -77 -61 -98c-36 -25 -71 -50 -102 -77l-30 -26h127c44 0 49 0 57 40h21l-12 -78h-247z" />
    <glyph glyph-name="three.denominator" unicode="&#xf658;" horiz-adv-x="302" 
d="M100 153l-11 14c10 6 82 51 82 88c0 30 -29 44 -51 44c-6 0 -48 0 -76 -52l-21 7c26 58 78 77 116 77c45 0 83 -24 83 -60c0 -29 -27 -52 -53 -69c66 -7 88 -52 88 -87c0 -61 -70 -122 -156 -122c-41 0 -94 15 -94 39c0 12 12 21 24 21c13 0 19 -4 46 -23
c12 -8 25 -17 45 -17c38 0 79 37 79 89c0 49 -35 68 -58 68c-19 0 -32 -9 -43 -17z" />
    <glyph glyph-name="four.denominator" unicode="&#xf659;" horiz-adv-x="302" 
d="M173 93h-151v15l176 224h26v-207h59v-32h-59v-100h-51v100zM64 125h109v139z" />
    <glyph glyph-name="five.denominator" unicode="&#xf65a;" horiz-adv-x="302" 
d="M242 331l-8 -46h-149l-4 -82c27 10 51 10 57 10c71 0 127 -51 127 -108c0 -63 -62 -112 -144 -112c-33 0 -92 10 -92 35c0 13 13 19 25 19c17 0 34 -13 42 -19c9 -8 21 -17 38 -17c32 0 75 29 75 83c0 60 -52 78 -82 78s-54 -15 -62 -20l-12 7l8 165h148c7 0 9 2 11 7h22
z" />
    <glyph glyph-name="six.denominator" unicode="&#xf65b;" horiz-adv-x="302" 
d="M238 332l11 -13c-54 -19 -131 -52 -153 -146c16 10 38 23 75 23c66 0 111 -47 111 -97c0 -52 -49 -106 -121 -106c-67 0 -129 47 -129 136c0 104 88 175 206 203zM90 149c0 -5 -2 -13 -2 -30c0 -78 35 -111 74 -111c45 0 64 41 64 86c0 52 -26 84 -63 84
c-26 0 -53 -16 -73 -29z" />
    <glyph glyph-name="seven.denominator" unicode="&#xf65c;" horiz-adv-x="302" 
d="M127 -6h-44l142 291h-141c-10 0 -30 0 -33 -5c-4 -6 -5 -15 -7 -25h-21l4 69h246v-14z" />
    <glyph glyph-name="eight.denominator" unicode="&#xf65d;" horiz-adv-x="302" 
d="M111 163l-18 9c-31 14 -58 39 -58 73c0 44 47 86 114 86c59 0 112 -33 112 -77c0 -45 -50 -65 -73 -74l21 -10c25 -11 63 -36 63 -80c0 -51 -48 -97 -122 -97c-62 0 -120 35 -120 87c0 49 53 72 81 83zM151 8c40 0 72 28 72 67c0 38 -22 48 -88 79
c-34 -15 -56 -37 -56 -73c0 -42 30 -73 72 -73zM81 262c0 -36 27 -47 87 -74c23 13 45 32 45 67c0 30 -22 61 -65 61c-34 0 -67 -21 -67 -54z" />
    <glyph glyph-name="nine.denominator" unicode="&#xf65e;" horiz-adv-x="302" 
d="M69 -7l-11 13c119 42 139 98 153 146c-19 -11 -40 -23 -75 -23c-66 0 -111 47 -111 97c0 53 50 106 121 106c66 0 129 -47 129 -136c0 -105 -89 -175 -206 -203zM216 176c1 5 3 24 3 38c0 23 -10 103 -74 103c-48 0 -64 -45 -64 -85c0 -55 27 -85 63 -85
c28 0 55 17 72 29z" />
    <glyph glyph-name="zero.numerator" unicode="&#xf661;" horiz-adv-x="302" 
d="M23 468c0 99 60 169 129 169c70 0 128 -73 128 -169c0 -95 -57 -169 -129 -169c-68 0 -128 71 -128 169zM79 468c0 -95 19 -154 73 -154c56 0 72 67 72 154c0 88 -16 154 -72 154c-54 0 -73 -59 -73 -154z" />
    <glyph glyph-name="one.numerator" unicode="&#xf662;" horiz-adv-x="302" 
d="M153 637h30v-295c0 -16 5 -20 18 -20h37v-16h-160v16h33c20 0 21 4 21 20v242c-24 -15 -44 -27 -71 -38l-8 13c27 16 76 51 100 78z" />
    <glyph glyph-name="two.numerator" unicode="&#xf663;" horiz-adv-x="302" 
d="M8 306v12c20 22 48 47 112 102c50 43 76 81 76 117c0 41 -37 65 -72 65c-25 0 -71 -13 -89 -69h-20c8 73 69 105 125 105c61 0 115 -37 115 -93c0 -54 -35 -79 -96 -122c-40 -29 -75 -59 -98 -79h128c44 0 49 0 57 40h21l-12 -78h-247z" />
    <glyph glyph-name="three.numerator" unicode="&#xf664;" horiz-adv-x="302" 
d="M100 459l-11 14c29 18 82 55 82 88c0 30 -29 44 -51 44c-6 0 -47 0 -76 -52l-21 7c27 58 79 77 116 77c45 0 83 -24 83 -60c0 -24 -19 -48 -54 -69c59 -5 89 -45 89 -87c0 -61 -70 -122 -156 -122c-41 0 -94 15 -94 39c0 13 13 21 25 21s18 -4 45 -23
c12 -8 25 -17 45 -17c38 0 79 37 79 89c0 49 -35 68 -58 68c-19 0 -33 -9 -43 -17z" />
    <glyph glyph-name="four.numerator" unicode="&#xf665;" horiz-adv-x="302" 
d="M173 399h-151v15l176 224h26v-207h59v-32h-59v-100h-51v100zM64 431h109v139z" />
    <glyph glyph-name="five.numerator" unicode="&#xf666;" horiz-adv-x="302" 
d="M241 637l-8 -46h-148l-4 -82c9 4 19 6 28 8c10 1 20 2 29 2c70 0 126 -51 126 -108c0 -63 -62 -112 -143 -112c-33 0 -92 10 -92 35c0 10 11 19 25 19c18 0 32 -11 42 -19c9 -8 21 -17 38 -17c30 0 74 28 74 83c0 61 -53 78 -81 78c-33 0 -55 -15 -62 -20l-12 7l8 165
h131c20 0 23 0 27 7h22z" />
    <glyph glyph-name="six.numerator" unicode="&#xf667;" horiz-adv-x="302" 
d="M238 638l11 -13c-54 -19 -131 -52 -153 -146c16 10 38 23 75 23c66 0 111 -47 111 -97c0 -52 -49 -106 -121 -106c-67 0 -129 47 -129 136c0 104 88 175 206 203zM90 455c0 -5 -2 -13 -2 -30c0 -78 35 -111 74 -111c45 0 64 41 64 86c0 52 -26 84 -63 84
c-26 0 -53 -16 -73 -29z" />
    <glyph glyph-name="seven.numerator" unicode="&#xf668;" horiz-adv-x="302" 
d="M127 299h-44l142 291h-158c-16 0 -19 -5 -23 -30h-21l4 69h246z" />
    <glyph glyph-name="eight.numerator" unicode="&#xf669;" horiz-adv-x="302" 
d="M111 469c-25 11 -76 34 -76 82c0 44 47 86 114 86c59 0 112 -33 112 -77c0 -46 -52 -66 -73 -74c33 -14 84 -37 84 -90c0 -51 -48 -97 -122 -97c-62 0 -120 35 -120 87c0 37 29 63 81 83zM169 494c16 10 44 27 44 67c0 30 -22 61 -65 61c-34 0 -67 -21 -67 -54
c0 -35 28 -49 88 -74zM134 461c-23 -13 -55 -31 -55 -74c0 -42 30 -73 72 -73c40 0 72 28 72 67c0 28 -15 50 -89 80z" />
    <glyph glyph-name="nine.numerator" unicode="&#xf66a;" horiz-adv-x="302" 
d="M69 299l-11 13c119 42 139 98 153 146c-19 -11 -40 -23 -75 -23c-66 0 -111 47 -111 97c0 53 50 106 121 106c66 0 129 -47 129 -136c0 -105 -89 -175 -206 -203zM216 482c1 5 3 24 3 38c0 23 -10 103 -74 103c-48 0 -64 -45 -64 -85c0 -55 27 -85 63 -85
c28 0 55 17 72 29z" />
    <glyph glyph-name="R.alt" unicode="&#xe02b;" horiz-adv-x="646" 
d="M639 5v-18c-74 0 -138 13 -227 150c-13 20 -69 109 -83 125h-133v-134c0 -87 7 -110 107 -110v-18h-286v18c96 0 96 26 96 112v402c0 50 -15 69 -97 69v18c84 7 169 11 254 11c79 0 124 -9 167 -30c41 -20 100 -65 100 -148c0 -27 -9 -120 -131 -162l122 -185
c46 -70 78 -95 111 -100zM196 610v-330h40c44 0 76 1 111 11c69 20 95 97 95 157c0 40 -13 110 -80 142c-48 23 -111 21 -166 20z" />
    <glyph glyph-name="f_i.sc" unicode="&#xe03e;" horiz-adv-x="636" 
d="M28 435h311v-88h-18c-7 47 -11 51 -16 56s-20 9 -48 9h-100v-170h110c36 0 53 9 54 47h18v-122h-18c-3 45 -13 53 -50 53h-114v-154c0 -38 0 -43 66 -48v-18h-195v18c52 5 57 13 57 52v286c0 50 -4 55 -57 61v18zM608 435v-18c-72 -3 -72 -14 -72 -75v-248
c0 -64 14 -72 76 -76v-18h-220v18c62 2 73 10 73 78v245c0 64 -14 72 -76 76v18h219z" />
    <glyph glyph-name="f_l.sc" unicode="&#xe03f;" horiz-adv-x="782" 
d="M28 435h311v-88h-18c-7 47 -11 51 -16 56s-20 9 -48 9h-100v-170h110c36 0 53 9 54 47h18v-122h-18c-3 45 -13 53 -50 53h-114v-154c0 -38 0 -43 66 -48v-18h-195v18c52 5 57 13 57 52v286c0 50 -4 55 -57 61v18zM385 435h232v-18c-75 -1 -82 -2 -82 -58v-299
c0 -23 0 -26 7 -29c15 -7 46 -7 62 -7c75 0 96 7 135 78h18l-43 -102h-322v18c64 0 71 12 71 58v274c0 56 -3 68 -78 67v18z" />
    <glyph glyph-name="germandbls.sc" unicode="&#xe040;" horiz-adv-x="690" 
d="M287 437l10 -100h-19c-7 18 -15 39 -34 58c-22 23 -50 33 -71 33c-41 0 -69 -31 -69 -64c0 -41 27 -59 128 -125c26 -17 87 -57 87 -130c0 -67 -52 -124 -134 -124c-25 0 -35 3 -86 17c-4 1 -9 2 -12 2c-9 0 -12 -3 -14 -9h-16l-12 108h20c30 -86 92 -98 112 -98
c28 0 84 18 84 77c0 51 -38 78 -111 123c-88 55 -104 94 -104 132c0 65 57 112 117 112c23 0 45 -4 64 -11c4 -1 25 -10 30 -10c3 0 7 2 12 9h18zM612 437l10 -100h-19c-7 18 -15 39 -34 58c-22 23 -50 33 -71 33c-41 0 -69 -31 -69 -64c0 -41 27 -59 128 -125
c26 -17 87 -57 87 -130c0 -67 -52 -124 -134 -124c-25 0 -35 3 -86 17c-4 1 -9 2 -12 2c-9 0 -12 -3 -14 -9h-16l-12 108h20c30 -86 92 -98 112 -98c28 0 84 18 84 77c0 51 -38 78 -111 123c-88 55 -104 94 -104 132c0 65 57 112 117 112c23 0 45 -4 64 -11
c4 -1 25 -10 30 -10c3 0 7 2 12 9h18z" />
    <glyph glyph-name="uni2215" unicode="&#x2215;" horiz-adv-x="115" 
d="M-165 -27h-41l486 681h41z" />
    <glyph glyph-name="A.sc" unicode="&#xe000;" 
d="M217 449h72l137 -372c17 -48 20 -56 72 -59v-18h-209v18c34 1 68 2 68 30c0 15 -7 36 -14 55l-31 84h-144l-23 -58c-7 -18 -19 -48 -19 -73c0 -31 33 -34 69 -38v-18h-172v18c51 10 57 27 80 84l124 318zM242 379l-63 -163h123z" />
    <glyph glyph-name="B.sc" unicode="&#xe008;" horiz-adv-x="469" 
d="M40 410v18c50 5 120 12 180 12c29 0 179 -2 179 -97c0 -67 -72 -87 -101 -95c64 -16 132 -46 132 -121c0 -95 -103 -127 -155 -127h-251v18c75 10 82 18 82 86v253c0 41 -1 51 -66 53zM179 420v-165h37c75 0 108 27 108 87c0 64 -54 77 -103 79c-17 0 -31 0 -42 -1z
M179 234v-154c0 -33 1 -59 59 -59c60 0 116 24 116 102c0 81 -53 111 -130 111h-45z" />
    <glyph glyph-name="C.sc" unicode="&#xe009;" 
d="M472 425l4 -104h-15c-19 37 -58 109 -157 109c-102 0 -167 -102 -167 -221c0 -134 85 -202 157 -202c98 0 156 72 178 100h17c-15 -41 -24 -59 -56 -111c-22 2 -33 2 -57 0c-58 -5 -69 -6 -86 -6c-146 0 -232 94 -232 223c0 149 126 238 240 238c76 0 114 -35 137 -35
c12 0 16 4 21 9h16z" />
    <glyph glyph-name="D.sc" unicode="&#xe00b;" horiz-adv-x="573" 
d="M28 0v18c67 3 78 9 78 65v265c0 52 -6 61 -78 62v18c74 8 155 12 218 12c57 0 277 -11 277 -216c0 -129 -103 -196 -166 -210c-51 -11 -105 -14 -154 -14h-175zM178 417v-349c0 -18 0 -27 3 -34c7 -12 44 -13 59 -13c178 0 205 133 205 203c0 44 -11 135 -97 173
c-50 22 -114 21 -170 20z" />
    <glyph glyph-name="E.sc" unicode="&#xe00c;" horiz-adv-x="417" 
d="M167 413v-180h108c36 0 48 0 52 54h20v-135h-20c-2 55 -10 59 -59 59h-101v-143c0 -43 2 -43 45 -43h76c45 0 68 6 87 81h19l-9 -106h-361v17c64 -2 71 17 71 58v284c0 51 -15 59 -71 58v18h342l4 -95h-18c-11 66 -27 73 -76 73h-109z" />
    <glyph glyph-name="F.sc" unicode="&#xe012;" horiz-adv-x="365" 
d="M28 435h311v-88h-18c-7 47 -11 51 -16 56s-20 9 -48 9h-100v-170h110c36 0 53 9 54 47h18v-122h-18c-3 45 -13 53 -50 53h-114v-154c0 -38 0 -43 66 -48v-18h-195v18c52 5 57 13 57 52v286c0 50 -4 55 -57 61v18z" />
    <glyph glyph-name="G.sc" unicode="&#xe013;" 
d="M441 428v-114h-17c-8 26 -16 52 -40 76c-25 24 -64 40 -101 40c-93 0 -153 -88 -153 -211c0 -175 107 -209 161 -209c37 0 60 12 78 22v68c0 47 0 49 -80 51v18h212v-18c-56 -4 -60 -4 -60 -57v-55c-50 -24 -102 -49 -172 -49c-96 0 -217 62 -217 221
c0 155 116 240 226 240c73 0 116 -33 131 -33c8 0 12 6 15 10h17z" />
    <glyph glyph-name="H.sc" unicode="&#xe014;" horiz-adv-x="573" 
d="M172 232h229v117c0 51 -5 64 -76 68v18h224v-18c-68 -4 -76 -16 -76 -68v-263c0 -56 14 -64 76 -68v-18h-224v18c61 4 76 12 76 68v121h-229v-121c0 -56 14 -64 76 -68v-18h-224v18c61 4 76 12 76 68v263c0 56 -14 64 -76 68v18h224v-18c-61 -4 -76 -11 -76 -68v-117z
" />
    <glyph glyph-name="I.sc" unicode="&#xe015;" horiz-adv-x="271" 
d="M243 435v-18c-72 -3 -72 -14 -72 -75v-248c0 -64 14 -72 76 -76v-18h-220v18c62 2 73 10 73 78v245c0 64 -14 72 -76 76v18h219z" />
    <glyph glyph-name="J.sc" unicode="&#xe01a;" horiz-adv-x="313" 
d="M64 417v18h221v-18c-57 -5 -76 -7 -76 -76v-299c0 -34 0 -97 -34 -147c-25 -36 -71 -81 -128 -81c-36 0 -71 24 -71 35c0 9 19 45 38 45c15 0 33 -16 39 -22c21 -18 32 -21 42 -21c22 0 32 19 35 26c6 19 8 51 8 138v324c0 74 -20 80 -74 78z" />
    <glyph glyph-name="K.sc" unicode="&#xe01b;" 
d="M289 435h191v-18c-76 -1 -79 -5 -121 -62c-10 -14 -21 -28 -31 -43c-36 -51 -54 -64 -75 -80c24 -18 30 -22 76 -74c15 -17 83 -95 98 -111c27 -29 57 -29 77 -29v-18h-210v18c30 -1 56 -1 56 14c0 18 -69 90 -91 113c-46 48 -61 61 -90 63v-143c0 -27 0 -47 41 -47h27
v-18h-212v18c64 -2 71 16 71 58v293c0 41 0 49 -74 48v18h218v-18c-65 2 -71 -17 -71 -58v-134c27 3 53 7 100 61c31 35 71 96 71 113c0 16 -14 16 -51 18v18z" />
    <glyph glyph-name="L.sc" unicode="&#xe01c;" horiz-adv-x="417" 
d="M20 435h232v-18c-75 -1 -82 -2 -82 -58v-299c0 -23 0 -26 7 -29c15 -7 46 -7 62 -7c75 0 96 7 135 78h18l-43 -102h-322v18c64 0 71 12 71 58v274c0 56 -3 68 -78 67v18z" />
    <glyph glyph-name="M.sc" unicode="&#xe01e;" horiz-adv-x="677" 
d="M490 435h141v-18c-49 0 -64 -4 -63 -29c0 -7 1 -35 2 -57l15 -237c4 -60 5 -78 71 -76v-18h-208v18c43 3 71 6 71 37c0 11 -1 33 -2 45l-18 278l-165 -378h-19l-160 378l-25 -299c-1 -10 -2 -24 -2 -30c0 -23 25 -31 61 -31v-18h-168v18c22 1 57 3 67 16
c9 11 11 46 13 70l22 265c3 42 -4 44 -61 48v18h143l141 -331z" />
    <glyph glyph-name="N.sc" unicode="&#xe01f;" horiz-adv-x="573" 
d="M28 435h123l294 -326v250c0 27 0 53 -33 56c-7 1 -37 2 -43 2v18h179v-18c-65 2 -71 -17 -71 -58v-362h-24l-323 359v-267c0 -67 12 -70 83 -71v-18h-186v18c64 -2 71 16 71 58v280c0 57 -28 59 -70 61v18z" />
    <glyph glyph-name="O.sc" unicode="&#xe021;" horiz-adv-x="573" 
d="M48 223c0 154 129 229 240 229c115 0 238 -75 238 -229c0 -168 -129 -235 -239 -235c-109 0 -239 67 -239 235zM448 222c0 154 -77 213 -163 213c-103 0 -159 -99 -159 -204c0 -110 27 -154 55 -182c30 -30 66 -44 105 -44c76 0 162 57 162 217z" />
    <glyph glyph-name="P.sc" unicode="&#xe029;" horiz-adv-x="417" 
d="M255 18v-18h-229v18c64 -2 71 16 71 58v287c0 22 0 49 -44 49c-11 0 -25 -1 -31 -2v18c37 4 114 12 183 12c40 0 184 0 184 -127c0 -82 -70 -134 -149 -134c-27 0 -52 7 -70 12v-117c0 -49 5 -54 85 -56zM170 419v-211c15 -4 30 -8 52 -8c91 0 92 98 92 111
c0 34 -12 110 -104 110c-15 0 -31 -1 -40 -2z" />
    <glyph glyph-name="Q.sc" unicode="&#xe02a;" horiz-adv-x="573" 
d="M546 -128v-18c-5 -1 -24 -3 -36 -3c-65 0 -131 44 -148 57c-82 61 -91 67 -112 82c-116 19 -203 106 -203 226c0 103 75 234 241 234c164 0 240 -121 240 -231c0 -111 -70 -198 -175 -224c19 -12 26 -17 66 -52c74 -66 99 -68 127 -71zM126 227c0 -80 17 -136 52 -175
c22 -25 59 -47 108 -47c52 0 163 29 163 218c0 143 -80 210 -161 210c-86 0 -162 -68 -162 -206z" />
    <glyph glyph-name="R.sc" unicode="&#xe02c;" horiz-adv-x="469" 
d="M169 189v-100c0 -59 6 -71 49 -71h29v-18h-221v18h16c49 0 55 20 55 58v283c0 11 0 27 -8 37c-8 11 -14 11 -64 14v18c42 4 105 12 176 12c88 0 194 -20 194 -125c0 -82 -63 -104 -95 -115c19 -17 25 -23 61 -100c32 -69 51 -83 88 -89v-18c-69 3 -111 19 -153 85
c-11 17 -54 96 -63 111h-64zM169 418v-211h45c53 0 106 24 106 106c0 84 -63 107 -107 107c-17 0 -34 -1 -44 -2z" />
    <glyph glyph-name="S.sc" unicode="&#xe02d;" horiz-adv-x="365" 
d="M287 437l10 -100h-19c-7 18 -15 39 -34 58c-22 23 -50 33 -71 33c-41 0 -69 -31 -69 -64c0 -41 27 -59 128 -125c26 -17 87 -57 87 -130c0 -67 -52 -124 -134 -124c-25 0 -35 3 -86 17c-4 1 -9 2 -12 2c-9 0 -12 -3 -14 -9h-16l-12 108h20c30 -86 92 -98 112 -98
c28 0 84 18 84 77c0 51 -38 78 -111 123c-88 55 -104 94 -104 132c0 65 57 112 117 112c23 0 45 -4 64 -11c4 -1 25 -10 30 -10c3 0 7 2 12 9h18z" />
    <glyph glyph-name="T.sc" unicode="&#xe02f;" horiz-adv-x="469" 
d="M29 338l9 112h14c5 -7 9 -11 15 -13s12 -2 20 -2h292c27 0 32 3 37 15h14l8 -112h-16c-14 63 -23 72 -69 72h-83v-329c0 -57 7 -59 82 -63v-18h-236v18c75 3 82 6 82 59v333h-90c-39 0 -42 -2 -62 -72h-17z" />
    <glyph glyph-name="U.sc" unicode="&#xe031;" horiz-adv-x="573" 
d="M32 435h221v-18c-66 -3 -76 -17 -76 -68v-182c0 -32 0 -67 14 -93c11 -21 42 -54 111 -54c41 0 104 11 127 69c11 26 11 70 11 99v148c0 68 0 79 -77 81v18h179v-18c-66 2 -72 -17 -72 -58v-180c0 -30 0 -80 -18 -116c-31 -63 -112 -78 -163 -78c-38 0 -128 6 -168 78
c-15 27 -15 68 -15 92v196c0 53 -1 62 -74 66v18z" />
    <glyph glyph-name="V.sc" unicode="&#xe036;" 
d="M24 435h211v-18c-31 1 -71 1 -71 -25c0 -8 3 -15 12 -39l109 -278l98 275c12 32 13 36 13 42c0 26 -36 25 -72 25v18h173v-18c-44 0 -56 -7 -82 -77l-130 -350h-42l-144 374c-21 52 -39 53 -75 53v18z" />
    <glyph glyph-name="W.sc" unicode="&#xe037;" horiz-adv-x="781" 
d="M24 435h190v-18c-27 0 -51 0 -51 -20c0 -9 2 -20 13 -49l111 -286l95 177l-63 136c-16 35 -22 42 -62 42v18h304v-18c-44 1 -53 -4 -79 -55l-45 -84l100 -212l117 275c13 33 17 43 17 55c0 21 -32 21 -56 21v18h142v-18c-36 1 -42 -12 -60 -56l-159 -374h-38l-102 217
l-115 -217h-38l-141 362c-22 57 -25 64 -80 68v18zM445 417h-44c-12 0 -19 -3 -19 -12c0 -7 4 -15 7 -22l33 -69l30 58c10 19 12 25 12 32c0 10 -7 13 -19 13z" />
    <glyph glyph-name="X.sc" unicode="&#xe038;" horiz-adv-x="573" 
d="M27 435h224v-18c-30 0 -59 -1 -59 -17c0 -10 24 -41 32 -50l70 -87l77 93c16 19 24 29 24 41c0 20 -31 20 -57 20v18h195v-18c-70 -4 -85 -19 -128 -71l-90 -109l122 -153c43 -54 58 -63 109 -66v-18h-234v18c46 2 61 2 61 21c0 14 -7 23 -24 43l-81 101l-83 -101
c-17 -20 -23 -28 -23 -39c0 -21 30 -23 54 -25v-18h-190v18c55 1 84 23 132 82l90 108l-133 164c-33 42 -40 42 -88 45v18z" />
    <glyph glyph-name="Y.sc" unicode="&#xe039;" 
d="M19 435h212v-18c-40 -2 -43 -2 -48 -6c-4 -3 -6 -8 -6 -12c0 -8 14 -31 23 -46l94 -142l78 135c11 19 23 40 23 53c0 17 -23 18 -53 18v18h159v-18c-54 -1 -57 -7 -86 -55l-107 -185v-88c0 -58 5 -71 49 -71h28v-18h-225v18h22c54 0 55 7 55 68v91l-129 195
c-27 41 -30 45 -89 45v18z" />
    <glyph glyph-name="Z.sc" unicode="&#xe03c;" horiz-adv-x="469" 
d="M63 435h363v-17l-309 -392h194c42 0 54 3 63 13c13 18 26 58 34 93h18l-8 -132h-387v26l305 387h-173c-57 0 -73 -2 -86 -80h-18z" />
    <glyph glyph-name="Lslash.sc" unicode="&#xe01d;" horiz-adv-x="417" 
d="M30 156l68 65v121c0 64 -3 76 -78 75v18h232v-18c-75 -1 -82 -2 -82 -50v-86l65 62v-37l-65 -62v-184c0 -23 0 -26 7 -29c15 -7 46 -7 62 -7c75 0 96 7 135 78h18l-43 -102h-322v18c64 -3 71 16 71 58v107l-68 -65v38z" />
    <glyph glyph-name="Scaron.sc" unicode="&#xe02e;" horiz-adv-x="365" 
d="M287 437l10 -100h-19c-7 18 -15 39 -34 58c-22 23 -50 33 -71 33c-41 0 -69 -31 -69 -64c0 -41 27 -59 128 -125c26 -17 87 -57 87 -130c0 -67 -52 -124 -134 -124c-25 0 -35 3 -86 17c-4 1 -9 2 -12 2c-9 0 -12 -3 -14 -9h-16l-12 108h20c30 -86 92 -98 112 -98
c28 0 84 18 84 77c0 51 -38 78 -111 123c-88 55 -104 94 -104 132c0 65 57 112 117 112c23 0 45 -4 64 -11c4 -1 25 -10 30 -10c3 0 7 2 12 9h18zM166 558l122 125v-17l-105 -180h-31l-106 180v17z" />
    <glyph glyph-name="Zcaron.sc" unicode="&#xe03d;" horiz-adv-x="469" 
d="M63 435h363v-17l-309 -392h194c42 0 54 3 63 13c13 18 26 58 34 93h18l-8 -132h-387v26l305 387h-173c-57 0 -73 -2 -86 -80h-18zM228 557l122 126v-18l-105 -179h-32l-105 179v18z" />
    <glyph glyph-name="Agrave.sc" unicode="&#xe005;" 
d="M217 449h72l137 -372c17 -48 20 -56 72 -59v-18h-209v18c34 1 68 2 68 30c0 15 -7 36 -14 55l-31 84h-144l-23 -58c-7 -18 -19 -48 -19 -73c0 -31 33 -34 69 -38v-18h-172v18c51 10 57 27 80 84l124 318zM242 379l-63 -163h123zM287 488l-106 71c-64 43 -67 59 -67 71
c0 19 15 29 30 29c35 0 59 -35 94 -87l62 -84h-13z" />
    <glyph glyph-name="Aacute.sc" unicode="&#xe002;" 
d="M217 449h72l137 -372c17 -48 20 -56 72 -59v-18h-209v18c34 1 68 2 68 30c0 15 -7 36 -14 55l-31 84h-144l-23 -58c-7 -18 -19 -48 -19 -73c0 -31 33 -34 69 -38v-18h-172v18c51 10 57 27 80 84l124 318zM242 379l-63 -163h123zM201 488h-13l62 84c35 51 59 87 93 87
c20 0 31 -14 31 -28c0 -15 -5 -31 -67 -72z" />
    <glyph glyph-name="Acircumflex.sc" unicode="&#xe003;" 
d="M217 449h72l137 -372c17 -48 20 -56 72 -59v-18h-209v18c34 1 68 2 68 30c0 15 -7 36 -14 55l-31 84h-144l-23 -58c-7 -18 -19 -48 -19 -73c0 -31 33 -34 69 -38v-18h-172v18c51 10 57 27 80 84l124 318zM242 379l-63 -163h123zM258 612l-118 -126v18l108 179h28
l106 -179v-18z" />
    <glyph glyph-name="Atilde.sc" unicode="&#xe007;" 
d="M217 449h72l137 -372c17 -48 20 -56 72 -59v-18h-209v18c34 1 68 2 68 30c0 15 -7 36 -14 55l-31 84h-144l-23 -58c-7 -18 -19 -48 -19 -73c0 -31 33 -34 69 -38v-18h-172v18c51 10 57 27 80 84l124 318zM242 379l-63 -163h123zM137 516h-11c1 16 2 51 15 74
c14 23 37 40 66 40c26 0 42 -11 75 -34c34 -24 44 -28 58 -28c39 0 43 43 44 61h11c3 -79 -40 -112 -77 -112c-24 0 -37 8 -75 34c-35 23 -42 28 -57 28c-41 0 -47 -48 -49 -63z" />
    <glyph glyph-name="Adieresis.sc" unicode="&#xe004;" 
d="M216 449h74l136 -372c17 -48 20 -56 72 -59v-18h-208v18c34 1 67 2 67 30c0 15 -7 36 -14 55l-31 84h-144l-23 -58c-7 -18 -19 -48 -19 -73c0 -31 33 -34 69 -38v-18h-172v18c51 10 57 27 80 84l124 318zM243 379l-64 -163h123zM119 560c0 24 19 44 44 44
c24 0 44 -20 44 -44c0 -25 -20 -44 -44 -44s-44 20 -44 44zM314 560c0 25 20 44 44 44c25 0 44 -20 44 -44s-20 -44 -44 -44c-23 0 -44 19 -44 44z" />
    <glyph glyph-name="Aring.sc" unicode="&#xe006;" 
d="M217 449h72l137 -372c17 -48 20 -56 72 -59v-18h-209v18c34 1 68 2 68 30c0 15 -7 36 -14 55l-31 84h-144l-23 -58c-7 -18 -19 -48 -19 -73c0 -31 33 -34 69 -38v-18h-172v18c51 10 57 27 80 84l124 318zM242 379l-63 -163h123zM170 553c0 50 41 91 91 91s91 -41 91 -91
s-41 -91 -91 -91c-49 0 -91 41 -91 91zM194 553c0 -38 30 -67 67 -67s67 30 67 67s-30 67 -67 67s-67 -30 -67 -67z" />
    <glyph glyph-name="AE.sc" unicode="&#xe001;" horiz-adv-x="677" 
d="M238 435h374l8 -97h-20c-13 72 -29 74 -70 74h-112v-179h97c44 0 54 0 61 54h18v-134h-18c-5 54 -8 58 -56 58h-102v-124c0 -49 0 -54 17 -60c10 -3 42 -3 55 -3h30c60 0 89 8 105 82h16l-9 -106h-368v17c84 9 84 22 84 63v113h-131l-47 -84c-17 -30 -25 -46 -25 -63
c0 -23 39 -27 60 -28v-18h-182v17c59 10 73 22 113 93l143 257c13 23 14 25 14 33c0 12 -19 14 -55 17v18zM342 417l-112 -199h118v199h-6z" />
    <glyph glyph-name="Ccedilla.sc" unicode="&#xe00a;" 
d="M292 -10l-23 -38c54 4 78 -40 78 -75c0 -36 -28 -86 -86 -86c-21 0 -34 5 -42 9l6 14c4 -2 15 -5 26 -5c25 0 53 19 53 52c0 5 0 36 -33 36c-22 0 -54 -16 -62 -20l68 113c-36 2 -67 7 -97 21c-77 36 -122 116 -122 202c0 129 106 238 239 238c42 0 49 -3 122 -32
c6 -2 11 -3 16 -3c12 0 16 4 21 9h16l4 -104h-15c-20 37 -59 109 -158 109c-101 0 -166 -102 -166 -221c0 -134 84 -202 156 -202c99 0 157 72 179 100h17c-15 -41 -24 -59 -56 -111c-31 2 -60 0 -96 -4c-14 -1 -32 -3 -45 -2z" />
    <glyph glyph-name="Egrave.sc" unicode="&#xe010;" horiz-adv-x="417" 
d="M167 413v-180h108c36 0 48 0 52 54h20v-135h-20c-2 55 -10 59 -59 59h-101v-143c0 -43 2 -43 45 -43h76c45 0 68 6 87 81h19l-9 -106h-361v17c64 -2 71 17 71 58v284c0 51 -15 59 -71 58v18h342l4 -95h-18c-11 66 -27 73 -76 73h-109zM247 488l-106 71
c-64 43 -67 59 -67 71c0 19 15 29 30 29c35 0 59 -35 94 -87l62 -84h-13z" />
    <glyph glyph-name="Eacute.sc" unicode="&#xe00d;" horiz-adv-x="417" 
d="M167 413v-180h108c36 0 48 0 52 54h20v-135h-20c-2 55 -10 59 -59 59h-101v-143c0 -43 2 -43 45 -43h76c45 0 68 6 87 81h19l-9 -106h-361v17c64 -2 71 17 71 58v284c0 51 -15 59 -71 58v18h342l4 -95h-18c-11 66 -27 73 -76 73h-109zM177 488h-13l62 84
c35 51 59 87 93 87c20 0 31 -14 31 -28c0 -15 -5 -31 -67 -72z" />
    <glyph glyph-name="Ecircumflex.sc" unicode="&#xe00e;" horiz-adv-x="417" 
d="M167 413v-180h108c36 0 48 0 52 54h20v-135h-20c-2 55 -10 59 -59 59h-101v-143c0 -43 2 -43 45 -43h76c45 0 68 6 87 81h19l-9 -106h-361v17c64 -2 71 17 71 58v284c0 51 -15 59 -71 58v18h342l4 -95h-18c-11 66 -27 73 -76 73h-109zM204 612l-118 -126v18l108 179h28
l106 -179v-18z" />
    <glyph glyph-name="Edieresis.sc" unicode="&#xe00f;" horiz-adv-x="417" 
d="M167 413v-180h108c36 0 48 0 52 54h20v-135h-20c-2 55 -10 59 -59 59h-101v-143c0 -43 2 -43 45 -43h76c45 0 68 6 87 81h19l-9 -106h-361v17c64 -2 71 17 71 58v284c0 51 -15 59 -71 58v18h342l4 -95h-18c-11 66 -27 73 -76 73h-109zM66 560c0 24 20 44 44 44
s44 -20 44 -44c0 -25 -20 -44 -44 -44s-44 20 -44 44zM260 560c0 25 20 44 44 44c25 0 44 -20 44 -44s-20 -44 -44 -44c-23 0 -44 19 -44 44z" />
    <glyph glyph-name="Igrave.sc" unicode="&#xe019;" horiz-adv-x="271" 
d="M243 435v-18c-72 -3 -72 -14 -72 -75v-248c0 -64 14 -72 76 -76v-18h-220v18c62 2 73 10 73 78v245c0 64 -14 72 -76 76v18h219zM187 488l-106 71c-64 43 -67 59 -67 71c0 19 15 29 30 29c35 0 59 -35 94 -87l62 -84h-13z" />
    <glyph glyph-name="Iacute.sc" unicode="&#xe016;" horiz-adv-x="271" 
d="M243 435v-18c-72 -3 -72 -14 -72 -75v-248c0 -64 14 -72 76 -76v-18h-220v18c62 2 73 10 73 78v245c0 64 -14 72 -76 76v18h219zM87 488h-13l62 84c35 51 59 87 93 87c20 0 31 -14 31 -28c0 -15 -5 -31 -67 -72z" />
    <glyph glyph-name="Icircumflex.sc" unicode="&#xe017;" horiz-adv-x="271" 
d="M243 435v-18c-72 -3 -72 -14 -72 -75v-248c0 -64 14 -72 76 -76v-18h-220v18c62 2 73 10 73 78v245c0 64 -14 72 -76 76v18h219zM134 612l-118 -126v18l108 179h28l106 -179v-18z" />
    <glyph glyph-name="Idieresis.sc" unicode="&#xe018;" horiz-adv-x="271" 
d="M243 435v-18c-72 -3 -72 -14 -72 -75v-248c0 -64 14 -72 76 -76v-18h-220v18c62 2 73 10 73 78v245c0 64 -14 72 -76 76v18h219zM-5 560c0 24 20 44 44 44s44 -20 44 -44c0 -25 -20 -44 -44 -44s-44 20 -44 44zM189 560c0 25 20 44 44 44c25 0 44 -20 44 -44
s-20 -44 -44 -44c-23 0 -44 19 -44 44z" />
    <glyph glyph-name="Eth.sc" unicode="&#xe011;" horiz-adv-x="531" 
d="M99 206h-68v23h68v115c0 66 -2 68 -43 68h-17v21c68 3 159 7 204 7c189 0 239 -121 239 -209c0 -109 -68 -174 -111 -199c-52 -32 -110 -32 -169 -32h-163v22h23c34 0 37 9 37 69v115zM280 206h-107v-141c0 -12 0 -31 1 -34c1 -6 5 -10 26 -10c50 0 81 1 113 20
c29 16 87 73 87 178c0 56 -18 168 -119 191c-42 9 -88 8 -108 7v-188h107v-23z" />
    <glyph glyph-name="Ntilde.sc" unicode="&#xe020;" horiz-adv-x="573" 
d="M28 435h123l294 -326v250c0 27 0 53 -33 56c-7 1 -37 2 -43 2v18h179v-18c-65 2 -71 -17 -71 -58v-362h-24l-323 359v-267c0 -67 12 -70 83 -71v-18h-186v18c64 -2 71 16 71 58v280c0 57 -28 59 -70 61v18zM163 516h-11c1 16 2 51 15 74c14 23 37 40 66 40
c26 0 42 -11 75 -34c34 -24 44 -28 58 -28c39 0 43 43 44 61h11c3 -79 -40 -112 -77 -112c-24 0 -37 8 -75 34c-35 23 -42 28 -57 28c-41 0 -47 -48 -49 -63z" />
    <glyph glyph-name="Ograve.sc" unicode="&#xe026;" horiz-adv-x="573" 
d="M48 223c0 154 129 229 240 229c115 0 238 -75 238 -229c0 -168 -129 -235 -239 -235c-109 0 -239 67 -239 235zM448 222c0 154 -77 213 -163 213c-103 0 -159 -99 -159 -204c0 -110 27 -154 55 -182c30 -30 66 -44 105 -44c76 0 162 57 162 217zM287 488l-106 71
c-64 43 -67 59 -67 71c0 19 15 29 30 29c35 0 59 -35 94 -87l62 -84h-13z" />
    <glyph glyph-name="Oacute.sc" unicode="&#xe023;" horiz-adv-x="573" 
d="M48 223c0 154 129 229 240 229c115 0 238 -75 238 -229c0 -168 -129 -235 -239 -235c-109 0 -239 67 -239 235zM448 222c0 154 -77 213 -163 213c-103 0 -159 -99 -159 -204c0 -110 27 -154 55 -182c30 -30 66 -44 105 -44c76 0 162 57 162 217zM247 488h-13l62 84
c35 51 59 87 93 87c20 0 31 -14 31 -28c0 -15 -5 -31 -67 -72z" />
    <glyph glyph-name="Ocircumflex.sc" unicode="&#xe024;" horiz-adv-x="573" 
d="M48 223c0 154 129 229 240 229c115 0 238 -75 238 -229c0 -168 -129 -235 -239 -235c-109 0 -239 67 -239 235zM448 222c0 154 -77 213 -163 213c-103 0 -159 -99 -159 -204c0 -110 27 -154 55 -182c30 -30 66 -44 105 -44c76 0 162 57 162 217zM284 612l-118 -126v18
l108 179h28l106 -179v-18z" />
    <glyph glyph-name="Otilde.sc" unicode="&#xe028;" horiz-adv-x="573" 
d="M48 223c0 154 129 229 240 229c115 0 238 -75 238 -229c0 -168 -129 -235 -239 -235c-109 0 -239 67 -239 235zM448 222c0 154 -77 213 -163 213c-103 0 -159 -99 -159 -204c0 -110 27 -154 55 -182c30 -30 66 -44 105 -44c76 0 162 57 162 217zM163 516h-11
c1 16 2 51 15 74c14 23 37 40 66 40c26 0 42 -11 75 -34c34 -24 44 -28 58 -28c39 0 43 43 44 61h11c3 -79 -40 -112 -77 -112c-24 0 -37 8 -75 34c-35 23 -42 28 -57 28c-41 0 -47 -48 -49 -63z" />
    <glyph glyph-name="Odieresis.sc" unicode="&#xe025;" horiz-adv-x="573" 
d="M48 223c0 98 73 229 240 229c155 0 238 -113 238 -230c0 -119 -81 -234 -239 -234c-125 0 -239 83 -239 235zM125 229c0 -110 28 -154 56 -182c30 -30 66 -44 105 -44c76 0 163 57 163 217c0 196 -122 217 -164 217c-103 0 -160 -101 -160 -208zM145 560
c0 24 19 44 44 44c24 0 44 -20 44 -44c0 -25 -20 -44 -44 -44s-44 20 -44 44zM340 560c0 25 20 44 44 44c25 0 44 -20 44 -44s-20 -44 -44 -44c-23 0 -44 19 -44 44z" />
    <glyph glyph-name="OE.sc" unicode="&#xe022;" horiz-adv-x="677" 
d="M618 435l6 -95h-19c-5 36 -14 53 -26 62c-11 9 -25 9 -40 9h-114v-177h108c34 0 45 1 49 53h18v-133h-18c-4 53 -6 57 -62 57h-95v-144c0 -38 4 -41 52 -41h64c48 0 73 10 89 81h17l-8 -107h-264c-21 0 -40 -1 -56 -1c-17 -1 -31 -2 -46 -2c-165 0 -232 127 -232 221
c0 117 91 219 227 219c36 0 88 -2 124 -2h226zM353 141v199c0 31 0 76 -81 76c-123 0 -153 -115 -153 -195c0 -121 66 -203 152 -203c82 0 82 54 82 123z" />
    <glyph glyph-name="Oslash.sc" unicode="&#xe027;" horiz-adv-x="573" 
d="M431 410l50 61l15 -11l-50 -61c51 -44 80 -109 80 -177c0 -119 -81 -234 -239 -234c-77 0 -121 27 -142 41l-62 -76l-15 12l62 76c-74 62 -83 133 -83 176c0 120 86 235 240 235c51 0 102 -12 144 -42zM158 75l247 304c-40 52 -98 56 -120 56c-90 0 -160 -78 -160 -212
c0 -14 0 -96 33 -148zM416 363l-247 -303c27 -33 65 -55 117 -55c80 0 162 60 162 214c0 16 0 89 -32 144z" />
    <glyph glyph-name="Ugrave.sc" unicode="&#xe035;" horiz-adv-x="573" 
d="M32 435h221v-18c-66 -3 -76 -17 -76 -68v-182c0 -32 0 -67 14 -93c11 -21 42 -54 111 -54c41 0 104 11 127 69c11 26 11 70 11 99v148c0 68 0 79 -77 81v18h179v-18c-66 2 -72 -17 -72 -58v-180c0 -30 0 -80 -18 -116c-31 -63 -112 -78 -163 -78c-38 0 -128 6 -168 78
c-15 27 -15 68 -15 92v196c0 53 -1 62 -74 66v18zM307 488l-106 71c-64 43 -67 59 -67 71c0 19 15 29 30 29c35 0 59 -35 94 -87l62 -84h-13z" />
    <glyph glyph-name="Uacute.sc" unicode="&#xe032;" horiz-adv-x="573" 
d="M32 435h221v-18c-66 -3 -76 -17 -76 -68v-182c0 -32 0 -67 14 -93c11 -21 42 -54 111 -54c41 0 104 11 127 69c11 26 11 70 11 99v148c0 68 0 79 -77 81v18h179v-18c-66 2 -72 -17 -72 -58v-180c0 -30 0 -80 -18 -116c-31 -63 -112 -78 -163 -78c-38 0 -128 6 -168 78
c-15 27 -15 68 -15 92v196c0 53 -1 62 -74 66v18zM287 488h-13l62 84c35 51 59 87 93 87c20 0 31 -14 31 -28c0 -15 -5 -31 -67 -72z" />
    <glyph glyph-name="Ucircumflex.sc" unicode="&#xe033;" horiz-adv-x="573" 
d="M32 435h221v-18c-66 -3 -76 -17 -76 -68v-182c0 -32 0 -67 14 -93c11 -21 42 -54 111 -54c41 0 104 11 127 69c11 26 11 70 11 99v148c0 68 0 79 -77 81v18h179v-18c-66 2 -72 -17 -72 -58v-180c0 -30 0 -80 -18 -116c-31 -63 -112 -78 -163 -78c-38 0 -128 6 -168 78
c-15 27 -15 68 -15 92v196c0 53 -1 62 -74 66v18zM304 612l-118 -126v18l108 179h28l106 -179v-18z" />
    <glyph glyph-name="Udieresis.sc" unicode="&#xe034;" horiz-adv-x="573" 
d="M32 435h221v-18c-66 -3 -76 -17 -76 -68v-182c0 -32 0 -67 14 -93c11 -21 42 -54 111 -54c41 0 104 11 127 69c11 26 11 70 11 99v148c0 68 0 79 -77 81v18h179v-18c-66 2 -72 -17 -72 -58v-180c0 -30 0 -80 -18 -116c-31 -63 -112 -78 -163 -78c-38 0 -128 6 -168 78
c-15 27 -15 68 -15 92v196c0 53 -1 62 -74 66v18zM166 560c0 24 20 44 44 44s44 -20 44 -44c0 -25 -20 -44 -44 -44s-44 20 -44 44zM360 560c0 25 20 44 44 44c25 0 44 -20 44 -44s-20 -44 -44 -44c-23 0 -44 19 -44 44z" />
    <glyph glyph-name="Yacute.sc" unicode="&#xe03a;" 
d="M19 435h212v-18c-40 -2 -43 -2 -48 -6c-4 -3 -6 -8 -6 -12c0 -8 14 -31 23 -46l94 -142l78 135c11 19 23 40 23 53c0 17 -23 18 -53 18v18h159v-18c-54 -1 -57 -7 -86 -55l-107 -185v-88c0 -58 5 -71 49 -71h28v-18h-225v18h22c54 0 55 7 55 68v91l-129 195
c-27 41 -30 45 -89 45v18zM261 488h-13l62 84c35 51 59 87 93 87c20 0 31 -14 31 -28c0 -15 -5 -31 -67 -72z" />
    <glyph glyph-name="Thorn.sc" unicode="&#xe030;" horiz-adv-x="375" 
d="M151 93v-25c0 -40 3 -47 36 -47h33v-21h-194v20h21c28 0 28 4 28 66v275c0 53 -1 53 -31 53h-27v21h183v-20h-21c-28 0 -28 -8 -28 -38v-27c46 1 79 -2 105 -8c17 -5 91 -30 91 -117c0 -69 -47 -135 -158 -135c-17 0 -27 1 -38 3zM151 329v-215c6 -1 11 -2 22 -2
c70 0 96 65 96 115c0 103 -65 103 -96 103c-10 0 -16 -1 -22 -1z" />
    <glyph glyph-name="Ydieresis.sc" unicode="&#xe03b;" 
d="M19 435h212v-18c-40 -2 -43 -2 -48 -6c-4 -3 -6 -8 -6 -12c0 -8 14 -31 23 -46l94 -142l78 135c11 19 23 40 23 53c0 17 -23 18 -53 18v18h159v-18c-54 -1 -57 -7 -86 -55l-107 -185v-88c0 -58 5 -71 49 -71h28v-18h-225v18h22c54 0 55 7 55 68v91l-129 195
c-27 41 -30 45 -89 45v18zM140 560c0 24 20 44 44 44s44 -20 44 -44c0 -25 -20 -44 -44 -44s-44 20 -44 44zM334 560c0 25 20 44 44 44c25 0 44 -20 44 -44s-20 -44 -44 -44c-23 0 -44 19 -44 44z" />
    <glyph glyph-name="uni03A9" unicode="&#x3a9;" horiz-adv-x="641" 
d="M610 122l-21 -122h-204l-5 16c39 74 120 193 119 329c-1 195 -90 266 -180 266c-96 0 -178 -74 -178 -270c0 -131 69 -241 118 -325l-7 -16h-202l-20 122l20 1c19 -60 33 -70 67 -70h95c-54 51 -147 145 -147 294c0 177 113 290 256 290c147 0 254 -106 254 -283
c0 -132 -87 -234 -150 -301h97c38 0 48 7 67 70z" />
    </font>
</defs>
</svg>
